<svg xmlns="http://www.w3.org/2000/svg" width="12.226" height="10.596" viewBox="0 0 12.226 10.596">
  <g id="Group_6187" data-name="Group 6187" transform="translate(-114.256 -228.136)">
    <g id="cash" transform="translate(114.256 228.136)">
      <path id="Path_56747" data-name="Path 56747" d="M26.938,275.532H17.215a.443.443,0,0,1,0-.883h9.723a.443.443,0,0,1,0,.883Zm-.81,1.325h-8.1a.443.443,0,0,1,0-.883h8.1a.443.443,0,0,1,0,.883ZM16.405,272H16v1.325a.849.849,0,0,0,.81.883h1.215v-.441A1.7,1.7,0,0,0,16.405,272Z" transform="translate(-16 -266.26)" fill="#033"/>
      <path id="Path_56748" data-name="Path 56748" d="M27.819,68.857h.408V67.091h-.408a2.556,2.556,0,0,1-2.445-2.649V64H18.853v.441a2.556,2.556,0,0,1-2.445,2.649H16v1.766h.408a2.556,2.556,0,0,1,2.445,2.649v.442h6.521v-.442A2.556,2.556,0,0,1,27.819,68.857Zm-5.706,1.766a2.658,2.658,0,1,1,2.445-2.649A2.553,2.553,0,0,1,22.113,70.623Z" transform="translate(-16 -64)" fill="#033"/>
      <circle id="Ellipse_227" data-name="Ellipse 227" cx="1.528" cy="1.528" r="1.528" transform="translate(4.585 2.445)" fill="#033"/>
      <path id="Path_56749" data-name="Path 56749" d="M26.189,71.506v.442h1.223a.851.851,0,0,0,.815-.883V69.74h-.408A1.7,1.7,0,0,0,26.189,71.506Zm1.63-5.3h.408V64.883A.851.851,0,0,0,27.411,64H26.189v.441A1.7,1.7,0,0,0,27.819,66.208Zm-9.781-1.766V64H16.815a.851.851,0,0,0-.815.883v1.325h.408A1.7,1.7,0,0,0,18.038,64.441Z" transform="translate(-16 -64)" fill="#033"/>
    </g>
  </g>
</svg>
