<svg id="Layer_1" data-name="Layer 1" xmlns="http://www.w3.org/2000/svg" width="503.979" height="520.226" viewBox="0 0 503.979 520.226">
  <path id="Path_532" data-name="Path 532" d="M453.654,0c-3.25,1.41-3.74,4.15-3.45,7.24a3.906,3.906,0,0,0,.08.61c2.24,7.91-1.29,12.86-7.91,16.8-9,5.33-17.75,10.92-26.18,17.08-3.25,2.38-6.93,4.18-10.35,6.33-3.75,2.35-4.37,5.66-1.08,8.53,6.05,5.27,11.95,10.7,18.05,15.9,4,3.4,5.25,3,8.7-.55,6.94-7.09,15.81-11.71,23.78-17.5,6.11-4.44,12.69-8.44,18.98-12.67a10.48,10.48,0,0,0,4.47-5.26c.4-1.21-2.77-11.95-3.9-12.37a4.585,4.585,0,0,1-3.19-4.44c-.24-2.39-2.35-2.88-4.27-3.17s-2.51-1.25-2.8-3.2c-.8-5.44-2.73-10.33-7.87-13.33Zm.75,4.45c3.22-.57,4.37,1.61,5.39,3.9,1.12,2.55,1.23,5.34,1.67,8,.74,4.59.74,4.59,5.45,4a2.486,2.486,0,0,1,.62.25c.81,1.91-1.35,3.77-.37,5.56,1.2,2.19,3.61.36,5.29,1.18.21,1.16-.68,1.93-.86,2.91-.23,1.2-.1,2.16,1.27,2.71,3.06,1.24,3.16,1.69.52,3.75-5.29,4.14-11,7.68-16.62,11.31-1.65,1.07-2.58.53-3.86-.77-4.34-4.43-7.4-10-12.09-14.09-1-.86-1-1.83.39-2.69,2.32-1.46,4.49-3.14,6.76-4.68,5.58-3.78,7.64-9,6.63-15.61a14.62,14.62,0,0,1-.19-5.73ZM407.734,52.1c3.5-2.21,6.92-4.34,10.3-6.54,3.58-2.31,6.89-5,10.63-7.09,1.22-.68,2-.86,2.76.42a90.2,90.2,0,0,0,11.34,15.37c1.35,1.41,1.21,2.69-.58,3.64-4.6,2.47-8.48,5.93-12.41,9.29-2.12,1.81-3.82,1.79-5.83-.09-4.51-4.22-8.79-8.72-14.06-12.07a4.63,4.63,0,0,1-2.15-2.93Zm39.34,1.9c-2.46-4.58-6.11-8-9.05-12-1.2-1.64-2.41-3.29-3.5-5a1.85,1.85,0,0,1,.38-2.72c1.24-1,1.83,0,2.51.73,1.38,1.47,2.71,3,4.09,4.46,3.46,3.67,6.55,7.69,9.74,11.52-1.2,1.5-2.53,2.06-4.17,3Z" transform="translate(-377.422)" fill="#0e8c80"/>
  <path id="Path_533" data-name="Path 533" d="M259.053,163.56V150.22c9.31,1.35,18.39.46,27.44.7h3.68c10.47-.17,13.54-2.76,16-13,1.73-7.15,2.85-14.42,4.61-21.54,3.77-15.25,4.89-30.94,8.06-46.28.91-4.4,2.15-8.73,2.32-13.52a78.11,78.11,0,0,0,18.3-2.11,35.9,35.9,0,0,0,15-7.14c4.36-3.68,2.66-9.26-3.66-11.55,1.73-3.29,3.11-6.84,1.64-10.42-1.87-4.57-6.1-2.86-9.79-2.85.4-2.3,1.75-4.16,2-6.4.49-5-1.5-7.86-6.43-8.6a18.78,18.78,0,0,0-15,4.71c-4.87,4.2-9.63,4.32-15.4,3.32-16.67-2.9-33.17-6.77-49.94-9.13-14.73-2.07-29.55-3.11-44,1.11-5.29,1.54-9.93,5.39-13.65,9.77-8.29,9.78-13.51,21.07-16.9,33.42a40.47,40.47,0,0,0-1.24,17.06c.23,1.51-.42,2.4-1.37,3.45a18,18,0,0,0,.12,24.94,21.369,21.369,0,0,0,4.44,3.16c1.69,1.08,1.91,2.19,1.49,4-3.29,14.56-7.9,28.8-10.41,43.55a26,26,0,0,0-.78,4.2c0,3.91-2.2,5.13-5.67,5.48-4.24.42-8.46,1.18-12.9,1.83-1.13-1.41-1.67-3.33-3.06-4.83-3.38-3.67-9.22-5.28-13.63-3.33-1.68.75-1.55,2.24-1.62,3.63-.12,2.23.88,4.41.48,6.54-8.12,2.65-16.08,5.48-24.17,7.85a381.2,381.2,0,0,0-46.73,16.87,58.912,58.912,0,0,0-10.6,6.62c-7.22,5.23-11.69,12.45-15.92,20.12-5.62,10.2-6.42,21.28-7.22,32.41-2.34,32.33.24,64.49,4.16,96.56,2.07,16.93,3.76,33.94,7.44,50.64a105.991,105.991,0,0,0,4.5,15.23c3.36,8.73,8.09,16.69,15,23,9,8.32,20.1,11.3,32.2,10.29,3.12-.26,5.22-2,6.61-5.39,1.62-3.94,4.48-7.46,7.23-10.81,1.16-1.41,1.54-3.42,3.49-4.64a198.481,198.481,0,0,1,2.1,28.19c.34,17.56,2,35.05,2.18,52.64,0,5.58.21,11.18,0,16.77-.09,2.61.82,3.57,3.58,3.48q59.82-1.78,119.64-3.41,46.83-1.27,93.64-2.41c2.7-.06,3.78-1.26,3.79-3.85,0-1.73.26-3.45.33-5.18.05-1.28.34-2.6-1.27-3.4-1.05-.53-.71-1.83-.77-2.81q-1.89-34.56-3.73-69.13-.84-15.6-1.66-31.2c-.05-1.08,0-2.16,0-4.22,4.14,5.14,8.62,8.71,12.75,12.66,8.47,8.08,17.89,14.78,29.19,18.32,12.44,3.91,23.58,1.55,33.75-6.8,6.28-5.15,10.59-11.67,15.1-18.21,6.48-9.4,10-20.08,14.63-30.35,5.86-13.15,8.93-27.18,13.67-40.66,5.87-16.72,10.1-33.92,15.5-50.76,5.04-15.81,8.25-32.05,11.23-48.36a5.45,5.45,0,0,1,3.81-4.78,45.169,45.169,0,0,0,14.81-10c4.62-4.46,2.5-11.49-4.08-13.85,1-2.57,3.49-4.43,3.79-7.34.37-3.63-2.5-4.61-4.91-6,3.06-5.58,1.27-12.36-7.56-13.72,4.32-2.33,8-4.36,11.69-6.29a15.15,15.15,0,0,0,7-6.57c1.63-3.27-.15-6.23-3.81-6.36a18.7,18.7,0,0,0-5.47.45c-11.17,2.89-22,6.52-31.95,12.64-5.9,3.64-10.27,8.23-12.51,15-2.77,8.41-5.66,16.83-9.24,24.92-5.22,11.81-8.7,24.26-13.77,36.1-4.68,10.9-9.09,22-14.46,32.51s-9.25,21.64-14.34,32.23-8.56,21.46-12.7,32.25c-.13.34-.34.66-.68,1.3a138.358,138.358,0,0,1-5-21.75c-3.08-18.31-5.71-36.74-10.08-54.77-4.11-17-7.33-34.26-14-50.5-2.62-6.41-5.4-12.88-9.45-18.62a22.59,22.59,0,0,0-8-7.27c-13.2-7-27.44-11.29-41.52-16-5.4-1.8-10.65-4-16.11-5.67-7-2.15-13.91-4.54-21.27-4.89Zm67,92.76c-1.81-2.48-.92-5.34-1.13-8-.34-1.7-.61-3.41-1-5.08-.28-1.1-.82-2.34-2.19-2.16-1.57.21-1.63,1.69-1.59,2.89.07,2.24.43,4.48.46,6.71.13,11,0,22.07.31,33.1.92,29.62,2.22,59.22,5.11,88.75,2,20.32,2.88,40.75,4.21,61.13.15,2.28.64,4.6.16,6.31-28.08,2.05-55.86,3.33-83.75,2.56-1.91-22.19-2.79-44.22-3.7-66.26-1.43-34.76-.92-69.59-3.63-104.32-1.08-13.84-1.35-27.75-2.67-41.58a15.43,15.43,0,0,1,2.55-10.11,49,49,0,0,0,3.62-7.25c2.16-5,4.16-10,6.29-14.94.33-.76.29-1.85,1.29-2.14,5.25,3.88,11,6.65,16.61,9.8,4,2.26,5.2,1.63,6.48-2.78,2.34-8,4.78-16,7.19-24,.38-1.27.91-2.51.48-3.88-.12-.22-.4-.52-.34-.64.24-.43.6-.19.91,0,1.56.45,3.15.82,4.68,1.38,9,3.3,17.95,6.6,27.16,9.29,6.73,2,13.49,4,19.6,7.63s11.49,7.62,14,14.64c2.86,7.92,5.29,16,7.89,24,6.23,19.07,9.66,38.89,14.29,58.39,3.64,15.37,6,31.05,8.93,46.6.91,4.81,1.93,9.6,2.8,14.42a2.87,2.87,0,0,0,2.56,2.22,1.45,1.45,0,0,0,1.86-1.18c.14-2.83,2.62-4.61,3-7.36.3-2.07,1.33-4,2.1-6.25a403.908,403.908,0,0,0,45.93,24.18,171,171,0,0,1-15.68,35.08,68.092,68.092,0,0,1-14.38,17.63,33.72,33.72,0,0,1-14.18,7.44c-11,2.58-20.56-1.06-29.42-7-6.59-4.42-12.81-9.42-17.77-15.72-3.59-4.56-7-9.26-10.38-14-1-1.35-2.35-2.35-2.51-4.38-1.37-16.9-2.65-33.8-3.66-50.73-1.47-24.77-2.1-49.58-2.42-74.39Zm-123.92-63.17c5.32,7.13,11.4,13.3,17,19.89a64.3,64.3,0,0,0,7.47,7.57c2.87,2.43,6.1,4.48,6.38,9.34,1.32,23.15,2.72,46.29,3.54,69.46.88,24.8,2.07,49.59,1.83,74.42a176.771,176.771,0,0,0,1.81,26.36c1.34,9.48,1.45,19.13,2.09,28.71.3,4.53.58,9.06.88,13.79-40.77-.09-81.14,2.81-121.59-1.2a219.711,219.711,0,0,0-3.28-27.82,5.23,5.23,0,0,1,.61-3.21c2.66-5.9,5-11.94,7.72-17.81,5.67-12,9.66-24.79,15.07-37,5.33-12,8.89-24.63,13.71-36.83,5.78-14.65,9.46-30,14.4-45,3.13-9.47,5.08-19.34,7.54-29,.33-1.32.62-2.46,2.19-3,6.79-2.13,12.58-6.15,18.5-9.92,7.21-4.58,7.43-10.17.61-15l-.2-.23c5.94-7.62,4.23-12.14-5.4-14.08l1.86-3.81c.93.45,2.88.69,2.88.13,0-3.17,3.42-3.34,4.4-5.84Zm-72.42,177.2c-3,7.85-6.65,15.55-9.4,23.62a117.091,117.091,0,0,1-11.83,25.3c-2.64,4.14-5.2,8.35-8.87,11.66s-7.43,5-12.7,4a36.83,36.83,0,0,1-24.25-15.54,73.75,73.75,0,0,1-11.75-26.85c-6-28.39-7.8-57.31-11-86.05-.87-7.91-1.32-15.89-1.48-23.85-.36-18.3-1.8-36.6,2.67-54.76,3.45-14,9.87-25.52,22.33-33.28a119.939,119.939,0,0,1,18.51-9.37c13.51-5.45,27.42-9.77,41.27-14.28,5.38-1.75,10.8-3.43,16.59-5.27,0,3,.08,5.68,0,8.31-.42,13-.18,26-3.14,38.71-3.27,14-6.65,28.05-11.75,41.63-3.86,10.3-7,20.89-10.88,31.2-.24.64-.16,1.6-1.49,1.93.36-7.07-1.5-13.76-2.2-20.6-.51-5-1.29-9.92-2.09-14.85-.2-1.27-.78-2.71-2.55-2.5s-1.82,1.66-1.68,3c1.46,14.11,2.88,28.23,4.43,42.34a9.53,9.53,0,0,1-.63,5c-4.41,10.36-8.63,20.81-13.56,30.95-3.38,7-6.27,14.2-10.1,20.93-1.62,2.86-2.86,6.37-7.07,7-1.72.26-3.31,1.54-4.9,2.44s-3.38,2.21-2.06,4.34,3,1,4.55.06c1.05-.64,2.06-1.33,3.59-2.32-.45,1.51-.67,2.38-1,3.23-1.26,3.56-2.52,7.11-3.81,10.66-.51,1.39-.2,2.45,1.2,3s2.08-.39,2.58-1.5c.43-.93.88-1.85,1.23-2.81a173.383,173.383,0,0,1,10.76-23.42l40.42,17.91ZM318.333,49.74l-1.4,9.68a8.531,8.531,0,0,1-1.15,0,47.35,47.35,0,0,0-29.15,4.27c-1.12.54-2.28,1-2.25,2.52a3.14,3.14,0,0,0,1.8,2.64c1.23.88,2.52.66,3.82.42,3.91-.7,7.81-1.48,11.73-2.15a48.77,48.77,0,0,1,13.75-.89c-.83,4.6-1.61,9-2.6,14.4-4.21-6.55-9.81-8.38-16.42-7.58s-12,3.69-14.3,10.4c3.34,5.44,7.92,8.65,14.56,8.35,6.1-.27,11.5-2,15.36-8,.5,3-1,4.49-1.27,6.33-.94,6.88-2,13.74-3.06,20.6-1.51,9.68-3.11,19.36-5.49,28.87-1.33,5.32-3.43,6.91-8.86,7.06-11.61.31-23.24,1-34.79-1-2-.34-3.13.35-3.17,2.52-.07,3.88-.07,7.77-.32,11.64-.35,5.36-.17,10.57-2.37,15.94-6,14.58-11.08,29.5-18.13,43.63-.35.72-.73,1.44-1.06,2.09-9-7.28-16-16.3-23.51-24.75-5.74-6.43-10.8-13.47-16.13-20.26-4.29-5.47-7.59-11.57-12.29-16.66a7.27,7.27,0,0,1-1.84-7.27c1.28-5,2.05-10,3.44-15,3.15-11.3,5.47-22.82,8.08-34.26.68-2.94.08-5.33-2.83-7-1.82-1-3.2-2.83-4.92-4.1-3.74-2.77-4.72-6.46-3.68-10.77,1.15-4.76,4-8.2,8.71-9.69,3.54-1.11,5.62.31,5.87,4,.61,8.87,2.92,17.38,5.06,25.93.91,3.64,2.52,4.87,6.28,5.05.92,0,1.84.07,2.75.13,2.32.15,3.47-.69,3.73-3.24A578.084,578.084,0,0,0,215.193,43c0-2.94,1.1-3.89,3.76-4.29a145.472,145.472,0,0,1,21-1.7c26.79,0,52.47,6.83,78.34,12.73ZM190.783,196.32c-.63,2.88-2.53,4.55-4.7,6-1.86,1.21-3.83,2.26-5.7,3.45a2.2,2.2,0,0,0-1,2.9,2.5,2.5,0,0,0,2.72,1.59,20.859,20.859,0,0,0,3.54-.82c2.82-.89,5.63-1.86,8.65-1.76.88,0,2-.17,2.45.83s-.25,1.75-.77,2.48c-2,2.78-5,4.11-7.92,5.53-1.57.76-3.22,1.86-2.46,4s2.79,1.72,4.46,1.34c2.29-.52,4.52-1.18,6.92-.58.9.23,1.95.18,2.19,1.26a2.3,2.3,0,0,1-1.22,2.31c-5.29,3.56-10.27,7.65-16.62,9.37a28,28,0,0,0-5.58,2.47c-1.61.85-2.68,2.08-2.36,4.19a7.2,7.2,0,0,1-.49,3c-1.62,5.31-3.08,10.66-4.82,15.94-5.06,15.33-8.7,31.1-14.6,46.19-2.9,7.39-5,15.09-7.5,22.64-.85,2.56-1.78,5.1-2.75,7.86-13-6.37-26.67-9.66-40.12-13.86,3.45-8,6.81-15.54,10.41-23,5.06-10.52,8.68-21.65,13-32.47,6.59-16.38,10.41-33.64,14.4-50.78,3.08-13.23,4-26.83,3.9-40.46,0-7.13-.74-14.21-1.43-21.28,5.42-.74,7.63.45,8.84,5.24,1.87,7.34,3.48,14.74,5.18,22.05a16,16,0,0,1-3.48,1.73c-1.75.92-3.07,2.28-1.89,4.45s3.25,2.43,4.89,1c2.54-2.23,5.83-3.2,8.63-4.57a25.4,25.4,0,0,1,15.95-2.2,4.24,4.24,0,0,1-1.46,3.46,36.021,36.021,0,0,1-3.24,2.79c-.95.77-2,1.43-2.91,2.24a3.26,3.26,0,0,0-.7,4.18c.89,1.85,2.47,1.81,4.19,1.41,4.44-1,8.89-2.33,13.38,0Zm309.43-36.64a5.5,5.5,0,0,1-2.7,3.07c-5.05,2.84-10.14,5.6-15.24,8.33a18.81,18.81,0,0,0-4.64,3.42c-1,1.06-1.83,2.25-1.15,3.84s2.08,1.45,3.4,1.42a68.689,68.689,0,0,1,7-.18c3.29.28,4.22,2.78,2.25,5.41-1.59,2.14-4,3.13-6.18,4.41-1.14.68-2.25,1.26-1.82,2.72s1.91,1.74,3.26,1.58c1.51-.18,3-.64,4.49-.9s3-.53,4.34.67a6.74,6.74,0,0,1-2.41,4.16c-1.69,1.63-3.48,3.15-5.12,4.83-.83.84-1.79,1.82-1,3.21s1.93,1.39,3.21,1.18,2.81-.58,4.22-.7c2.75-.24,3.83,1.12,3,3.76-.73,2.23-2.45,3.71-4.22,5.12-3.8,3-8.24,4.86-12.65,6.69a5.58,5.58,0,0,0-3.62,4.51c-2.56,11.8-4.76,23.67-7.78,35.4-5.12,19.92-10.81,39.65-17.22,59.17-1.25,3.81-2.29,7.69-3.56,12-13.8-9.57-28.35-16.73-43.71-22.72,3.68-7.66,6.47-14.9,10.07-21.85,5.22-10.08,9.07-20.82,13.9-31.12,5.73-12.21,10.52-24.88,15.38-37.48,3.85-10,7.3-20.13,10.7-30.29,2.51-7.47,6.52-13.64,13.57-17.5,1.6-.88,3.27-1.63,4.89-2.46,9.14-4.69,18.94-7.35,29.36-9.67Zm-62.27,197.8c-4.7-1.42-42.75-21.79-45.42-24.32,2.11-6.68,6.16-12.48,8.1-18.64a295.475,295.475,0,0,1,44.23,22.77c-2.18,6.68-3.41,13.82-6.91,20.19ZM101.533,327c13.24,5.45,27.23,7.46,39.8,13.82-4.45,8-6.55,17-10,25.16-4.26-2-8.44-3.79-12.52-5.8-7.11-3.52-14.19-7.06-21.8-9.42a9.27,9.27,0,0,1-5.1-3.43c2.74-7.05,7.2-13.07,9.66-20.33ZM269.4,202c-6.26-3.3-11.48-7.78-18.12-10,2.69-8.09,6.93-15.14,9-23.09A84.9,84.9,0,0,1,277.86,173C275.05,182.61,272.3,192.05,269.4,202Zm-69.35-11.23-6.22,3.18a9.81,9.81,0,0,0-4.4-2.78c-1.75-.53-3.58-.3-5.31-.55-.14-1,.51-1.47.85-2.06,3.48-6.23,1.84-9.84-5.14-11.11a23.2,23.2,0,0,0-4.57-.25,49.391,49.391,0,0,0-10.627,1.8c-.46-5-.88-9.73-1.36-14.5-.17-1.73.32-2.59,2.23-2.76,3.14-.29,6.26-.86,9.38-1.32a2.62,2.62,0,0,1,2.67,1c7.63,9.57,14.23,19.93,22.53,29.32ZM308.35,80.64c-2.16,4.73-5.74,6.86-10.34,6.27a9.78,9.78,0,0,0-1.377-9.57c4.28-.59,8.25,0,11.67,3.3ZM138.633,481.17a6.39,6.39,0,0,1,1.48-3.92c1.33-1.34,2-3,3-4.48,1.34-2,2.56-4.15,3.93-6.16.51-.76,1.29-1.39,2.33-.84a1.57,1.57,0,0,1,.72,2.33c-2.71,4.76-5.47,9.49-8.23,14.22a1.78,1.78,0,0,1-2.14.76c-1-.23-1.14-1-1.08-1.91Zm97.81-458.83a3.36,3.36,0,0,1,1-2.4c2.41-2.37,5.49-3.7,8.4-5.28.82-.44,1.55,0,2,.82a1.57,1.57,0,0,1-.38,2.18c-2.72,2.07-5.44,4.16-8.24,6.13-2,1.41-2.31-.31-2.74-1.45Zm66,434.6c.44-1.29,1.31-1.88,2.67-1a101.554,101.554,0,0,0,9,5.64,3.4,3.4,0,0,1,1.17,1.36c.42.72.69,1.52-.06,2.22a1.61,1.61,0,0,1-2,.07,40.817,40.817,0,0,1-9-5.66,5.25,5.25,0,0,1-1.82-2.63Zm-56-432.42a2.24,2.24,0,0,1,.82-2.11c2.62-2.06,5-4.4,8.28-5.55,1.15-.4,2.15-.8,2.91.47.87,1.45-.1,2.25-1.17,3-2.76,1.85-5.8,3.25-8.41,5.38-1.4,1.14-2.14,0-2.43-1.16Zm21.64-6.08c1.82-.21,2.47.26,2.81,1.07a1.81,1.81,0,0,1-.65,2.44q-4.17,2.51-8.44,4.88a1.56,1.56,0,0,1-2-.32,1.62,1.62,0,0,1-.22-2.23c2.34-3.17,5.81-4.62,8.47-5.84Zm48.67,12.3c-1.22.14-2,.1-2.47-.79a1.56,1.56,0,0,1,.52-2.16c2.56-1.45,5.19-2.78,7.83-4.08.91-.45,1.55.18,2,.92a1.39,1.39,0,0,1-.19,1.95c-2.54,1.67-5.05,3.41-7.68,4.16Zm7.49,9.38a2.3,2.3,0,0,1,.9-2.11c2-1.11,3.88-2.55,6.14-3.24,1-.32,2.07-.52,2.66.59a2,2,0,0,1-.84,2.86,51.728,51.728,0,0,1-5.78,3.29C325.933,42.13,324.513,41.81,324.243,40.12Zm-190.3,427.05c1.12-2.68,2.23-5.65,4.58-7.85a2,2,0,0,1,2.54.19,1.58,1.58,0,0,1,.2,2.44c-2.05,1.77-2.87,4.29-4.24,6.46a1.56,1.56,0,0,1-1.76.9c-.89-.27-1.21-1-1.32-2.14ZM325.693,29.28a1.79,1.79,0,0,1,2,1.2A1.87,1.87,0,0,1,326.5,33a23.41,23.41,0,0,0-4.62,2.82,1.84,1.84,0,0,1-2.68-2.5c1.61-2.24,4-3.22,6.49-4Z" transform="translate(-33.653)" fill="#262123"/>
  <path id="Path_534" data-name="Path 534" d="M131.238,82.7a40.61,40.61,0,0,0,2.58,9.86c.87,2.25.3,3.59-1.62,4.82a60.061,60.061,0,0,0-5.62,4.17c-1.19,1-2.31,2.24-1.85,3.92s2.18,1.37,3.39,1.4a30.13,30.13,0,0,0,9.6-1.44c2.71-.82,4.39-.2,5,2.93.57,2.85,1.18,5.78,2.85,8.3,2,3,3.61,2.9,5.22-.26a39.17,39.17,0,0,0,2.86-8.32c.59-2.35,1.86-3.24,4.26-3.41,3.83-.29,7.71-.37,11.41-1.7,1-.36,2-.5,2.2-1.73s-.72-1.81-1.57-2.4a57.111,57.111,0,0,0-9.7-5.68c-1.76-.76-2.3-1.83-1.84-3.85a28.41,28.41,0,0,0,.9-8.77c-.25-3-1.52-3.82-4.22-2.55-3.49,1.63-6.07,4.43-8.53,7.28-1.33,1.54-2.13,2.11-4.21.75-2.49-1.62-4.49-3.81-7-5.32-.94-.56-1.93-1.35-3.11-.82s-.85,1.91-1,2.82Z" transform="translate(207.813)" fill="#facd2b"/>
  <path id="Path_535" data-name="Path 535" d="M57.366,28.73c-.5,3.65,2.36,6.15,4,9,2.1,3.8,4.75,7.28,6.22,11.44.53,1.48,1.74,2.87,3.11,1.2,3.89-4.75,9.03-8.37,12.43-13.62,2.09-3.21,3.48-6.75,1.23-10.55a5.46,5.46,0,0,0-7.81-2.2,10.13,10.13,0,0,0-2,1.37c-2.07,1.88-3.6,2-5.2-.77-1.91-3.31-4.77-4.57-7.23-3.82-2.67.81-4.72,4.15-4.75,7.91Z" transform="translate(361.165)" fill="#c45c6e"/>
  <path id="Path_536" data-name="Path 536" d="M7,147.54c2.52-1,5.05-2,7.52-3.12a1.6,1.6,0,0,0,.67-2.13,2,2,0,0,0-2.4-1.4,53.079,53.079,0,0,0-6.67,2,2.34,2.34,0,0,0-1.53,3A2.4,2.4,0,0,0,7,147.62Z" transform="translate(484.165)" fill="#262123"/>
  <path id="Path_537" data-name="Path 537" d="M4.062,155.23a21.6,21.6,0,0,0,5.48-.63c1.19-.37,2.09-.81,1.89-2.28a2,2,0,0,0-2.13-1.76,21.11,21.11,0,0,0-8.05,1.54A1.69,1.69,0,0,0,.1,154.3a1.72,1.72,0,0,0,2.18,1.17c.7-.14,1.41-.19,1.78-.24Z" transform="translate(492.52)" fill="#262123"/>
  <path id="Path_538" data-name="Path 538" d="M380.059,122.81c0,.76-.05,2,0,3.2.06,1.43,1.18,1.88,2.3,2,1.33.14,1.76-1,1.85-2a26.731,26.731,0,0,0-.22-7.31c-.19-1-.66-1.92-2-1.79s-1.66,1-1.73,2.09-.13,2.24-.21,3.82Z" transform="translate(-260.417)" fill="#262123"/>
  <path id="Path_539" data-name="Path 539" d="M405.922,129.5a2.4,2.4,0,0,0,1.83,2.17l7,2.83c.77.31,1.54.66,2.19-.19a1.76,1.76,0,0,0-.37-2.47c-2.5-2.48-5.88-3-9.09-3.84-.83-.21-1.48.54-1.6,1.5Z" transform="translate(-319.19)" fill="#262123"/>
  <path id="Path_540" data-name="Path 540" d="M5.987,166.26c1,0,2,.08,3,0,1.19-.12,2.15-.58,2.08-2.07A2.16,2.16,0,0,0,8.957,162a12.61,12.61,0,0,0-6.74,1.37,1.33,1.33,0,0,0-.81,1.74,1.56,1.56,0,0,0,1.55,1.22h3v-.1Z" transform="translate(491.596)" fill="#262123"/>
  <path id="Path_541" data-name="Path 541" d="M395.746,123.07a24.368,24.368,0,0,0,2.63,6.25c.46.86,1.36.83,2.16.65,1.1-.23.94-1.12.91-1.94-.07-2.69-1.75-4.59-3.17-6.6a1.36,1.36,0,0,0-1.89-.43c-.78.41-.69,1.16-.64,2.07Z" transform="translate(-293.206)" fill="#262123"/>
  <path id="Path_542" data-name="Path 542" d="M420.394,4.45a14.62,14.62,0,0,0,.19,5.79c1,6.59-1.05,11.83-6.63,15.61-2.27,1.54-4.44,3.22-6.76,4.68-1.37.86-1.36,1.83-.39,2.69,4.69,4.14,7.75,9.66,12.09,14.09,1.28,1.3,2.21,1.84,3.86.77,5.64-3.63,11.319-7.17,16.64-11.31,2.64-2.06,2.54-2.51-.52-3.75-1.37-.55-1.5-1.51-1.27-2.71.18-1,1.07-1.75.86-2.91-1.68-.82-4.09,1-5.29-1.18-1-1.79,1.18-3.65.37-5.56-.26-.1-.45-.27-.62-.25-4.71.58-4.71.58-5.45-4-.44-2.71-.55-5.5-1.67-8-1-2.29-2.17-4.47-5.39-3.9Z" transform="translate(-343.413)" fill="#fff"/>
  <path id="Path_543" data-name="Path 543" d="M437.757,52.1a4.63,4.63,0,0,0,2.15,2.9c5.27,3.35,9.55,7.85,14.06,12.07,2,1.88,3.71,1.9,5.83.09,3.93-3.36,7.81-6.82,12.41-9.29,1.79-.95,1.93-2.23.58-3.64a90.2,90.2,0,0,1-11.36-15.34c-.8-1.28-1.54-1.1-2.76-.42-3.74,2.08-7.05,4.78-10.63,7.09-3.38,2.2-6.8,4.33-10.3,6.54Zm21.57,4.35c.22-1.14.74-2.06,2-2s2.34.58,2.4,1.89a2.13,2.13,0,0,1-1.9,2.38c-1.52.12-2-1.15-2.45-2.26Z" transform="translate(-407.447)" fill="#fff"/>
  <path id="Path_544" data-name="Path 544" d="M443.142,54c1.64-.94,3-1.5,4.17-3-3.19-3.83-6.28-7.85-9.74-11.52-1.38-1.47-2.71-3-4.09-4.46-.68-.71-1.27-1.7-2.51-.73a1.85,1.85,0,0,0-.38,2.72c1.09,1.71,2.3,3.36,3.5,5,2.94,4,6.59,7.41,9.05,12Z" transform="translate(-373.492)" fill="#fff"/>
  <path id="Path_545" data-name="Path 545" d="M145.793,175c.43,1.37-.1,2.61-.48,3.88-2.41,8-4.85,16-7.19,24-1.28,4.41-2.5,5-6.48,2.78-5.57-3.15-11.36-5.92-16.61-9.8-1,.29-1,1.38-1.29,2.14-2.13,5-4.13,10-6.29,14.94a49,49,0,0,1-3.62,7.25,15.43,15.43,0,0,0-2.57,10.13c1.32,13.83,1.59,27.74,2.67,41.58,2.71,34.73,2.2,69.56,3.63,104.32.91,22,1.79,44.07,3.7,66.26,27.89.77,55.67-.51,83.75-2.56.48-1.71,0-4-.16-6.31-1.33-20.38-2.23-40.81-4.21-61.13-2.89-29.53-4.19-59.13-5.11-88.75-.34-11-.18-22.07-.31-33.1,0-2.23-.39-4.47-.46-6.71,0-1.2,0-2.68,1.59-2.89,1.37-.18,1.91,1.06,2.19,2.16.43,1.67.7,3.38,1,5.08,2.29,2.41,1,5.34,1.13,8,.32,24.81.95,49.62,2.42,74.39,1,16.93,2.29,33.83,3.66,50.73.16,2,1.54,3,2.51,4.38,3.38,4.71,6.79,9.41,10.38,14a76.686,76.686,0,0,0,17.77,15.72c8.86,5.93,18.45,9.57,29.42,7a33.72,33.72,0,0,0,14.18-7.44,68.091,68.091,0,0,0,14.38-17.63,171,171,0,0,0,15.68-35.08,403.9,403.9,0,0,1-45.93-24.18c-.77,2.22-1.8,4.18-2.1,6.25-.4,2.75-2.88,4.53-3,7.36a1.45,1.45,0,0,1-1.78,1.23,2.87,2.87,0,0,1-2.48-2.31c-.87-4.82-1.89-9.61-2.8-14.42-2.94-15.55-5.29-31.23-8.93-46.6-4.63-19.5-8.06-39.32-14.29-58.39-2.6-8-5-16.05-7.89-24-2.54-7-8-11.09-14-14.64s-12.87-5.67-19.6-7.63c-9.21-2.69-18.18-6-27.16-9.29-1.53-.56-3.12-.93-4.68-1.38l-.57.65ZM241.6,366.39c.75-2.9,1.55-5.94,2.34-9,.38-1.46,1-2.38,2.81-1.81a2.46,2.46,0,0,1,1.87,3.27c-1,2.94-2.25,5.79-3.49,8.64-.39.9-.94,2-2.24,1.53-1.11-.4-1.37-1.41-1.29-2.65ZM193.71,252.72c.55-2.46,1.12-5.13,1.75-7.78.27-1.1.64-2.36,2.15-2,1.35.34,1.52,1.6,1.28,2.73-.57,2.67-1.27,5.32-2,8-.23.91-.67,1.85-1.8,1.66s-1.4-1.29-1.42-2.58Zm7.36,6.09c0-2.43,5.69-6.9,7.83-6.31,1.49.41,2.11,1.64,1.11,2.74a30.13,30.13,0,0,1-5.66,4.92c-1.35.89-3,.7-3.277-1.35ZM253.9,359.08a1.66,1.66,0,0,1,.79-1.7c.76-.48,1.35,0,1.88.47,2.15,2,2.89,5,5.16,7a.88.88,0,0,1-.27,1.32c-.71.28-1.26,1.05-2.21.66-1.23-.49-5.26-6.12-5.35-7.73Zm-50.35-57.87c-2.65-.06-5.33-2-5.21-3.82.06-1,.46-1.8,1.69-1.69,1.4.13,5.63,3.13,5.62,4,0,1.44-1,1.62-2.1,1.54Z" transform="translate(101.719)" fill="#008379"/>
  <path id="Path_546" data-name="Path 546" d="M378.4,193.15c-1,2.5-4.41,2.67-4.4,5.84,0,.56-1.95.32-2.88-.13l-1.86,3.81c9.63,1.94,11.34,6.46,5.4,14.08l.2.23c6.82,4.81,6.6,10.4-.61,15-5.92,3.77-11.71,7.79-18.5,9.92-1.57.49-1.86,1.63-2.19,3-2.46,9.69-4.41,19.56-7.54,29-4.94,15-8.62,30.35-14.4,45-4.82,12.2-8.38,24.86-13.71,36.83-5.41,12.17-9.4,24.92-15.07,37-2.77,5.87-5.06,11.91-7.72,17.81a5.23,5.23,0,0,0-.61,3.21,219.677,219.677,0,0,1,3.28,27.82c40.45,4,80.82,1.11,121.59,1.2-.3-4.73-.58-9.26-.88-13.79-.64-9.58-.75-19.23-2.09-28.71a176.763,176.763,0,0,1-1.81-26.36c.24-24.83-.95-49.62-1.83-74.42-.82-23.17-2.22-46.31-3.54-69.46-.28-4.86-3.51-6.91-6.38-9.34a64.3,64.3,0,0,1-7.47-7.57c-5.58-6.59-11.66-12.76-17-19.89Z" transform="translate(-209.874)" fill="#008379"/>
  <path id="Path_547" data-name="Path 547" d="M489.4,370.35l-40.42-17.91a173.375,173.375,0,0,0-10.76,23.42c-.35,1-.8,1.88-1.23,2.81-.5,1.11-1.22,2-2.58,1.5s-1.71-1.58-1.2-3c1.29-3.55,2.55-7.1,3.81-10.66.3-.85.52-1.72,1-3.23-1.53,1-2.54,1.68-3.59,2.32-1.53.94-3.32,1.93-4.55-.06s.39-3.39,2.06-4.34,3.18-2.18,4.9-2.44c4.21-.61,5.45-4.12,7.07-7,3.83-6.73,6.72-14,10.1-20.93,4.93-10.14,9.15-20.59,13.56-30.95a9.53,9.53,0,0,0,.63-5c-1.55-14.11-3-28.23-4.43-42.34-.14-1.38-.16-2.82,1.68-3s2.35,1.23,2.55,2.5c.8,4.93,1.58,9.88,2.09,14.85.7,6.84,2.56,13.53,2.2,20.6,1.33-.33,1.25-1.29,1.49-1.93,3.9-10.31,7-20.9,10.88-31.2,5.1-13.58,8.48-27.59,11.75-41.63,3-12.7,2.72-25.76,3.14-38.71.09-2.63,0-5.27,0-8.31-5.79,1.84-11.21,3.52-16.59,5.27-13.85,4.51-27.76,8.83-41.27,14.28a119.942,119.942,0,0,0-18.51,9.37c-12.46,7.76-18.88,19.28-22.33,33.28-4.47,18.16-3,36.46-2.67,54.76.16,8,.61,15.94,1.48,23.85,3.16,28.74,4.93,57.66,11,86.05a73.75,73.75,0,0,0,11.75,26.85A36.83,36.83,0,0,0,446.6,435c5.27,1,9.12-.8,12.7-4s6.23-7.52,8.87-11.66A117.093,117.093,0,0,0,480,394c2.75-8.07,6.4-15.77,9.4-23.62Zm-19-129.72c-.08.52.23,1.82-1.07,2.38a1.42,1.42,0,0,1-1.91-1.06,79,79,0,0,1-2.63-13.47,1.5,1.5,0,0,1,1.4-1.72,1.64,1.64,0,0,1,1.82,1.35c.18,4.12,2.26,7.85,2.39,12.52ZM431.45,343.51a26.541,26.541,0,0,1,7.58,2.85,2.19,2.19,0,0,1,1,2.39c-.1.57-.55,1.06-1,1-3.08-.46-6.35-.25-9.07-2.16a2.32,2.32,0,0,1-.82-2.75c.34-1,1.23-1.26,2.31-1.32Zm28.825-100.7c-1.88,0-6.83-3.61-7.3-5.42-.29-1.14-.15-2.78,1.32-2.13a21.229,21.229,0,0,1,7,4.59,1.9,1.9,0,0,1,.21,2.27,1.31,1.31,0,0,1-1.25.69Z" transform="translate(-393.285)" fill="#008379"/>
  <path id="Path_548" data-name="Path 548" d="M358.1,49.74c-25.87-5.9-51.55-12.74-78.34-12.74a145.473,145.473,0,0,0-21,1.7c-2.66.4-3.76,1.35-3.76,4.29a578.108,578.108,0,0,1-2.94,60.57c-.26,2.55-1.41,3.39-3.73,3.24-.91-.06-1.83-.09-2.75-.13-3.76-.18-5.37-1.41-6.28-5.05-2.14-8.55-4.45-17.06-5.06-25.93-.25-3.73-2.33-5.15-5.87-4-4.72,1.49-7.56,4.93-8.71,9.69-1,4.31-.06,8,3.68,10.77,1.72,1.27,3.1,3,4.92,4.1,2.91,1.69,3.51,4.08,2.83,7-2.61,11.44-4.93,23-8.08,34.26-1.39,5-2.16,10.06-3.44,15a7.27,7.27,0,0,0,1.84,7.27c4.73,5.09,8,11.21,12.3,16.64,5.33,6.79,10.39,13.83,16.13,20.26,7.56,8.45,14.55,17.47,23.51,24.75.33-.65.71-1.37,1.06-2.09,7-14.13,12.16-29.05,18.13-43.63,2.2-5.37,2-10.58,2.37-15.94.25-3.87.25-7.76.32-11.64,0-2.17,1.12-2.86,3.17-2.52,11.55,2,23.18,1.29,34.79,1,5.43-.15,7.53-1.74,8.86-7.06,2.38-9.51,4-19.19,5.49-28.87,1.07-6.86,2.12-13.72,3.06-20.6.25-1.84,1.77-3.34,1.27-6.33-3.86,6.09-9.26,7.77-15.36,8-6.64.3-11.22-2.91-14.56-8.35,2.32-6.71,7.58-9.58,14.3-10.4s12.21,1,16.42,7.58c1-5.44,1.77-9.8,2.6-14.4a48.77,48.77,0,0,0-13.75.89c-3.92.67-7.82,1.45-11.73,2.15-1.3.24-2.59.46-3.82-.42a3.14,3.14,0,0,1-1.8-2.64c0-1.56,1.13-2,2.25-2.52a47.35,47.35,0,0,1,29.17-4.27,8.53,8.53,0,0,0,1.15,0l1.4-9.68ZM287.636,85.4c-5.8-.3-11.33-1.34-15.47-6-5.35-6-3.35-12.53,4.33-14.26a20.93,20.93,0,0,1,22.52,9.34c2.22,3.4,1.66,8.66-3.83,9.9a26,26,0,0,1-7.55,1ZM280.1,48.94c9.23.56,19.35,2.43,28.37,8.23a9.39,9.39,0,0,1,3.88,4.95,2.23,2.23,0,0,1-.36,2.56,2,2,0,0,1-2.51.25c-1.57-.69-3.22-1.21-4.79-1.9-7.1-3.1-14.33-5.82-22.05-6.92q-5.6-.795-11.21-1.4a2.54,2.54,0,0,1-2.45-2.3c-.26-1.54.83-2.21,2-2.64,2.54-.91,5.2-.87,9.1-.83Zm31.78,36c.41-4,.83-8.11,1.23-12.16.09-.88.35-1.65,1.38-1.72s1.45.64,1.77,1.42a5.6,5.6,0,0,1,.23,2.7c-.28,2.84-.32,5.72-.76,8.53-.37,2.36.61,3.75,2.34,5.14,2.79,2.24,6.29,3.3,8.95,5.74,2.46,2.25,4.45,4.7,3.34,8.23a8.54,8.54,0,0,1-7.65,6.16c-5.41.58-10.14-1.46-14.36-4.79-1-.81-.94-1.59-.07-2.45,1.21-1.21,2.42-1.66,4-.47a15.33,15.33,0,0,0,8.08,3.33c2.69.24,6.17-1.51,6.32-3.3.22-2.72-2-3.89-4-4.88a63,63,0,0,1-7.46-4.67,7.31,7.31,0,0,1-3.36-6.81ZM299,117.14c.18-1.24-.32-3.46,1.61-3.56,2.19-.12,1.89,2.18,2.09,3.73.08.6,0,1.22.06,1.83a4.7,4.7,0,0,0,4.08,4.63,7.49,7.49,0,0,0,8.4-4c.59-1.16.91-2.8,2.74-1.8,1.51.83,1.56,2.14.8,3.66-2.45,4.9-7.48,7.21-13.07,5.9-3.86-.91-6.63-5.11-6.71-10.38Zm-15.84-22.77c.07,2.26-1.72,5.21-3.13,5.19a1.833,1.833,0,0,1-2-2.11c-.05-2.18,2-5.6,3.31-5.46s1.76,1.16,1.81,2.38Zm-15.95,3.16a9.88,9.88,0,0,1,1.86-5.07c.63-.9,1.44-1.55,2.55-.78a2,2,0,0,1,.57,2.9c-.71,1.22-1.27,2.53-1.9,3.79-.41.84-.86,1.77-2,1.42s-1.128-1.3-1.078-2.26Zm65.91,3c.22-1.27.35-2.74,2.21-2.58a2.09,2.09,0,0,1,2.07,2.45,2.48,2.48,0,0,1-2.61,2.65c-1.45,0-1.56-1.3-1.67-2.49Zm-42.63-4.34c.3-1.19.11-3,2-3.1a2.3,2.3,0,0,1,2.37,2.57,3.07,3.07,0,0,1-2.72,3.07c-1.42.14-1.58-1.24-1.63-2.54Zm50.72,4.21c.07-.92.43-2.06,1.73-2.19s1.81.82,1.81,1.94-.38,2.56-1.87,2.6c-1.138,0-1.688-.93-1.668-2.35Z" transform="translate(-73.426)" fill="#fff"/>
  <path id="Path_549" data-name="Path 549" d="M426.094,196.32c-4.49-2.33-8.94-1-13.38,0-1.72.4-3.3.44-4.19-1.41a3.26,3.26,0,0,1,.7-4.18c.92-.81,2-1.47,2.91-2.24a36,36,0,0,0,3.24-2.79,4.24,4.24,0,0,0,1.46-3.46,25.4,25.4,0,0,0-15.95,2.2c-2.8,1.37-6.09,2.34-8.63,4.57-1.64,1.44-3.71,1.2-4.89-1s.14-3.53,1.89-4.45a16,16,0,0,0,3.48-1.73c-1.7-7.31-3.31-14.71-5.18-22.05-1.21-4.79-3.42-6-8.84-5.24.69,7.07,1.39,14.15,1.43,21.28.09,13.63-.82,27.23-3.9,40.46-4,17.14-7.81,34.4-14.4,50.78-4.36,10.82-8,21.95-13,32.47-3.6,7.48-7,15-10.41,23,13.45,4.2,27.13,7.49,40.12,13.86,1-2.76,1.9-5.3,2.75-7.86,2.49-7.55,4.6-15.25,7.5-22.64,5.9-15.09,9.54-30.86,14.6-46.19,1.74-5.28,3.2-10.63,4.82-15.94a7.2,7.2,0,0,0,.49-3c-.32-2.11.75-3.34,2.36-4.19a28,28,0,0,1,5.58-2.47c6.35-1.72,11.33-5.81,16.62-9.37a2.3,2.3,0,0,0,1.22-2.31c-.24-1.08-1.29-1-2.19-1.26-2.4-.6-4.63.06-6.92.58-1.67.38-3.66.88-4.46-1.34s.89-3.23,2.46-4c3-1.42,5.94-2.75,7.92-5.53.52-.73,1.27-1.5.77-2.48s-1.57-.8-2.45-.83c-3-.1-5.83.87-8.65,1.76a20.863,20.863,0,0,1-3.54.82,2.5,2.5,0,0,1-2.72-1.59,2.2,2.2,0,0,1,1-2.9c1.87-1.19,3.84-2.24,5.7-3.45,2.17-1.4,4.07-3.07,4.7-6Z" transform="translate(-268.964)" fill="#fff"/>
  <path id="Path_550" data-name="Path 550" d="M135.29,159.68c-10.42,2.32-20.22,5-29.36,9.67-1.62.83-3.29,1.58-4.89,2.46-7,3.86-11.06,10-13.57,17.5-3.4,10.16-6.85,20.3-10.7,30.29-4.86,12.6-9.65,25.27-15.38,37.48-4.83,10.3-8.68,21-13.9,31.12-3.6,6.95-6.39,14.19-10.07,21.85,15.36,6,29.91,13.15,43.71,22.72,1.27-4.28,2.31-8.16,3.56-12,6.43-19.52,12.12-39.25,17.26-59.17,3-11.73,5.22-23.6,7.78-35.4a5.58,5.58,0,0,1,3.55-4.51c4.41-1.83,8.85-3.67,12.65-6.69,1.77-1.41,3.49-2.89,4.22-5.12.87-2.64-.21-4-3-3.76-1.41.12-2.81.47-4.22.7s-2.48.1-3.21-1.18.18-2.37,1-3.21c1.64-1.68,3.43-3.2,5.12-4.83a6.74,6.74,0,0,0,2.41-4.16c-1.3-1.2-2.84-.93-4.34-.67s-3,.72-4.49.9c-1.35.16-2.8,0-3.26-1.58s.68-2,1.82-2.72c2.18-1.28,4.59-2.27,6.18-4.41,2-2.63,1-5.13-2.25-5.41a68.7,68.7,0,0,0-7,.18c-1.32,0-2.73.14-3.4-1.42s.12-2.78,1.15-3.84a18.81,18.81,0,0,1,4.66-3.42c5.1-2.73,10.19-5.49,15.24-8.33a5.5,5.5,0,0,0,2.7-3.07Z" transform="translate(331.271)" fill="#fff"/>
  <path id="Path_551" data-name="Path 551" d="M138.19,357.48c3.5-6.37,4.73-13.51,6.91-20.19a295.481,295.481,0,0,0-44.22-22.77c-1.94,6.16-6,12-8.1,18.64,2.67,2.53,40.72,22.9,45.42,24.32Z" transform="translate(266.101)" fill="#fff"/>
  <path id="Path_552" data-name="Path 552" d="M406,327c-2.46,7.26-6.92,13.28-9.66,20.33a9.27,9.27,0,0,0,5.1,3.43c7.61,2.36,14.69,5.9,21.8,9.42,4.08,2,8.26,3.83,12.52,5.8,3.49-8.2,5.59-17.14,10-25.16-12.57-6.36-26.56-8.37-39.8-13.82Z" transform="translate(-338.12)" fill="#fff"/>
  <path id="Path_553" data-name="Path 553" d="M277.85,201.94c2.9-9.94,5.65-19.38,8.46-29a84.9,84.9,0,0,0-17.54-4.07c-2.11,8-6.35,15-9,23.09,6.64,2.19,11.86,6.67,18.12,10Z" transform="translate(-42.1)" fill="#fff"/>
  <path id="Path_554" data-name="Path 554" d="M374.421,190.71c-8.3-9.39-14.9-19.75-22.53-29.32a2.62,2.62,0,0,0-2.67-1c-3.12.46-6.24,1-9.38,1.32-1.91.17-2.4,1-2.23,2.76.48,4.77.9,9.54,1.36,14.5a49.39,49.39,0,0,1,10.66-1.82,23.2,23.2,0,0,1,4.57.25c7,1.27,8.62,4.88,5.14,11.11-.34.59-1,1.06-.85,2.06,1.73.25,3.56,0,5.31.55a9.81,9.81,0,0,1,4.4,2.78l6.22-3.18Z" transform="translate(-208.021)" fill="#fff"/>
  <path id="Path_555" data-name="Path 555" d="M240.95,80.64c-3.42-3.26-7.39-3.89-11.67-3.3a9.78,9.78,0,0,1,1.33,9.57C235.21,87.5,238.79,85.37,240.95,80.64Z" transform="translate(33.751)" fill="#fff"/>
  <path id="Path_556" data-name="Path 556" d="M387.309,481.17c-.07.88.09,1.68,1.07,1.91a1.78,1.78,0,0,0,2.14-.76c2.76-4.73,5.52-9.46,8.23-14.22a1.57,1.57,0,0,0-.72-2.33c-1-.55-1.82.08-2.33.84-1.37,2-2.59,4.12-3.93,6.16-1,1.49-1.66,3.14-3,4.48a6.32,6.32,0,0,0-1.47,3.92Z" transform="translate(-282.329)" fill="#fff"/>
  <path id="Path_557" data-name="Path 557" d="M289.587,22.34c.43,1.14.75,2.86,2.74,1.45,2.8-2,5.52-4.06,8.24-6.13a1.57,1.57,0,0,0,.38-2.18c-.44-.84-1.17-1.26-2-.82-2.91,1.58-6,2.91-8.4,5.28a3.36,3.36,0,0,0-1,2.4Z" transform="translate(-86.797)" fill="#fff"/>
  <path id="Path_558" data-name="Path 558" d="M221.908,456.94a5.25,5.25,0,0,0,1.82,2.63,40.816,40.816,0,0,0,9,5.66,1.61,1.61,0,0,0,2-.07c.75-.7.48-1.5.06-2.22a3.4,3.4,0,0,0-1.17-1.36,101.528,101.528,0,0,1-9-5.64c-1.36-.88-2.23-.29-2.67,1Z" transform="translate(46.874)" fill="#fff"/>
  <path id="Path_559" data-name="Path 559" d="M278.889,24.52c.29,1.12,1,2.3,2.43,1.16,2.61-2.13,5.65-3.53,8.41-5.38,1.07-.72,2-1.52,1.17-3-.76-1.27-1.76-.87-2.91-.47-3.25,1.15-5.66,3.49-8.28,5.55a2.24,2.24,0,0,0-.82,2.11Z" transform="translate(-66.099)" fill="#fff"/>
  <path id="Path_560" data-name="Path 560" d="M275.293,18.44c-2.66,1.22-6.13,2.67-8.47,5.84a1.62,1.62,0,0,0,.22,2.23,1.56,1.56,0,0,0,2,.32q4.26-2.37,8.44-4.88a1.81,1.81,0,0,0,.65-2.44c-.34-.81-1-1.28-2.81-1.07Z" transform="translate(-40.862)" fill="#fff"/>
  <path id="Path_561" data-name="Path 561" d="M215.412,30.74c2.63-.75,5.14-2.49,7.68-4.16a1.39,1.39,0,0,0,.19-1.95c-.44-.74-1.08-1.37-2-.92-2.64,1.3-5.27,2.63-7.83,4.08a1.56,1.56,0,0,0-.52,2.16c.47.89,1.25.93,2.47.79Z" transform="translate(67.69)" fill="#fff"/>
  <path id="Path_562" data-name="Path 562" d="M203.406,40.12c.27,1.69,1.69,2,3.08,1.39a51.731,51.731,0,0,0,5.78-3.29,2,2,0,0,0,.84-2.86c-.59-1.11-1.63-.91-2.66-.59-2.26.69-4.11,2.13-6.14,3.24a2.3,2.3,0,0,0-.9,2.11Z" transform="translate(87.185)" fill="#fff"/>
  <path id="Path_563" data-name="Path 563" d="M395.886,467.17c.11,1.13.43,1.87,1.32,2.14a1.56,1.56,0,0,0,1.76-.9c1.37-2.17,2.19-4.69,4.24-6.46a1.58,1.58,0,0,0-.2-2.44,2,2,0,0,0-2.54-.19c-2.35,2.2-3.46,5.17-4.58,7.85Z" transform="translate(-295.594)" fill="#fff"/>
  <path id="Path_564" data-name="Path 564" d="M216.722,29.28c-2.48.78-4.88,1.76-6.49,4a1.84,1.84,0,0,0,2.68,2.5,23.409,23.409,0,0,1,4.62-2.78,1.87,1.87,0,0,0,1.13-2.52,1.79,1.79,0,0,0-2-1.2Z" transform="translate(75.319)" fill="#fff"/>
  <path id="Path_565" data-name="Path 565" d="M212.467,256.32c-.17-2.71,1.16-5.64-1.13-8C211.547,251.03,210.657,253.89,212.467,256.32Z" transform="translate(79.985)" fill="#a3a0a3"/>
  <path id="Path_566" data-name="Path 566" d="M256.818,174.33c-.31-.18-.67-.42-.91,0-.06.12.22.42.34.64l.57-.65Z" transform="translate(-8.738)" fill="#fff"/>
  <path id="Path_567" data-name="Path 567" d="M447.784,56.45c.47,1.11.93,2.38,2.45,2.26a2.13,2.13,0,0,0,1.9-2.38c-.06-1.31-1.24-1.85-2.4-1.89s-1.73.87-2,2Z" transform="translate(-395.904)" fill="#0e8c80"/>
  <path id="Path_568" data-name="Path 568" d="M153.5,366.39c-.08,1.24.18,2.25,1.29,2.65,1.3.46,1.85-.63,2.24-1.53,1.24-2.85,2.52-5.7,3.49-8.64a2.46,2.46,0,0,0-1.87-3.27c-1.77-.57-2.43.35-2.81,1.81-.79,3-1.59,6.08-2.34,9Z" transform="translate(189.818)" fill="#262123"/>
  <path id="Path_569" data-name="Path 569" d="M203.239,252.72c0,1.29.16,2.38,1.42,2.58s1.57-.75,1.8-1.66c.69-2.64,1.39-5.29,2-8,.24-1.13.07-2.39-1.28-2.73-1.51-.37-1.88.89-2.15,2-.63,2.65-1.2,5.32-1.75,7.78Z" transform="translate(92.193)" fill="#262123"/>
  <path id="Path_570" data-name="Path 570" d="M191.762,258.81c.28,2.05,1.93,2.24,3.28,1.35a30.131,30.131,0,0,0,5.66-4.92c1-1.1.38-2.33-1.11-2.74C197.452,251.91,191.782,256.38,191.762,258.81Z" transform="translate(111.028)" fill="#262123"/>
  <path id="Path_571" data-name="Path 571" d="M140.362,359.08c.09,1.61,4.12,7.24,5.35,7.73.95.39,1.5-.38,2.21-.66a.88.88,0,0,0,.27-1.32c-2.27-1.93-3-5-5.16-7-.53-.5-1.12-1-1.88-.47a1.66,1.66,0,0,0-.79,1.7Z" transform="translate(215.258)" fill="#262123"/>
  <path id="Path_572" data-name="Path 572" d="M201.824,301.21c1.14.08,2.07-.1,2.1-1.54,0-.84-4.22-3.84-5.62-4-1.23-.11-1.63.72-1.69,1.69-.12,1.83,2.56,3.76,5.21,3.82Z" transform="translate(103.448)" fill="#262123"/>
  <path id="Path_573" data-name="Path 573" d="M432.487,240.63c-.13-4.67-2.21-8.4-2.39-12.52a1.64,1.64,0,0,0-1.82-1.35,1.5,1.5,0,0,0-1.4,1.72,79,79,0,0,0,2.63,13.52,1.42,1.42,0,0,0,1.91,1.06c1.3-.56,1-1.86,1.07-2.38Z" transform="translate(-355.365)" fill="#262123"/>
  <path id="Path_574" data-name="Path 574" d="M459.642,343.51c-1.08.06-2,.28-2.31,1.32a2.32,2.32,0,0,0,.82,2.75c2.72,1.91,6,1.7,9.07,2.16.46.07.91-.42,1-1a2.19,2.19,0,0,0-1-2.39,26.542,26.542,0,0,0-7.58-2.85Z" transform="translate(-421.47)" fill="#262123"/>
  <path id="Path_575" data-name="Path 575" d="M442.872,242.81a1.31,1.31,0,0,0,1.25-.69,1.9,1.9,0,0,0-.21-2.27,21.228,21.228,0,0,0-7-4.59c-1.47-.65-1.61,1-1.32,2.13.47,1.81,5.42,5.44,7.3,5.42Z" transform="translate(-375.89)" fill="#262123"/>
  <path id="Path_576" data-name="Path 576" d="M295.649,85.4a26,26,0,0,0,7.55-1c5.49-1.24,6.05-6.5,3.83-9.9a20.93,20.93,0,0,0-22.52-9.34c-7.68,1.73-9.68,8.28-4.33,14.26,4.14,4.62,9.67,5.66,15.47,6Zm-3.1-16.14c6.09,1.06,9.7,4.47,12.49,9.09-3,2.36-6.65,3.06-11.17,2.33,2.71-4.64,2.44-7.4-1.32-11.42Zm-9.34,8.21c-1.72-2.06-3.15-3.78-2.2-5.61a4.8,4.8,0,0,1,5.31-2.41c-3,1.7-3.49,4.36-3.11,8Z" transform="translate(-81.439)" fill="#262123"/>
  <path id="Path_577" data-name="Path 577" d="M275.924,48.94c-3.9,0-6.56-.08-9.1.83-1.19.43-2.28,1.1-2,2.64a2.54,2.54,0,0,0,2.45,2.3c3.74.42,7.48.87,11.21,1.4,7.72,1.1,14.95,3.82,22.05,6.92,1.57.69,3.22,1.21,4.79,1.9a2,2,0,0,0,2.51-.25,2.23,2.23,0,0,0,.36-2.56,9.39,9.39,0,0,0-3.88-4.95c-9-5.8-19.14-7.67-28.37-8.23Z" transform="translate(-69.242)" fill="#262123"/>
  <path id="Path_578" data-name="Path 578" d="M250.976,84.94a7.31,7.31,0,0,0,3.36,6.81,63,63,0,0,0,7.46,4.67c1.92,1,4.18,2.16,4,4.88-.15,1.79-3.63,3.54-6.32,3.3a15.33,15.33,0,0,1-8.08-3.33c-1.56-1.19-2.77-.74-4,.47-.87.86-1,1.64.07,2.45,4.22,3.33,8.95,5.37,14.36,4.79a8.54,8.54,0,0,0,7.65-6.16c1.11-3.53-.88-6-3.34-8.23-2.66-2.44-6.16-3.5-8.95-5.74-1.73-1.39-2.71-2.78-2.34-5.14.44-2.81.48-5.69.76-8.53a5.6,5.6,0,0,0-.23-2.7c-.32-.78-.81-1.48-1.77-1.42s-1.29.84-1.38,1.72c-.4,4-.82,8.11-1.23,12.16Z" transform="translate(-12.515)" fill="#262123"/>
  <path id="Path_579" data-name="Path 579" d="M258.138,117.14c.08,5.27,2.85,9.47,6.71,10.38,5.59,1.31,10.62-1,13.07-5.9.76-1.52.71-2.83-.8-3.66-1.83-1-2.15.64-2.74,1.8a7.49,7.49,0,0,1-8.4,4,4.7,4.7,0,0,1-4.08-4.63c0-.61,0-1.23-.06-1.83-.2-1.55.1-3.85-2.09-3.73-1.93.1-1.43,2.32-1.61,3.56Z" transform="translate(-32.558)" fill="#262123"/>
  <path id="Path_580" data-name="Path 580" d="M299.349,94.37c-.05-1.22-.47-2.24-1.81-2.38s-3.36,3.28-3.31,5.46c0,1.31.58,2.1,2,2.11s3.2-2.93,3.13-5.19Z" transform="translate(-89.607)" fill="#262123"/>
  <path id="Path_581" data-name="Path 581" d="M304.83,97.53c-.05,1,0,1.93,1.08,2.26s1.59-.58,2-1.42c.63-1.26,1.19-2.57,1.9-3.79a2,2,0,0,0-.57-2.9c-1.11-.77-1.92-.12-2.55.78A9.88,9.88,0,0,0,304.83,97.53Z" transform="translate(-111.039)" fill="#262123"/>
  <path id="Path_582" data-name="Path 582" d="M239.977,100.56c.11,1.19.22,2.54,1.67,2.49a2.48,2.48,0,0,0,2.61-2.65,2.09,2.09,0,0,0-2.07-2.4c-1.86-.16-2,1.31-2.21,2.58Z" transform="translate(19.725)" fill="#262123"/>
  <path id="Path_583" data-name="Path 583" d="M282.564,96.22c.05,1.3.21,2.68,1.63,2.54a3.07,3.07,0,0,0,2.72-3.07,2.3,2.3,0,0,0-2.37-2.57c-1.87,0-1.68,1.91-2,3.1Z" transform="translate(-65.492)" fill="#262123"/>
  <path id="Path_584" data-name="Path 584" d="M232.65,100.43c0,1.42.53,2.39,1.67,2.35,1.49,0,1.88-1.33,1.87-2.6s-.64-2.05-1.81-1.94A2.157,2.157,0,0,0,232.65,100.43Z" transform="translate(35.141)" fill="#262123"/>
  <path id="Path_585" data-name="Path 585" d="M280.38,69.26c3.76,4,4,6.78,1.32,11.42,4.52.73,8.18,0,11.17-2.33-2.79-4.62-6.4-8-12.49-9.09Z" transform="translate(-69.269)" fill="#fff"/>
</svg>
