<svg width="19" height="19" viewBox="0 0 19 19" fill="none" xmlns="http://www.w3.org/2000/svg">
<path d="M4.97619 0C4.23223 0 3.61905 0.585308 3.61905 1.29545V2.15909H1.80952C0.814648 2.15909 0 2.93671 0 3.88636V17.2727C0 18.2224 0.814648 19 1.80952 19H17.1905C18.1854 19 19 18.2224 19 17.2727V3.88636C19 2.93671 18.1854 2.15909 17.1905 2.15909H15.381V1.29545C15.381 0.585308 14.7678 0 14.0238 0C13.2798 0 12.6667 0.585308 12.6667 1.29545V2.15909H6.33333V1.29545C6.33333 0.585308 5.72015 0 4.97619 0ZM4.97619 0.863636C5.23507 0.863636 5.42857 1.04834 5.42857 1.29545V3.88636C5.42857 4.13347 5.23507 4.31818 4.97619 4.31818C4.71731 4.31818 4.52381 4.13348 4.52381 3.88636V1.29545C4.52381 1.04835 4.71731 0.863636 4.97619 0.863636ZM14.0238 0.863636C14.2827 0.863636 14.4762 1.04834 14.4762 1.29545V3.88636C14.4762 4.13347 14.2827 4.31818 14.0238 4.31818C13.7649 4.31818 13.5714 4.13348 13.5714 3.88636V1.29545C13.5714 1.04835 13.7649 0.863636 14.0238 0.863636ZM1.80952 3.02273H3.61905V3.88636C3.61905 4.59651 4.23223 5.18182 4.97619 5.18182C5.72015 5.18182 6.33333 4.59651 6.33333 3.88636V3.02273H12.6667V3.88636C12.6667 4.59651 13.2798 5.18182 14.0238 5.18182C14.7678 5.18182 15.381 4.59651 15.381 3.88636V3.02273H17.1905C17.6994 3.02273 18.0952 3.40057 18.0952 3.88636V6.90909H0.904762V3.88636C0.904762 3.40057 1.3006 3.02273 1.80952 3.02273ZM0.904762 7.77273H18.0952V17.2727C18.0952 17.7585 17.6994 18.1364 17.1905 18.1364H1.80952C1.3006 18.1364 0.904762 17.7585 0.904762 17.2727V7.77273ZM3.39286 8.85227C3.1428 8.85227 2.94048 9.04541 2.94048 9.28409V11.875C2.94048 12.1128 3.14281 12.3068 3.39286 12.3068H6.10714C6.3572 12.3068 6.55952 12.1128 6.55952 11.875V9.28409C6.55952 9.0454 6.35719 8.85227 6.10714 8.85227H3.39286ZM8.14286 8.85227C7.8928 8.85227 7.69048 9.04541 7.69048 9.28409V11.875C7.69048 12.1128 7.89281 12.3068 8.14286 12.3068H10.8571C11.1072 12.3068 11.3095 12.1128 11.3095 11.875V9.28409C11.3095 9.0454 11.1072 8.85227 10.8571 8.85227H8.14286ZM12.8929 8.85227C12.6428 8.85227 12.4405 9.04541 12.4405 9.28409V11.875C12.4405 12.1128 12.6428 12.3068 12.8929 12.3068H15.6071C15.8572 12.3068 16.0595 12.1128 16.0595 11.875V9.28409C16.0595 9.0454 15.8572 8.85227 15.6071 8.85227H12.8929ZM3.84524 9.71591H5.65476V11.4432H3.84524V9.71591ZM8.59524 9.71591H10.4048V11.4432H8.59524V9.71591ZM13.3452 9.71591H15.1548V11.4432H13.3452V9.71591ZM3.39286 13.6023C3.1428 13.6023 2.94048 13.7954 2.94048 14.0341V16.625C2.94048 16.8628 3.14281 17.0568 3.39286 17.0568H6.10714C6.3572 17.0568 6.55952 16.8628 6.55952 16.625V14.0341C6.55952 13.7954 6.35719 13.6023 6.10714 13.6023H3.39286ZM8.14286 13.6023C7.8928 13.6023 7.69048 13.7954 7.69048 14.0341V16.625C7.69048 16.8628 7.89281 17.0568 8.14286 17.0568H10.8571C11.1072 17.0568 11.3095 16.8628 11.3095 16.625V14.0341C11.3095 13.7954 11.1072 13.6023 10.8571 13.6023H8.14286ZM12.8929 13.6023C12.6428 13.6023 12.4405 13.7954 12.4405 14.0341V16.625C12.4405 16.8628 12.6428 17.0568 12.8929 17.0568H15.6071C15.8572 17.0568 16.0595 16.8628 16.0595 16.625V14.0341C16.0595 13.7954 15.8572 13.6023 15.6071 13.6023H12.8929ZM3.84524 14.4659H5.65476V16.1932H3.84524V14.4659ZM8.59524 14.4659H10.4048V16.1932H8.59524V14.4659ZM13.3452 14.4659H15.1548V16.1932H13.3452V14.4659Z" fill="#777777" fill-opacity="0.7"/>
</svg>
