<svg width="32" height="32" viewBox="0 0 32 32" fill="none" xmlns="http://www.w3.org/2000/svg">
<rect width="32" height="32" rx="6" fill="#E7F9F5"/>
<path d="M20.9662 18.3441C22.6983 19.0391 23.9907 19.9657 24.971 21.0554C25.2183 22.82 23.839 24.1136 22.5786 24.908C19.5916 25.4359 15.349 23.6713 11.8388 20.1612C8.32868 16.651 6.56408 12.4084 7.09204 9.42144C7.88636 8.16101 9.18005 6.78171 10.9446 7.02902C12.0344 8.00933 12.961 9.30175 13.656 11.034C13.7717 11.3224 13.7056 11.6515 13.4941 11.8792C13.1473 12.2527 12.5202 12.8821 11.553 13.6938C11.3094 13.8982 11.2501 14.2475 11.4055 14.5249C12.0807 15.73 12.9593 16.8963 14.0315 17.9685C15.1033 19.0403 16.2709 19.9205 17.4743 20.5976C17.752 20.7539 18.1023 20.6943 18.3069 20.45C19.1181 19.4811 19.7473 18.8533 20.1207 18.5062C20.3484 18.2946 20.6776 18.2283 20.9662 18.3441Z" fill="#004F4F"/>
</svg>
