<svg width="19" height="19" viewBox="0 0 19 19" fill="none" xmlns="http://www.w3.org/2000/svg">
<path d="M16.2885 0.000244916H5.7062C4.20783 0.000244916 2.99569 1.22584 2.99569 2.73846V3.02656H2.71051C1.21214 3.02656 0 4.25215 0 5.76477V12.3468C0 13.8605 1.21319 15.085 2.71051 15.085H3.35239L2.78204 18.5439C2.75789 18.7119 2.82942 18.8799 2.97247 18.9521C3.01985 18.9765 3.09137 19 3.1629 19C3.25765 19 3.35333 18.9756 3.42487 18.9043L7.61072 15.085H13.2938C14.7922 15.085 16.0043 13.8594 16.0043 12.3468V12.0587H16.2895C17.7879 12.0587 19 10.8331 19 9.32047L18.9991 2.73918C18.9991 1.2255 17.7859 0 16.2886 0L16.2885 0.000244916ZM15.2184 12.3724C15.2184 13.4535 14.3387 14.3422 13.2686 14.3422L7.48969 14.3431C7.41816 14.3431 7.37079 14.3431 7.32341 14.3675C7.32341 14.3675 7.29926 14.3675 7.29926 14.3919C7.27511 14.4163 7.22773 14.4163 7.20451 14.4398L3.70805 17.5864L4.1595 14.7759V14.7515V14.7036C4.1595 14.6792 4.1595 14.6558 4.13535 14.6314V14.5835C4.13535 14.5591 4.1112 14.5356 4.08798 14.4878C4.08798 14.4634 4.06382 14.4634 4.06382 14.4399L4.01645 14.3921C3.9923 14.3677 3.96907 14.3677 3.94492 14.3442C3.92077 14.3442 3.92077 14.3198 3.89755 14.3198C3.87339 14.3198 3.85017 14.2954 3.85017 14.2954H3.80279H3.77864H2.66115C1.59102 14.2954 0.711329 13.4067 0.711329 12.3257L0.712258 5.79049C0.712258 4.70942 1.59195 3.82074 2.66207 3.82074H13.2444C14.3146 3.82074 15.1942 4.70942 15.1942 5.79049V12.3725L15.2184 12.3724ZM18.2143 9.32167C18.2143 10.4027 17.3346 11.2914 16.2645 11.2914H15.9793V5.79048C15.9793 4.2768 14.7661 3.05226 13.2688 3.05226H3.75657V2.76417C3.75657 1.6831 4.63626 0.79442 5.70639 0.79442H16.2887C17.3589 0.79442 18.2386 1.6831 18.2386 2.76417V9.32191L18.2143 9.32167Z" fill="#777777" fill-opacity="0.7"/>
<path d="M3.89851 7.75977C3.18509 7.75977 2.59058 8.33595 2.59058 9.08107C2.59058 9.80178 3.16093 10.4024 3.89851 10.4024C4.61192 10.4024 5.20644 9.82619 5.20644 9.08107C5.18229 8.36036 4.61192 7.75977 3.89851 7.75977ZM3.89851 9.6094C3.61333 9.6094 3.37553 9.36916 3.37553 9.08107C3.37553 8.79298 3.61333 8.55274 3.89851 8.55274C4.18368 8.55274 4.42149 8.79298 4.42149 9.08107C4.42149 9.36916 4.18368 9.6094 3.89851 9.6094Z" fill="#777777" fill-opacity="0.7"/>
<path d="M7.98835 7.75977C7.27493 7.75977 6.68042 8.33595 6.68042 9.08107C6.68042 9.80178 7.25077 10.4024 7.98835 10.4024C8.70177 10.4024 9.29628 9.82619 9.29628 9.08107C9.27306 8.36036 8.70177 7.75977 7.98835 7.75977ZM7.98835 9.6094C7.70317 9.6094 7.46537 9.36916 7.46537 9.08107C7.46537 8.79298 7.70317 8.55274 7.98835 8.55274C8.27353 8.55274 8.51133 8.79298 8.51133 9.08107C8.51133 9.36916 8.27353 9.6094 7.98835 9.6094Z" fill="#777777" fill-opacity="0.7"/>
<path d="M12.0784 7.75977C11.365 7.75977 10.7705 8.33595 10.7705 9.08107C10.7705 9.80178 11.3409 10.4024 12.0784 10.4024C12.7919 10.4024 13.3864 9.82619 13.3864 9.08107C13.3631 8.36036 12.7919 7.75977 12.0784 7.75977ZM12.0784 9.6094C11.7933 9.6094 11.5555 9.36916 11.5555 9.08107C11.5555 8.79298 11.7933 8.55274 12.0784 8.55274C12.3636 8.55274 12.6014 8.79298 12.6014 9.08107C12.6024 9.36916 12.3645 9.6094 12.0784 9.6094Z" fill="#777777" fill-opacity="0.7"/>
</svg>
