<svg width="32" height="32" viewBox="0 0 32 32" fill="none" xmlns="http://www.w3.org/2000/svg">
<rect width="32" height="32" rx="6" fill="#E7F9F5"/>
<path d="M22.2553 9.00015H9.74479C8.2146 9.00015 7 10.206 7 11.6746V19.1723C7 20.641 8.23751 21.8468 9.74479 21.8468L11.05 21.8476L10.6677 24.9605C10.5323 25.7715 11.4552 26.2982 12.1302 25.8152L16.2927 21.8253H22.2552C23.7854 21.8253 25 20.6195 25 19.1509V11.6745C25 10.1843 23.7626 9.00015 22.2553 9.00015ZM11.2073 16.7394C10.4646 16.7394 9.85729 16.1477 9.85729 15.424C9.85729 14.7003 10.4646 14.1086 11.2073 14.1086C11.95 14.1086 12.5802 14.7003 12.5802 15.424C12.5802 16.1477 11.95 16.7394 11.2073 16.7394ZM16 16.7394C15.2574 16.7394 14.65 16.1477 14.65 15.424C14.65 14.7003 15.2574 14.1086 16 14.1086C16.7427 14.1086 17.3729 14.7003 17.3729 15.424C17.3501 16.1477 16.7427 16.7394 16 16.7394ZM20.7928 16.7394C20.0501 16.7394 19.4428 16.1477 19.4428 15.424C19.4428 14.7003 20.0501 14.1086 20.7928 14.1086C21.5355 14.1086 22.1657 14.7003 22.1657 15.424C22.1428 16.1477 21.5355 16.7394 20.7928 16.7394Z" fill="#004F4F"/>
</svg>
