<svg width="32" height="35" viewBox="0 0 32 35" fill="none" xmlns="http://www.w3.org/2000/svg">
<path fill-rule="evenodd" clip-rule="evenodd" d="M9.71804 12.2113H10.9392V9.99232C10.9392 9.78301 11.0343 9.59242 11.1884 9.45457C11.3425 9.31673 11.5555 9.23165 11.7895 9.23165H14.2699V8.13917H11.7895C11.5574 8.13917 11.3444 8.05409 11.1903 7.91625H11.1884L11.1865 7.91455C11.0324 7.77671 10.9373 7.58612 10.9373 7.3785V5.15949H9.71614V7.3785C9.71614 7.58781 9.62103 7.7784 9.46695 7.91625C9.31287 8.0541 9.09983 8.13917 8.86586 8.13917H6.38543V9.23165H8.86586C9.09982 9.23165 9.31287 9.31673 9.46695 9.45457C9.62104 9.59241 9.71614 9.783 9.71614 9.99231L9.71804 12.2113ZM11.6411 27.2354C11.8694 28.7754 12.712 30.1368 13.9351 31.1255C15.2076 32.1567 16.8929 32.7812 18.719 32.7812C20.6801 32.7812 22.4643 32.0614 23.758 30.9042C25.0516 29.7471 25.856 28.1509 25.856 26.3963L25.8541 15.3217C25.5517 15.0426 25.3653 14.6632 25.3653 14.248V13.2304C24.7052 13.0074 24.1118 12.662 23.6229 12.2247C22.7346 11.43 22.1849 10.3324 22.1849 9.12079C22.1849 7.90921 22.7346 6.8099 23.6229 6.01692C24.5112 5.22224 25.7381 4.73045 27.0925 4.73045C28.4468 4.73045 29.6756 5.22224 30.562 6.01692C31.4503 6.81159 32 7.90921 32 9.12079C32 10.3324 31.4503 11.43 30.562 12.2247C30.0731 12.662 29.4796 13.0091 28.8196 13.2304V14.248C28.8196 14.6632 28.6332 15.0409 28.3308 15.32V26.3964C28.3308 28.7617 27.2484 30.9126 25.5061 32.473C23.7637 34.0317 21.3594 35 18.7136 35C16.237 35 13.9525 34.1441 12.2328 32.7368C10.5532 31.3618 9.41184 29.461 9.15507 27.3153C9.06567 27.2592 8.98198 27.1945 8.90399 27.1264L8.90589 27.1247C8.55209 26.8082 8.33144 26.3709 8.33144 25.8893V21.693C8.33144 21.5739 8.31051 21.4667 8.26866 21.3714C8.22682 21.2744 8.16024 21.1825 8.07084 21.0957C7.40128 20.4473 6.75646 19.7616 6.13633 19.0486C5.47817 18.2913 4.85618 17.5154 4.27223 16.7309C4.12006 16.5267 4.01924 16.3055 3.97169 16.074C3.92413 15.8426 3.93174 15.6044 3.99452 15.3644C4.01163 15.2964 4.03446 15.23 4.05919 15.1653C3.3573 14.1529 2.67824 13.0791 2.07905 11.9679C1.45132 10.8039 0.911145 9.60425 0.526892 8.39777C0.237765 7.49078 -0.0018879 6.43572 1.121e-05 5.39261C0.00191324 4.31542 0.262507 3.25701 0.985308 2.38914C1.419 1.86843 1.95921 1.48726 2.5603 1.21499C3.19183 0.930807 3.89372 0.767462 4.6127 0.690878C4.67738 0.621107 4.74776 0.556447 4.82384 0.495184C5.20808 0.188883 5.73118 1.6618e-06 6.30563 1.6618e-06C6.88009 1.6618e-06 7.40507 0.188887 7.78743 0.495184C8.18498 0.8134 8.43035 1.25414 8.43035 1.74423C8.43035 2.23431 8.18497 2.67504 7.78743 2.99327C7.40319 3.29957 6.88009 3.48845 6.30563 3.48845C5.73118 3.48845 5.2062 3.29957 4.82384 2.99327C4.7915 2.96604 4.75917 2.93882 4.72683 2.91159C4.40156 2.95583 4.08201 3.0273 3.79476 3.14131V3.14302C3.47139 3.27064 3.18417 3.45272 2.97113 3.70969C2.56407 4.19807 2.44805 4.89578 2.48038 5.61557C2.51272 6.37793 2.71244 7.16751 2.91026 7.78863C3.26026 8.88791 3.75483 9.98213 4.32929 11.044C4.87711 12.0548 5.50099 13.0383 6.14586 13.9709C6.24287 13.9777 6.33988 13.9913 6.43308 14.0117C6.90102 14.1104 7.33093 14.3623 7.61623 14.7452L7.63335 14.7707C7.94911 15.1927 8.26488 15.6011 8.58251 15.9891C8.90398 16.3839 9.23303 16.7702 9.56781 17.1462C9.66482 17.2551 9.78085 17.3385 9.9083 17.393C10.0338 17.4474 10.1784 17.4747 10.3382 17.4747C10.4961 17.4747 10.6406 17.4474 10.7662 17.393L10.7871 17.3845C10.905 17.33 11.0115 17.25 11.1047 17.1462C11.4509 16.7583 11.7762 16.3771 12.0806 16.0044C12.4039 15.6079 12.7216 15.1995 13.0354 14.7792C13.3226 14.3946 13.7487 14.1445 14.2167 14.0458C14.3118 14.0253 14.4088 14.0117 14.5058 14.0049C15.1582 13.0622 15.7916 12.065 16.347 11.0423C16.9215 9.98212 17.416 8.88795 17.7661 7.78863C17.9639 7.16751 18.1636 6.37623 18.196 5.61557C18.2264 4.89578 18.1123 4.19807 17.7052 3.70968C17.4903 3.45103 17.2031 3.26895 16.8816 3.14131V3.14302C16.5925 3.029 16.2729 2.95583 15.9495 2.91159C15.9191 2.93881 15.8867 2.96774 15.8525 2.99327C15.4683 3.29957 14.9452 3.48845 14.3707 3.48845C13.7962 3.48845 13.2713 3.29956 12.8889 2.99327C12.4914 2.67505 12.246 2.23431 12.246 1.74423C12.246 1.25414 12.4914 0.813411 12.8889 0.495183C13.2731 0.188881 13.7962 0 14.3707 0C14.9452 0 15.4701 0.188886 15.8525 0.495183C15.9286 0.556441 15.999 0.621106 16.0636 0.690877C16.7827 0.767452 17.4827 0.929115 18.1141 1.21499C18.7171 1.48725 19.2555 1.86843 19.6891 2.38914C20.412 3.25701 20.6725 4.31546 20.6744 5.3926C20.6763 6.43572 20.4367 7.49078 20.1475 8.39777C19.7633 9.60425 19.225 10.8039 18.5954 11.9679C17.9886 13.091 17.3 14.1784 16.5886 15.2028C16.6133 15.2675 16.6362 15.3338 16.6533 15.4019C16.7161 15.6418 16.7237 15.8801 16.6761 16.1115C16.6286 16.3429 16.5277 16.5642 16.3737 16.7717C15.7916 17.5511 15.1753 18.3186 14.5248 19.0656C13.9085 19.7718 13.2675 20.4542 12.6036 21.0974C12.5142 21.1842 12.4495 21.2761 12.4058 21.3731C12.3639 21.4684 12.343 21.5773 12.343 21.6947V25.8911C12.343 26.3727 12.1224 26.8117 11.7685 27.1282C11.759 27.1367 11.7476 27.1452 11.7381 27.1537C11.7115 27.1809 11.6772 27.2082 11.6411 27.2354ZM26.6149 14.7689C26.632 14.7791 26.6472 14.7893 26.6624 14.8013C26.7841 14.8778 26.9344 14.9238 27.0961 14.9238C27.2578 14.9238 27.4081 14.8778 27.5298 14.8013C27.545 14.7893 27.5602 14.7791 27.5754 14.7706C27.5945 14.757 27.6116 14.7434 27.6287 14.7281L27.6306 14.7264C27.7657 14.6056 27.8513 14.4371 27.8513 14.2499V13.4603C27.6059 13.4943 27.3529 13.5114 27.098 13.5114C26.8412 13.5114 26.5901 13.4943 26.3447 13.4603V14.2499C26.3447 14.4354 26.4284 14.6038 26.5654 14.7264L26.5673 14.7281C26.5787 14.7417 26.5958 14.7553 26.6149 14.7689ZM26.8279 15.7763V26.3983C26.8279 28.3927 25.9149 30.2067 24.4445 31.5222C22.9742 32.8376 20.9465 33.6544 18.717 33.6544C16.6456 33.6544 14.732 32.9431 13.2826 31.769C11.9663 30.7037 11.0362 29.2556 10.7223 27.6151C10.6158 27.6321 10.5036 27.6407 10.3914 27.6407H10.2867C10.2525 27.6407 10.2164 27.6407 10.1821 27.639C10.5017 29.3968 11.4851 30.9522 12.8889 32.099C14.4334 33.3633 16.4858 34.1308 18.7153 34.1308C21.091 34.1308 23.2519 33.2612 24.8192 31.859C26.3865 30.4569 27.3585 28.5255 27.3585 26.3984L27.3604 15.7764C27.2729 15.7883 27.1854 15.7951 27.0941 15.7951C27.0047 15.7951 26.9154 15.7882 26.8279 15.7763ZM15.982 14.4337C16.6021 13.5233 17.1975 12.5687 17.7263 11.5902C18.3293 10.4739 18.8467 9.32018 19.2176 8.15961C19.4877 7.31218 19.7102 6.33541 19.7102 5.39266C19.7083 4.48567 19.4991 3.60587 18.9151 2.90651C18.5785 2.50321 18.1562 2.2054 17.6826 1.99098C17.3154 1.82592 16.9141 1.7085 16.4975 1.63193C16.5013 1.66936 16.5013 1.7068 16.5013 1.74424C16.5013 1.87016 16.4842 1.99268 16.4538 2.1101C16.7353 2.16455 17.013 2.24283 17.2774 2.34663V2.34833C17.7434 2.53382 18.1657 2.8044 18.4891 3.19237C19.0483 3.86455 19.2081 4.7511 19.17 5.6462C19.132 6.50212 18.919 7.3598 18.7059 8.02858C18.3426 9.17381 17.8271 10.3156 17.226 11.4218C16.7086 12.3781 16.1285 13.3038 15.5293 14.1836C15.5673 14.2006 15.6035 14.2176 15.6415 14.2363L15.7328 14.2823H15.7347C15.8222 14.3282 15.9059 14.3793 15.982 14.4337ZM15.3467 2.21555C15.3543 2.20364 15.3638 2.19343 15.3714 2.18322C15.4703 2.05389 15.5255 1.90415 15.5255 1.74419C15.5255 1.51106 15.4038 1.29667 15.2098 1.1418C15.0005 0.975035 14.7057 0.871233 14.3747 0.871233C14.0438 0.871233 13.7489 0.975035 13.5397 1.1418C13.3438 1.29836 13.2239 1.51107 13.2239 1.74419C13.2239 1.97732 13.3457 2.19172 13.5397 2.34658C13.7489 2.51335 14.0438 2.61715 14.3747 2.61715C14.7057 2.61715 15.0006 2.51335 15.2098 2.34658C15.2611 2.30744 15.3068 2.2632 15.3467 2.21555ZM5.31113 2.18322C5.32064 2.19343 5.32825 2.20364 5.33586 2.21555C5.3758 2.2632 5.42146 2.30744 5.47282 2.34828C5.68205 2.51505 5.97691 2.61885 6.30784 2.61885C6.63881 2.61885 6.93367 2.51505 7.14286 2.34828C7.33878 2.19173 7.45862 1.97902 7.45862 1.74589C7.45862 1.51276 7.33688 1.29837 7.14286 1.1435C6.93362 0.976738 6.63877 0.872936 6.30784 0.872936C5.97686 0.872936 5.68201 0.976738 5.47282 1.1435C5.2769 1.30006 5.15706 1.51277 5.15706 1.74589C5.15706 1.90415 5.21412 2.05389 5.31113 2.18322ZM5.12853 14.1461C4.53888 13.2782 3.96822 12.3645 3.45843 11.4234C2.85734 10.3156 2.34185 9.17545 1.97853 8.02852C1.76549 7.35974 1.55055 6.50211 1.51441 5.64788C1.47637 4.75279 1.63615 3.8645 2.19536 3.19406C2.52063 2.80437 2.94098 2.53382 3.40705 2.34832V2.35003C3.67144 2.24452 3.94917 2.16795 4.22878 2.11179C4.19834 1.99437 4.18122 1.87185 4.18122 1.74593C4.18122 1.70849 4.18312 1.67105 4.18503 1.63362C3.76655 1.71019 3.36709 1.82761 2.99998 1.99267C2.52444 2.20709 2.10214 2.50489 1.76741 2.9082C1.18536 3.6076 0.974216 4.48736 0.972317 5.39435C0.970415 6.3354 1.19487 7.31213 1.46497 8.1613C1.83398 9.32187 2.35136 10.4756 2.95625 11.5919C3.47744 12.5567 4.06519 13.4995 4.67578 14.3997C4.75186 14.3452 4.83555 14.2959 4.92305 14.2499L5.01436 14.2023C5.0524 14.1819 5.09048 14.1631 5.12853 14.1461ZM29.8754 6.6332C29.164 5.99678 28.1806 5.60197 27.0945 5.60197C26.0083 5.60197 25.0249 5.99676 24.3135 6.6332C23.6021 7.26961 23.1608 8.14941 23.1608 9.12104C23.1608 10.0927 23.6021 10.9725 24.3135 11.6089C24.77 12.0173 25.3388 12.327 25.976 12.4955L25.9989 12.5023C26.3469 12.5925 26.7141 12.6401 27.0945 12.6401C27.4749 12.6401 27.8421 12.5925 28.1901 12.5023L28.213 12.4955C28.8502 12.327 29.4189 12.0173 29.8755 11.6089C30.5868 10.9725 31.0282 10.0927 31.0282 9.12104C31.0282 8.14941 30.5887 7.26961 29.8754 6.6332ZM27.0945 6.45112C26.2708 6.45112 25.5233 6.75061 24.9831 7.2339V7.2373C24.4429 7.72059 24.1081 8.38763 24.1081 9.12446C24.1081 9.84595 24.4314 10.5045 24.9545 10.9861C24.9641 10.9946 24.9717 11.0048 24.9831 11.0133C25.5233 11.4966 26.2689 11.7961 27.0945 11.7961C27.9181 11.7961 28.6656 11.4966 29.2058 11.0133H29.2039C29.7441 10.53 30.0789 9.86129 30.0789 9.12616C30.0789 8.38933 29.7441 7.72055 29.2039 7.2373C28.6656 6.75062 27.9181 6.45112 27.0945 6.45112ZM28.5173 7.84819C28.154 7.52316 27.6499 7.32068 27.0945 7.32068C26.539 7.32068 26.0368 7.52148 25.6716 7.84819L25.6697 7.84648C25.3064 8.1715 25.082 8.62243 25.082 9.11936C25.082 9.60774 25.2969 10.0485 25.6469 10.3718C25.6546 10.3786 25.6622 10.3837 25.6698 10.3905C26.0331 10.7155 26.5371 10.918 27.0926 10.918C27.648 10.918 28.1502 10.7172 28.5154 10.3905L28.5173 10.3922L28.5192 10.3905C28.8825 10.0655 29.107 9.61627 29.107 9.11764C29.1051 8.62416 28.8806 8.17491 28.5173 7.84819ZM12.8681 16.5151C12.5333 16.9252 12.2005 17.3183 11.8695 17.6875C11.6869 17.8917 11.4681 18.0517 11.2209 18.1623C11.2114 18.1674 11.2018 18.1725 11.1923 18.1759C10.9317 18.2882 10.6445 18.3461 10.3421 18.3461C10.0396 18.3461 9.75432 18.2882 9.4937 18.1759C9.23501 18.0653 9.00675 17.9002 8.81465 17.6875C8.46466 17.2961 8.12795 16.8996 7.80272 16.4997C7.45843 16.076 7.13316 15.6591 6.82881 15.2524L6.80979 15.2285C6.66523 15.0346 6.45029 14.9086 6.2163 14.8593C6.11739 14.8389 6.01467 14.8321 5.91195 14.8389H5.90815C5.76929 14.8491 5.63044 14.8865 5.50109 14.9529L5.40978 15.0005H5.40788C5.28424 15.0635 5.18343 15.1435 5.10734 15.2354C5.03125 15.3272 4.97609 15.4362 4.94375 15.5621C4.91142 15.6897 4.90571 15.8088 4.92854 15.9211C4.95136 16.0334 5.00272 16.1441 5.08451 16.2513C5.66087 17.0255 6.26766 17.7845 6.90298 18.5145C7.49838 19.1986 8.12796 19.8674 8.78802 20.5072C8.95921 20.6739 9.08856 20.856 9.17606 21.0551C9.26356 21.2559 9.30731 21.4686 9.30731 21.6932V25.8896C9.30731 26.1312 9.41763 26.3524 9.59453 26.5107C9.77334 26.6689 10.0187 26.7676 10.2888 26.7676H10.3934C10.654 26.7676 10.8918 26.6757 11.0687 26.5277L11.0877 26.509C11.2665 26.349 11.3768 26.1295 11.3768 25.8879V21.6915C11.3768 21.4669 11.4206 21.2542 11.5081 21.0534C11.5956 20.8543 11.7249 20.6722 11.8961 20.5055C12.5524 19.869 13.1763 19.2071 13.7679 18.5281C14.4013 17.8015 15.0043 17.0493 15.5749 16.2853C15.6548 16.1781 15.7062 16.0675 15.729 15.9552C15.7518 15.8428 15.7461 15.722 15.7138 15.5961C15.6814 15.4702 15.6263 15.3613 15.5502 15.2694C15.4741 15.1775 15.3733 15.0975 15.2477 15.0345L15.1583 14.9886C14.9339 14.8729 14.6771 14.844 14.4412 14.8933C14.2053 14.9427 13.9904 15.0686 13.8458 15.2626C13.5358 15.6778 13.2105 16.0948 12.8681 16.5151ZM11.063 13.0828H9.59455C9.35488 13.0828 9.13803 12.9892 8.98206 12.8411C8.8356 12.6999 8.74429 12.5076 8.74429 12.2983V10.1031H6.2905C6.05653 10.1031 5.84159 10.0214 5.68371 9.8904C5.51632 9.75086 5.4136 9.55857 5.4136 9.34246V8.02877C5.4136 7.81435 5.51632 7.62036 5.68371 7.48083C5.84159 7.3498 6.05653 7.26812 6.2905 7.26812H8.74429V5.07463C8.74429 4.86532 8.8356 4.67303 8.98206 4.53179C9.13804 4.38204 9.35298 4.29015 9.59455 4.29015H11.063C11.3027 4.29015 11.5195 4.38374 11.6755 4.53179C11.822 4.67303 11.9133 4.86532 11.9133 5.07463V7.26812H14.3652C14.5991 7.26812 14.8141 7.3498 14.9719 7.48083C15.1393 7.62037 15.242 7.81436 15.242 8.02877V9.34246C15.242 9.55687 15.1374 9.75086 14.9719 9.8904C14.8141 10.0214 14.5991 10.1031 14.3652 10.1031H11.9133V12.2983C11.9133 12.5076 11.822 12.6999 11.6755 12.8411C11.5195 12.9909 11.3027 13.0828 11.063 13.0828Z" fill="#00C0A0"/>
</svg>
