<svg width="32" height="35" viewBox="0 0 32 35" fill="none" xmlns="http://www.w3.org/2000/svg">
<path d="M29.233 17.3579C29.184 17.2748 29.1648 17.1654 29.1751 17.0589C29.2345 16.566 29.2641 16.076 29.2641 15.6035C29.2641 8.50532 23.2583 2.73145 15.8745 2.73145C15.8033 2.73145 15.7351 2.73436 15.6654 2.73728H15.6639H15.6609C15.6461 2.73874 15.6298 2.73728 15.6135 2.73874C15.5808 2.74165 15.5542 2.75624 15.523 2.76499C15.4845 2.77374 15.4459 2.78103 15.4103 2.79707C15.3747 2.81312 15.3465 2.83791 15.3154 2.85979C15.2857 2.88166 15.2531 2.90062 15.2279 2.92833C15.2012 2.95604 15.1849 2.98812 15.1641 3.02167C15.1449 3.05375 15.1226 3.08292 15.1093 3.11792C15.0944 3.15438 15.0915 3.19376 15.0855 3.23168C15.0811 3.2623 15.0677 3.28855 15.0677 3.32064V9.02283C15.0677 9.25617 15.2101 9.46909 15.4296 9.55952C15.6491 9.6514 15.9012 9.60473 16.0732 9.44285C16.5788 8.96451 17.5635 9.00386 18.0514 9.58868C18.3139 9.9037 18.4118 10.3033 18.3287 10.7131C18.2205 11.2308 17.783 11.6552 17.2551 11.7456C16.8161 11.8288 16.3742 11.7077 16.0746 11.4204C15.9026 11.2571 15.649 11.2104 15.4311 11.3008C15.2116 11.3927 15.0692 11.6042 15.0692 11.8375V15.1598H12.695C12.8122 14.7777 12.8374 14.3664 12.7618 13.958C12.5749 12.9736 11.7771 12.1773 10.7761 11.976C10.0079 11.8258 9.22939 12.014 8.6377 12.4923C8.04452 12.9706 7.70346 13.6795 7.70346 14.4334C7.70346 14.6843 7.73905 14.9278 7.80875 15.1597H3.06486H3.06189H3.05892C3.0174 15.1597 2.98033 15.1758 2.94029 15.1845C2.9047 15.1933 2.86614 15.1933 2.83203 15.2078C2.79496 15.2239 2.7653 15.2516 2.73119 15.2749C2.70154 15.2953 2.66891 15.3099 2.6437 15.3347C2.61701 15.361 2.6007 15.396 2.57993 15.4281C2.55917 15.4587 2.53248 15.4864 2.51765 15.5214C2.50282 15.5564 2.50134 15.5972 2.49392 15.6352C2.48651 15.6716 2.47168 15.7052 2.47168 15.7445V15.7475V15.7504C2.50727 19.2257 4.0347 22.564 6.6727 24.9542V34.4164C6.6727 34.7387 6.93814 34.9998 7.26587 34.9998H21.4607C21.7885 34.9998 22.0539 34.7387 22.0539 34.4164V30.0266H26.7044C27.7721 30.0266 28.6411 29.1778 28.6411 28.1336V24.4059L30.8166 23.9654C31.2838 23.8633 31.6782 23.5454 31.871 23.1167C32.0652 22.685 32.0385 22.2008 31.7998 21.791L29.2299 17.3544L29.233 17.3579ZM30.7871 22.6475C30.7678 22.6913 30.7056 22.7978 30.5706 22.8269L27.931 23.3607C27.6552 23.4161 27.4564 23.6553 27.4564 23.9324V28.1356C27.4564 28.5366 27.1198 28.8618 26.7061 28.8618H21.0769C21.0709 28.8618 21.0665 28.8648 21.062 28.8648C19.8846 28.8618 18.7353 28.3922 17.9034 27.5741L16.9869 26.6786C16.7556 26.4511 16.3789 26.4526 16.1476 26.6816C15.9162 26.9105 15.9177 27.2795 16.1505 27.507L17.067 28.4024C18.0724 29.3912 19.4501 29.9717 20.8709 30.0242V33.8365H7.86243V24.698C7.86243 24.5303 7.78977 24.3713 7.66224 24.2605C5.30586 22.2114 3.8926 19.3472 3.69963 16.3297H8.8186C9.05587 16.3297 9.26941 16.1912 9.36284 15.9768C9.45627 15.7624 9.41178 15.5145 9.24865 15.3453C9.02325 15.1105 8.89275 14.7795 8.89275 14.4367C8.89275 14.0328 9.07515 13.6536 9.3925 13.3984C9.7143 13.1388 10.1251 13.0425 10.5432 13.1242C11.0741 13.2321 11.4982 13.6551 11.5976 14.1757C11.6777 14.6074 11.5516 15.0434 11.258 15.3453C11.0934 15.5145 11.0474 15.7624 11.1408 15.9783C11.2343 16.1941 11.4493 16.3327 11.6866 16.3327H15.6651C15.9929 16.3327 16.2583 16.0716 16.2583 15.7493V12.8398C16.6453 12.9535 17.0621 12.9769 17.4713 12.8981C18.4738 12.7275 19.288 11.9458 19.4941 10.9497C19.6468 10.1986 19.457 9.43438 18.9721 8.85393C18.4857 8.27057 17.7649 7.93516 16.9968 7.93516C16.7417 7.93516 16.4926 7.97016 16.2583 8.03724V3.9218C22.81 4.11722 28.0789 9.27714 28.0789 15.6081C28.0789 16.0339 28.0522 16.4787 27.9974 16.9352C27.9588 17.2983 28.0315 17.6469 28.205 17.9415L30.7734 22.3765C30.8416 22.4932 30.812 22.5997 30.7883 22.6522L30.7871 22.6475Z" fill="#00C0A0"/>
<path d="M4.22931 10.8899C4.46509 10.8899 4.68012 10.7528 4.77355 10.5384C4.86846 10.3255 4.82397 10.0775 4.66233 9.90835C4.45768 9.69251 4.34498 9.40814 4.34498 9.10625C4.34498 8.75915 4.50069 8.42955 4.77354 8.20494C5.05085 7.97597 5.40677 7.88409 5.77156 7.94826C6.23126 8.02847 6.61685 8.39453 6.71176 8.83788C6.79777 9.23894 6.69248 9.62688 6.42407 9.90253C6.25946 10.0717 6.21349 10.3196 6.30692 10.5355C6.40034 10.7499 6.61537 10.8899 6.85264 10.8899H10.4888C10.8165 10.8899 11.082 10.6288 11.082 10.3065V7.70764C11.4542 7.80681 11.8546 7.81702 12.2505 7.72952C13.1862 7.52243 13.9144 6.75675 14.0627 5.82338C14.1724 5.13649 13.9737 4.44373 13.5199 3.9231C12.9267 3.24057 11.9376 2.9591 11.0819 3.18367L11.0805 0.583361C11.0805 0.261054 10.815 0 10.4873 0H9.50411C4.26328 0 0 4.19273 0 9.34684V10.3065C0 10.6288 0.265447 10.8898 0.593176 10.8898L4.22931 10.8899ZM1.18632 9.34687C1.18632 4.83605 4.91739 1.16676 9.50256 1.16676H9.89255V4.15211C9.89255 4.38399 10.032 4.59546 10.2499 4.68734C10.4665 4.78068 10.7186 4.73693 10.8906 4.57796C11.3518 4.15212 12.1867 4.1871 12.6167 4.68151C12.8481 4.94694 12.9445 5.2882 12.8881 5.64259C12.8154 6.09908 12.4447 6.48991 11.9865 6.59056C11.5861 6.67953 11.1768 6.57452 10.8965 6.30909C10.7245 6.14721 10.4709 6.102 10.2529 6.19388C10.0349 6.28576 9.89257 6.49723 9.89257 6.73057V9.7232H7.84168C7.93955 9.36443 7.9529 8.98087 7.87134 8.60024C7.67707 7.68728 6.91485 6.96391 5.97613 6.80057C5.26728 6.67661 4.55251 6.86328 4.00975 7.31102C3.46847 7.75728 3.15705 8.41211 3.15705 9.10486C3.15705 9.31633 3.18523 9.52342 3.2401 9.72174H1.18621V9.34548L1.18632 9.34687Z" fill="#00C0A0"/>
</svg>
