<svg width="32" height="37" viewBox="0 0 32 37" fill="none" xmlns="http://www.w3.org/2000/svg">
<path d="M15.2777 2.45978C15.2777 2.89189 14.896 3.24437 14.4281 3.24437C13.9602 3.24437 13.5786 2.89189 13.5786 2.45978C13.5786 2.02767 13.9602 1.6752 14.4281 1.6752C14.896 1.6752 15.2777 2.02767 15.2777 2.45978ZM2.72565 12.4724V10.4165C2.72565 10.1378 2.97158 9.91069 3.27339 9.91069H4.72822V8.56714C4.72822 8.28841 4.97415 8.0613 5.27596 8.0613H7.50212C7.80394 8.0613 8.04986 8.28842 8.04986 8.56714V9.91069H9.50469C9.80651 9.91069 10.0524 10.1378 10.0524 10.4165V12.4724C10.0524 12.7511 9.8065 12.9783 9.50469 12.9783H8.04986V14.3218C8.04986 14.6005 7.80393 14.8276 7.50212 14.8276H5.27596C4.97414 14.8276 4.72822 14.6005 4.72822 14.3218V12.9783H3.27339C2.97157 12.9783 2.72565 12.7511 2.72565 12.4724ZM3.82117 11.9666H5.276C5.57783 11.9666 5.82374 12.1937 5.82374 12.4724V13.816H6.95438V12.4724C6.95438 12.1937 7.20031 11.9666 7.50212 11.9666H8.95695V10.9224H7.50212C7.20029 10.9224 6.95438 10.6953 6.95438 10.4166V9.07302H5.82374V10.4166C5.82374 10.6953 5.57781 10.9224 5.276 10.9224H3.82117V11.9666ZM13.213 9.49773H25.3611C25.663 9.49773 25.9089 9.27061 25.9089 8.99189C25.9089 8.71315 25.663 8.48605 25.3611 8.48605H13.213C12.9112 8.48605 12.6653 8.71317 12.6653 8.99189C12.6653 9.2721 12.9096 9.49773 13.213 9.49773ZM13.213 11.3943H25.3611C25.663 11.3943 25.9089 11.1672 25.9089 10.8885C25.9089 10.6097 25.663 10.3826 25.3611 10.3826H13.213C12.9112 10.3826 12.6653 10.6098 12.6653 10.8885C12.6653 11.1687 12.9096 11.3943 13.213 11.3943ZM13.213 13.2909H19.2877C19.5895 13.2909 19.8354 13.0638 19.8354 12.7851C19.8354 12.5063 19.5895 12.2792 19.2877 12.2792H13.213C12.9112 12.2792 12.6653 12.5063 12.6653 12.7851C12.6653 13.0653 12.9096 13.2909 13.213 13.2909ZM3.27376 23.6958H16.2857C16.5875 23.6958 16.8335 23.4687 16.8335 23.19C16.8335 22.9112 16.5875 22.6841 16.2857 22.6841H3.27376C2.97193 22.6841 2.72602 22.9112 2.72602 23.19C2.72602 23.4687 2.97195 23.6958 3.27376 23.6958ZM3.27376 25.7266H9.78138C10.0832 25.7266 10.3291 25.4995 10.3291 25.2208C10.3291 24.942 10.0832 24.7149 9.78138 24.7149H3.27376C2.97193 24.7149 2.72602 24.942 2.72602 25.2208C2.72602 25.501 2.97195 25.7266 3.27376 25.7266ZM32 21.3761V34.9294C32 36.0665 30.9971 36.9926 29.7642 36.9926H23.6638C22.6913 36.9926 21.8625 36.4145 21.5558 35.6122C21.1103 36.0576 20.6073 36.4042 20.0643 36.6372C19.5006 36.8791 18.9033 37 18.2805 37C17.7391 37 17.177 36.9086 16.5973 36.7257C16.0208 36.9071 15.4586 36.9971 14.9173 36.9971C13.5439 36.9971 12.3126 36.4219 11.3593 35.3158L2.41139 35.3143C1.08113 35.3143 0 34.3159 0 33.0874V5.96115C0 4.73264 1.08113 3.73421 2.41139 3.73421H7.9591V3.28587C7.9591 2.73725 8.44298 2.29038 9.03704 2.29038H11.3702C11.5938 2.29038 11.7758 2.15323 11.8237 1.94971C12.0824 0.821473 13.1779 0 14.4284 0C15.6804 0 16.7759 0.821473 17.0362 1.95118C17.0825 2.15323 17.2646 2.28891 17.4897 2.28891H19.8229C20.4153 2.28891 20.8992 2.73578 20.8992 3.28439V3.73274H26.2266C27.5553 3.73274 28.6348 4.73117 28.6348 5.95968V12.8013H29.4429C29.7447 12.8013 29.9906 13.0284 29.9906 13.3071V15.8895L31.9708 21.2107C31.9884 21.2652 31.9996 21.3198 31.9996 21.3758L32 21.3761ZM30.9029 21.4616L29.0504 16.4814H24.3792L22.5268 21.4616V24.1694H30.9044L30.9029 21.4616ZM22.527 30.365H30.9045L30.9029 25.1797H22.527L22.527 30.365ZM28.8939 13.8147H24.5359V15.4695H28.8939V13.8147ZM9.05507 5.17828H19.8026V3.30231H17.4886C16.7444 3.30231 16.1168 2.83332 15.9635 2.16082C15.8117 1.49569 15.165 1.01194 14.4272 1.01194C13.691 1.01194 13.0458 1.49566 12.8941 2.16082C12.736 2.83332 12.11 3.30084 11.369 3.30084H9.05339L9.05507 5.17828ZM2.41172 34.3029H10.6519C10.216 33.536 9.92373 32.6835 9.7752 31.8237L3.27413 31.8252C2.9723 31.8252 2.72639 31.5981 2.72639 31.3194C2.72639 31.0406 2.97232 30.8135 3.27413 30.8135H9.6685C9.65413 30.4684 9.66531 30.1263 9.69884 29.793H3.27422C2.97239 29.793 2.72648 29.5658 2.72648 29.2871C2.72648 29.0084 2.97241 28.7813 3.27422 28.7813H9.88077C9.97978 28.417 10.1107 28.0748 10.2752 27.7607H3.27415C2.97233 27.7607 2.72641 27.5336 2.72641 27.2549C2.72641 26.9762 2.97234 26.749 3.27415 26.749H11.0385C11.7699 26.075 13.3621 25.2433 16.1582 26.6104C16.4775 25.0456 17.3878 24.0664 18.9241 23.6298C19.2131 23.5472 19.5197 23.6977 19.6092 23.9646C19.6986 24.2316 19.5357 24.5147 19.2467 24.5973C18.2182 24.8893 17.597 25.4837 17.3111 26.4792C19.2275 25.6135 20.5546 25.7919 21.4296 26.2432V21.6639H3.27386C2.97203 21.6639 2.72612 21.4368 2.72612 21.1581C2.72612 20.8793 2.97205 20.6522 3.27386 20.6522H21.6675L22.0476 19.6317H3.27373C2.97191 19.6317 2.72599 19.4045 2.72599 19.1258C2.72599 18.8471 2.97192 18.62 3.27373 18.62H22.4246L22.8046 17.5994H3.27401C2.97219 17.5994 2.72627 17.3723 2.72627 17.0936C2.72627 16.8148 2.9722 16.5877 3.27401 16.5877H23.1799L23.4386 15.8901V13.3078C23.4386 13.029 23.6846 12.8019 23.9864 12.8019H27.538V5.96035C27.538 5.2908 26.9487 4.74509 26.2253 4.74509L20.898 4.74657V5.19785C20.898 5.745 20.4157 6.19186 19.8216 6.19186L9.03734 6.19039C8.44328 6.19039 7.95939 5.74499 7.95939 5.19638L7.9578 4.74656H2.41173C1.68672 4.74656 1.09581 5.29076 1.09581 5.96182L1.09741 33.0895C1.09741 33.7591 1.68669 34.3033 2.41169 34.3033L2.41172 34.3029ZM21.4313 34.0713V27.5114C20.2128 26.3242 18.3029 27.0321 16.8926 27.855C16.8718 27.8668 16.8511 27.8771 16.8287 27.8875C16.8255 27.8889 16.8207 27.8904 16.8175 27.8919C16.7952 27.9007 16.7728 27.9081 16.7505 27.914C16.7281 27.9199 16.7057 27.9243 16.6818 27.9273C16.677 27.9288 16.6738 27.9288 16.669 27.9288C16.6466 27.9317 16.6227 27.9332 16.5987 27.9332C16.586 27.9332 16.5732 27.9332 16.5588 27.9317C16.5492 27.9302 16.5412 27.9302 16.5317 27.9288C16.5253 27.9273 16.5205 27.9273 16.5141 27.9273C16.4901 27.9243 16.4678 27.9199 16.4454 27.914H16.4438C16.4215 27.9081 16.4007 27.9007 16.3784 27.8919C16.3736 27.8904 16.3688 27.8875 16.3656 27.886C16.3432 27.8757 16.3209 27.8653 16.3001 27.8535C14.9219 27.0483 13.0232 26.3301 11.7982 27.4745C10.3721 28.8077 10.428 32.1879 11.9131 34.2969C12.6813 35.3897 14.085 36.5209 16.402 35.7127C16.5266 35.6699 16.6639 35.6699 16.7885 35.7127C19.3292 36.6005 20.7681 35.1183 21.4306 34.0712L21.4313 34.0713ZM30.9029 34.9296V31.3754L22.527 31.3768V34.2085V34.2129V34.9311C22.527 35.5107 23.038 35.9811 23.664 35.9811H29.7644C30.392 35.9811 30.9029 35.5093 30.9029 34.9296Z" fill="#00BFA0"/>
</svg>
