<svg width="18" height="20" viewBox="0 0 18 20" fill="none" xmlns="http://www.w3.org/2000/svg">
<path d="M11.9398 18.5236H1.61837C1.11463 18.5236 0.707373 18.1382 0.707373 17.6598V1.54036C0.707373 1.0627 1.11378 0.676531 1.61837 0.676531H9.81468V3.84271C9.81468 4.6369 10.4943 5.28214 11.3327 5.28214H14.6718V9.02406C14.6718 9.18517 14.805 9.31227 14.9757 9.31227C15.1456 9.31227 15.2797 9.18597 15.2797 9.02406V4.99406C15.2797 4.99406 15.2797 4.97139 15.2737 4.95358C15.2737 4.94225 15.2737 4.93091 15.2677 4.91877C15.2677 4.90743 15.2677 4.8961 15.2617 4.87829C15.2438 4.84348 15.225 4.80948 15.1951 4.786L10.3379 0.180246C10.3379 0.180246 10.2773 0.1341 10.2406 0.117099C10.2286 0.117099 10.2167 0.117099 10.1979 0.111432C10.1859 0.111432 10.174 0.111432 10.1612 0.105765C10.1492 0.105765 10.1372 0.100098 10.1185 0.100098H1.61812C0.780567 0.100098 0.100098 0.744526 0.100098 1.53952V17.6589C0.100098 18.4531 0.779714 19.0984 1.61812 19.0984H11.9396C12.1095 19.0984 12.2435 18.9721 12.2435 18.8101C12.2435 18.649 12.1103 18.5219 11.9396 18.5219L11.9398 18.5236ZM11.3328 4.70737C10.8291 4.70737 10.4218 4.322 10.4218 3.84354V1.08606L14.2409 4.70737H11.3328ZM5.56456 2.69232V4.13175H7.08258C7.25248 4.13175 7.38652 4.25804 7.38652 4.41995C7.38652 4.58106 7.25333 4.70815 7.08258 4.70815H5.56456V6.14758C5.56456 6.30868 5.43136 6.43578 5.26061 6.43578C5.09071 6.43578 4.95667 6.30949 4.95667 6.14758V4.70815H3.43865C3.26875 4.70815 3.13471 4.58186 3.13471 4.41995C3.13471 4.25884 3.2679 4.13175 3.43865 4.13175H4.95667V2.69232C4.95667 2.53122 5.08986 2.40412 5.26061 2.40412C5.43052 2.40412 5.56456 2.53041 5.56456 2.69232ZM14.975 10.4643C13.8036 10.4643 12.8499 11.3677 12.8499 12.4793V17.0851C12.8499 18.1958 13.8028 19.1001 14.975 19.1001C16.1464 19.1001 17.1001 18.1966 17.1001 17.0851V12.4793C17.1001 11.3686 16.1473 10.4643 14.975 10.4643ZM14.975 11.0399C15.8126 11.0399 16.493 11.6843 16.493 12.4793V14.4943H13.4569V12.4793C13.4569 11.6851 14.1366 11.0399 14.975 11.0399ZM14.975 18.5235C14.1375 18.5235 13.457 17.8791 13.457 17.0841V15.069H16.4931V17.0841C16.4931 17.8783 15.8134 18.5235 14.975 18.5235ZM11.0288 8.44921C11.0288 8.61032 10.8956 8.73741 10.7248 8.73741H3.4395C3.2696 8.73741 3.13556 8.61112 3.13556 8.44921C3.13556 8.28811 3.26875 8.16101 3.4395 8.16101H10.7248C10.8947 8.16101 11.0288 8.2873 11.0288 8.44921ZM11.0288 10.7516C11.0288 10.9127 10.8956 11.0398 10.7248 11.0398H3.4395C3.2696 11.0398 3.13556 10.9135 3.13556 10.7516C3.13556 10.5905 3.26875 10.4634 3.4395 10.4634H10.7248C10.8947 10.4634 11.0288 10.5897 11.0288 10.7516ZM11.0288 13.0548C11.0288 13.2159 10.8956 13.343 10.7248 13.343H3.4395C3.2696 13.343 3.13556 13.2167 3.13556 13.0548C3.13556 12.8937 3.26875 12.7666 3.4395 12.7666H10.7248C10.8947 12.7666 11.0288 12.8928 11.0288 13.0548Z" fill="#777777" fill-opacity="0.7"/>
<path d="M14.9751 10.4146C16.1723 10.4146 17.1497 11.3383 17.1499 12.479V17.0854C17.1497 18.2269 16.1714 19.1499 14.9751 19.1499C13.7779 19.1499 12.8005 18.2261 12.8003 17.0854V12.479C12.8005 11.3375 13.7787 10.4146 14.9751 10.4146ZM10.1187 0.050293C10.1332 0.0503119 10.1451 0.0525906 10.1528 0.0541992C10.1601 0.0557018 10.1616 0.0561322 10.1616 0.0561523H10.1714L10.1812 0.0600586C10.1831 0.0609167 10.1852 0.0610319 10.1978 0.0610352H10.2056L10.2124 0.0639648C10.2187 0.0658608 10.2235 0.0665228 10.2271 0.0668945H10.2515L10.2612 0.0717773C10.2839 0.082263 10.3118 0.100084 10.3315 0.11377C10.3419 0.120927 10.3514 0.127533 10.3579 0.132324C10.3609 0.134519 10.363 0.136854 10.3647 0.138184L10.3677 0.140137H10.3687L10.3726 0.144043L15.23 4.74951H15.229C15.2665 4.78026 15.2891 4.82184 15.3062 4.85498L15.3101 4.86182L15.3091 4.86279C15.3175 4.88792 15.3179 4.90544 15.3179 4.91846H15.3169C15.3187 4.92582 15.3204 4.93203 15.3208 4.93799L15.3286 4.97607C15.3291 4.98099 15.3295 4.98569 15.3296 4.98877V9.02393C15.3296 9.21589 15.1708 9.36164 14.9761 9.36182C14.7802 9.36182 14.6216 9.21503 14.6216 9.02393V5.33252H11.3325C10.4691 5.33242 9.76514 4.66648 9.76514 3.84229V0.726074H1.61865C1.13917 0.726074 0.757324 1.09293 0.757324 1.54053V17.6597C0.757324 18.108 1.13996 18.4731 1.61865 18.4731H11.8813V18.4722H11.9399C12.1357 18.4723 12.2934 18.6191 12.2935 18.8101C12.2935 19.002 12.1347 19.1478 11.9399 19.1479H1.61768C0.754377 19.1477 0.050293 18.4828 0.050293 17.6587V1.53955C0.050293 0.714593 0.755267 0.0505217 1.61768 0.050293H10.1187ZM13.5073 17.0845C13.5075 17.8492 14.1627 18.4731 14.9751 18.4731C15.7882 18.4731 16.4426 17.8484 16.4429 17.0845V15.1187H13.5073V17.0845ZM14.9751 11.0903C14.1619 11.0903 13.5075 11.715 13.5073 12.479V14.4438H16.4429V12.479C16.4427 11.7143 15.7875 11.0904 14.9751 11.0903ZM10.7251 12.7163C10.9199 12.7164 11.0786 12.8632 11.0786 13.0552C11.0784 13.246 10.9207 13.3929 10.7251 13.3931H3.43994C3.2452 13.3931 3.08568 13.2471 3.08545 13.0552C3.08545 12.8641 3.24402 12.7163 3.43994 12.7163H10.7251ZM10.7251 10.4136C10.9198 10.4137 11.0786 10.5595 11.0786 10.7515C11.0786 10.9425 10.9209 11.0892 10.7251 11.0894H3.43994C3.24506 11.0894 3.08545 10.9436 3.08545 10.7515C3.08551 10.5604 3.24406 10.4136 3.43994 10.4136H10.7251ZM10.7251 8.11084C10.9197 8.11098 11.0783 8.25697 11.0786 8.44873C11.0786 8.63974 10.9209 8.78746 10.7251 8.7876H3.43994C3.24506 8.7876 3.08545 8.64081 3.08545 8.44873C3.08571 8.25786 3.24419 8.11084 3.43994 8.11084H10.7251ZM5.26025 2.354C5.45499 2.354 5.61451 2.50002 5.61475 2.69189V4.08154H7.08252C7.2774 4.08154 7.43604 4.22833 7.43604 4.42041C7.43578 4.61129 7.27828 4.7583 7.08252 4.7583H5.61475V6.14795C5.61454 6.33887 5.45605 6.48584 5.26025 6.48584C5.06566 6.48566 4.90694 6.33973 4.90674 6.14795V4.7583H3.43896C3.24424 4.7583 3.08473 4.61227 3.08447 4.42041C3.08447 4.22931 3.24305 4.08154 3.43896 4.08154H4.90674V2.69189C4.90697 2.50112 5.06465 2.35418 5.26025 2.354ZM10.4722 3.84326C10.4722 4.29152 10.854 4.65757 11.3325 4.65771H14.1157L10.4722 1.20264V3.84326Z" stroke="#777777" stroke-opacity="0.7" stroke-width="0.1"/>
</svg>
