<svg width="32" height="32" viewBox="0 0 32 32" fill="none" xmlns="http://www.w3.org/2000/svg">
<rect width="32" height="32" rx="6" fill="#E7F9F5"/>
<path d="M18.1903 9H7.73828C6.77826 9 6 9.72637 6 10.6224V20.3776C6 21.2736 6.77826 22 7.73828 22H18.1903C19.1503 22 19.9286 21.2736 19.9286 20.3776V10.6224C19.9286 9.72637 19.1503 9 18.1903 9Z" fill="#004F4F"/>
<path d="M24.9687 9.70988C24.7887 9.63012 24.588 9.60038 24.3904 9.62419C24.1928 9.64801 24.0067 9.72439 23.8544 9.84421L20.9285 12.1201V18.8801L23.8525 21.1551C24.0401 21.3016 24.2766 21.3822 24.5211 21.383C24.6758 21.3824 24.8285 21.3505 24.9687 21.2894C25.1494 21.2115 25.3022 21.0867 25.4091 20.93C25.5159 20.7733 25.5722 20.5912 25.5713 20.4054V10.5947C25.5724 10.4088 25.5162 10.2266 25.4093 10.0697C25.3025 9.91276 25.1495 9.78787 24.9687 9.70988Z" fill="#004F4F"/>
</svg>
