<svg xmlns="http://www.w3.org/2000/svg" xmlns:xlink="http://www.w3.org/1999/xlink" width="34" height="34" viewBox="0 0 34 34">
  <defs>
    <clipPath id="clip-path">
      <rect id="Rectangle_18292" data-name="Rectangle 18292" width="23" height="20" transform="translate(4899.718 119.939)" fill="#fff" stroke="#707070" stroke-width="1"/>
    </clipPath>
  </defs>
  <g id="Group_6272" data-name="Group 6272" transform="translate(-58 -763)">
    <rect id="Rectangle_18275" data-name="Rectangle 18275" width="34" height="34" rx="5" transform="translate(58 763)" fill="rgba(63,188,161,0.1)"/>
    <g id="Mask_Group_19" data-name="Mask Group 19" transform="translate(-4835.718 650.061)" clip-path="url(#clip-path)">
      <g id="noun-split-personality-2247056" transform="translate(4899.621 119.875)">
        <path id="Path_56896" data-name="Path 56896" d="M34.474,48.986l-.138-.185c-.459-.616-.427-.914-.336-1.123a2.062,2.062,0,0,0,.033-1.627,4.315,4.315,0,0,1-.094-.467c-.016-.1-.034-.2-.056-.32a5.513,5.513,0,0,0-2.424-3.681,8.854,8.854,0,0,0-5.383-1.061,7.4,7.4,0,0,0-1.753.3,7.4,7.4,0,0,0-1.753-.3,8.856,8.856,0,0,0-5.383,1.061,5.513,5.513,0,0,0-2.424,3.681c-.021.116-.039.222-.056.32a4.3,4.3,0,0,1-.094.468,2.061,2.061,0,0,0,.033,1.626c.091.21.123.507-.335,1.122l-.139.185c-.647.861-1.034,1.424-.955,1.986a1.3,1.3,0,0,0,.994,1.018c-.009.022-.02.046-.031.072l-.023.05a1.138,1.138,0,0,0,.008,1.159,1,1,0,0,0-.036.325v.012a.973.973,0,0,0,.277.666c.02.024.046.055.058.072a.287.287,0,0,1-.007.042,2.406,2.406,0,0,0,.138,1.772,1.139,1.139,0,0,0,.756.506,6.1,6.1,0,0,0,1.843.042h0a5.36,5.36,0,0,1,.609-.037.457.457,0,0,1,.356.161,4.492,4.492,0,0,1,.18,1.744,1.9,1.9,0,0,1-.245.814l-.191.258a.366.366,0,0,0,.294.584l9.019.012c.4.01.336.036.506-.073a.366.366,0,0,0,.11-.506l-.147-.228a10.812,10.812,0,0,1-1.118-4.879,3.258,3.258,0,0,1,.771-1.544,12.1,12.1,0,0,0,1.844-4.46,7.763,7.763,0,0,0-1.263-5.326A6.765,6.765,0,0,0,25.551,41.3q.278-.037.56-.051a8.192,8.192,0,0,1,4.955.947,4.786,4.786,0,0,1,2.1,3.2c.021.111.038.214.054.308a4.833,4.833,0,0,0,.114.554,1.342,1.342,0,0,1,0,1.126,1.855,1.855,0,0,0,.421,1.855l.139.186c.382.509.858,1.141.815,1.449-.03.224-.227.331-.535.432l-.011,0c-.035.011-.067.022-.094.033s-.05.016-.066.021a.688.688,0,0,0-.185.072l-.084.053-.046.088c-.089.17-.051.422.12.8l.025.052c.112.236.134.368-.031.529l-.228.222.188.257a.18.18,0,0,1,.029.135v.005c0,.017,0,.035,0,.049,0,.049-.033.1-.106.182a.765.765,0,0,0-.2.758,1.763,1.763,0,0,1-.041,1.2.4.4,0,0,1-.273.184,5.324,5.324,0,0,1-1.639.033h0a5.926,5.926,0,0,0-.692-.041,1.117,1.117,0,0,0-1.041.668,5.287,5.287,0,0,0-.211,2.053,2.639,2.639,0,0,0,.332,1.087l.014.029.23.309a.366.366,0,0,0,.588-.436l-.191-.258a1.906,1.906,0,0,1-.245-.814,4.491,4.491,0,0,1,.179-1.742.454.454,0,0,1,.357-.163,5.322,5.322,0,0,1,.608.037h.005a6.1,6.1,0,0,0,1.843-.042,1.138,1.138,0,0,0,.756-.506,2.406,2.406,0,0,0,.138-1.771.3.3,0,0,1-.008-.043c.012-.017.038-.048.058-.072a.977.977,0,0,0,.277-.665V53.6a1,1,0,0,0-.036-.326,1.138,1.138,0,0,0,.008-1.158l-.022-.047q-.019-.041-.033-.076a1.3,1.3,0,0,0,.994-1.016C35.507,50.41,35.12,49.846,34.474,48.986Z" transform="translate(-12.324 -40.501)" fill="#033"/>
        <text id="Created_by_rajesh" data-name="Created by rajesh" transform="translate(0.097 22.065)" font-size="1" font-family="Arial-BoldMT, Arial" font-weight="700"><tspan x="0" y="0">Created by rajesh</tspan></text>
        <text id="from_the_Noun_Project" data-name="from the Noun Project" transform="translate(0.097 23.065)" font-size="1" font-family="Arial-BoldMT, Arial" font-weight="700"><tspan x="0" y="0">from the Noun Project</tspan></text>
      </g>
    </g>
  </g>
</svg>
