<svg xmlns="http://www.w3.org/2000/svg" xmlns:xlink="http://www.w3.org/1999/xlink" width="34" height="34" viewBox="0 0 34 34">
  <defs>
    <clipPath id="clip-path">
      <rect id="Rectangle_18288" data-name="Rectangle 18288" width="22" height="23" fill="#fff" stroke="#707070" stroke-width="1"/>
    </clipPath>
  </defs>
  <g id="Group_6007" data-name="Group 6007" transform="translate(-58 -763)">
    <rect id="Rectangle_18275" data-name="Rectangle 18275" width="34" height="34" rx="5" transform="translate(58 763)" fill="rgba(63,188,161,0.1)"/>
    <g id="Mask_Group_15" data-name="Mask Group 15" transform="translate(64.4 768.5)" clip-path="url(#clip-path)">
      <g id="noun-career-growth-7351431" transform="translate(-3 -0.181)">
        <path id="Path_56841" data-name="Path 56841" d="M42.936,24.588a1.6,1.6,0,0,1-.135.294,1.805,1.805,0,0,1-.583.612,3.723,3.723,0,0,1-1.831,2.61,3.387,3.387,0,0,1-2.857.122,3.135,3.135,0,0,1-1-.878,4.2,4.2,0,0,1-.855-1.83,1.644,1.644,0,0,1-.78-.929.118.118,0,0,1-.01-.038.83.83,0,0,0,.145.015,1.074,1.074,0,0,0,.756-.314,4.372,4.372,0,0,0,.924-1.377,4.289,4.289,0,0,0,.164-.467,11.085,11.085,0,0,0,2.081.187,10.938,10.938,0,0,0,1.91-.2,4.37,4.37,0,0,0,.149.486,4.652,4.652,0,0,0,.826,1.382,1.053,1.053,0,0,0,.8.363,1.091,1.091,0,0,0,.219-.023.37.37,0,0,0,.075-.018Z" transform="translate(-25.044 -18.096)" fill="#033"/>
        <path id="Path_56842" data-name="Path 56842" d="M45.963,46.689a.334.334,0,0,0-.3.02c-.031.018-1.949,1.15-1.972,1.177-.022-.027-1.941-1.159-1.972-1.177a.325.325,0,0,0-.26-.033c.01-.277.026-.55.046-.83a3.973,3.973,0,0,0,4.4-.057c.023.3.04.6.057.9Z" transform="translate(-29.839 -35.16)" fill="#033"/>
        <path id="Path_56843" data-name="Path 56843" d="M28.71,49.484a.3.3,0,0,1,.072.169l.309,2.726a.333.333,0,0,1-.524.309L27.4,51.855v.283a.992.992,0,0,1-.156.376c.046.232.148.782.258,1.428L31.872,50.6a31.308,31.308,0,0,0-3.161-1.111Zm-.533.756c-.964.571-.761.448-1.04.613.173.127.655.465,1.209.858C28.288,51.212,28.322,51.512,28.178,50.24Zm-1.614,2.291c-.03-.156.085-.321.165-.473v-.676c-.1-.068-.063-.046-.152-.106h-.533c-.085.059-.055.038-.148.106v.676c.076.152.19.317.161.473,0,.017-.194,1-.359,2.05l.435.406L26.9,54.4c-.156-.98-.33-1.855-.334-1.872ZM24.442,50.24c-.144,1.272-.11.972-.165,1.471.558-.4,1.048-.744,1.209-.858-.279-.165-.076-.042-1.044-.613Zm.786,1.9v-.283l-1.175.833a.332.332,0,0,1-.524-.309l.313-2.726a.307.307,0,0,1,.059-.161c-.938.27-4.323,1.293-5.164,2.291-.79.938-1.069,4.252-1.1,4.623a.321.321,0,0,0,.017.127l5.186-3.465a1.1,1.1,0,0,1,1.361.114l.909.849c.114-.685.224-1.276.27-1.517a1.035,1.035,0,0,1-.152-.376Z" transform="translate(-12.459 -37.855)" fill="#033"/>
        <path id="Path_56844" data-name="Path 56844" d="M42.573,9.993a5.283,5.283,0,0,1-.149,1.807c-.019.075-.037.141-.056.2h0a.123.123,0,0,1-.21.041,3.557,3.557,0,0,1-.774-1.475,3.319,3.319,0,0,1-.108-.789.114.114,0,0,0-.05-.093.115.115,0,0,0-.1-.014,9.57,9.57,0,0,1-2.563.378,9.465,9.465,0,0,1-2.7-.365A.123.123,0,0,0,35.7,9.8a3.137,3.137,0,0,1-.243,1.11,3.435,3.435,0,0,1-.724,1.079.123.123,0,0,1-.2-.046A4.33,4.33,0,0,1,34.5,9.569a4.141,4.141,0,0,1,2.1-2.685c.089-.042.177-.079.266-.112A5.63,5.63,0,0,1,40.15,6.7a3.257,3.257,0,0,1,.5.182,3.711,3.711,0,0,0,1.177.36c.023,0,.046,0,.07.01h0a1.078,1.078,0,0,0,.131.005,3.888,3.888,0,0,0,.6-.037.118.118,0,0,1,.131.135,1.861,1.861,0,0,1-.257.686,1.129,1.129,0,0,1-.266.313.111.111,0,0,0-.037.131c.029.07.056.145.085.224h0a5.356,5.356,0,0,1,.289,1.284Z" transform="translate(-24.651 -6.491)" fill="#033"/>
        <path id="Path_56845" data-name="Path 56845" d="M31.366,45.1l-.093,2.409a.087.087,0,0,1-.057.074.084.084,0,0,1-.091-.019l-.625-.625-2.354,1.847L23.56,52.375l-.414.325-.913.714L20.12,55.071a.255.255,0,0,1-.334-.008l-1.762-1.648-.537-.5a.249.249,0,0,0-.309-.025l-.79.528L9.47,58.033A.041.041,0,0,1,9.407,58V55.768a.128.128,0,0,1,.055-.106l3.364-2.248,4.48-3a.257.257,0,0,1,.313.03l1.335,1.247.6.562.363.338a.251.251,0,0,0,.334.013l.782-.6.6-.461,5.092-3.9,2.544-1.944-.634-.63a.085.085,0,0,1-.017-.091.087.087,0,0,1,.076-.053l2.46-.042a.208.208,0,0,1,.207.207Z" transform="translate(-6.455 -34.504)" fill="#033"/>
        <text id="Created_by_Andy_Horvath" data-name="Created by Andy Horvath" transform="translate(0 29.181)" font-size="1" font-family="SegoeUI-Bold, Segoe UI" font-weight="700"><tspan x="0" y="0">Created by Andy Horvath</tspan></text>
        <text id="from_Noun_Project" data-name="from Noun Project" transform="translate(0 31.181)" font-size="1" font-family="SegoeUI-Bold, Segoe UI" font-weight="700"><tspan x="0" y="0">from Noun Project</tspan></text>
      </g>
    </g>
  </g>
</svg>
