<svg xmlns="http://www.w3.org/2000/svg" width="34" height="34" viewBox="0 0 34 34">
  <g id="Group_6297" data-name="Group 6297" transform="translate(-4249 -1790)">
    <g id="Group_6047" data-name="Group 6047" transform="translate(4191 1027)">
      <rect id="Rectangle_18275" data-name="Rectangle 18275" width="34" height="34" rx="5" transform="translate(58 763)" fill="rgba(63,188,161,0.1)"/>
    </g>
    <g id="noun-human-lungs-6044339" transform="translate(4247.72 1784.611)">
      <path id="Path_56982" data-name="Path 56982" d="M28.814,22.15A11.516,11.516,0,0,0,26.886,19a6.324,6.324,0,0,0-2.595-1.962,1.781,1.781,0,0,0-1.576.143c-.255.165-.621.607-.932,1.788a17.977,17.977,0,0,0-.459,3.028,5.071,5.071,0,0,0,1.313.269,2.32,2.32,0,0,0,.742-2.312c-.006-.048-.008-.09-.014-.126a.356.356,0,1,1,.708-.064c0,.034.008.073.011.115a3.372,3.372,0,0,1-.5,2.457c.624.048,1.411.115,1.688.171a.356.356,0,0,1-.07.705.3.3,0,0,1-.07-.006c-.35-.07-1.867-.182-2.427-.218h0a5.408,5.408,0,0,1-2.06-.5,3.05,3.05,0,0,1-1.117-.918,2.424,2.424,0,0,1-.484-1.318V11.66H17.527v8.581a2.424,2.424,0,0,1-.484,1.318,3.055,3.055,0,0,1-1.117.918,5.408,5.408,0,0,1-2.06.5h0c-.56.036-2.077.148-2.427.218a.357.357,0,1,1-.14-.7c.277-.056,1.064-.123,1.688-.171a3.386,3.386,0,0,1-.5-2.457c.006-.042.008-.081.011-.115a.356.356,0,1,1,.708.064c0,.036-.008.078-.014.126a2.32,2.32,0,0,0,.742,2.312,5.071,5.071,0,0,0,1.313-.269,17.97,17.97,0,0,0-.459-3.031c-.308-1.178-.677-1.621-.929-1.786a1.779,1.779,0,0,0-1.576-.143,6.324,6.324,0,0,0-2.595,1.962,11.543,11.543,0,0,0-1.928,3.154c-2,5.119-1.867,8.461-1.713,9.659a1.287,1.287,0,0,0,.7,1.061,4.813,4.813,0,0,0,3.1.008,12.675,12.675,0,0,0,2.555-.887A7.473,7.473,0,0,0,14.2,30.726a3.6,3.6,0,0,0,1.1-2.485v-.011c0-.017.092-1.64.062-3.636l-.339.132c-.63.255-1.178.518-1.542.711h0a4.115,4.115,0,0,0-.451.263,1.553,1.553,0,0,0-.5.994,2.326,2.326,0,0,1-.588,1.243c-.224.232-.453.428-.655.6a2.2,2.2,0,0,0-.918,1.215.356.356,0,0,1-.35.285.3.3,0,0,1-.07-.006.357.357,0,0,1-.28-.42A2.829,2.829,0,0,1,10.815,28c.2-.171.406-.35.607-.557a1.65,1.65,0,0,0,.406-.9,2.339,2.339,0,0,1,.523-1.17,2.4,2.4,0,0,0-1.467.339c-.176.14-.322.26-.448.367a1.9,1.9,0,0,1-1.458.635.355.355,0,1,1,0-.711c.442,0,.526-.073,1-.467.132-.109.277-.232.465-.381a2.9,2.9,0,0,1,1.881-.493,5.841,5.841,0,0,1,.938.09,12.9,12.9,0,0,1,5.018-1.537A12.9,12.9,0,0,1,23.3,24.75a6.494,6.494,0,0,1,.938-.09,2.915,2.915,0,0,1,1.881.493c.185.146.333.271.465.381.473.4.56.467,1,.467a.355.355,0,0,1,0,.711,1.9,1.9,0,0,1-1.458-.635c-.126-.106-.271-.227-.448-.367a2.381,2.381,0,0,0-1.467-.339,2.339,2.339,0,0,1,.523,1.17,1.65,1.65,0,0,0,.406.9A7.887,7.887,0,0,0,25.75,28a2.829,2.829,0,0,1,1.15,1.615.357.357,0,0,1-.28.42.3.3,0,0,1-.07.006.359.359,0,0,1-.35-.285,2.2,2.2,0,0,0-.918-1.215c-.2-.174-.431-.372-.655-.6a2.294,2.294,0,0,1-.588-1.243,1.557,1.557,0,0,0-.507-.994,3.836,3.836,0,0,0-.451-.263h0c-.364-.193-.912-.456-1.542-.711-.115-.048-.23-.09-.339-.132-.031,2,.062,3.619.062,3.636v.011a3.607,3.607,0,0,0,1.1,2.485,7.365,7.365,0,0,0,1.794,1.262,12.607,12.607,0,0,0,2.555.887,4.813,4.813,0,0,0,3.1-.008,1.287,1.287,0,0,0,.7-1.061c.151-1.2.288-4.542-1.713-9.659Z" fill="#033"/>
    </g>
  </g>
</svg>
