<svg xmlns="http://www.w3.org/2000/svg" width="34" height="34" viewBox="0 0 34 34">
  <g id="Group_6007" data-name="Group 6007" transform="translate(-58 -763)">
    <rect id="Rectangle_18275" data-name="Rectangle 18275" width="34" height="34" rx="5" transform="translate(58 763)" fill="rgba(63,188,161,0.1)"/>
    <g id="Group_5995" data-name="Group 5995" transform="translate(65 768)">
      <g id="nutrition">
        <path id="Path_56783" data-name="Path 56783" d="M66.764,114.293a5,5,0,0,0-4.106-2.6,7.685,7.685,0,0,0-2.746.4,7.556,7.556,0,0,1-1.929.363,7.478,7.478,0,0,1-1.922-.363,7.639,7.639,0,0,0-2.756-.4,5.087,5.087,0,0,0-4.046,2.6A11.607,11.607,0,0,0,48,120.134a13.731,13.731,0,0,0,1.92,6.431c.615,1.068,2.255,3.551,4.183,3.551a5.072,5.072,0,0,0,2.837-.784,1.656,1.656,0,0,1,2.082,0,5.081,5.081,0,0,0,2.839.784c1.928,0,3.567-2.484,4.183-3.551a13.689,13.689,0,0,0,1.92-6.431A11.692,11.692,0,0,0,66.764,114.293Zm-10.7,8.912c-.636,0-1.152-1.031-1.152-2.3s.516-2.3,1.152-2.3,1.152,1.031,1.152,2.3S56.7,123.206,56.062,123.206Zm3.839,0c-.636,0-1.152-1.031-1.152-2.3s.516-2.3,1.152-2.3,1.152,1.031,1.152,2.3S60.537,123.206,59.9,123.206Z" transform="translate(-48 -107.08)" fill="#033"/>
        <path id="Path_56784" data-name="Path 56784" d="M256.4,20.582a4.942,4.942,0,0,0,2.823-1.382,4.7,4.7,0,0,0,1.344-2.793.384.384,0,0,0-.41-.429,4.461,4.461,0,0,0-2.818,1.336,4.684,4.684,0,0,0-1.375,2.848.384.384,0,0,0,.437.419Z" transform="translate(-245.979 -15.977)" fill="#033"/>
      </g>
    </g>
  </g>
</svg>
