<svg xmlns="http://www.w3.org/2000/svg" width="34" height="34" viewBox="0 0 34 34">
  <g id="Group_6282" data-name="Group 6282" transform="translate(-4249 -913)">
    <g id="Group_6046" data-name="Group 6046" transform="translate(4249 913)">
      <rect id="Rectangle_18274" data-name="Rectangle 18274" width="34" height="34" rx="5" fill="rgba(63,188,161,0.1)"/>
    </g>
    <g id="noun-family-healthcare-7344706" transform="translate(4250.497 912.273)">
      <path id="Path_56937" data-name="Path 56937" d="M14.045,34.263a.457.457,0,0,0,.458-.458,9.017,9.017,0,0,1,3.461-7.029,5.5,5.5,0,0,1-.2-1.007,9.975,9.975,0,0,0-4.182,8.03.463.463,0,0,0,.463.463Z" transform="translate(-8.045 -14.553)" fill="#033"/>
      <path id="Path_56938" data-name="Path 56938" d="M73.878,33.809a.462.462,0,0,0,.463.458.451.451,0,0,0,.323-.135A.472.472,0,0,0,74.8,33.8a9.974,9.974,0,0,0-4.182-8.03,5.625,5.625,0,0,1-.2,1,9.028,9.028,0,0,1,3.461,7.034Z" transform="translate(-49.314 -14.556)" fill="#033"/>
      <path id="Path_56939" data-name="Path 56939" d="M11.333,63.162A1.333,1.333,0,1,0,10,61.829,1.333,1.333,0,0,0,11.333,63.162Z" transform="translate(-5.443 -39.768)" fill="#033"/>
      <path id="Path_56940" data-name="Path 56940" d="M8.468,70.909a1.194,1.194,0,0,1-.219-1.076l-1.076.336a2.664,2.664,0,0,1-.8.121H5.264a1.445,1.445,0,0,0-.978.38l-1.6,1.449a.546.546,0,0,0,.369.952.536.536,0,0,0,.365-.139l.92-.836-.525,1.6a.4.4,0,0,0,.376.518h.328L4.323,75.9a.547.547,0,1,0,1.087.124l.2-1.751a.074.074,0,0,1,.073-.065H6.1a.074.074,0,0,1,.073.065l.2,1.751a.548.548,0,0,0,.543.486.376.376,0,0,0,.062,0,.543.543,0,0,0,.481-.606l-.194-1.694h.328a.394.394,0,0,0,.376-.518l-.788-2.4c.106-.026.212-.051.318-.083l.97-.3Z" transform="translate(0 -46.548)" fill="#033"/>
      <path id="Path_56941" data-name="Path 56941" d="M81.5,72.113l-1.6-1.453a1.478,1.478,0,0,0-.982-.376H77.807a2.65,2.65,0,0,1-.8-.121l-1.073-.336a1.2,1.2,0,0,1-.223,1.076l.97.3c.041.015.08.021.121.033v4.722a.548.548,0,1,0,1.1,0V73.777a.146.146,0,0,1,.146-.146h.5a.146.146,0,0,1,.146.146v2.186a.548.548,0,1,0,1.1,0V72.036l.982.89a.549.549,0,0,0,.737-.813Z" transform="translate(-53.16 -46.545)" fill="#033"/>
      <path id="Path_56942" data-name="Path 56942" d="M80.262,61.829A1.333,1.333,0,1,0,81.6,60.5,1.333,1.333,0,0,0,80.262,61.829Z" transform="translate(-56.462 -39.768)" fill="#033"/>
      <path id="Path_56943" data-name="Path 56943" d="M37,58.606a1.6,1.6,0,0,0-1.326-.7h-1.1a1.606,1.606,0,0,0-1.326.7l-1.177,1.727-1.178-1.727a1.6,1.6,0,0,0-1.326-.7h-1.1a1.6,1.6,0,0,0-1.324.7l-1.72,2.523a.657.657,0,1,0,1.085.74l.878-1.288v6.6a.681.681,0,0,0,.547.683.657.657,0,0,0,.767-.648V63.278a.146.146,0,0,1,.146-.146h.344a.146.146,0,0,1,.146.146v3.9a.681.681,0,0,0,.547.683.657.657,0,0,0,.767-.648V60.579l.878,1.288a.656.656,0,0,0,1.085,0l1.061-1.556-.989,3.007a.464.464,0,0,0,.441.609h.392l-.158,3.251a.656.656,0,0,0,.624.688h.032a.657.657,0,0,0,.656-.625L34.826,64a.074.074,0,0,1,.073-.07h.442a.073.073,0,0,1,.073.07l.156,3.211a.681.681,0,0,0,.58.656.658.658,0,0,0,.735-.685l-.158-3.251h.392a.464.464,0,0,0,.441-.609l-.989-3.007,1.061,1.556a.657.657,0,1,0,1.085-.74L37,58.6Z" transform="translate(-16.557 -37.888)" fill="#033"/>
      <path id="Path_56944" data-name="Path 56944" d="M33.52,47.347a1.46,1.46,0,1,0,1.46-1.46A1.46,1.46,0,0,0,33.52,47.347Z" transform="translate(-22.522 -29.161)" fill="#033"/>
      <path id="Path_56945" data-name="Path 56945" d="M55.812,47.347a1.46,1.46,0,1,0,1.46-1.46A1.46,1.46,0,0,0,55.812,47.347Z" transform="translate(-38.708 -29.161)" fill="#033"/>
      <path id="Path_56946" data-name="Path 56946" d="M37.061,15.488a4.881,4.881,0,1,0-4.881-4.881A4.882,4.882,0,0,0,37.061,15.488ZM34.256,9.834a.217.217,0,0,1,.221-.221h1.581V8.031A.229.229,0,0,1,36.28,7.8h1.55a.234.234,0,0,1,.227.232V9.612h1.576a.222.222,0,0,1,.232.221v1.55a.225.225,0,0,1-.232.221H38.057v1.581a.233.233,0,0,1-.227.227H36.28a.228.228,0,0,1-.221-.227V11.606H34.477a.22.22,0,0,1-.221-.221Z" transform="translate(-21.549 0)" fill="#033"/>
    </g>
  </g>
</svg>
