<svg xmlns="http://www.w3.org/2000/svg" width="34" height="34" viewBox="0 0 34 34">
  <g id="Group_6284" data-name="Group 6284" transform="translate(-34 -836)">
    <g id="Group_6045" data-name="Group 6045" transform="translate(-24 198)">
      <rect id="Rectangle_18273" data-name="Rectangle 18273" width="34" height="34" rx="5" transform="translate(58 638)" fill="rgba(63,188,161,0.1)"/>
    </g>
    <g id="noun-health-3681471" transform="translate(36.663 839.693)">
      <g id="Group_6088" data-name="Group 6088" transform="translate(3.951 2.5)">
        <g id="Group_6085" data-name="Group 6085">
          <path id="Path_56936" data-name="Path 56936" d="M24.893,13.648a3.322,3.322,0,1,0-4.072,3.231v.8a4.937,4.937,0,0,1-9.874,0V15.6A5.782,5.782,0,0,0,16,10.44l.432-4.277a2.492,2.492,0,0,0-.66-1.957,2.6,2.6,0,0,0-1.888-.842H13.7V3.251a.751.751,0,1,0-1.5,0V4.98a.751.751,0,1,0,1.5,0V4.866h.182a1.019,1.019,0,0,1,.774.341,1.091,1.091,0,0,1,.273.819L14.5,10.3a4.321,4.321,0,0,1-8.6,0L5.464,6.026a1.091,1.091,0,0,1,.273-.819,1.019,1.019,0,0,1,.774-.341h.182V4.98a.751.751,0,1,0,1.5,0V3.251a.751.751,0,1,0-1.5,0v.114H6.51a2.52,2.52,0,0,0-1.888.842,2.607,2.607,0,0,0-.66,1.957l.455,4.277A5.761,5.761,0,0,0,9.468,15.6v2.07a6.416,6.416,0,1,0,12.831,0v-.8A3.3,3.3,0,0,0,24.893,13.648Zm-3.344,1.843a1.843,1.843,0,1,1,1.843-1.843A1.835,1.835,0,0,1,21.549,15.491Z" transform="translate(-3.951 -2.5)" fill="#033"/>
        </g>
        <g id="Group_6086" data-name="Group 6086" transform="translate(16.71 10.261)">
          <circle id="Ellipse_253" data-name="Ellipse 253" cx="0.887" cy="0.887" r="0.887" fill="#033"/>
        </g>
      </g>
    </g>
  </g>
</svg>
