<svg xmlns="http://www.w3.org/2000/svg" width="34" height="34" viewBox="0 0 34 34">
  <g id="Group_6277" data-name="Group 6277" transform="translate(-35 -470)">
    <g id="Group_6008" data-name="Group 6008" transform="translate(35 470)">
      <rect id="Rectangle_18274" data-name="Rectangle 18274" width="34" height="34" rx="5" fill="rgba(63,188,161,0.1)"/>
    </g>
    <g id="noun-gynecology-5365012" transform="translate(36.234 464.988)">
      <g id="Layer_3" data-name="Layer 3" transform="translate(3.493 13.334)">
        <path id="Path_56921" data-name="Path 56921" d="M5.94,13.406c2.468-.517,4.2,1.929,4.347,1.813a9.057,9.057,0,0,1,10.994,0c.139.069,1.86-2.325,4.316-1.812,3.033.635,3.559,5.275-.248,6.97-.655,1.631-2.982,2.2-3.894.868-1-1.465.743-3.612,2.607-3.289,1.574-.6,1.374-1.793.976-1.877a1.746,1.746,0,0,0-1.206.53,6.266,6.266,0,0,1-3.208,1.87c-1.125,1.564-2.409,3.958-2.462,5.768a1.339,1.339,0,0,0,.241.694c.633.686.248,1.682-.967,6.784a.4.4,0,1,1-.77-.183c1.065-4.475,1.427-5.769,1.155-6.065-1.438-1.557.934-5.8,2.256-7.6.289-.392,1.024.2,3.212-1.851A2.42,2.42,0,0,1,25.2,15.3a1.254,1.254,0,0,1,.876.926c.33,1.624-1.638,2.624-2.074,2.521-1.2-.284-2.5,1.161-1.894,2.046a1.362,1.362,0,0,0,1.853.073c.769-.528.567-1.009.924-1.156a3.7,3.7,0,0,0,2.083-1.872c1.234-2.739-1.715-5.2-4.457-2.653a7.947,7.947,0,0,1-1.08.895.4.4,0,0,1-.563-.143.392.392,0,0,0-.075-.1,8.266,8.266,0,0,0-10.025.007.515.515,0,0,0-.07.1.4.4,0,0,1-.564.151,7.65,7.65,0,0,1-1.108-.914c-2.733-2.541-5.69-.083-4.456,2.655a3.7,3.7,0,0,0,2.085,1.871c.367.15.13.612.922,1.156A1.36,1.36,0,0,0,9.429,20.8c.609-.888-.7-2.329-1.894-2.046a.4.4,0,0,1-.222-.012C5.637,18.15,5.16,16.812,5.5,16.088a1.283,1.283,0,0,1,.836-.784,2.488,2.488,0,0,1,1.962.776c2.2,2.05,2.88,1.378,3.195,1.807,1.267,1.722,3.714,6.005,2.252,7.591-.29.315.257,2.29,1.155,6.064a.4.4,0,1,1-.77.183c-1.218-5.116-1.6-6.1-.967-6.784a1.347,1.347,0,0,0,.243-.7c-.053-1.807-1.333-4.2-2.456-5.761A6.214,6.214,0,0,1,7.7,16.608a1.73,1.73,0,0,0-1.2-.528c-.409.085-.6,1.279.974,1.877,1.866-.323,3.611,1.826,2.607,3.289-.91,1.328-3.237.769-3.894-.868C2.411,18.694,2.863,14.05,5.94,13.406ZM16.18,32.293v-1.56c.952-4.132,1.217-4.464.81-5.339-.538-1.157-.531-3.465,2.557-7.883a1.307,1.307,0,0,0-.509-1.926,6.833,6.833,0,0,0-6.506,0,1.306,1.306,0,0,0-.508,1.926c2.445,3.492,3.33,6.217,2.558,7.879a1.894,1.894,0,0,0-.156,1.161c.029.173.069.428.072.436,1.07,4.5.892,3.342.892,5.306a.4.4,0,1,0,.792,0Z" transform="translate(-3.493 -13.334)" fill="#033"/>
      </g>
    </g>
  </g>
</svg>
