<svg xmlns="http://www.w3.org/2000/svg" width="34" height="34" viewBox="0 0 34 34">
  <g id="Group_6298" data-name="Group 6298" transform="translate(-4249 -1863)">
    <g id="Group_6047" data-name="Group 6047" transform="translate(4191 1100)">
      <rect id="Rectangle_18275" data-name="Rectangle 18275" width="34" height="34" rx="5" transform="translate(58 763)" fill="rgba(63,188,161,0.1)"/>
    </g>
    <g id="noun-hematology-1777360" transform="translate(4254.644 1868.644)">
      <path id="Path_56983" data-name="Path 56983" d="M99.943,106.049a.178.178,0,0,0-.251.005l-.643.67a.177.177,0,0,0,0,.247l1.774,1.814a.177.177,0,1,0,.254-.248l-1.654-1.691.524-.546A.178.178,0,0,0,99.943,106.049Z" transform="translate(-81.433 -87.191)" fill="#033"/>
      <ellipse id="Ellipse_255" data-name="Ellipse 255" cx="0.177" cy="0.177" rx="0.177" ry="0.177" transform="matrix(0.843, -0.538, 0.538, 0.843, 18.741, 18.333)" fill="#033"/>
      <path id="Path_56984" data-name="Path 56984" d="M24,31.465a7.453,7.453,0,0,0,7.452,7.44h.014a7.415,7.415,0,0,0,4.041-1.2l.987.948-.731.739a.177.177,0,0,0,0,.253l2.876,2.76a.177.177,0,0,0,.246-.256l-2.747-2.635,2.984-3.019,3.027,2.952a.177.177,0,1,0,.248-.254l-3.153-3.075a.178.178,0,0,0-.25,0l-.522.528-.934-.9A7.45,7.45,0,0,0,31.452,24H31.44A7.453,7.453,0,0,0,24,31.465ZM38.225,36.9l-1.483,1.5-.937-.9a7.487,7.487,0,0,0,1.523-1.466ZM31.443,25.952h.01a5.5,5.5,0,0,1,.009,11h-.01a5.5,5.5,0,0,1-.009-11Z" transform="translate(-19.741 -19.741)" fill="#033"/>
      <path id="Path_56985" data-name="Path 56985" d="M42.145,47.291h.009A5.146,5.146,0,0,0,42.146,37h-.009a5.146,5.146,0,0,0,.009,10.291Zm2.065-5.669a.177.177,0,0,1,.024.25l-1.891,2.289a.177.177,0,1,1-.273-.226l1.891-2.289A.177.177,0,0,1,44.211,41.623Zm-.4-1.566a.177.177,0,0,1,.024.25l-3.225,3.9a.177.177,0,1,1-.273-.226l3.225-3.9A.177.177,0,0,1,43.806,40.057Zm-3.749,2.4,1.89-2.289a.177.177,0,0,1,.274.226l-1.89,2.289a.177.177,0,0,1-.274-.226Z" transform="translate(-30.435 -30.435)" fill="#033"/>
      <path id="Path_56986" data-name="Path 56986" d="M6.882,22.712a6.985,6.985,0,0,0,6.235-3.326,7.8,7.8,0,0,1-1.392.132H11.71A7.807,7.807,0,0,1,9.051,4.371,19.135,19.135,0,0,1,7.624.865C7.465.288,7.3,0,7.138,0s-.324.291-.475.873C5.177,6.607-1.9,12.43.489,18.748A6.568,6.568,0,0,0,6.882,22.712ZM2.034,14.755A.177.177,0,1,1,1.98,15,.178.178,0,0,1,2.034,14.755Zm-.079,1.2a.177.177,0,0,1,.354.02c0,.026-.121,2.614,1.86,3.739a.177.177,0,0,1-.175.309A4.592,4.592,0,0,1,1.955,15.96Z" transform="translate(0 0)" fill="#033"/>
    </g>
  </g>
</svg>
