<svg xmlns="http://www.w3.org/2000/svg" width="34" height="34" viewBox="0 0 34 34">
  <g id="Group_6291" data-name="Group 6291" transform="translate(-4249 -1352)">
    <g id="Group_6047" data-name="Group 6047" transform="translate(4249 1352)">
      <rect id="Rectangle_18275" data-name="Rectangle 18275" width="34" height="34" rx="5" fill="rgba(63,188,161,0.1)"/>
    </g>
    <g id="noun-hepatology-6592665" transform="translate(4253.295 1359.605)">
      <g id="Group_6101" data-name="Group 6101">
        <path id="Path_56962" data-name="Path 56962" d="M119.305,310.751a1.451,1.451,0,0,1-.509.112,5.378,5.378,0,0,0-2.155.776.43.43,0,0,0,.215.8.493.493,0,0,0,.216-.052,4.4,4.4,0,0,1,1.8-.664,2.33,2.33,0,0,0,.81-.2.432.432,0,1,0-.379-.776Z" transform="translate(-111.638 -298.183)" fill="none"/>
        <path id="Path_56963" data-name="Path 56963" d="M67.2,131.607a.427.427,0,0,0-.552-.25,6.452,6.452,0,0,0-3.172,2.456,8.27,8.27,0,0,0-1.224,3.68.422.422,0,0,0,.379.474.094.094,0,0,0,.043.009.431.431,0,0,0,.431-.388,7.267,7.267,0,0,1,1.095-3.3,5.553,5.553,0,0,1,2.758-2.129A.428.428,0,0,0,67.2,131.607Z" transform="translate(-60.535 -128.978)" fill="none"/>
        <path id="Path_56964" data-name="Path 56964" d="M308.2,124.463a8.285,8.285,0,0,0-2.629-1.189,13.3,13.3,0,0,0-5.456-.216c-.129.293-.259.62-.388.94-.327.8-.629,1.586-.707,1.9a15.663,15.663,0,0,0-.414,4.879c.017.207.035.4.052.595,0,.017.009.043.009.06l.035.327v.052a.079.079,0,0,1-.008.043c.008.008,0,.017,0,.026a2.458,2.458,0,0,0,.043.345,7.674,7.674,0,0,0,2.3-.353,5.749,5.749,0,0,0,3.724-3.37c.052-.112.078-.138.216-.155a5.913,5.913,0,0,0,3.439-1.655,1.207,1.207,0,0,0,.259-.336A1.41,1.41,0,0,0,308.2,124.463Z" transform="translate(-283.449 -121.006)" fill="#033"/>
        <path id="Path_56965" data-name="Path 56965" d="M47.378,92.749c.017-.035.035-.078.052-.121.043-.095.078-.2.121-.3.009-.009.009-.017.017-.026.043-.121.095-.241.146-.353a14.74,14.74,0,0,0-6.008-2.025,9.247,9.247,0,0,0-4.111.552,7.963,7.963,0,0,0-3.965,3.077,10.286,10.286,0,0,0-1.543,4.62,16.033,16.033,0,0,0-.052,3.017c.052.672.138,1.379.25,2.112l.043.25a11.547,11.547,0,0,1,.181,1.853,1.843,1.843,0,0,1-.25,1.043,1.883,1.883,0,0,0-.267,1.121,1.2,1.2,0,0,0,.922,1.112,1.549,1.549,0,0,0,.431.052,1.3,1.3,0,0,0,.862-.3,6.713,6.713,0,0,0,.69-.62,6.9,6.9,0,0,1,1.319-1.078,6.5,6.5,0,0,1,2.663-.965,3.085,3.085,0,0,0,1.095-.276A4.165,4.165,0,0,0,42.2,103.2a.3.3,0,0,1,.078-.017l.146-.017a6.459,6.459,0,0,0,.819-.129,6.567,6.567,0,0,0,1.025-.353c.017-.216.017-.44.017-.664v-.043a2.311,2.311,0,0,0-.017-.25,6.9,6.9,0,0,0-1.078-3.4.431.431,0,1,1,.724-.466,7.819,7.819,0,0,1,1.189,3.413,6.137,6.137,0,0,1,.043.7v.267c.457-.25.9-.534,1.31-.81a7.163,7.163,0,0,1-.112-.957l.017-.008-.009-.06c-.009-.009,0-.017,0-.035-.026-.224-.052-.44-.069-.655a16.839,16.839,0,0,1,.44-5.146C46.809,94.232,47.076,93.516,47.378,92.749ZM35.656,95.2a7.26,7.26,0,0,0-1.095,3.3.431.431,0,0,1-.431.388.1.1,0,0,1-.043-.008.423.423,0,0,1-.379-.474,8.27,8.27,0,0,1,1.224-3.68A6.45,6.45,0,0,1,38.1,92.267a.43.43,0,0,1,.311.8A5.541,5.541,0,0,0,35.656,95.2Zm4.379,8.033a2.336,2.336,0,0,1-.81.2,4.4,4.4,0,0,0-1.8.664.493.493,0,0,1-.216.052.43.43,0,0,1-.215-.8,5.381,5.381,0,0,1,2.155-.776,1.427,1.427,0,0,0,.509-.112.432.432,0,1,1,.379.776Z" transform="translate(-31.988 -89.887)" fill="#033"/>
      </g>
    </g>
  </g>
</svg>
