<svg xmlns="http://www.w3.org/2000/svg" width="34" height="34" viewBox="0 0 34 34">
  <g id="Group_6275" data-name="Group 6275" transform="translate(-35 -323)">
    <g id="Group_6007" data-name="Group 6007" transform="translate(-23 -440)">
      <rect id="Rectangle_18275" data-name="Rectangle 18275" width="34" height="34" rx="5" transform="translate(58 763)" fill="rgba(63,188,161,0.1)"/>
    </g>
    <g id="noun-stomach-6378349" transform="translate(36.938 325)">
      <path id="Path_56995" data-name="Path 56995" d="M19.817,6.977a4.019,4.019,0,0,0-3.761,2.036,6.613,6.613,0,0,0,1.374.478.381.381,0,0,1-.176.742,6.982,6.982,0,0,1-1.9-.73,4.6,4.6,0,0,1-2.3-4.5H11.427c-.056.91-.034,3.5,1.827,4.971a6,6,0,0,1,1.98,2.674,4.587,4.587,0,0,1-.887,4.667A3.95,3.95,0,0,1,9.46,18.5a3.56,3.56,0,0,0-3.247.207c-1.344.83-2.084,2.622-2.15,5.2H5.737a4.756,4.756,0,0,1,.813-3.119,2.017,2.017,0,0,1,1.571-.677,3.664,3.664,0,0,1,3.625,2.327,6.142,6.142,0,0,0,4.03,2.882c2,.315,4.122-.639,6.313-2.834a11.109,11.109,0,0,0,2.6-11.878c-1-2.348-2.788-3.681-4.869-3.632Zm.526,15.916a.381.381,0,1,1-.477-.595,9.981,9.981,0,0,0,3.837-6.06.381.381,0,0,1,.751.132,10.735,10.735,0,0,1-4.111,6.523Zm3.871-8.327-.036,0a.381.381,0,0,1-.379-.346,3.74,3.74,0,0,0-.057-.417.381.381,0,0,1,.744-.165,4.319,4.319,0,0,1,.072.512.381.381,0,0,1-.344.415Z" fill="#033"/>
    </g>
  </g>
</svg>
