<svg xmlns="http://www.w3.org/2000/svg" width="34" height="34" viewBox="0 0 34 34">
  <g id="Group_6293" data-name="Group 6293" transform="translate(-4250 -1498)">
    <g id="Group_6047" data-name="Group 6047" transform="translate(4250 1498)">
      <rect id="Rectangle_18275" data-name="Rectangle 18275" width="34" height="34" rx="5" fill="rgba(63,188,161,0.1)"/>
    </g>
    <g id="noun-nephrology-7318742" transform="translate(4254.919 1504.823)">
      <path id="Path_56967" data-name="Path 56967" d="M58.627,16.315c-2.214,0-3.677,1.275-3.653,2.6a4.128,4.128,0,0,0,.478,1.731c.2.424.483.956.636,1.38a2.6,2.6,0,0,0,1.578-.921,3.468,3.468,0,0,0,.811-1.562.291.291,0,0,1,.349-.228.3.3,0,0,1,.228.349,3.951,3.951,0,0,1-.95,1.836,2.775,2.775,0,0,1-.233.233c.233-.045.693-.15,1.154-.258.508-.115,1.014-.233,1.224-.273a.3.3,0,0,1,.349.228.3.3,0,0,1-.233.349c-.21.045-.711.158-1.213.273-.285.065-.571.128-.806.18a2.5,2.5,0,0,1,.693.354,2.219,2.219,0,0,1,.716.856,3,3,0,0,1,.268,1.165.292.292,0,0,1-.279.308.3.3,0,0,1-.308-.285,2.224,2.224,0,0,0-.215-.931,1.611,1.611,0,0,0-.531-.636,2.2,2.2,0,0,0-.806-.349,6.425,6.425,0,0,0-1.866-.093,4.219,4.219,0,0,0-2.587,1.235,4.27,4.27,0,0,0-1.259,3.025v9.1a.3.3,0,0,0,.6,0v-9.1A3.7,3.7,0,0,1,56.275,23.2a3.411,3.411,0,0,1-.245,1.27c-.059.22-.115.478-.18.786-.508,2.627,1.071,4.2,2.89,4,6.534-.709,6.668-12.945-.114-12.945Z" transform="translate(-39.517 -14.066)" fill="#033"/>
      <path id="Path_56968" data-name="Path 56968" d="M53.775,15.941a.3.3,0,0,0,.413-.045.289.289,0,0,0-.04-.413A3.739,3.739,0,0,1,53.134,14.2a3.682,3.682,0,0,1-.354-1.583V8.064a.3.3,0,0,0-.6,0v4.55a4.233,4.233,0,0,0,.419,1.836,4.312,4.312,0,0,0,1.172,1.492Z" transform="translate(-39.525 -7.766)" fill="#033"/>
      <path id="Path_56969" data-name="Path 56969" d="M11.72,22.644a6.36,6.36,0,0,0-1.866.093,2.211,2.211,0,0,0-.806.349,1.625,1.625,0,0,0-.531.636,2.321,2.321,0,0,0-.215.931.294.294,0,1,1-.588-.024,3.02,3.02,0,0,1,.268-1.165,2.3,2.3,0,0,1,.716-.856,2.47,2.47,0,0,1,.693-.354c-.233-.053-.518-.115-.806-.18-.5-.115-1-.228-1.213-.273a.3.3,0,0,1-.228-.349.291.291,0,0,1,.349-.228c.2.04.711.158,1.219.273.459.1.921.21,1.154.258a2.775,2.775,0,0,1-.233-.233,3.965,3.965,0,0,1-.95-1.836.3.3,0,0,1,.583-.121,3.4,3.4,0,0,0,.806,1.562,2.6,2.6,0,0,0,1.578.921c.15-.424.438-.956.636-1.38a4.116,4.116,0,0,0,.478-1.731c.025-1.329-1.438-2.6-3.647-2.6-6.787,0-6.654,12.236-.123,12.945,1.817.2,3.4-1.374,2.89-4-.065-.308-.123-.566-.18-.786a3.44,3.44,0,0,1-.245-1.27,3.712,3.712,0,0,1,3.514,3.688V36a.29.29,0,0,0,.293.293.294.294,0,0,0,.3-.293V26.9a4.276,4.276,0,0,0-1.259-3.025,4.218,4.218,0,0,0-2.585-1.234Z" transform="translate(-4.06 -14.079)" fill="#033"/>
      <path id="Path_56970" data-name="Path 56970" d="M41.689,7.766a.3.3,0,0,0-.293.3v4.55a3.591,3.591,0,0,1-.363,1.583A3.753,3.753,0,0,1,40.02,15.48a.289.289,0,0,0-.04.413.293.293,0,0,0,.413.045,4.274,4.274,0,0,0,1.588-3.328V8.064a.291.291,0,0,0-.293-.3Z" transform="translate(-30.481 -7.766)" fill="#033"/>
    </g>
  </g>
</svg>
