<svg xmlns="http://www.w3.org/2000/svg" width="34" height="34" viewBox="0 0 34 34">
  <g id="Group_6296" data-name="Group 6296" transform="translate(-4250 -1717)">
    <g id="Group_6047" data-name="Group 6047" transform="translate(4192 954)">
      <rect id="Rectangle_18275" data-name="Rectangle 18275" width="34" height="34" rx="5" transform="translate(58 763)" fill="rgba(63,188,161,0.1)"/>
    </g>
    <g id="noun-laboratory-7201950" transform="translate(4250.1 1718.654)">
      <path id="Path_56981" data-name="Path 56981" d="M20.917,26.388h5.546A.953.953,0,0,0,27.3,25.9a.921.921,0,0,0,.026-.967L25.46,21.894H18.21c-.039.031-.077.063-.118.092l-1.555,2.542h3.591a.849.849,0,0,1,.849.846v.708a.839.839,0,0,1-.06.312Zm-8.966-2.9v1.039h2.9V23.479a7.5,7.5,0,0,1-2.9,0ZM10.258,7.055l2.774-1.6a.315.315,0,0,1,.426.114l3.294,5.691.872-.5a.268.268,0,0,1,.268.464l-5.06,2.919a.269.269,0,0,1-.365-.1.263.263,0,0,1-.027-.2.267.267,0,0,1,.124-.162l.873-.5-.785-1.358a2.226,2.226,0,0,0-2.224-3.852l-.278-.483a.315.315,0,0,1,.113-.426ZM15.14,17.949h6.574a.311.311,0,0,1,.309.312v.967a.311.311,0,0,1-.309.312h-6.57a.312.312,0,0,1-.312-.312v-.967a.312.312,0,0,1,.312-.312Zm-3.695-9.7a1.692,1.692,0,1,0,1.2.5,1.693,1.693,0,0,0-1.2-.5Zm0,1.145h0a.546.546,0,1,0,.547.546.545.545,0,0,0-.547-.546ZM13.42,23.09a6.86,6.86,0,0,1-4.909-2.033,7.14,7.14,0,0,1-2.068-4.925A7.063,7.063,0,0,1,9.27,10.421a2.237,2.237,0,0,0,.909,1.354,5.623,5.623,0,0,0-.53.464A5.421,5.421,0,0,0,8.066,16.1a5.484,5.484,0,0,0,1.6,3.795A5.234,5.234,0,0,0,13.4,21.456a5.565,5.565,0,0,0,2.569-.671A5.735,5.735,0,0,0,17,20.059h2.175a7.221,7.221,0,0,1-5.764,3.015ZM12.187,5.324l-.5-.87h0a.315.315,0,0,0-.426-.114L10.2,4.952a.308.308,0,0,0-.116.423l.5.87Zm4.471,7.222L14.6,13.737a1.342,1.342,0,0,0,2.062-1.191Zm-10,13.842a.311.311,0,0,1-.309-.312v-.708a.311.311,0,0,1,.309-.31H20.128a.311.311,0,0,1,.312.31v.708a.311.311,0,0,1-.312.312ZM19.913,13.58h3.775a.242.242,0,0,1,.242.242V14.3a.242.242,0,0,1-.242.242H19.913a.242.242,0,0,1-.242-.242v-.483A.242.242,0,0,1,19.913,13.58Zm5.221,7.772L23.27,18.295a.844.844,0,0,1-.113-.457v-2.75H20.443v2.325h1.272a.849.849,0,0,1,.846.849v.967a.848.848,0,0,1-.846.848H19.843l-.225.312h0a7.725,7.725,0,0,1-.824.967Z" transform="translate(0)" fill="#033" fill-rule="evenodd"/>
    </g>
  </g>
</svg>
