<svg id="Group_6008" data-name="Group 6008" xmlns="http://www.w3.org/2000/svg" width="34" height="34" viewBox="0 0 34 34">
  <rect id="Rectangle_18274" data-name="Rectangle 18274" width="34" height="34" rx="5" fill="rgba(63,188,161,0.1)"/>
  <g id="medical-kit-svgrepo-com" transform="translate(7 7)">
    <g id="Layer_5_43_">
      <g id="Group_5996" data-name="Group 5996">
        <path id="Path_56791" data-name="Path 56791" d="M29.817,5.318H27.8c-.236,0-.254-.207-.268-.309A6.037,6.037,0,0,0,21.393,0a6.038,6.038,0,0,0-6.137,5c-.014.1-.079.315-.266.315H12.97a1.533,1.533,0,0,0-1.59,1.465V18.225a1.533,1.533,0,0,0,1.59,1.465H29.817a1.533,1.533,0,0,0,1.59-1.465V6.783A1.533,1.533,0,0,0,29.817,5.318ZM21.393.922a5.07,5.07,0,0,1,5.132,4.112c.014.094.076.284-.228.284H16.5c-.275,0-.256-.182-.243-.271A5.069,5.069,0,0,1,21.393.922Zm2.239,14.3h-1.06s-.237,0-.237.173v1.023a.945.945,0,0,1-1.884,0V15.406a.182.182,0,0,0-.2-.186H19.154a.871.871,0,1,1,0-1.736h1.063s.234.01.234-.2v-1a.945.945,0,0,1,1.884,0v1.063c0,.142.2.132.2.132h1.1a.871.871,0,1,1,0,1.736Zm6.29-5.976H13.43a.381.381,0,1,1,0-.76H29.922a.381.381,0,1,1,0,.76Z" transform="translate(-11.38 0)" fill="#033"/>
      </g>
    </g>
  </g>
</svg>
