<svg xmlns="http://www.w3.org/2000/svg" width="34" height="34" viewBox="0 0 34 34">
  <g id="Group_6292" data-name="Group 6292" transform="translate(-4249 -1425)">
    <g id="Group_6047" data-name="Group 6047" transform="translate(4249 1425)">
      <rect id="Rectangle_18275" data-name="Rectangle 18275" width="34" height="34" rx="5" fill="rgba(63,188,161,0.1)"/>
    </g>
    <g id="noun-psychology-4826002" transform="translate(4256.042 1431.29)">
      <path id="Path_56966" data-name="Path 56966" d="M23.873,7.515A8.859,8.859,0,0,0,15.361,1c-4.555.061-7.808,3.255-9.466,7.666a.279.279,0,0,0,.046.276l.921,1.094c-.582.753-1.428,1.772-2.011,2.534-.561.731-.623.872-.576,1.041.2.773,1.507.6,2.211.836a2.894,2.894,0,0,1-.452.764c-.085.107-.345.432-.239.74.059.267.487.378.733.466l-.257.262c-.339.329-.169.691.24.81a1.575,1.575,0,0,1,.318.164,1.337,1.337,0,0,1-.267.771.276.276,0,0,0-.04.15,1.97,1.97,0,0,0,.639,1.6c.932.635,1.871.106,2.971-.161.445-.121.936-.257,1.405-.4a4.572,4.572,0,0,1,1.129,2.557.276.276,0,0,0,.277.246h9.415a.278.278,0,0,0,.2-.474,6.512,6.512,0,0,1-.54-8.556A5.154,5.154,0,0,0,23.873,7.515Zm-4.194,3.548-.127.085a1.751,1.751,0,0,1-1.8,2.213,1.487,1.487,0,0,1-2.457.333,1.486,1.486,0,0,1-2.457-.333,1.751,1.751,0,0,1-1.8-2.213,2.6,2.6,0,0,1,0-4.368,1.751,1.751,0,0,1,1.8-2.214,1.486,1.486,0,0,1,2.457-.333,1.486,1.486,0,0,1,2.458.333,1.751,1.751,0,0,1,1.8,2.213A2.6,2.6,0,0,1,19.679,11.063ZM19.1,7.178a.279.279,0,0,1-.148-.364,1.265,1.265,0,0,0-.2-1.32,1.107,1.107,0,0,0-1.926.761.278.278,0,1,1-.555-.026,1.785,1.785,0,0,1,.723-1.359L17.23,4.7,17,4.5a.914.914,0,0,0-1.435.349v8.228A.914.914,0,0,0,17,13.426l.225-.195-.241-.174a1.785,1.785,0,0,1-.723-1.359.278.278,0,1,1,.555-.027,1.107,1.107,0,0,0,1.926.761,1.265,1.265,0,0,0,.2-1.32.278.278,0,0,1,.148-.364A2.007,2.007,0,0,0,19.1,7.178Zm-.956,3.2a.279.279,0,0,1-.512-.025.276.276,0,0,1,.011-.212,1.079,1.079,0,0,0-.1-1.087.907.907,0,0,0-.734-.384,2.154,2.154,0,0,0-.263.03.276.276,0,0,1-.27-.215c-.065-.317.291-.377.53-.371A1.574,1.574,0,0,1,18.141,10.374Zm-3.975-6.1a1.193,1.193,0,0,0-.812.417l.242.174a1.786,1.786,0,0,1,.723,1.359.278.278,0,1,1-.555.026,1.156,1.156,0,0,0-1.113-1.138,1.2,1.2,0,0,0-1.016,1.7.279.279,0,0,1-.148.364,2.006,2.006,0,0,0,0,3.57.276.276,0,0,1,.148.364,1.264,1.264,0,0,0,.2,1.32,1.107,1.107,0,0,0,1.925-.76.278.278,0,0,1,.555.026,1.786,1.786,0,0,1-.723,1.359l-.242.174.225.2a.914.914,0,0,0,1.435-.349V4.849a.947.947,0,0,0-.848-.571Zm.146,4.238a.279.279,0,0,1-.271.219,2.191,2.191,0,0,0-.261-.028.929.929,0,0,0-.84,1.333.28.28,0,0,1-.247.4.276.276,0,0,1-.248-.152A1.47,1.47,0,0,1,12.6,8.72a1.514,1.514,0,0,1,1.182-.568c.233-.01.591.055.529.364Z" transform="translate(-4.261 -1)" fill="#033"/>
    </g>
  </g>
</svg>
