<svg xmlns="http://www.w3.org/2000/svg" width="34" height="34" viewBox="0 0 34 34">
  <g id="Group_6300" data-name="Group 6300" transform="translate(-4114 -939)">
    <g id="Group_6299" data-name="Group 6299" transform="translate(4049 293)">
      <rect id="Rectangle_18273" data-name="Rectangle 18273" width="34" height="34" rx="5" transform="translate(65 646)" fill="rgba(63,188,161,0.1)"/>
    </g>
    <g id="noun-obesity-5364" transform="translate(3024.793 3760.576)">
      <path id="Path_57097" data-name="Path 57097" d="M8.262,5.655c-.053,0-.106,0-.158,0s-.105,0-.158,0A8.4,8.4,0,0,0,0,14.309a1.136,1.136,0,0,0,2.272,0A8.994,8.994,0,0,1,4.046,8.9a14.306,14.306,0,0,0-1.357,5.406h10.83A14.3,14.3,0,0,0,12.161,8.9a8.993,8.993,0,0,1,1.774,5.406,1.136,1.136,0,0,0,2.272,0A8.4,8.4,0,0,0,8.262,5.655ZM13.539,14.7H2.668c-.011.246-.017.5-.017.746,0,3.6,1.081,6.746,2.692,8.448-.515.259-.826.591-.826.954H7.906l.2-7.523.2,7.523H11.69c0-.363-.31-.7-.826-.954,1.61-1.7,2.692-4.847,2.692-8.448C13.556,15.2,13.55,14.947,13.539,14.7ZM8.1,5.275A2.638,2.638,0,1,0,5.465,2.638,2.638,2.638,0,0,0,8.1,5.275Z" transform="translate(1098 -2817)" fill="#033"/>
    </g>
  </g>
</svg>
