<svg id="Group_6046" data-name="Group 6046" xmlns="http://www.w3.org/2000/svg" xmlns:xlink="http://www.w3.org/1999/xlink" width="34" height="34" viewBox="0 0 34 34">
  <defs>
    <clipPath id="clip-path">
      <rect id="Rectangle_18291" data-name="Rectangle 18291" width="22" height="22" transform="translate(4215 257)" fill="#fff" stroke="#707070" stroke-width="1"/>
    </clipPath>
  </defs>
  <rect id="Rectangle_18274" data-name="Rectangle 18274" width="34" height="34" rx="5" fill="rgba(63,188,161,0.1)"/>
  <g id="Mask_Group_18" data-name="Mask Group 18" transform="translate(-4209 -251)" clip-path="url(#clip-path)">
    <g id="noun-ocd-4469895" transform="translate(4211.549 257)">
      <path id="Path_56887" data-name="Path 56887" d="M2.5,5.088A2.588,2.588,0,1,1,5.088,7.677,2.589,2.589,0,0,1,2.5,5.088Zm2.588-.863a.863.863,0,1,0,.863.863A.863.863,0,0,0,5.088,4.226Z" transform="translate(1.814 -2.5)" fill="#033" fill-rule="evenodd"/>
      <path id="Path_56888" data-name="Path 56888" d="M2.5,9.088a2.588,2.588,0,1,1,2.588,2.588A2.589,2.589,0,0,1,2.5,9.088Zm2.588-.863a.863.863,0,1,0,.863.863A.863.863,0,0,0,5.088,8.226Z" transform="translate(1.814 0.402)" fill="#033" fill-rule="evenodd"/>
      <path id="Path_56889" data-name="Path 56889" d="M2.5,13.088a2.588,2.588,0,1,1,2.588,2.588A2.589,2.589,0,0,1,2.5,13.088Zm2.588-.863a.863.863,0,1,0,.863.863A.863.863,0,0,0,5.088,12.226Z" transform="translate(1.814 3.304)" fill="#033" fill-rule="evenodd"/>
      <path id="Path_56890" data-name="Path 56890" d="M6.5,5.088A2.588,2.588,0,1,1,9.088,7.677,2.589,2.589,0,0,1,6.5,5.088Zm2.588-.863a.863.863,0,1,0,.863.863A.863.863,0,0,0,9.088,4.226Z" transform="translate(4.716 -2.5)" fill="#033" fill-rule="evenodd"/>
      <path id="Path_56891" data-name="Path 56891" d="M6.5,9.088a2.588,2.588,0,1,1,2.588,2.588A2.589,2.589,0,0,1,6.5,9.088Zm2.588-.863a.863.863,0,1,0,.863.863A.863.863,0,0,0,9.088,8.226Z" transform="translate(4.716 0.402)" fill="#033" fill-rule="evenodd"/>
      <path id="Path_56892" data-name="Path 56892" d="M6.5,13.088a2.588,2.588,0,1,1,2.588,2.588A2.589,2.589,0,0,1,6.5,13.088Zm2.588-.863a.863.863,0,1,0,.863.863A.863.863,0,0,0,9.088,12.226Z" transform="translate(4.716 3.304)" fill="#033" fill-rule="evenodd"/>
      <path id="Path_56893" data-name="Path 56893" d="M10.5,5.088a2.588,2.588,0,1,1,2.588,2.588A2.589,2.589,0,0,1,10.5,5.088Zm2.588-.863a.863.863,0,1,0,.863.863A.863.863,0,0,0,13.088,4.226Z" transform="translate(7.618 -2.5)" fill="#033" fill-rule="evenodd"/>
      <path id="Path_56894" data-name="Path 56894" d="M10.5,9.088a2.588,2.588,0,1,1,2.588,2.588A2.589,2.589,0,0,1,10.5,9.088Zm2.588-.863a.863.863,0,1,0,.863.863A.863.863,0,0,0,13.088,8.226Z" transform="translate(7.618 0.402)" fill="#033" fill-rule="evenodd"/>
      <path id="Path_56895" data-name="Path 56895" d="M11.5,14.088a2.588,2.588,0,1,1,2.588,2.588A2.589,2.589,0,0,1,11.5,14.088Zm2.588-.863a.863.863,0,1,0,.863.863A.863.863,0,0,0,14.088,13.226Z" transform="translate(8.344 4.03)" fill="#033" fill-rule="evenodd"/>
      <text id="Created_by_Katarina_Ilić" data-name="Created by Katarina Ilić" transform="translate(0 46.55)" font-size="7" font-family="Arial-BoldMT, Arial" font-weight="700"><tspan x="0" y="0">Created by Katarina Ilić</tspan></text>
      <text id="from_the_Noun_Project" data-name="from the Noun Project" transform="translate(0 55.178)" font-size="7" font-family="Arial-BoldMT, Arial" font-weight="700"><tspan x="0" y="0">from the Noun Project</tspan></text>
    </g>
  </g>
</svg>
