<svg xmlns="http://www.w3.org/2000/svg" width="34" height="34" viewBox="0 0 34 34">
  <g id="Group_6283" data-name="Group 6283" transform="translate(-4249 -987)">
    <g id="Group_6047" data-name="Group 6047" transform="translate(4249 987)">
      <rect id="Rectangle_18275" data-name="Rectangle 18275" width="34" height="34" rx="5" fill="rgba(63,188,161,0.1)"/>
    </g>
    <g id="noun-old-man-641827" transform="translate(4260 993.782)">
      <g id="Group_6094" data-name="Group 6094">
        <path id="Path_56947" data-name="Path 56947" d="M1.865,55.645a56.7,56.7,0,0,1-.345,5.866,1.361,1.361,0,0,0,1.212,1.5,1.387,1.387,0,0,0,.144.007,1.361,1.361,0,0,0,1.352-1.219,59.579,59.579,0,0,0,.36-6.15,20.669,20.669,0,0,0-.151-2.915,1.37,1.37,0,0,0-.054-.215,3.312,3.312,0,0,0,.08-1.155A9.294,9.294,0,0,1,4.5,48.977a4.478,4.478,0,0,1-.826-.871,5.316,5.316,0,0,1-.934-3.06,3.973,3.973,0,0,1,.022-.455A.871.871,0,1,1,4.5,44.8v0c0,.008,0,.023,0,.044,0,.043-.006.111-.006.2a3.868,3.868,0,0,0,.295,1.489,3.213,3.213,0,0,0,.248.46c.088-.225.183-.446.288-.661a2.6,2.6,0,0,0-.56-3.055c-.855-.79-2.434-.5-3.238.982a12.937,12.937,0,0,0-1.5,6.854,3.313,3.313,0,0,0,1.793,2.793C1.842,54.315,1.865,54.889,1.865,55.645Z" transform="translate(0 -37.692)" fill="#033"/>
        <path id="Path_56948" data-name="Path 56948" d="M90.261,112.3a.545.545,0,0,0,.545-.545V100.645a2.123,2.123,0,0,0-1.348-1.975.869.869,0,0,1-.246,1.088,1.034,1.034,0,0,1,.505.887v11.114A.545.545,0,0,0,90.261,112.3Z" transform="translate(-79.497 -87.435)" fill="#033"/>
        <path id="Path_56949" data-name="Path 56949" d="M65.008,109.5a2.117,2.117,0,0,0-.156.8.545.545,0,0,0,1.089,0h0a1.032,1.032,0,0,1,.272-.7A8.921,8.921,0,0,1,65.008,109.5Z" transform="translate(-57.791 -97.084)" fill="#033"/>
        <ellipse id="Ellipse_254" data-name="Ellipse 254" cx="2.449" cy="2.449" rx="2.449" ry="2.449" transform="translate(3.277 4.771) rotate(-76.891)" fill="#033"/>
        <path id="Path_56950" data-name="Path 56950" d="M32.942,59.755c.171,0,.346-.006.522-.015a.653.653,0,0,0-.034-1.306H33.4c-.181.01-.361.014-.535.014a5.853,5.853,0,0,1-2.453-.459A3.1,3.1,0,0,1,29.183,57a3.33,3.33,0,0,1-.356-.617,4.087,4.087,0,0,1-.313-1.575c0-.1,0-.171.007-.213,0-.027,0-.046,0-.059a.653.653,0,0,0-.57-.727.684.684,0,0,0-.08,0,.653.653,0,0,0-.647.574,3.745,3.745,0,0,0-.021.428,5.013,5.013,0,0,0,.894,2.935,4.233,4.233,0,0,0,.688.746,4.615,4.615,0,0,0,1.07.687,6.15,6.15,0,0,0,1.7.488,8.926,8.926,0,0,0,1.3.092Z" transform="translate(-24.245 -47.456)" fill="#033"/>
      </g>
    </g>
  </g>
</svg>
