<svg id="Group_6269" data-name="Group 6269" xmlns="http://www.w3.org/2000/svg" xmlns:xlink="http://www.w3.org/1999/xlink" width="34" height="34" viewBox="0 0 34 34">
  <defs>
    <clipPath id="clip-path">
      <rect id="Rectangle_18283" data-name="Rectangle 18283" width="17" height="23" transform="translate(4207 456.586)" fill="#fff" stroke="#707070" stroke-width="1"/>
    </clipPath>
  </defs>
  <rect id="Rectangle_18274" data-name="Rectangle 18274" width="34" height="34" rx="5" fill="rgba(63,188,161,0.1)"/>
  <g id="Mask_Group_10" data-name="Mask Group 10" transform="translate(-4198 -450.586)" clip-path="url(#clip-path)">
    <g id="noun-old-man-6523657" transform="translate(4202.752 456.186)">
      <g id="Elder_Man" data-name="Elder Man" transform="translate(4.875)">
        <g id="Group_6029" data-name="Group 6029">
          <path id="Path_56814" data-name="Path 56814" d="M30.833,22.038H29.462v-.269a5.953,5.953,0,0,0,3.2-4.752,2,2,0,0,0,.546-3.788V10.937a5.173,5.173,0,0,0-3.619-4.971l-.011-.005a8.3,8.3,0,0,0-5.64,0l-.011.005a5.173,5.173,0,0,0-3.619,4.971v2.292a2,2,0,0,0,.546,3.787,5.953,5.953,0,0,0,3.2,4.754v.269H22.691a4.333,4.333,0,0,0-4.327,4.33c0,1.032.265,1.549,1.841,1.882a63.659,63.659,0,0,0,6.557.861,63.655,63.655,0,0,0,6.566-.863c1.568-.332,1.833-.848,1.833-1.881a4.333,4.333,0,0,0-4.327-4.33Zm-4.071.273a6.817,6.817,0,0,0,2.182-.334V22.3c0,.918-1.486,1.823-2.182,2.158-.7-.335-2.182-1.24-2.182-2.168v-.309A6.816,6.816,0,0,0,26.762,22.311Zm-.438,2.5-1.06,1.061a4.244,4.244,0,0,1-.911-2.676A5.505,5.505,0,0,0,26.324,24.812ZM29.168,23.2a4.247,4.247,0,0,1-.908,2.677L27.2,24.812A5.5,5.5,0,0,0,29.168,23.2Zm-2.742,2.246.336-.337.334.335A.527.527,0,0,1,26.426,25.443Zm.2.627a.965.965,0,0,0,.273,0l.137.559a1.833,1.833,0,0,1-.547,0l.137-.559Zm.907.41-.149-.605c.028-.02.057-.04.083-.063l.441.441a1.827,1.827,0,0,1-.374.227Zm-1.474-.668a1.038,1.038,0,0,0,.083.063l-.148.606a1.856,1.856,0,0,1-.375-.227l.441-.441Zm6.637-14.874v.715a3.685,3.685,0,0,0-.756-.863,2.56,2.56,0,0,1-1.093-2.56,1.978,1.978,0,0,0-.019-1.019,4.494,4.494,0,0,1,1.868,3.727ZM22.7,7.21a1.978,1.978,0,0,0-.019,1.019,2.56,2.56,0,0,1-1.092,2.56,3.687,3.687,0,0,0-.757.863v-.715A4.494,4.494,0,0,1,22.7,7.21Zm-1.355,9.533a.27.27,0,0,0-.259-.227,1.472,1.472,0,0,1-.443-2.853.259.259,0,0,0,.185-.249h0v-.144a2.945,2.945,0,0,1,1.091-2.085,3.084,3.084,0,0,0,1.264-3.068,1.384,1.384,0,0,1,.962-1.679,7.788,7.788,0,0,1,5.22-.006l.012.006a1.385,1.385,0,0,1,.962,1.679A3.084,3.084,0,0,0,31.6,11.185a2.943,2.943,0,0,1,1.09,2.085v.143h0a.257.257,0,0,0,.185.249,1.472,1.472,0,0,1-.445,2.853.259.259,0,0,0-.257.227c-.225,1.846-1.259,5.051-5.419,5.051s-5.194-3.21-5.419-5.051Z" transform="translate(-18.364 -5.467)" fill="#033"/>
          <path id="Path_56815" data-name="Path 56815" d="M37.464,31.543h6.452a.259.259,0,0,0,0-.518H37.464A.259.259,0,0,0,37.464,31.543Z" transform="translate(-32.205 -24.24)" fill="#033"/>
          <path id="Path_56816" data-name="Path 56816" d="M39.859,27.323H45.04a.259.259,0,0,0,0-.518H39.859A.259.259,0,0,0,39.859,27.323Z" transform="translate(-33.964 -21.141)" fill="#033"/>
          <path id="Path_56817" data-name="Path 56817" d="M37.412,38.71v-.348h1.64v.348a.259.259,0,0,0,.259.259h2.915a.259.259,0,0,0,.259-.259V37.5a.259.259,0,0,0-.259-.259h-.715a.775.775,0,1,0-1.485,0h-.715a.259.259,0,0,0-.259.259v.346h-1.64V37.5a.259.259,0,0,0-.259-.259h-.715a.775.775,0,1,0-1.485,0h-.715a.259.259,0,0,0-.259.259V38.71a.259.259,0,0,0,.259.259h2.915a.259.259,0,0,0,.259-.259Zm2.158-.953h2.4v.694h-2.4Zm-2.675.694H34.5v-.694h2.4Z" transform="translate(-29.833 -28.073)" fill="#033"/>
        </g>
      </g>
      <text id="Created_by_Bacontaco" data-name="Created by Bacontaco" transform="translate(0 28.75)" font-size="1" font-family="Arial-BoldMT, Arial" font-weight="700"><tspan x="0" y="0">Created by Bacontaco</tspan></text>
      <text id="from_the_Noun_Project" data-name="from the Noun Project" transform="translate(0 30.077)" font-size="1" font-family="Arial-BoldMT, Arial" font-weight="700"><tspan x="0" y="0">from the Noun Project</tspan></text>
    </g>
  </g>
</svg>
