<svg xmlns="http://www.w3.org/2000/svg" width="34" height="34" viewBox="0 0 34 34">
  <g id="Group_6294" data-name="Group 6294" transform="translate(-4249 -1571)">
    <g id="Group_6047" data-name="Group 6047" transform="translate(4249 1571)">
      <rect id="Rectangle_18275" data-name="Rectangle 18275" width="34" height="34" rx="5" fill="rgba(63,188,161,0.1)"/>
    </g>
    <g id="noun-oncology-4453835" transform="translate(4256 1577.889)">
      <path id="Path_56971" data-name="Path 56971" d="M70.933,70.473,67.58,66.64a9.4,9.4,0,0,1-2.68,2.313L68.265,72.8a1.772,1.772,0,1,0,2.668-2.332Z" transform="translate(-51.213 -51.91)" fill="#033"/>
      <path id="Path_56972" data-name="Path 56972" d="M16.007,22.815c.2.014.406.021.606.021a8.959,8.959,0,0,0,.587-17.9c-.2,0-.406-.019-.606-.019A8.956,8.956,0,0,0,16,22.817ZM11.108,9.2a7.4,7.4,0,0,1,.795-.8.184.184,0,0,1,.253.019.181.181,0,0,1-.019.253,7.326,7.326,0,0,0-.757.759.177.177,0,0,1-.136.064.179.179,0,0,1-.136-.3Zm7.763,1.262a2.036,2.036,0,0,1,.716-.045l.6-.811a.179.179,0,0,1,.239-.036.181.181,0,0,1,.038.251l-.5.675a2,2,0,0,1,.542.263.179.179,0,1,1-.2.294,1.671,1.671,0,0,0-1.5-.2h-.012a.806.806,0,0,0-.585.878.179.179,0,0,1-.162.193h-.036a.177.177,0,0,1-.177-.162,1.327,1.327,0,0,1,.048-.477h-.06a.716.716,0,0,1-.31-.069,1.091,1.091,0,0,1-.5-.7.184.184,0,0,1,.138-.212.181.181,0,0,1,.212.138.716.716,0,0,0,.31.465.508.508,0,0,0,.425-.038.974.974,0,0,1,.418-.3,1.656,1.656,0,0,0-2.962-.344.179.179,0,0,1-.208.074.926.926,0,0,0-.117-.026.842.842,0,0,0-.637.148.859.859,0,0,0-.346.556.792.792,0,0,0,0,.2v.026a.783.783,0,0,0,.6.8.179.179,0,0,1-.045.351h-.045a1.41,1.41,0,0,1-.193-.067,1.372,1.372,0,0,1-.6,1.079.179.179,0,0,1-.224-.279c.716-.578.418-1.086.379-1.143h0a1.193,1.193,0,0,1-.239-.6.546.546,0,0,0-.067-.017,1.148,1.148,0,0,0-.869,2.057.181.181,0,0,1,.074.131.186.186,0,0,1-.053.138,1.654,1.654,0,0,0-.461.895,1.728,1.728,0,0,0-.014.43.179.179,0,0,1-.16.2h-.019A.179.179,0,0,1,12.141,15a1.993,1.993,0,0,1,.441-1.472,1.52,1.52,0,0,1-.119-.131l-1.21.069h0a.179.179,0,0,1-.179-.169.181.181,0,0,1,.169-.189l1.007-.057a1.487,1.487,0,0,1-.11-.854,1.508,1.508,0,0,1,1.733-1.241h0v-.045a1.165,1.165,0,0,1,.146-.394l-.9-.9a.179.179,0,0,1,0-.253.184.184,0,0,1,.255,0l.885.873a1.193,1.193,0,0,1,1.031-.322h.036A2.014,2.014,0,0,1,17.076,9.1V8.04a.181.181,0,1,1,.363,0V9.164a2.014,2.014,0,0,1,1.432,1.3Zm-4.253,5.174a.179.179,0,0,1,.353.057A1.318,1.318,0,0,1,13.778,16.7a1.336,1.336,0,0,0,1.074,1,1.32,1.32,0,0,0,1.107-.325.181.181,0,0,1,.251,0,1,1,0,0,0,.239.184h.031a.167.167,0,0,1,.143.079.912.912,0,0,0,.134.033,1,1,0,0,0,.518-.055.866.866,0,0,0-.138-.625.432.432,0,0,0-.291-.148.179.179,0,0,1-.174-.181.177.177,0,0,1,.177-.177.778.778,0,0,1,.554.263,1.193,1.193,0,0,1,.239.876,1.651,1.651,0,0,0,2.32-1.229,1.616,1.616,0,0,0,0-.547,1.174,1.174,0,0,0-.85-.425h0a1.494,1.494,0,0,0-.955.477.179.179,0,0,1-.265-.239,2.017,2.017,0,0,1,.42-.336,1.367,1.367,0,0,1-.6-.365,1.122,1.122,0,0,1-.3-.773.184.184,0,0,1,.189-.167.179.179,0,0,1,.169.186.747.747,0,0,0,.208.515,1.415,1.415,0,0,0,1.031.353.126.126,0,0,1,.041,0,.68.68,0,0,1,.069,0,1.484,1.484,0,0,1,1.062.492.99.99,0,0,0,.341-1.558,2.117,2.117,0,0,1-.895.22,1.317,1.317,0,0,1-.138,0,.181.181,0,0,1-.165-.193.186.186,0,0,1,.193-.165,1.718,1.718,0,0,0,.943-.222,1.671,1.671,0,0,0,.527-1.523.179.179,0,0,1,.353-.062,1.933,1.933,0,0,1,.029.351l.8.3a.179.179,0,0,1-.062.344.2.2,0,0,1-.062,0l-.716-.263a2.021,2.021,0,0,1-.518,1.019,1.348,1.348,0,0,1,.277,1.06l.862.2a.179.179,0,0,1-.041.353h-.041L20.99,15.2a1.344,1.344,0,0,1-.666.673,1.988,1.988,0,0,1-.021.578,2.074,2.074,0,0,1-.177.556l.716.6a.179.179,0,0,1-.115.315.181.181,0,0,1-.117-.043l-.661-.561a2.052,2.052,0,0,1-.451.446,2.014,2.014,0,0,1-1.169.377,2.06,2.06,0,0,1-.89-.2,1.344,1.344,0,0,1-.745.088h-.041v.909a.179.179,0,1,1-.358,0V17.891a1.193,1.193,0,0,1-.239-.148,1.685,1.685,0,0,1-2,0l-.7.716a.186.186,0,0,1-.129.055.177.177,0,0,1-.126-.052.179.179,0,0,1,0-.253l.692-.716a1.671,1.671,0,0,1-.406-.828,2.043,2.043,0,0,1-.683-.444.179.179,0,0,1,.253-.253,1.651,1.651,0,0,0,.62.387C13.759,16.35,14.516,16.264,14.618,15.634Zm1.492-3.16a1.453,1.453,0,0,1,.041-1.236.179.179,0,0,1,.239-.079.177.177,0,0,1,.079.239,1.124,1.124,0,0,0-.05.9,1.057,1.057,0,0,0,.909.406.179.179,0,0,1,.167.191.181.181,0,0,1-.179.167H17.3A1.4,1.4,0,0,1,16.11,12.474ZM9.4,13.4a7.226,7.226,0,0,1,.64-2.53.184.184,0,0,1,.239-.088.181.181,0,0,1,.088.239A6.864,6.864,0,1,0,13.621,7.7a.179.179,0,1,1-.155-.322A7.224,7.224,0,1,1,16.613,21.1a4.512,4.512,0,0,1-.477-.017A7.224,7.224,0,0,1,9.4,13.4Z" transform="translate(-7.546 -4.918)" fill="#033"/>
    </g>
  </g>
</svg>
