<svg xmlns="http://www.w3.org/2000/svg" width="34" height="34" viewBox="0 0 34 34">
  <g id="Group_6288" data-name="Group 6288" transform="translate(-4249 -1206)">
    <g id="Group_6047" data-name="Group 6047" transform="translate(4249 1206)">
      <rect id="Rectangle_18275" data-name="Rectangle 18275" width="34" height="34" rx="5" fill="rgba(63,188,161,0.1)"/>
    </g>
    <g id="noun-ophthalmology-6601499" transform="translate(4255 1211.965)">
      <path id="Path_56960" data-name="Path 56960" d="M2.084,4.736a.348.348,0,0,1,.079-.487A12.722,12.722,0,0,1,3.927,3.185a2.343,2.343,0,0,1-1.139-1.79.349.349,0,0,1,.7,0c0,.044.043.856,1.2,1.435,0,0,.006.005.009.007a13.633,13.633,0,0,1,1.444-.515A2.263,2.263,0,0,1,5.228.7a.349.349,0,0,1,.7,0,1.812,1.812,0,0,0,1.118,1.39A14.055,14.055,0,0,1,8.75,1.811,2.2,2.2,0,0,1,8.017.349a.349.349,0,0,1,.7,0c0,.043.044.827,1.143,1.4.084,0,.168,0,.251,0a13.4,13.4,0,0,1,6.2,1.478,1.688,1.688,0,0,0,2.219-.611.349.349,0,1,1,.6.359,2.387,2.387,0,0,1-3.137.873,12.711,12.711,0,0,0-5.878-1.4A12.954,12.954,0,0,0,2.571,4.815a.348.348,0,0,1-.487-.079Zm8.024,11.649A5.249,5.249,0,1,1,15.2,12.32a5.552,5.552,0,0,1,4.559.045,9.8,9.8,0,0,0,.439-1.1.328.328,0,0,0,0-.216A10.572,10.572,0,0,0,10.108,3.835,10.572,10.572,0,0,0,.016,11.048a.328.328,0,0,0,0,.216,10.572,10.572,0,0,0,10.093,7.213,10.793,10.793,0,0,0,1.816-.153,5.377,5.377,0,0,1-.073-.892,5.547,5.547,0,0,1,.19-1.421,5.2,5.2,0,0,1-1.934.375Zm0-7.321c-.063,0-.123.011-.185.016a1.378,1.378,0,0,1,.185.681,1.4,1.4,0,0,1-1.394,1.394,1.378,1.378,0,0,1-.681-.185c-.005.062-.016.122-.016.185a2.092,2.092,0,1,0,2.092-2.092ZM8.714,10.459a.7.7,0,1,0-.7-.7A.7.7,0,0,0,8.714,10.459Zm3.67,4.61a4.547,4.547,0,1,1,1.944-2.27,5.613,5.613,0,0,0-1.944,2.27Zm.513-3.913a2.792,2.792,0,0,0-2.789-2.789,2.71,2.71,0,0,0-.821.127,1.382,1.382,0,0,0-.573-.127A1.4,1.4,0,0,0,7.319,9.761a1.382,1.382,0,0,0,.127.573,2.71,2.71,0,0,0-.127.821,2.789,2.789,0,0,0,5.578,0Zm4.532,4.532a1.743,1.743,0,1,0,1.743,1.743A1.745,1.745,0,0,0,17.429,15.688Zm4.881,1.743a4.881,4.881,0,1,1-4.881-4.881A4.886,4.886,0,0,1,22.31,17.431Zm-1.046,0a.348.348,0,0,0-.349-.349H19.842a2.418,2.418,0,0,0-.148-.557l.929-.535a.349.349,0,1,0-.348-.6l-.931.537a2.457,2.457,0,0,0-.406-.406l.537-.931a.349.349,0,1,0-.6-.348l-.535.929a2.418,2.418,0,0,0-.557-.148V13.945a.349.349,0,0,0-.7,0v1.074a2.418,2.418,0,0,0-.557.148l-.535-.929a.349.349,0,1,0-.6.348l.537.931a2.458,2.458,0,0,0-.406.406l-.931-.537a.349.349,0,1,0-.348.6l.929.535a2.418,2.418,0,0,0-.148.557H13.943a.349.349,0,1,0,0,.7h1.074a2.418,2.418,0,0,0,.148.557l-.929.535a.349.349,0,1,0,.348.6l.931-.537a2.46,2.46,0,0,0,.406.406l-.537.931a.349.349,0,1,0,.6.348l.535-.929a2.418,2.418,0,0,0,.557.148v1.074a.349.349,0,0,0,.7,0V19.844a2.418,2.418,0,0,0,.557-.148l.535.929a.349.349,0,0,0,.6-.348l-.537-.931a2.458,2.458,0,0,0,.406-.406l.931.537a.349.349,0,1,0,.348-.6l-.929-.535a2.418,2.418,0,0,0,.148-.557h1.074a.348.348,0,0,0,.349-.349Z" transform="translate(0.003 0)" fill="#033"/>
    </g>
  </g>
</svg>
