<svg xmlns="http://www.w3.org/2000/svg" width="34" height="34" viewBox="0 0 34 34">
  <g id="Group_6286" data-name="Group 6286" transform="translate(-4249 -1060)">
    <g id="Group_6047" data-name="Group 6047" transform="translate(4249 1060)">
      <rect id="Rectangle_18275" data-name="Rectangle 18275" width="34" height="34" rx="5" fill="rgba(63,188,161,0.1)"/>
    </g>
    <g id="noun-urology-7318739" transform="translate(4254.019 1065.723)">
      <path id="Path_56951" data-name="Path 56951" d="M28.016,21.439A6.707,6.707,0,0,0,27.484,19a3.939,3.939,0,0,0-3.727-2.566h-.074a3.628,3.628,0,0,0-2.162.677,1.743,1.743,0,0,0-.769,1.352v.024a3.528,3.528,0,0,0,.34,1.26c.064.168.134.34.2.514a5.231,5.231,0,0,1,.687-.045c.04,0,.183.005.335.005.271.005.567.01.855-.01.7-.045,1.347-.266,1.283-1.15a.292.292,0,1,1,.583-.041c.1,1.369-.82,1.7-1.826,1.781-.3.018-.618.01-.908.01-.079-.005-.162-.005-.325-.005A4.889,4.889,0,0,0,17.085,25.7v4.068a1.072,1.072,0,0,1-.306.735A1.041,1.041,0,0,1,15,29.764v-4.07a4.889,4.889,0,0,0-4.888-4.888c-.162,0-.243,0-.325.005-.29,0-.607.005-.908-.01-1.006-.074-1.925-.41-1.826-1.781a.292.292,0,0,1,.583.041c-.064.884.583,1.1,1.283,1.15a7.528,7.528,0,0,0,.855.01c.149,0,.29-.005.335-.005a5.861,5.861,0,0,1,.687.045c.064-.173.134-.347.2-.514a3.651,3.651,0,0,0,.34-1.26v-.024a1.755,1.755,0,0,0-.769-1.352A3.637,3.637,0,0,0,8.4,16.433H8.33A3.939,3.939,0,0,0,4.6,19a6.8,6.8,0,0,0-.538,2.439A7.762,7.762,0,0,0,4.4,24,4.646,4.646,0,0,0,8.25,27.53a2.055,2.055,0,0,0,.913-.1,1.883,1.883,0,0,0,.918-.705,2.918,2.918,0,0,0,.479-1.357A5.746,5.746,0,0,0,10.243,23a1.117,1.117,0,0,0-.134-.005,3.987,3.987,0,0,0-1.521.2,1.178,1.178,0,0,0-.671,1.15.294.294,0,0,1-.306.277.289.289,0,0,1-.277-.3,1.7,1.7,0,0,1,1.017-1.658,4.365,4.365,0,0,1,1.757-.256A3.995,3.995,0,0,1,14.1,26.393v4.483a.288.288,0,0,1-.2.277,3.107,3.107,0,0,0-1.166.8,1.453,1.453,0,0,0-.4.958A1.54,1.54,0,0,0,12.848,34a3.725,3.725,0,0,0,1.531.839,1.654,1.654,0,0,1,.878.6,1.708,1.708,0,0,1,.33,1.012v.01h.9v-.01a1.717,1.717,0,0,1,.33-1.012,1.665,1.665,0,0,1,.878-.6A3.725,3.725,0,0,0,19.23,34a1.533,1.533,0,0,0,.519-1.091,1.447,1.447,0,0,0-.4-.958,3.2,3.2,0,0,0-1.19-.8.3.3,0,0,1-.178-.271l0-4.478a3.981,3.981,0,0,1,3.985-3.985,4.356,4.356,0,0,1,1.757.256,1.7,1.7,0,0,1,1.017,1.658.292.292,0,0,1-.583.023,1.177,1.177,0,0,0-.671-1.15A4,4,0,0,0,21.97,23a1.134,1.134,0,0,0-.134.005,5.711,5.711,0,0,0-.317,2.369A2.93,2.93,0,0,0,22,26.732a1.883,1.883,0,0,0,.918.705,2.041,2.041,0,0,0,.908.1,4.646,4.646,0,0,0,3.855-3.53,7.505,7.505,0,0,0,.336-2.566Z" transform="translate(-4.061 -13.911)" fill="#033"/>
      <path id="Path_56952" data-name="Path 56952" d="M56.1,12.857a.3.3,0,0,0,.416-.005.288.288,0,0,0-.005-.41,4.8,4.8,0,0,1-1.052-1.56,4.64,4.64,0,0,1-.37-1.836V7.056a.3.3,0,0,0-.591,0V9.044a5.328,5.328,0,0,0,.416,2.063,5.464,5.464,0,0,0,1.187,1.75Z" transform="translate(-41.341 -6.765)" fill="#033"/>
      <path id="Path_56953" data-name="Path 56953" d="M37.946,12.857a5.341,5.341,0,0,0,1.606-3.815V7.056a.3.3,0,0,0-.591,0V9.044a4.738,4.738,0,0,1-.37,1.836,4.827,4.827,0,0,1-1.057,1.56.288.288,0,0,0,0,.41.294.294,0,0,0,.412.006Z" transform="translate(-28.738 -6.765)" fill="#033"/>
    </g>
  </g>
</svg>
