<svg xmlns="http://www.w3.org/2000/svg" width="34" height="34" viewBox="0 0 34 34">
  <g id="Group_6280" data-name="Group 6280" transform="translate(-34 -690)">
    <g id="Group_6041" data-name="Group 6041" transform="translate(34 690)">
      <rect id="Rectangle_18274" data-name="Rectangle 18274" width="34" height="34" rx="5" fill="rgba(63,188,161,0.1)"/>
    </g>
    <g id="noun-orthopedics-7030224" transform="translate(35.793 691.123)">
      <path id="Path_56934" data-name="Path 56934" d="M8.083,10.943l-1.1-1.591a.347.347,0,0,1,.571-.394l1.1,1.591a.347.347,0,1,1-.571.394ZM6.454,14.372l-1.927.156a.347.347,0,1,0,.054.693l1.927-.156a.347.347,0,0,0-.054-.693Zm.792-2.109L5.5,11.433a.347.347,0,1,0-.3.628l1.747.83a.347.347,0,0,0,.3-.628ZM17.935,28.215H15.563L14.7,22.278a3.774,3.774,0,0,1,.745-2.912c.949-1.26.088-3.139-2.281-1.436-1.987-1.738-3.918.03-2.119,1.637a3.763,3.763,0,0,1,1.265,2.354l.914,6.294H10.57L8.2,15.71a3.8,3.8,0,0,1,1.576-3.892l11.26-7.941,1.5,2.6L16.243,11a3.815,3.815,0,0,1-1.389.64A11.8,11.8,0,0,0,12.56,12c-.276.115-.573.317-.538.654a.481.481,0,0,0,.352.4c.136.046.3.073.465.114a1.468,1.468,0,0,1,1.121,1.217c.416,2.888,2.367,2.2,2.617.646a3.773,3.773,0,0,1,1.58-2.557L23.7,8.493l1.782,3.087-8.026,5.252a1.265,1.265,0,0,0-.5,1.5c1.435,4-.206,5.49.98,9.884ZM11.9,13.844c-1.335-.8-1.989.345-1.817,1.522.177,1.209,1.125,1.009,1.925.855,1.722-.317.919-1.765-.108-2.378Z" transform="translate(0 0)" fill="#033" fill-rule="evenodd"/>
    </g>
  </g>
</svg>
