<svg id="Group_6008" data-name="Group 6008" xmlns="http://www.w3.org/2000/svg" xmlns:xlink="http://www.w3.org/1999/xlink" width="34" height="34" viewBox="0 0 34 34">
  <defs>
    <clipPath id="clip-path">
      <rect id="Rectangle_18287" data-name="Rectangle 18287" width="27" height="21" transform="translate(4211 473.099)" fill="#fff" stroke="#707070" stroke-width="1"/>
    </clipPath>
  </defs>
  <rect id="Rectangle_18274" data-name="Rectangle 18274" width="34" height="34" rx="5" fill="rgba(63,188,161,0.1)"/>
  <g id="Mask_Group_14" data-name="Mask Group 14" transform="translate(-4207 -466.099)" clip-path="url(#clip-path)">
    <g id="noun-family-5427137" transform="translate(4211 472.763)">
      <path id="Path_56840" data-name="Path 56840" d="M42.228,23.037H41v4.674A.284.284,0,0,1,40.71,28c-.181,0-.291-.022-.429.154a.787.787,0,0,0-.143.467v.429h1.87c.016-2,.2-4,.22-6.01Zm2.557,0H43.553c.027,2,.3,4.009.33,6.01h1.765v-.429c0-.28-.159-.621-.407-.621h-.165a.284.284,0,0,1-.286-.286V23.037Zm.451-7.006a1.181,1.181,0,0,1-.632.181H41.178a1.181,1.181,0,0,1-.632-.181l.011,6.434h4.674Zm1.5-.8h-.929l-.005,3.75h.379a.54.54,0,0,0,.555-.522ZM44.422,7.156a2.1,2.1,0,0,0,.533-1.424c0-.522-.011-.357-.121-.357A2.622,2.622,0,0,1,42.124,3.1a2.166,2.166,0,0,0-1.171,2.535,2.134,2.134,0,0,0,2.2,2.128,1.75,1.75,0,0,0,1.27-.6Zm.8,2.623a5.011,5.011,0,0,1-2.09,2.662.289.289,0,0,1-.335.005,4.943,4.943,0,0,1-2.139-2.821c-.781.286-1.881.577-1.881,1.276l-.022,3.761h1.21V11.505a.286.286,0,0,1,.572,0v3.508a.636.636,0,0,0,.632.632H44.6a.636.636,0,0,0,.632-.632V11.505a.286.286,0,0,1,.572,0v3.156H47l.011-3.475c.011-.907-.973-1.083-1.782-1.408Zm-.236-.825h.676a.424.424,0,0,0,.423-.423V4.753a3.151,3.151,0,0,0-6.3,0V8.531a.424.424,0,0,0,.423.423h.6c.049-.022.1-.044.143-.066.473-.22.781-.506.572-1.039a2.545,2.545,0,0,1-.269-.225A3.094,3.094,0,0,1,40.386,5.7c-.2-1.633.445-2.936,1.974-3.266a.283.283,0,0,1,.341.319,1.744,1.744,0,0,0,.6,1.49,2.293,2.293,0,0,0,1.529.555c.286,0,.456.044.583.242a1.284,1.284,0,0,1,.115.687,2.694,2.694,0,0,1-.676,1.809,2.622,2.622,0,0,1-.577.473.562.562,0,0,0-.005.412,1.308,1.308,0,0,0,.555.522h.159ZM41.2,9.4a4.181,4.181,0,0,0,1.765,2.458A4.268,4.268,0,0,0,44.7,9.531c-.6-.319-1.034-.72-1.045-1.265a2.707,2.707,0,0,1-1.463-.082c.028.588-.4.94-.99,1.215ZM28.47,4.142c-.011-.236-.027-.528-.027-.841a8.154,8.154,0,0,1-3.569-.4,2.285,2.285,0,0,1-1.787,1.727,2.731,2.731,0,0,0,2.942,2.563,2.468,2.468,0,0,0,1.716-.836,2.739,2.739,0,0,0,.737-1.848c0-.11-.005-.225-.011-.363Zm.011-1.43.055-.352a1.751,1.751,0,0,0-.126-1.292c-.044-.055-.082-.077-.132-.06-1.776.55-1.727-.011-2.722.066a2.678,2.678,0,0,0-1.743.819,2.914,2.914,0,0,0-.77,2.156,1.741,1.741,0,0,0,1.342-1.567.288.288,0,0,1,.39-.225,7.439,7.439,0,0,0,3.706.456ZM24.307,8.228a3.318,3.318,0,0,0,1.485,1.644,3.307,3.307,0,0,0,1.485-1.639A.287.287,0,0,1,27.007,8l-.082-.418a2.482,2.482,0,0,1-.885.17,4.056,4.056,0,0,1-1.358-.2l-.126.44a.286.286,0,0,1-.247.236Zm1.474,9.139H23.174l.011,9.172h1.721l.594-7.886a.287.287,0,0,1,.572,0l.594,7.891h1.721l.011-9.172H25.781Zm-3.173,1.567L22.6,15.223H21.5v3.189a.609.609,0,0,0,.654.522Zm1.947,8.177H23.323v.594a.284.284,0,0,1-.286.286c-.181,0-.291-.022-.429.154a.787.787,0,0,0-.143.467v.429h2.1v-1.93Zm3.69,0H27.007v1.936h2.1v-.429c0-.28-.159-.621-.407-.621h-.165a.284.284,0,0,1-.286-.286v-.6ZM23.174,16.8h5.219V10.527a.286.286,0,0,1,.572,0v4.13h1.391l-.006-3.849a2.54,2.54,0,0,0-2.491-2.53A3.846,3.846,0,0,1,25.94,10.45a.3.3,0,0,1-.3.005,3.884,3.884,0,0,1-1.925-2.178,2.544,2.544,0,0,0-2.513,2.53L21.2,14.656h1.391v-4.13a.286.286,0,0,1,.572,0V16.8Zm15.87.638a2.884,2.884,0,0,1,.566,1.545h.368l-.005-3.75h-.929Zm-9.7,1.5a2.809,2.809,0,0,1,.72-1.694V15.223H28.959l-.006,3.712Zm7.561-4.85c-.011-.2-.022-.434-.022-.682a7.122,7.122,0,0,1-3.03-.346,2.007,2.007,0,0,1-1.534,1.479,2.32,2.32,0,0,0,2.513,2.156,2.088,2.088,0,0,0,1.463-.715,2.33,2.33,0,0,0,.627-1.584c-.006-.088-.011-.192-.016-.308Zm.011-1.276a2.572,2.572,0,0,0,.044-1.177c-.022-.077-.1-.258-.176-.236-1.551.478-1.512-.005-2.37.06a2.333,2.333,0,0,0-2.15,2.469v.027a1.46,1.46,0,0,0,1.089-1.32.288.288,0,0,1,.39-.225,6.482,6.482,0,0,0,3.173.4ZM34.475,22.943H31.868l.011,3.882h1.754l.561-2.629a.286.286,0,0,1,.561-.005l.566,2.634h1.754l.011-3.882Zm-2.607-.572h5.219v-3.4a.286.286,0,0,1,.572,0V20.21H39.05l-.006-.962a2.311,2.311,0,0,0-.72-1.765,3.339,3.339,0,0,0-1.985-.786,2.519,2.519,0,0,1-1.507.555,3.134,3.134,0,0,1-1.941-.577,3.615,3.615,0,0,0-2.194.748,2.3,2.3,0,0,0-.792,1.826l-.005.962h1.4V18.968a.286.286,0,0,1,.572,0Zm-1.441-1.584v2.007a.526.526,0,0,0,.522.522H31.3V20.793h-.869Zm7.231,2.53c.286,0,.522.038.715-.154a.524.524,0,0,0,.154-.368V20.788h-.869ZM35.6,27.4v1.65h1.793a1.208,1.208,0,0,0-.121-.742c-.11-.148-.2-.121-.352-.121a.287.287,0,0,1-.286-.286V27.4H35.6Zm-3.272,0v.495a.284.284,0,0,1-.286.286c-.148,0-.242-.022-.352.121a1.215,1.215,0,0,0-.121.742h1.793v-1.65H32.324Z" transform="translate(-20.034 -1.003)" fill="#033"/>
      <text id="Created_by_Afianroc" data-name="Created by Afianroc" transform="translate(0 32.487)" fill="#033" font-size="1" font-family="SegoeUI-Bold, Segoe UI" font-weight="700"><tspan x="0" y="0">Created by Afianroc</tspan></text>
      <text id="from_Noun_Project" data-name="from Noun Project" transform="translate(0 33.895)" fill="#033" font-size="1" font-family="SegoeUI-Bold, Segoe UI" font-weight="700"><tspan x="0" y="0">from Noun Project</tspan></text>
    </g>
  </g>
</svg>
