<svg xmlns="http://www.w3.org/2000/svg" width="34" height="34" viewBox="0 0 34 34">
  <g id="Group_6273" data-name="Group 6273" transform="translate(-35 -176)">
    <g id="Group_6009" data-name="Group 6009" transform="translate(-23 -462)">
      <rect id="Rectangle_18273" data-name="Rectangle 18273" width="34" height="34" rx="5" transform="translate(58 638)" fill="rgba(63,188,161,0.1)"/>
    </g>
    <g id="noun-baby-weight-scale-2039688" transform="translate(29 182.962)">
      <g id="Group_6110" data-name="Group 6110" transform="translate(8 4.038)">
        <path id="Path_56989" data-name="Path 56989" d="M9.916,12.831a4.475,4.475,0,0,0,4.47,4.47h.933a5.561,5.561,0,0,1-1.4-8.3H8.639a.639.639,0,1,0,0,1.277h.639a.639.639,0,0,1,.639.639Z" transform="translate(-8 -5.831)" fill="#033"/>
        <path id="Path_56990" data-name="Path 56990" d="M32.083,10.356a5.737,5.737,0,0,1,.324,1.081l1.738-.057-.564-1.04a1.742,1.742,0,0,1-.211-.778L33.353,9H32.172a.626.626,0,0,1,.326.356.639.639,0,0,1-.1.584Z" transform="translate(-16.705 -5.831)" fill="#033"/>
        <path id="Path_56991" data-name="Path 56991" d="M21.583,15.06a4.278,4.278,0,0,0,3.094-1.312.648.648,0,0,1,.552-.187.639.639,0,0,1,.474.34,2.953,2.953,0,0,0,2.631,1.607h4.5a3.417,3.417,0,0,0,3.416-3.414V9.843A1.664,1.664,0,0,0,34.99,8.228l-1.856-.464a.639.639,0,0,1-.475-.724L32.932,5.4a1.469,1.469,0,0,0-.41-1.277l-.059-.059a.107.107,0,0,0-.147,0l0,0a.1.1,0,0,0-.013.111l.212.423a.639.639,0,0,1-.217.815l-.414.276a1.469,1.469,0,0,0-.5.593,1.714,1.714,0,0,1,.105.517l.013.378.727,1.128,2.147,1.422a.639.639,0,1,1-.706,1.065l-.4-.265c0,.033.009.064.01.1a2.306,2.306,0,0,1-2.225,2.378l-.74.024h-.022a.639.639,0,1,1-.02-1.277l.74-.024A1.029,1.029,0,0,0,32,10.673a1.373,1.373,0,0,0-.218-.694L30.325,7.729a.627.627,0,0,1-.1-.325l-.019-.555a.472.472,0,0,0-.471-.455h-.015a.47.47,0,0,0-.455.485l.028.848a.466.466,0,0,0,.057.208L30.4,9.888a.639.639,0,0,1-.538.941l-2.772.091a.471.471,0,0,0-.424.3.639.639,0,1,1-1.192-.459,1.753,1.753,0,0,1,.411-.623.638.638,0,0,1-.072-.18,4.317,4.317,0,0,0-.4-1.185.639.639,0,0,1,.05-.667l-.457-.135a.649.649,0,0,1-.091-.04A1.532,1.532,0,0,1,24.045,9.4l-.627.3a.639.639,0,1,1-.54-1.158l.622-.291a.255.255,0,0,0,.123-.337.633.633,0,0,1,.261-.81,4.3,4.3,0,0,0-2.977-.618,4.315,4.315,0,0,0,.675,8.577Z" transform="translate(-11.35 -4.038)" fill="#033"/>
        <path id="Path_56992" data-name="Path 56992" d="M28.6,21.806h.8a4.186,4.186,0,0,1-.3-.344A5.534,5.534,0,0,1,28.6,21.806Z" transform="translate(-15.446 -10.336)" fill="#033"/>
        <path id="Path_56994" data-name="Path 56994" d="M51.9,9H46.419a2.932,2.932,0,0,1,1.648,2.635v2.252a4.672,4.672,0,0,1-1.457,3.389,4.476,4.476,0,0,0,4.011-4.445V10.916a.639.639,0,0,1,.639-.639H51.9A.639.639,0,1,0,51.9,9Z" transform="translate(-21.887 -5.831)" fill="#033"/>
      </g>
    </g>
  </g>
</svg>
