<svg xmlns="http://www.w3.org/2000/svg" width="34" height="34" viewBox="0 0 34 34">
  <g id="Group_6279" data-name="Group 6279" transform="translate(-34 -616)">
    <g id="Group_6043" data-name="Group 6043" transform="translate(-24 -22)">
      <rect id="Rectangle_18273" data-name="Rectangle 18273" width="34" height="34" rx="5" transform="translate(58 638)" fill="rgba(63,188,161,0.1)"/>
    </g>
    <g id="Group_6082" data-name="Group 6082" transform="translate(-626.662 -252.315)">
      <path id="Path_56923" data-name="Path 56923" d="M2525.318,1156.294a1.531,1.531,0,0,0-.489-.384,1.859,1.859,0,0,0-.64-.167,1.729,1.729,0,0,1-.643-.174,1.469,1.469,0,0,1-.573-.576,1.382,1.382,0,0,0-.681,1.2l.008,1.368a1.39,1.39,0,0,0,1.389,1.38h.256a1.39,1.39,0,0,0,1.38-1.4Z" transform="translate(-1844.908 -279.182)" fill="#033"/>
      <path id="Path_56924" data-name="Path 56924" d="M2322.029,874.625a2.989,2.989,0,0,0-4,.2,2.751,2.751,0,0,0-.5,3.034,2.259,2.259,0,0,0,.254.387c.062.076.193.273.313.229.1-.038.089-.177.089-.264v-.289q0-.327,0-.655c0-.085,0-.17,0-.254a1.821,1.821,0,0,1,.938-1.608c-.019-.054-.039-.109-.056-.167a.221.221,0,0,1,.424-.125,1.382,1.382,0,0,0,.6.882,1.313,1.313,0,0,0,.491.126,2.286,2.286,0,0,1,.777.208,1.99,1.99,0,0,1,.69.56.224.224,0,0,1,.048.138q0,.471.006.942c0,.083-.042.464.049.5.121.051.272-.131.337-.2a2.084,2.084,0,0,0,.3-.421A2.753,2.753,0,0,0,2322.029,874.625Z" transform="translate(-1641.244 0)" fill="#033"/>
      <path id="Path_56925" data-name="Path 56925" d="M3397.5,2176.173l1.016,1.194a.221.221,0,0,1,.042.212l-1.129,3.411a.646.646,0,1,0,1.228.406l1.293-3.908a.73.73,0,0,0-.03-.4.618.618,0,0,0-.082-.144c-.084-.112-.14-.187-1.111-1.378a.3.3,0,0,0-.413-.044Z" transform="translate(-2714.241 -1292.91)" fill="#033"/>
      <path id="Path_56926" data-name="Path 56926" d="M3165.4,2772.054a1.088,1.088,0,0,1-1.031-1.43l.489-1.478a1.9,1.9,0,0,0-.752,1.057l-.007.022-.889,2.275,1.592.927a.618.618,0,0,1,1.04.176l.833,2.09h1.5a.3.3,0,0,0,.274-.4l-1.672-4.174a.148.148,0,0,0-.277.009l-.061.184A1.094,1.094,0,0,1,3165.4,2772.054Z" transform="translate(-2481.597 -1882.681)" fill="#033"/>
      <path id="Path_56927" data-name="Path 56927" d="M2148.052,2305.6a.647.647,0,0,0-.095-.908l-2.788-2.267a.222.222,0,0,1-.08-.2l.18-1.561-1-.108a.3.3,0,0,0-.325.26c-.089.782-.164,1.443-.2,1.737a.61.61,0,0,0,.005.187.718.718,0,0,0,.193.355l3.194,2.6A.649.649,0,0,0,2148.052,2305.6Z" transform="translate(-1468.859 -1417.181)" fill="#033"/>
      <path id="Path_56928" data-name="Path 56928" d="M2592.582,1815.078a.112.112,0,0,0,.113-.087l.951-3.458h-2.169l.992,3.459A.118.118,0,0,0,2592.582,1815.078Z" transform="translate(-1913.636 -931.39)" fill="#033"/>
      <path id="Path_56929" data-name="Path 56929" d="M2197.707,1821.722l.221-.566v0l.765-1.958v-5.629s0-.006,0-.009a.19.19,0,0,1,0-.023c0-.007,0-.013,0-.02l.007-.021a.161.161,0,0,1,.007-.02l.01-.019.011-.018.013-.016.016-.016.006-.006.01-.007.02-.013.018-.01.021-.009.02-.006.021,0,.022,0h.021l.022,0,.021,0,.02.006.021.008.018.01.019.012.016.013.017.016.006.006.694.815.817-.656a.293.293,0,0,0,.044-.414l-1.2-1.474a.607.607,0,0,0-.135-.125.728.728,0,0,0-.4-.113h-1.635l-.983,3.575a.556.556,0,0,1-.538.411h0a.553.553,0,0,1-.537-.4l-1.027-3.581h-1.319a.646.646,0,0,0-.641.573l-.119,1.045c-.031.278-.064.563-.1.845a.3.3,0,0,0,.261.326l.993.107.041-.357a.221.221,0,1,1,.439.051l-.258,2.237,2.695,2.19a1.089,1.089,0,0,1-1.373,1.689l-1.564-1.272a.147.147,0,0,0-.24.114l0,3.052,4.208,0A.532.532,0,0,0,2197.707,1821.722Z" transform="translate(-1516.798 -931.312)" fill="#033"/>
      <path id="Path_56930" data-name="Path 56930" d="M670.245,3469.351a2.634,2.634,0,1,0-2.559,2.01A2.337,2.337,0,0,0,670.245,3469.351Z" transform="translate(0 -2576.269)" fill="#033"/>
      <path id="Path_56931" data-name="Path 56931" d="M1508.169,3344.125a1.157,1.157,0,0,1,.8-.331h6.4a1.2,1.2,0,0,1,1.129,1.12,1.14,1.14,0,0,1-.124.569.147.147,0,0,0,.129.217h3.013a.3.3,0,0,0,.295-.294v-1.671h-.94a.236.236,0,0,1-.082-.016l-.024-.012-.015-.009-.017-.013-.016-.014-.013-.015c0-.006-.01-.011-.014-.017s-.007-.013-.011-.02l-.009-.017a.2.2,0,0,1-.006-.02.191.191,0,0,1-.006-.021c0-.005,0-.011,0-.016a.293.293,0,0,1,0-.03c0-.005,0-.01,0-.015a.241.241,0,0,1,0-.026.211.211,0,0,1,.007-.023s0-.011,0-.016l.785-2.006-1.563-.911-.132.337a.971.971,0,0,1-.909.62l-4.425,0h-.009l-3.927,0h-.442a.926.926,0,0,0-.925.924v2.007a.527.527,0,0,0,.025.145c.055.189.3.67.558.58.165-.058.129-.306.159-.441A1.135,1.135,0,0,1,1508.169,3344.125Z" transform="translate(-836.439 -2450.281)" fill="#033"/>
      <path id="Path_56932" data-name="Path 56932" d="M3501.27,3828.21h-4.51v1.671a.3.3,0,0,0,.295.295h4.254a.988.988,0,0,0,.976-1.1A1.01,1.01,0,0,0,3501.27,3828.21Z" transform="translate(-2812.944 -2934.756)" fill="#033"/>
      <path id="Path_56933" data-name="Path 56933" d="M1689.774,3904.95a.749.749,0,0,0-.7-.7h-6.388a.72.72,0,0,0-.487.2.729.729,0,0,0-.2.555c0,.006,0,.012,0,.018a.688.688,0,0,0,.688.688h6.395A.746.746,0,0,0,1689.774,3904.95Z" transform="translate(-1010.155 -3010.296)" fill="#033"/>
    </g>
  </g>
</svg>
