<svg xmlns="http://www.w3.org/2000/svg" width="34" height="34" viewBox="0 0 34 34">
  <g id="Group_6295" data-name="Group 6295" transform="translate(-4249 -1644)">
    <g id="Group_6047" data-name="Group 6047" transform="translate(4191 881)">
      <rect id="Rectangle_18275" data-name="Rectangle 18275" width="34" height="34" rx="5" transform="translate(58 763)" fill="rgba(63,188,161,0.1)"/>
    </g>
    <g id="noun-plastic-surgery-7132911" transform="translate(4234.125 1630.425)">
      <path id="Path_56973" data-name="Path 56973" d="M42.782,53.939v-1.8a4.362,4.362,0,0,1-3.962-.014v1.819L40.8,56.988Z" transform="translate(-11.458 -20.781)" fill="#033"/>
      <path id="Path_56974" data-name="Path 56974" d="M31.734,32.905V30.868c-.1-.082-.2-.168-.294-.26l-.916-.894a3.11,3.11,0,0,1-.952-2.242V24.258a.36.36,0,0,1,.247-.342l2.162-.72a.008.008,0,0,1,.006,0,4.943,4.943,0,0,0,1.949-1.356l1.317-1.428a.362.362,0,0,1,.583.073l.727,1.351a3.632,3.632,0,0,0,1.269,1.555l1.248.535a.359.359,0,0,1,.219.33V27.5a3.157,3.157,0,0,1-.952,2.242l-.888.867q-.155.15-.322.284V32.9h.45a5.447,5.447,0,0,1,2.432.579V25.159a5.584,5.584,0,1,0-11.168,0v8.325a5.409,5.409,0,0,1,2.432-.582Z" transform="translate(-5.093)" fill="#033"/>
      <path id="Path_56975" data-name="Path 56975" d="M30.579,64.677l0,0a.222.222,0,0,1-.034-.03h0a.318.318,0,0,1-.03-.034A.03.03,0,0,1,30.5,64.6a.17.17,0,0,1-.021-.034l0-.006c-.007-.014-.014-.028-.02-.042s0,0,0-.006a.391.391,0,0,1-.011-.038s0-.006,0-.008a.235.235,0,0,1-.007-.044v-.007a.185.185,0,0,1,0-.04.031.031,0,0,1,0-.011.438.438,0,0,1,.006-.045h0s0,0,0,0a.346.346,0,0,1,.011-.041s0-.006,0-.008.011-.028.018-.042a0,0,0,0,1,0,0,.271.271,0,0,1,.024-.037l.007-.008a.231.231,0,0,1,.024-.028l.006-.006L33.481,61.2l.027-.024a2.392,2.392,0,0,1,.99-.481,2.338,2.338,0,0,1,1.46.164l.6.265.254-.113a5.644,5.644,0,0,0-1.683-1.754.392.392,0,0,1-.076-.049,4.762,4.762,0,0,0-2.559-.753h-.616l-2.23,3.43a.361.361,0,0,1-.61.007L26.8,58.451h-.614c-2.93,0-5.313,2.748-5.313,6.124v1.2a.238.238,0,0,0,.237.237H32.485a8.7,8.7,0,0,1-.892-.582Z" transform="translate(0 -24.822)" fill="#033"/>
      <path id="Path_56976" data-name="Path 56976" d="M41.123,30.5v-3l-1.043-.446-.021-.01a4.188,4.188,0,0,1-1.587-1.86l-.489-.908-.976,1.058A5.78,5.78,0,0,1,34.75,26.88l-1.912.637v2.954A2.391,2.391,0,0,0,33.57,32.2l.916.894a3.614,3.614,0,0,0,5.013,0l.888-.867a2.393,2.393,0,0,0,.736-1.727Z" transform="translate(-7.637 -2.998)" fill="#033"/>
      <path id="Path_56977" data-name="Path 56977" d="M58.335,73.429l-.028-.008a2.918,2.918,0,0,0-1.541-.178l-.667.333a1.253,1.253,0,0,1-1.035.024l-.028-.013-.7-.35a2.1,2.1,0,0,0-1.221.144l-.157.048-.021.006-2.306.541.393.291a7.672,7.672,0,0,0,4.5,1.538h.069a7.675,7.675,0,0,0,4.5-1.538.237.237,0,0,0-.085-.421l-1.655-.412a.1.1,0,0,0-.02,0Z" transform="translate(-19 -34.234)" fill="#033"/>
      <path id="Path_56978" data-name="Path 56978" d="M70.141,60.4l.764.764.016-.014,2.532-2.533-.764-.764Z" transform="translate(-31.457 -24.44)" fill="#033"/>
      <path id="Path_56979" data-name="Path 56979" d="M59,67.541a.358.358,0,0,1-.254-.106l-.383-.383-.764.764a.36.36,0,0,1-.508-.51l.764-.764-.061-.061a1.651,1.651,0,0,0-.784.15l-.755.333a.36.36,0,0,1-.291,0l-.746-.329a1.63,1.63,0,0,0-1.011-.121,1.7,1.7,0,0,0-.679.326l-2.033,2.033,1.82-.426c.047-.014.095-.028.141-.044a2.633,2.633,0,0,1,1.7-.129.335.335,0,0,1,.04.017l.7.352a.7.7,0,0,0,.373.034.453.453,0,0,1,.044-.027l.72-.36a.345.345,0,0,1,.064-.024,3.473,3.473,0,0,1,1.975.174l.018.006,1.614.4-1.43-1.428-.014.014a.368.368,0,0,1-.258.107Z" transform="translate(-19.549 -29.949)" fill="#033"/>
      <path id="Path_56980" data-name="Path 56980" d="M79.271,52.379a.36.36,0,0,0-.51.51l.51.51-.51.51.51.51.51-.51.51.51a.36.36,0,1,0,.508-.51Z" transform="translate(-36.894 -20.879)" fill="#033"/>
    </g>
  </g>
</svg>
