<svg xmlns="http://www.w3.org/2000/svg" width="34" height="34" viewBox="0 0 34 34">
  <g id="Group_6009" data-name="Group 6009" transform="translate(-58 -638)">
    <rect id="Rectangle_18273" data-name="Rectangle 18273" width="34" height="34" rx="5" transform="translate(58 638)" fill="rgba(63,188,161,0.1)"/>
    <g id="brain-13-svgrepo-com" transform="translate(65 644)">
      <path id="Path_56776" data-name="Path 56776" d="M266.637,174.563a2.1,2.1,0,0,1-.9-.18,1.6,1.6,0,0,1-.725-.666,1.623,1.623,0,0,1-.152-.358,1.015,1.015,0,0,1-.043-.262.2.2,0,1,0-.395,0,1.194,1.194,0,0,0,.026.235,1.941,1.941,0,0,0,.18.5,2,2,0,0,0,.69.764,1.927,1.927,0,0,0,.268.147,1.416,1.416,0,0,1,.036.32,1.293,1.293,0,0,1-.042.329,1.088,1.088,0,0,1-.16.348.2.2,0,0,0,.324.224,1.492,1.492,0,0,0,.217-.471,1.711,1.711,0,0,0,.054-.43c0-.064,0-.125-.009-.179a2.773,2.773,0,0,0,.627.07.2.2,0,0,0,0-.395Z" transform="translate(-254.429 -165.288)"/>
      <path id="Path_56777" data-name="Path 56777" d="M171.9,135.067a.2.2,0,0,0-.194.344.793.793,0,0,1,.293.27,1.958,1.958,0,0,1-.649.121,1.353,1.353,0,0,1-.7-.187,1.58,1.58,0,0,1-.464-.427,2.443,2.443,0,0,0-.742-.671,2.018,2.018,0,0,0-1.008-.278,2.072,2.072,0,0,0-1,.268,1.792,1.792,0,0,0-.361.26,2.95,2.95,0,0,1-1.063.215,2.036,2.036,0,0,1-.957-.227,1.6,1.6,0,0,1-.237-.153c-.026-.021-.045-.037-.057-.047l-.012-.011,0,0a.2.2,0,0,0-.284.274,1.728,1.728,0,0,0,.406.287,2.3,2.3,0,0,0,.413.167c-.043.06-.1.148-.165.26a2.979,2.979,0,0,0-.333.874.2.2,0,1,0,.386.077,2.6,2.6,0,0,1,.29-.757c.054-.1.1-.171.139-.222l.042-.057.01-.013,0,0h0a.194.194,0,0,0,.037-.074,2.458,2.458,0,0,0,.317.02,3.079,3.079,0,0,0,.679-.08,1.864,1.864,0,0,0-.172.784,1.578,1.578,0,0,0,.134.662.2.2,0,1,0,.356-.169,1.19,1.19,0,0,1-.1-.493,1.467,1.467,0,0,1,.158-.667,1.321,1.321,0,0,1,.554-.56,1.673,1.673,0,0,1,.81-.22,1.628,1.628,0,0,1,.811.226,2.054,2.054,0,0,1,.621.562,1.962,1.962,0,0,0,.582.534,1.743,1.743,0,0,0,.9.241,2.341,2.341,0,0,0,.753-.133v.014a1.083,1.083,0,0,1-.03.247c-.007.03-.015.055-.02.071l-.006.017v0h0a.2.2,0,0,0,.366.146,1.41,1.41,0,0,0,.085-.484,1.117,1.117,0,0,0-.6-1.009Z" transform="translate(-158.817 -128.331)"/>
      <path id="Path_56778" data-name="Path 56778" d="M212.029,100.2a1.351,1.351,0,0,1,.548-.37,1.951,1.951,0,0,1,.694-.128,1.418,1.418,0,0,1,.583.112.2.2,0,0,0,.166-.358,1.8,1.8,0,0,0-.749-.148,2.351,2.351,0,0,0-.836.153,1.729,1.729,0,0,0-.707.484.2.2,0,1,0,.3.254Z" transform="translate(-204.008 -94.933)"/>
      <path id="Path_56779" data-name="Path 56779" d="M48.382.02c-4.86-.3-8.952,2.758-8.86,7.739l0,.451-2.111,3.729A.72.72,0,0,0,37.894,13l1.3.36.41,3.953a1.363,1.363,0,0,0,1.513,1.317l1.042.083a.72.72,0,0,1,.8.715v3.107h8.816V20.427a6.386,6.386,0,0,1,.6-2.6c1.429-2.285,3.756-3.5,4.148-8.187S54.124.374,48.382.02Zm5.865,8.036a1.256,1.256,0,0,1-.866.59.2.2,0,1,0,.067.388,1.741,1.741,0,0,0,.237-.059,1.265,1.265,0,0,1-1.135,1.814l-.059,0c0-.033-.008-.066-.014-.1h0a1.664,1.664,0,0,0-.254-.619l-.015-.022-.02-.017a3.364,3.364,0,0,1-.5-.552,1.922,1.922,0,0,1-.187-.311.6.6,0,0,1-.064-.23.122.122,0,0,1,.008-.047.06.06,0,0,1,.015-.024.2.2,0,0,0-.278-.279.448.448,0,0,0-.107.167.515.515,0,0,0-.031.183.97.97,0,0,0,.1.394,2.659,2.659,0,0,0,.361.555,3.7,3.7,0,0,0,.4.422,1.245,1.245,0,0,1,.184.454,1.307,1.307,0,0,1,.021.208h0c0,.009,0,.017,0,.027a1.265,1.265,0,0,1-2.3.72,1.647,1.647,0,0,0,.313-.445h0a1.655,1.655,0,0,0,.164-.65.2.2,0,0,0-.394-.017,1.255,1.255,0,0,1-.125.495h0a1.267,1.267,0,0,1-.336.428h0a1.276,1.276,0,0,1-.8.287,1.266,1.266,0,0,1-1.206-.887h0A1.261,1.261,0,0,1,47.485,10a.2.2,0,0,0-.355-.171,1.661,1.661,0,0,0-.165.72A1.678,1.678,0,0,0,47,10.9a1.256,1.256,0,0,1-.515.151h0c-.031,0-.061,0-.091,0a1.267,1.267,0,0,1-1.2-.872,1.678,1.678,0,0,0,.338-.475.2.2,0,0,0-.357-.168,1.273,1.273,0,0,1-.33.429,1.256,1.256,0,0,1-.724.294h0c-.031,0-.061,0-.091,0a1.267,1.267,0,0,1-1.25-1.081v0h0a.923.923,0,0,1-.01-.092c0-.03,0-.061,0-.092a1.276,1.276,0,0,1,.022-.234.2.2,0,0,0-.388-.072A1.73,1.73,0,0,0,42.372,9v.012a1.279,1.279,0,0,1-.5-.167,1.266,1.266,0,0,1-.625-1.089,1.276,1.276,0,0,1,.23-.728,1.713,1.713,0,0,0,.2.229,1.659,1.659,0,0,0,.563.363.2.2,0,0,0,.143-.368,1.253,1.253,0,0,1-.429-.277h0a1.24,1.24,0,0,1-.261-.367,1.266,1.266,0,0,1,.973-1.79h0a1.362,1.362,0,0,1,.172-.011,1.265,1.265,0,0,1,.885.362.2.2,0,0,0,.276-.282,1.651,1.651,0,0,0-1.128-.472,1.262,1.262,0,0,1,.946-.933,1.3,1.3,0,0,1,.283-.032,1.264,1.264,0,0,1,.474.093A1.675,1.675,0,0,0,44.5,4,.2.2,0,0,0,44.9,4a1.262,1.262,0,0,1,.555-1.048A1.266,1.266,0,0,1,47.426,4a.2.2,0,0,0,.395,0,1.65,1.65,0,0,0-.318-.975A1.257,1.257,0,0,1,48.529,2.5a1.254,1.254,0,0,1,.725.228,1.271,1.271,0,0,1,.458.585h0a1.264,1.264,0,0,1,.083.452.2.2,0,0,0,.395,0A1.655,1.655,0,0,0,50.12,3.3a1.265,1.265,0,0,1,2.126.854c0,.024,0,.047,0,.071a1.279,1.279,0,0,1-.1.5.2.2,0,0,0,.362.156,1.651,1.651,0,0,0,.129-.522,1.254,1.254,0,0,1,.548.171,1.238,1.238,0,0,1,.606,1.061,1.212,1.212,0,0,1-.03.263,1.662,1.662,0,0,0-.364-.1.2.2,0,0,0-.055.391,1.266,1.266,0,0,1,.363.108.2.2,0,0,0,.09.079.187.187,0,0,0,.075.016,1.265,1.265,0,0,1,.2.163h0a1.263,1.263,0,0,1,.179,1.544Z" transform="translate(-37.315 0)" fill="#033"/>
      <path id="Path_56780" data-name="Path 56780" d="M356.853,137.358a1.245,1.245,0,0,0-.314-.2.863.863,0,0,0-.349-.079.2.2,0,0,0,0,.394.542.542,0,0,1,.261.081,1.168,1.168,0,0,1,.4.418,1.255,1.255,0,0,1,.18.637,1.2,1.2,0,0,1-.295.775.2.2,0,0,0,.3.252,1.6,1.6,0,0,0,.385-1.027,1.627,1.627,0,0,0-.111-.582A1.694,1.694,0,0,0,356.853,137.358Z" transform="translate(-341.968 -131.044)"/>
      <path id="Path_56781" data-name="Path 56781" d="M291.743,91.751a1.931,1.931,0,0,1-1.278-.461,1.518,1.518,0,0,1-.341-.416.8.8,0,0,1-.111-.372.2.2,0,0,0-.394,0,1.2,1.2,0,0,0,.159.56,1.945,1.945,0,0,0,.453.544,2.074,2.074,0,0,1-.163.2,1.622,1.622,0,0,1-.625.438.2.2,0,0,0,.133.371,2.006,2.006,0,0,0,.791-.552,2.561,2.561,0,0,0,.187-.231,2.369,2.369,0,0,0,1.189.312.2.2,0,0,0,0-.395Z" transform="translate(-278.221 -86.331)"/>
    </g>
  </g>
</svg>
