<svg xmlns="http://www.w3.org/2000/svg" width="34" height="34" viewBox="0 0 34 34">
  <g id="Group_6278" data-name="Group 6278" transform="translate(-35 -542)">
    <g id="Group_6007" data-name="Group 6007" transform="translate(-23 -221)">
      <rect id="Rectangle_18275" data-name="Rectangle 18275" width="34" height="34" rx="5" transform="translate(58 763)" fill="rgba(63,188,161,0.1)"/>
    </g>
    <g id="noun-surgery-5774207" transform="translate(36.115 543)">
      <g id="_5._Surgery" data-name="5. Surgery" transform="translate(3.885 4)">
        <path id="Path_56922" data-name="Path 56922" d="M13.18,9.683l1.647,1.647.006,0-.821.821a2.15,2.15,0,0,0,0,3.038l.032.032.931.931a.439.439,0,0,0,.62,0L20.248,11.5a.439.439,0,0,0,0-.62l-.931-.931h0l-.032-.031a2.15,2.15,0,0,0-3.038,0l-.8.8,0-.006L14.172,9.434a1.3,1.3,0,0,0,.4-1.6L16.39,6.194h.856a1.609,1.609,0,0,0,1.607-1.607V4.439A.439.439,0,0,0,18.414,4H14.027a.439.439,0,0,0-.439.439v.148a1.6,1.6,0,0,0,1.506,1.6L13.959,7.211a1.3,1.3,0,0,0-.578-.14,1.314,1.314,0,0,0-.2,2.612Zm6.137,1.51-4.033,4.033-.31-.31,4.033-4.033Zm-2.45-.653a1.272,1.272,0,0,1,1.476-.234L14.4,14.251a1.272,1.272,0,0,1,.234-1.476ZM13.381,7.949a.439.439,0,1,1-.439.439A.439.439,0,0,1,13.381,7.949Zm15.046,9L27.4,15.922a2.337,2.337,0,0,0-3.306,0L21.53,18.479H6.21A2.328,2.328,0,0,0,3.885,20.8v1.185a.439.439,0,0,0,.439.439h9.7v.439h-.878a.439.439,0,0,0-.439.439V25.5H11.394a.439.439,0,0,0-.439.439v2.194a.439.439,0,0,0,.439.439h9.653a.439.439,0,0,0,.439-.439V25.938a.439.439,0,0,0-.439-.439H19.731V23.305a.439.439,0,0,0-.439-.439h-.878v-.439H23.4a.439.439,0,0,0,.31-.128l4.722-4.725A.439.439,0,0,0,28.428,16.953Zm-7.82,9.423v1.316H11.833V26.377Zm-1.755-2.633V25.5H13.588V23.744ZM14.9,22.867v-.439h2.633v.439Zm8.31-1.316H4.763V21.1a.381.381,0,0,0,.05.01h18a.439.439,0,0,0,.31-.128l4.056-4.041.321.321Z" transform="translate(-3.885 -4)" fill="#033"/>
      </g>
    </g>
  </g>
</svg>
