<svg xmlns="http://www.w3.org/2000/svg" width="34" height="34" viewBox="0 0 34 34">
  <g id="Group_6274" data-name="Group 6274" transform="translate(-35 -250)">
    <g id="Group_6008" data-name="Group 6008" transform="translate(35 250)">
      <rect id="Rectangle_18274" data-name="Rectangle 18274" width="34" height="34" rx="5" fill="rgba(63,188,161,0.1)"/>
    </g>
    <g id="noun-ear-nose-throat-3627872" transform="translate(-91 180.646)">
      <g id="Group_6075" data-name="Group 6075" transform="translate(133.031 75.354)">
        <path id="Path_56909" data-name="Path 56909" d="M152.326,80.443a8.078,8.078,0,0,0-1.875-2.781,7.961,7.961,0,0,0-2.794-1.749,9.462,9.462,0,0,0-3.629-.554,11.883,11.883,0,0,0-5.9,1.512,6.167,6.167,0,0,0-2.891,5.624c0,.063,0,.134-.008.207a4.252,4.252,0,0,0,0,.522l.11,1.042c0,.16-.005.276-.01.333l-2.069,2.9a.924.924,0,0,0-.142.987.957.957,0,0,0,.249.328.9.9,0,0,0,.368.186l.856.226h0a.559.559,0,0,1,.087.029c0,.005,0,.008,0,.013-.016.074-.032.158-.047.244l0,.016-.052.908.005.026a.5.5,0,0,0,.242.391,1.882,1.882,0,0,0,.231.1l-.126.039-.008,0a.724.724,0,0,0-.431.433.878.878,0,0,0,.176.775c.1.15.058.32-.039.633a3.816,3.816,0,0,0-.113.417,1.693,1.693,0,0,0,.236,1.331,1.785,1.785,0,0,0,1.334.633,6.71,6.71,0,0,0,1.113-.032c1.224-.1,2.381-.2,2.888,1.455.165.533.31,1,.433,1.389l.081.26,2.463-.88c-.018-.076-.042-.163-.066-.255s-.045-.165-.068-.255c-.459-1.7-1.523-5.178-2.686-5.847a3.331,3.331,0,0,0-3.135.2l-.452-.919a6.77,6.77,0,0,1,1.985-.557c2.179-.339,2.954.985,3.077,1.352,0,0,0,.008,0,.011a.141.141,0,0,0,.273-.06,2.6,2.6,0,0,0-2.765-2.334,5.581,5.581,0,0,1-2.76.081,2.561,2.561,0,0,0-.782-.1l-.389-.8a4.635,4.635,0,0,1,1.549-1.741c.722-.354,2.221-.782,2.912-.26s.882,1.082,1.512,1.31,1.531.01,1.544,2.129c.011,1.633,1.386,4.676,2.284,6.753.037.081.071.163.105.242s.071.163.1.242l5.435-1.943-.1-.252c-.906-2.318-1.05-3.568.4-5.3a8.337,8.337,0,0,0,1.426-2.431,8.074,8.074,0,0,0,.515-2.844A8.842,8.842,0,0,0,152.326,80.443Zm-13.743-.412-.4-.341a5.452,5.452,0,0,1,.877-.824l.318.42A4.89,4.89,0,0,0,138.583,80.031Zm1.6-1.25-.242-.465a9.87,9.87,0,0,1,4.261-.974l.016.525A9.345,9.345,0,0,0,140.179,78.781Zm6.538,8.864a2.964,2.964,0,0,1-1.678.977.982.982,0,0,1-.793-.354,1.076,1.076,0,0,1-.163-.945,7.16,7.16,0,0,0,.242-1.623,1.01,1.01,0,0,0-.116-.6l-.089-.026-.045-.123a1.812,1.812,0,0,1-.108-.614,1.887,1.887,0,0,1,.559-1.386,2.024,2.024,0,0,1,1.549-.5,2,2,0,0,1,1.3.559,2.033,2.033,0,0,1,.586,1.342v.008A4.412,4.412,0,0,1,146.717,87.645Z" transform="translate(-133.031 -75.354)" fill="#033"/>
        <path id="Path_56910" data-name="Path 56910" d="M579.85,448.19a1.473,1.473,0,0,1-.8.257h-.016a.5.5,0,0,1-.431-.215h0c.024-.131.045-.255.063-.375h0a1.425,1.425,0,0,0,.286-1.032l-.029-.223.215-.063a.89.89,0,0,1,1.013.5A.928.928,0,0,1,579.85,448.19Z" transform="translate(-566.901 -436.767)" fill="#033"/>
      </g>
    </g>
  </g>
</svg>
