<svg id="Group_6266" data-name="Group 6266" xmlns="http://www.w3.org/2000/svg" xmlns:xlink="http://www.w3.org/1999/xlink" width="34" height="34" viewBox="0 0 34 34">
  <defs>
    <clipPath id="clip-path">
      <rect id="Rectangle_18284" data-name="Rectangle 18284" width="29" height="20" transform="translate(4396 505.509)" fill="#fff" stroke="#707070" stroke-width="1"/>
    </clipPath>
  </defs>
  <rect id="Rectangle_18274" data-name="Rectangle 18274" width="34" height="34" rx="5" fill="rgba(63,188,161,0.1)"/>
  <g id="Group_11" data-name="Group 11" transform="translate(-4393 -498.509)" clip-path="url(#clip-path)">
    <g id="noun-opinion-5279054" transform="translate(4395.136 507.064)">
      <g id="Group_6030" data-name="Group 6030" transform="translate(0.087 0)">
        <path id="Path_56821" data-name="Path 56821" d="M74.582,223.537v-2.05a.906.906,0,0,0-1.194-.859c-1.553.6-3.217,1.065-4.809.268v2.642a3,3,0,1,0,6,0Z" transform="translate(-64.141 -216.295)" fill="#033"/>
        <path id="Path_56822" data-name="Path 56822" d="M93.589,320.5v1.114a1.382,1.382,0,0,0,2.765,0V320.5A3.771,3.771,0,0,1,93.589,320.5Z" transform="translate(-87.531 -309.729)" fill="#033"/>
        <path id="Path_56823" data-name="Path 56823" d="M32.922,164.805a7.084,7.084,0,0,1,1.262-.618,3.771,3.771,0,0,1-1.3-2.864v-3.332q.117-.536.618-.313c1.443,1.059,3.2.619,4.721,0a1.7,1.7,0,0,1,2.217,1.6v2.05a3.771,3.771,0,0,1-1.3,2.864,7.088,7.088,0,0,1,1.094.517,3.516,3.516,0,0,0,1.6-4.122c-.334-1.029-.634-2.084-.89-3.136a4.456,4.456,0,0,0-5.117-3.281,1.654,1.654,0,0,0-1.294,1.394q-.21.537-.678.2a.384.384,0,0,0-.291-.133c-.546,0-.988,1.413-1.065,1.722-.347,1.38-.7,2.607-1.091,3.751A3.05,3.05,0,0,0,32.922,164.805Z" transform="translate(-29.222 -154.081)" fill="#033"/>
        <path id="Path_56824" data-name="Path 56824" d="M312.7,213.942l-.008-1.256a.9.9,0,0,0-1.008-.895,2.833,2.833,0,0,1-3.089-1.45l-.995,0a.908.908,0,0,0-.9.906v2.69a3,3,0,1,0,6,0Z" transform="translate(-286.84 -206.699)" fill="#033"/>
        <path id="Path_56825" data-name="Path 56825" d="M331.7,320.5v1.114a1.382,1.382,0,0,0,2.765,0V320.5A3.771,3.771,0,0,1,331.7,320.5Z" transform="translate(-310.232 -309.729)" fill="#033"/>
        <path id="Path_56826" data-name="Path 56826" d="M285.926,161.647V159.6a1.686,1.686,0,0,1,1.676-1.683l1.249,0a.384.384,0,0,1,.362.244c.5,1.242,1.475,1.2,2.59,1.2a1.72,1.72,0,0,1,1.671,1.674l0,.627a4.263,4.263,0,0,0,.609-2.347,4.481,4.481,0,0,0-5.3-4.107,1.655,1.655,0,0,0-1.286,1.393q-.209.536-.677.2a.4.4,0,0,0-.61.019,4.312,4.312,0,0,0-.894,2.824A4.267,4.267,0,0,0,285.926,161.647Z" transform="translate(-266.85 -155.051)" fill="#033"/>
        <path id="Path_56827" data-name="Path 56827" d="M29.906,329.511h-.712v-2.377a6.354,6.354,0,0,0-4.181-5.963v1.071a2.159,2.159,0,0,1-4.318,0v-1.071a6.354,6.354,0,0,0-4.181,5.963v2.377H13.781v-2.377A6.354,6.354,0,0,0,9.6,321.172v1.071a2.159,2.159,0,0,1-4.318,0v-1.071A6.354,6.354,0,0,0,1.1,327.135v2.377H.388a.388.388,0,0,0,0,.777H29.906a.388.388,0,0,0,0-.777Zm-25.718,0H3.412v-1.795a.388.388,0,1,1,.777,0Zm7.281,0h-.777v-1.795a.388.388,0,1,1,.777,0Zm8.133,0h-.777v-1.795a.388.388,0,1,1,.777,0Zm7.281,0h-.777v-1.795a.388.388,0,1,1,.777,0Z" transform="translate(0 -310.356)" fill="#033"/>
      </g>
      <text id="Created_by_SBTS" data-name="Created by SBTS" transform="translate(-0.136 22.445)" font-size="1" font-family="Arial-BoldMT, Arial" font-weight="700"><tspan x="0" y="0">Created by SBTS</tspan></text>
      <text id="from_the_Noun_Project" data-name="from the Noun Project" transform="translate(-0.136 22.445)" font-size="1" font-family="Arial-BoldMT, Arial" font-weight="700"><tspan x="0" y="0">from the Noun Project</tspan></text>
    </g>
  </g>
</svg>
