<svg xmlns="http://www.w3.org/2000/svg" width="34" height="34" viewBox="0 0 34 34">
  <g id="Group_6287" data-name="Group 6287" transform="translate(-4249 -1133)">
    <g id="Group_6047" data-name="Group 6047" transform="translate(4249 1133)">
      <rect id="Rectangle_18275" data-name="Rectangle 18275" width="34" height="34" rx="5" fill="rgba(63,188,161,0.1)"/>
    </g>
    <g id="noun-cardiac-3627867" transform="translate(4258 1138.82)">
      <g id="Group_6097" data-name="Group 6097">
        <path id="Path_56954" data-name="Path 56954" d="M299.621,431.528c-1.065.394-3.433-.517-6.175-1.574-.646-.249-1.314-.506-2-.761-.011,0-.022-.008-.03-.011l-.03-.011-.142-.052-.192-.074-.055-.025-.057-.025-.03-.014a.7.7,0,0,1-.066-.03l-.066-.03-.014-.005-.074-.036c-.014-.005-.025-.014-.038-.019s-.027-.014-.044-.022a.352.352,0,0,1-.055-.03l-.044-.025a.446.446,0,0,1-.049-.027.415.415,0,0,1-.047-.027l-.027-.016c-.022-.014-.044-.025-.068-.038s-.057-.036-.088-.052c-.057-.036-.115-.074-.172-.112l-.055-.038-.068-.049-.055-.038-.047-.033-.033-.025c-.019-.014-.038-.027-.057-.044a.074.074,0,0,1-.022-.019l-.052-.041a.367.367,0,0,0-.038-.03c-.014-.011-.027-.025-.044-.036l-.033-.027-.057-.049c-.025-.022-.052-.044-.077-.068-.074-.068-.148-.137-.219-.211-.025-.025-.047-.049-.071-.071l-.063-.066-.011-.011a.292.292,0,0,1-.038-.044l-.038-.041c-.011-.014-.025-.027-.036-.041a.038.038,0,0,1-.008-.011.791.791,0,0,1,.947-.276,1.57,1.57,0,0,1,.712.545,1.52,1.52,0,0,0,1.259.665c.033,0,.066,0,.1,0l-.027-.547a1,1,0,0,1-.92-.474,2.1,2.1,0,0,0-.95-.7,1.334,1.334,0,0,0-1.467.356h0c-.036-.049-.068-.1-.1-.145h0l-.074-.112h0l-.03-.047s0-.005-.005-.008c-.016-.025-.033-.052-.047-.077-.038-.066-.077-.131-.115-.2-.014-.025-.027-.049-.038-.074l-.008-.014-.033-.063a.224.224,0,0,0-.019-.036.666.666,0,0,1-.03-.063l-.008-.019a.658.658,0,0,1-.036-.077l-.049-.107-.041-.093c-.011-.025-.019-.049-.03-.071l-.025-.06c-.016-.041-.033-.082-.049-.126-.005-.016-.014-.036-.019-.052s-.008-.019-.011-.03-.016-.044-.025-.068-.019-.057-.027-.085-.019-.057-.027-.085-.014-.041-.019-.063l-.008-.03c-.005-.019-.011-.041-.016-.06l-.008-.027-.016-.063-.008-.03-.016-.066a.081.081,0,0,1-.005-.027l-.016-.063c-.022-.09-.041-.183-.057-.274l-.016-.09a.645.645,0,0,1-.011-.071c0-.016-.005-.03-.008-.047s0-.022-.005-.033-.008-.047-.011-.071,0-.027-.005-.041c-.008-.063-.016-.129-.022-.194a5.767,5.767,0,0,1,.126-1.861,3.43,3.43,0,0,1,.745,1.229,2.177,2.177,0,0,0,2.08,1.716,2.428,2.428,0,0,0,.342-.025l-.077-.542a1.661,1.661,0,0,1-1.823-1.314,4.1,4.1,0,0,0-1.089-1.664h0a5.693,5.693,0,0,1,1.248-2.006,2.59,2.59,0,0,0,.862,1.8,2.179,2.179,0,0,0,1.273.443c.326.027.422.044.509.233l.5-.23a.97.97,0,0,0-.964-.547,1.641,1.641,0,0,1-.985-.331,2.44,2.44,0,0,1-.673-1.85,6.587,6.587,0,0,1,.846-.6c.14-.082.282-.161.427-.235l.063-.033h0c.025-.011.049-.025.071-.036.074-.036.148-.071.224-.1.052-.025.1-.047.156-.068.077-.033.156-.066.23-.093a6.984,6.984,0,0,1,.69-.227l.115-.03q.226-.057.443-.09c.047-.008.093-.014.14-.019l.137-.016c.047-.005.09-.008.137-.011a3.9,3.9,0,0,1,.646.011c.03,0,.063.005.093.011.047.005.09.014.137.019l.09.016a.064.064,0,0,1,.022.005l.022.005a3.6,3.6,0,0,1,2.1,1.385,5.453,5.453,0,0,1,.408.6,2.494,2.494,0,0,0-.542.523,2.345,2.345,0,0,0-.471,1.24,2.55,2.55,0,0,1-.89,1.492,2.7,2.7,0,0,0-1.339,1.53,1.824,1.824,0,0,0,.255,1.443l.468-.285a1.29,1.29,0,0,1-.192-1.018,2.224,2.224,0,0,1,1.076-1.191,2.067,2.067,0,0,0,.75-.813,5.152,5.152,0,0,0,.693,1.549,3.985,3.985,0,0,1-.739,1.894,1.979,1.979,0,0,0-.148,2.453l.386-.389a1.488,1.488,0,0,1,.161-1.692,3.835,3.835,0,0,0,.777-1.659,2.739,2.739,0,0,1,.46,1.254,2.434,2.434,0,0,1-.216,1.445,1.247,1.247,0,0,0,.411,1.724l.359-.413c-.526-.457-.454-.632-.263-1.1a.3.3,0,0,1,.019-.044l.066.1a1.651,1.651,0,0,0,1.1.8l.071-.542c-.487-.066-.884-.788-1.013-1.095a2.969,2.969,0,0,0,.005-.953,3.391,3.391,0,0,0-.755-1.766,4.616,4.616,0,0,1-.572-.933,5.778,5.778,0,0,0,1.777.728,1.552,1.552,0,0,1,1.434,1.478l.011.066.539-.1-.011-.063a2.072,2.072,0,0,0-1.859-1.916,5.568,5.568,0,0,1-2.2-1.079,2.585,2.585,0,0,1-.085-.821,2.169,2.169,0,0,1,.038-.276,1.826,1.826,0,0,1,.69-1.078,7.2,7.2,0,0,1,.5,1.407l.268-.055-.1.022.37-.077a7.483,7.483,0,0,0-.887-2.176,6.052,6.052,0,0,1,2.576,1.358l.014.011h0a6.523,6.523,0,0,1,2.2,4.626C302.12,428.708,300.371,431.248,299.621,431.528Z" transform="translate(-285.246 -408.408)" fill="#033"/>
        <path id="Path_56955" data-name="Path 56955" d="M211.876,91.5h0l-.074.041-.019.011-.071.041s-.005,0-.008.005c-.055.03-.107.063-.159.093a6.552,6.552,0,0,0-2.589,2.743,6.244,6.244,0,0,0-.6,3.331l.008.085c0,.019,0,.038.005.06.005.047.011.1.019.142a.637.637,0,0,0,.011.071l.016.1c0,.025.008.049.014.077.008.047.016.1.027.142,0,.019.008.038.011.057a.287.287,0,0,0,.011.047c0,.008,0,.016.005.025l.016.074.025.1c.005.027.014.052.022.079s.008.036.014.052l.025.088c.008.033.019.063.027.1,0,.005,0,.014.005.019l.025.077a.24.24,0,0,0,.014.041l.025.077c.014.044.03.088.047.131a.549.549,0,0,0,.027.071l.049.126c.014.03.025.063.038.093,0,0,0,0,0,.005.014.03.025.06.038.088l.049.109c.011.022.019.044.03.063a4.953,4.953,0,0,1-2.258-3.882,13.645,13.645,0,0,1,.706-5.31,14.346,14.346,0,0,0,.266-5.461c-.126-1.221-.318-2.25-.413-2.729L211.126,82h0c0,.038-.005.079-.011.12l0,.044c0,.03-.005.06-.008.093l-.008.1a40.793,40.793,0,0,0-.189,4.484,10.254,10.254,0,0,0,.416,2.647c.019.063.038.123.055.186l.066.222c.019.066.038.131.055.194.041.148.082.29.12.432C211.717,90.863,211.8,91.192,211.876,91.5Z" transform="translate(-206.658 -82)" fill="#033"/>
        <path id="Path_56956" data-name="Path 56956" d="M332.225,799.06a6.208,6.208,0,0,0-.008.865h-2.143A18.529,18.529,0,0,0,330,797.5c.022.025.044.049.066.071s.019.019.027.03.041.041.06.063l0,0c.052.055.107.107.161.159.025.025.049.047.077.071.063.057.129.118.194.172l.049.041c.011.011.025.019.036.03s.052.041.077.063.055.044.085.066c0,0,0,0,.005.005l.074.055c.06.044.12.088.183.129.016.011.033.025.052.036l.033.022a.445.445,0,0,0,.047.03l.077.049.079.049h0l.057.033a.242.242,0,0,0,.027.016c.022.014.041.025.063.036l.077.041.09.049.1.049s.008,0,.011.005l.1.047.09.041.03.014a.857.857,0,0,0,.088.038l.1.041A.038.038,0,0,1,332.225,799.06Z" transform="translate(-326.624 -777.915)" fill="#033"/>
        <path id="Path_56957" data-name="Path 56957" d="M388.075,88.347h-.016l-.1-.008-.123-.011-.246-.019h-.011c-.066-.005-.131-.008-.2-.011a.207.207,0,0,1-.041,0q-.242-.012-.484-.016l-.123,0h-.367c-.071,0-.142,0-.211,0-.03,0-.06,0-.09,0h-.03l-.1,0-.112,0-.112.005-.1.005h-.008a1.965,1.965,0,0,0-.936-.219,1.441,1.441,0,0,0-1.073.482c-.022.025-.044.052-.063.077l-.016.022a1.932,1.932,0,0,0,.107,2.031c.03.055.06.107.093.159l.033.055.044.068c.016.027.036.052.052.077l.041.057c.016.022.033.044.047.066l.049.066.049.063c.016.022.033.041.049.06s.036.044.055.066.03.036.047.055c.066.077.131.151.2.219-.082,0-.161,0-.244.005-.055,0-.112.005-.17.011-.036,0-.071.005-.109.011-.06.005-.118.014-.178.022h0c-.057.008-.115.016-.172.027l-.057.011c-.052.008-.107.019-.159.033s-.1.022-.156.036h0l-.159.041c-.079.022-.161.044-.244.071-.055.016-.107.036-.161.052-.246.082-.5.181-.753.3a.01.01,0,0,0-.005,0c-.09-.364-.192-.753-.309-1.163l-.041-.148c-.027-.1-.057-.2-.088-.3-.014-.052-.03-.1-.047-.153s-.03-.1-.047-.156a9.705,9.705,0,0,1-.391-2.513l0-.022a8.532,8.532,0,0,1-.016-.931c0-.033,0-.063,0-.1,0-.049,0-.1.005-.151,0-.033,0-.068,0-.1a.334.334,0,0,1,0-.052q0-.115.008-.238c0-.027,0-.055,0-.082s0-.036,0-.055c0-.036,0-.074.005-.109.005-.109.011-.222.016-.331,0-.019,0-.038,0-.055s0-.038,0-.057c0-.052.005-.107.008-.159v-.019l.008-.156c0-.019,0-.038,0-.057,0-.055.005-.107.011-.159.008-.14.019-.276.027-.411a.487.487,0,0,1,.005-.063c0-.022,0-.041.005-.063l.008-.123c.005-.06.008-.12.014-.178,0-.03.005-.06.005-.088s.005-.055.005-.082,0-.036,0-.055v-.005a4.334,4.334,0,0,1,.961,1.974.409.409,0,0,0,.81-.085.384.384,0,0,0-.008-.077v-.005a8.059,8.059,0,0,1,.036-2.694l1.12.082a6.5,6.5,0,0,0,.1,2.543l.531-.134a6.08,6.08,0,0,1-.079-2.371l1.117.082a2.988,2.988,0,0,0,.175,2.091,2.571,2.571,0,0,0,.424.432A5.891,5.891,0,0,1,388.075,88.347Z" transform="translate(-376.076 -83.07)" fill="#033"/>
        <path id="Path_56958" data-name="Path 56958" d="M496.071,292.944l-.345,1.237a5.376,5.376,0,0,0-1.388-.049h-.123a.67.67,0,0,0-.074.005,1.092,1.092,0,0,0-.249.055c-.027.008-.055.019-.082.03-.005,0-.008.005-.014.005-.027.011-.055.025-.082.038h0c-.027.014-.055.03-.082.047a1.251,1.251,0,0,0-.416.422.588.588,0,0,0-.038.071,1.269,1.269,0,0,0-.079.186,3.915,3.915,0,0,0-.249,1.426c0,.014,0,.027,0,.038v0l-.115-.1-.066-.055-.068-.057-.082-.066a.529.529,0,0,1-.047-.036.949.949,0,0,0-.085-.06c-.022-.016-.044-.03-.068-.047s-.038-.025-.055-.036-.027-.016-.038-.025c-.049-.03-.1-.06-.145-.088a.547.547,0,0,0-.055-.03s-.005,0-.011-.005c-.044-.025-.088-.047-.131-.068,0,0,0,0-.005,0l-.03-.014-.049-.025-.019-.008-.071-.033-.077-.033s-.005,0-.011,0-.038-.014-.055-.022c-.033-.014-.063-.025-.1-.036s-.055-.019-.079-.027h0l-.082-.025-.079-.025h0c-.027-.008-.055-.016-.082-.022a.783.783,0,0,0-.077-.019l-.022-.005h0l-.038-.033c-.019-.016-.041-.036-.06-.055a.3.3,0,0,1-.03-.027c-.082-.074-.167-.156-.252-.244l-.033-.033-.033-.033-.033-.033-.033-.033a.524.524,0,0,1-.038-.041c-.019-.022-.038-.041-.055-.063,0,0,0-.005-.005-.005l-.049-.055c-.088-.1-.175-.211-.255-.323a.239.239,0,0,1-.019-.027l-.033-.049-.022-.03-.057-.088-.047-.071c-.03-.049-.057-.1-.085-.145-.008-.014-.014-.027-.022-.038a.58.58,0,0,1-.03-.057l-.016-.036a.01.01,0,0,1,0-.008l-.016-.036a.254.254,0,0,0-.014-.027.328.328,0,0,0-.014-.03l-.008-.022a.134.134,0,0,1-.011-.03c0-.008-.008-.019-.011-.027l-.016-.041-.016-.044c0-.011-.008-.022-.011-.033l-.008-.03a.2.2,0,0,1-.011-.038c-.008-.03-.016-.063-.025-.093,0-.014-.005-.027-.008-.038-.005-.027-.011-.055-.014-.082,0-.011,0-.022-.005-.036a.209.209,0,0,1,0-.041.18.18,0,0,1,0-.038.741.741,0,0,1,0-.077v-.036a.156.156,0,0,1,0-.036c0-.011,0-.025,0-.036s0-.022,0-.033a.185.185,0,0,1,.005-.038c0-.011,0-.022.005-.033a.08.08,0,0,1,.005-.025.05.05,0,0,1,.005-.019c0-.008,0-.016.005-.025s.005-.016.008-.027.016-.049.025-.077a.1.1,0,0,1,.014-.03s0,0,0-.005.008-.019.014-.03,0-.008.005-.014h0a11.956,11.956,0,0,1,1.544-.194l.085-.005a16.184,16.184,0,0,1,2.839.085A14.068,14.068,0,0,1,496.071,292.944Z" transform="translate(-481.855 -286.742)" fill="#033"/>
        <path id="Path_56959" data-name="Path 56959" d="M631.043,375.408l-.036-.027-.014-.011-.1-.074h0a.3.3,0,0,1-.047-.036l-.068-.049-.055-.038c-.014-.011-.027-.019-.044-.03l-.027-.019-.049-.033-.079-.049-.09-.057-.181-.107-.008-.005-.074-.041-.033-.016-.055-.03c-.044-.025-.088-.047-.131-.068s-.118-.057-.175-.085c-.033-.014-.063-.03-.1-.044s-.057-.025-.088-.038l-.022-.008-.055-.022-.06-.025-.082-.033h0c-.055-.022-.112-.044-.17-.063h0c-.027-.011-.055-.019-.085-.03s-.055-.019-.079-.027l-.008,0-.06-.019-.057-.016c-.1-.03-.205-.06-.309-.085a.519.519,0,0,0-.063-.014l-.033-.008-.071-.016h-.008a.153.153,0,0,1-.022-.014l-.025-.016-.025-.016h0a.5.5,0,0,1-.044-.036h0c-.008-.005-.014-.014-.022-.019a.719.719,0,0,1-.06-.068c-.005-.005-.008-.011-.014-.016a.162.162,0,0,1-.019-.027c0-.005-.008-.011-.011-.016a.113.113,0,0,1-.014-.025c-.005-.008-.008-.016-.014-.025a.376.376,0,0,1-.033-.077l-.008-.027c0-.008-.005-.016-.008-.027l-.008-.027a.084.084,0,0,1-.005-.022l-.008-.033c0-.008,0-.016-.005-.025s0-.011,0-.019,0-.016,0-.022a3.112,3.112,0,0,1,.211-1.311.692.692,0,0,1,.706-.482h0c.879.068,1.481,1.659,1.771,2.422.027.074.055.142.077.2A2.511,2.511,0,0,1,631.043,375.408Z" transform="translate(-616.531 -363.892)" fill="#033"/>
      </g>
    </g>
  </g>
</svg>
