<svg xmlns="http://www.w3.org/2000/svg" width="34" height="34" viewBox="0 0 34 34">
  <g id="Group_6290" data-name="Group 6290" transform="translate(-4198 -1281)">
    <g id="Group_6047" data-name="Group 6047" transform="translate(4198 1281)">
      <rect id="Rectangle_18275" data-name="Rectangle 18275" width="34" height="34" rx="5" fill="rgba(63,188,161,0.1)"/>
    </g>
    <path id="Path_56961" data-name="Path 56961" d="M21.654,31.623c2.341-1.92,4.03-5.6,4.6-9.233a27.667,27.667,0,0,0,.32-2.851c.379-.5.717-1,1.013-1.482,1.511-2.459,1.95-4.622.954-5.908s-3.194-1.4-5.956-.557a22.809,22.809,0,0,0-3.164,1.274c.367-.071.735-.149,1.108-.207.4-.071.823-.13,1.244-.172.338-.124.664-.237.984-.331,2.518-.771,4.492-.717,5.321.355.783,1.014.433,2.791-.776,4.877a21.754,21.754,0,0,1-2.732,3.645v-.9a20.576,20.576,0,0,0,2-2.684c-.533-6.769-6.329-3.728-9.422-3.621C13.991,13.94,5.7,8.92,7.757,22.23a20.734,20.734,0,0,0-1.292,1.837c-1.505,2.46-1.943,4.623-.954,5.909.977,1.256,3.117,1.4,5.8.6a9.3,9.3,0,0,0,1.073,1.043,1.107,1.107,0,0,0,1.339.1,1.529,1.529,0,0,0,.693-1.345V29.366a33.6,33.6,0,0,0,5.174-3.117,3.46,3.46,0,0,1,.023.42v3.71a1.535,1.535,0,0,0,.7,1.345,1.107,1.107,0,0,0,1.339-.1Zm-13.766-8.6a17.732,17.732,0,0,0,2.643,6.542c.225-.059.427-.112.592-.166a20.689,20.689,0,0,0,3.3-1.352V26.669a2.865,2.865,0,0,1,2.6-3.051,2.555,2.555,0,0,1,2.2,1.428c.19-.142.379-.285.563-.427.362-.278.723-.575,1.09-.877H21.8c-.522.456-1.073.907-1.647,1.351A29.551,29.551,0,0,1,11.3,29.97C9.73,30.45,7.046,31,5.979,29.615c-.83-1.067-.391-2.993.99-5.239.272-.438.581-.895.918-1.357Zm14.8-2.673h1.286v1.511h1.511v1.286H23.976v1.506H22.69V23.143H21.179V21.858H22.69V20.346Z" transform="translate(4198.02 1274.992)" fill="#033" fill-rule="evenodd"/>
  </g>
</svg>
