<svg xmlns="http://www.w3.org/2000/svg" width="34" height="34" viewBox="0 0 34 34">
  <g id="Group_6276" data-name="Group 6276" transform="translate(-35 -396)">
    <g id="Group_6009" data-name="Group 6009" transform="translate(-23 -242)">
      <rect id="Rectangle_18273" data-name="Rectangle 18273" width="34" height="34" rx="5" transform="translate(58 638)" fill="rgba(63,188,161,0.1)"/>
    </g>
    <g id="noun-dermatology-3293914" transform="translate(40.958 401.001)">
      <g id="Group_6078" data-name="Group 6078">
        <path id="Path_56912" data-name="Path 56912" d="M9.747,4.148a.843.843,0,0,1,.664-.136,6.046,6.046,0,0,1,3.7-.242,3.935,3.935,0,0,0-1.821-1.853.448.448,0,0,1-.178-.142C12.034,1.668,10.156-.8,6.528.888A4.343,4.343,0,0,0,4.08,3.526a4.658,4.658,0,0,0,.044,2.963A12.753,12.753,0,0,0,9.747,4.148Z" fill="#033"/>
        <path id="Path_56913" data-name="Path 56913" d="M9.028,5.945a5.14,5.14,0,0,0,3.753,8.78c.009,0,.018,0,.026-.008a.223.223,0,0,1,.023,0,5.142,5.142,0,1,0-3.8-8.776ZM15.7,12.621a4.29,4.29,0,1,1,0-6.067A4.276,4.276,0,0,1,15.7,12.621Z" fill="#033"/>
        <path id="Path_56914" data-name="Path 56914" d="M10.249,12.008a3.423,3.423,0,1,0,0-4.841A3.426,3.426,0,0,0,10.249,12.008Zm4.726-3.4a.433.433,0,0,1,.056.61c-.051.061-.07.108-.066.127.012.061.129.165.222.213a.433.433,0,0,1-.2.818.426.426,0,0,1-.192-.045,1.321,1.321,0,0,1-.679-.808.99.99,0,0,1,.247-.859A.431.431,0,0,1,14.975,8.6Zm-.822-1.386a.387.387,0,1,1-.387.387A.387.387,0,0,1,14.153,7.219Zm0,3.82a.387.387,0,1,1-.387.387A.387.387,0,0,1,14.153,11.039Zm-1.628-1.6a.387.387,0,1,1-.387-.387A.387.387,0,0,1,12.525,9.439Zm-.668-2.415a.387.387,0,1,1-.387.387A.387.387,0,0,1,11.857,7.024Zm-.643,4.062a1.313,1.313,0,0,1,1.031.229.987.987,0,0,1,.325.831.433.433,0,0,1-.432.416H12.12a.432.432,0,0,1-.415-.449.214.214,0,0,0-.025-.141.5.5,0,0,0-.3-.036.432.432,0,1,1-.163-.849Zm-.776-1.808a.387.387,0,1,1-.387-.387A.387.387,0,0,1,10.438,9.278Z" fill="#033"/>
        <path id="Path_56915" data-name="Path 56915" d="M16.925,13.842a6.041,6.041,0,0,1-.56.457l.764.764a2.309,2.309,0,0,1,.4-.569,2.4,2.4,0,0,1,.621-.44l-.772-.772A5.883,5.883,0,0,1,16.925,13.842Z" fill="#033"/>
        <path id="Path_56916" data-name="Path 56916" d="M14.314,15.345a6.934,6.934,0,0,1,2.733,1.7,2.32,2.32,0,0,1-.18-1.018l-1.232-1.232A6.008,6.008,0,0,1,14.314,15.345Z" fill="#033"/>
        <path id="Path_56917" data-name="Path 56917" d="M7.519,12.658a6.019,6.019,0,0,1,.066-6.267,10.494,10.494,0,0,1-3.554.974c-.007.01-.015.02-.022.032A1.721,1.721,0,0,0,4.751,9a.429.429,0,0,1,.188.262,5.516,5.516,0,0,0,1.518,2.673A4.148,4.148,0,0,0,7.519,12.658Z" fill="#033"/>
        <path id="Path_56918" data-name="Path 56918" d="M20.241,15.063a1.451,1.451,0,0,0-2.052,0,1.467,1.467,0,0,0-.044,2.095l3.249,3.248a1.515,1.515,0,0,0,2.14,0,1.452,1.452,0,0,0,0-2.05Z" fill="#033"/>
        <path id="Path_56919" data-name="Path 56919" d="M11.114,16.424l1.485-.83a5.994,5.994,0,0,1-4.183-1.752c-.011-.011-.017-.024-.028-.034A4.517,4.517,0,0,1,6.7,13.182a4.052,4.052,0,0,1-.069.842A2.432,2.432,0,0,1,5.6,15.556l1.533.862A4.082,4.082,0,0,0,11.114,16.424Z" fill="#033"/>
        <path id="Path_56920" data-name="Path 56920" d="M13.617,16.017l-2.08,1.163a4.969,4.969,0,0,1-4.829-.008l-2.07-1.165c-2.806.827-4.315,2.786-4.594,6a.5.5,0,0,0,.246.467c4.075,1.492,13.559,1.77,17.644,0a.516.516,0,0,0,.274-.43C17.922,18.794,16.416,16.836,13.617,16.017Z" fill="#033"/>
      </g>
    </g>
  </g>
</svg>
