<svg xmlns="http://www.w3.org/2000/svg" width="34" height="34" viewBox="0 0 34 34">
  <g id="Group_6281" data-name="Group 6281" transform="translate(-34 -762)">
    <g id="Group_6040" data-name="Group 6040" transform="translate(-24 -1)">
      <rect id="Rectangle_18275" data-name="Rectangle 18275" width="34" height="34" rx="5" transform="translate(58 763)" fill="rgba(63,188,161,0.1)"/>
    </g>
    <g id="noun-diabetes-test-6308852" transform="translate(32.479 762.764)">
      <path id="Path_56935" data-name="Path 56935" d="M27.993,5.236H21.446a.7.7,0,0,0-.7.708v9.575a.7.7,0,0,0,.7.708h1.638V15.118h-.278a.279.279,0,0,1,0-.558h3.83a.279.279,0,0,1,0,.558h-.262v1.109h1.621a.7.7,0,0,0,.7-.708V5.944a.7.7,0,0,0-.7-.708Zm-4.945,8.442h-.973a.279.279,0,0,1,0-.558h.973a.279.279,0,0,1,0,.558Zm2.158,0h-.973a.279.279,0,0,1,0-.558h.973a.279.279,0,0,1,0,.558Zm2.158,0h-.973a.279.279,0,0,1,0-.558h.973a.279.279,0,0,1,0,.558Zm.274-1.719a.277.277,0,0,1-.274.279H22.075a.277.277,0,0,1-.274-.279V6.584a.277.277,0,0,1,.274-.279h5.288a.277.277,0,0,1,.274.279Zm-3,9.046a.494.494,0,0,1-.544.507l-6.4.019a.279.279,0,0,0,0,.558h.136a13.1,13.1,0,0,1,2.324.134.4.4,0,0,1,.326.447.473.473,0,0,1-.5.408l-2.068.01c-.083,0-.16,0-.225,0a.279.279,0,0,0,.007.558h.25a5.855,5.855,0,0,1,1.333.137.386.386,0,0,1,.279.448.523.523,0,0,1-.515.416l-1.266.016h-.086a.279.279,0,0,0,.006.558h.087c.876,0,1.1.254,1.143.335a.267.267,0,0,1-.018.28.882.882,0,0,1-.779.38l-3.918-.044a1.047,1.047,0,0,1-.63-.148,1.249,1.249,0,0,0-.709-.189l-.922,0V20.446l.082,0a2.811,2.811,0,0,0,1.924-.49l4.888-2.472c.107-.054.3-.132.406-.045a.662.662,0,0,1,.071.625c-.217.83-1.454,1.28-2.447,1.641-.24.088-.468.17-.669.254a.28.28,0,0,0-.166.312.276.276,0,0,0,.269.225l7.79,0a.492.492,0,0,1,.544.5ZM11.4,19.2v6.9h0v.632a.26.26,0,0,1-.258.262H8.779a.26.26,0,0,1-.258-.262V19.2a.26.26,0,0,1,.258-.262h2.358a.26.26,0,0,1,.258.262Zm12.237-4.085h2.191v3.071H23.632Zm0,3.629h2.191v1.787H25.08a1.04,1.04,0,0,0-.988-.592h-.46V18.747Zm-9.057-2.52a3.284,3.284,0,0,0,3.221-2.84c.2-1.443-1.666-4.924-2.781-7-.162-.3-.31-.579-.441-.826-.138.261-.3.553-.468.87-1.145,2.114-3.061,5.652-2.7,7.237A3.248,3.248,0,0,0,14.576,16.228Zm0-1.842a1.447,1.447,0,0,0,1.416-1.192,4.272,4.272,0,0,0-.61-2.016.281.281,0,0,1,.133-.371.273.273,0,0,1,.365.135,4.708,4.708,0,0,1,.652,2.354,2,2,0,0,1-1.956,1.647.279.279,0,0,1,0-.558ZM22.35,6.863h4.739v4.816H22.35V6.864Z" fill="#033"/>
    </g>
  </g>
</svg>
