<svg xmlns="http://www.w3.org/2000/svg" xmlns:xlink="http://www.w3.org/1999/xlink" width="34" height="34" viewBox="0 0 34 34">
  <defs>
    <clipPath id="clip-path">
      <rect id="Rectangle_18285" data-name="Rectangle 18285" width="27" height="24" transform="translate(4235 288.184)" fill="#fff" stroke="#707070" stroke-width="1"/>
    </clipPath>
  </defs>
  <g id="Group_6270" data-name="Group 6270" transform="translate(-58 -763)">
    <rect id="Rectangle_18275" data-name="Rectangle 18275" width="34" height="34" rx="5" transform="translate(58 763)" fill="rgba(63,188,161,0.1)"/>
    <g id="Mask_Group_12" data-name="Mask Group 12" transform="translate(-4173 479.816)" clip-path="url(#clip-path)">
      <g id="noun-children-7108028" transform="translate(4232.421 290.059)">
        <path id="Path_56828" data-name="Path 56828" d="M13.191,33.7h1.723l-.208.752a.831.831,0,0,1-1.617-.386Zm5.979,1.9V38.32h2.8l.163-2.725Zm-3.467,0,.163,2.725h2.8V35.6ZM20.126,26.2a5.614,5.614,0,0,1-.712.117H19.4s-.005.005-.005,0a5.012,5.012,0,0,1-2.069-.229v.951c.086.661.956.986,1.591.951,1.469,0,1.586-.93,1.591-.966v-.935c-.127.041-.259.081-.386.112Zm1.246,3.366.778,3.9v1.617H15.688V33.5l.778-3.93a.254.254,0,0,0-.5-.1l-.737,3.721H13.339c.112-.417.879-3.31,1.007-3.792a2.437,2.437,0,0,1,1.581-1.693l.976-.33c.391,1.378,3.432,1.622,4.036,0l.971.33A2.444,2.444,0,0,1,23.5,29.4L24.32,32.5v.015l.178.671H22.612L21.87,29.47a.254.254,0,0,0-.5.1Zm-.63,2.318H17.1v1.571h3.645Zm3.9,1.815H22.922l.208.747a.831.831,0,0,0,1.617-.386l-.1-.361Zm.773.366a.831.831,0,0,0,1.617.386l.208-.752H25.52ZM31.5,35.6V38.32h2.8l.163-2.725Zm-3.467,0,.163,2.725H31V35.6ZM23.522,23.5a.815.815,0,0,0,.483-1.556,4.8,4.8,0,0,1-.493,1.556Zm-2.8,1.973a4.621,4.621,0,0,0,2.791-3.666A3.848,3.848,0,0,1,21.5,19.917c-1.469,1.708-2.506,1.556-2.633,1.53-.356-.081-.117-.544-.081-.763A6.441,6.441,0,0,1,14.341,21.9a4.679,4.679,0,0,0,6.38,3.574Zm-1.632-5.963a.254.254,0,0,1,.468.183l-.305,1.23a4.056,4.056,0,0,0,2.166-1.713.257.257,0,0,1,.458.153c0,.041.056,1.032,1.678,1.9a4.633,4.633,0,1,0-9.262.127c.813.046,3.736.056,4.8-1.876Zm-5.008,4.032a1.062,1.062,0,0,0,.249-.041,4.764,4.764,0,0,1-.5-1.556.819.819,0,0,0,.249,1.6ZM37.075,34.06l-.1-.361H35.25l.208.747a.831.831,0,0,0,1.617-.386ZM33.9,29.266a.255.255,0,0,1,.3.2l.737,3.721h1.891c-.107-.4-.879-3.32-1.007-3.792a2.437,2.437,0,0,0-1.581-1.693l-.895-.305v.4a.257.257,0,0,1-.371.229l-1.728-.9-1.728.9a.256.256,0,0,1-.371-.229v-.4l-.89.305A2.444,2.444,0,0,0,26.669,29.4c-.127.488-.89,3.37-1,3.792h1.886L28.3,29.47a.254.254,0,0,1,.5.1l-.778,3.9v1.617h6.461V33.5l-.778-3.93a.258.258,0,0,1,.2-.3ZM26.639,21.62v.015A4.253,4.253,0,0,0,29.1,20.67l1.978-1.657a.247.247,0,0,1,.325,0c1.235.991,2.755,2.649,4.454,2.623a4.986,4.986,0,0,0,.015-.671.007.007,0,0,1,0-.01,4.61,4.61,0,0,0-.554-1.967h-.005a4,4,0,0,0-.356-.559,4.636,4.636,0,0,0-8.322,3.193Zm5.806,4.58a5.368,5.368,0,0,1-.946.137v.346l1.337.7c0-.264.01-1.022.005-1.3a3.547,3.547,0,0,1-.4.117ZM33,25.489a4.689,4.689,0,0,0,2.781-3.35c-1.734.015-3.294-1.571-4.535-2.6l-1.815,1.52a4.736,4.736,0,0,1-2.72,1.083A4.672,4.672,0,0,0,33,25.489Zm-2.4.808a4.508,4.508,0,0,1-.946-.208V27.38l1.337-.691v-.356A2.49,2.49,0,0,1,30.6,26.3Zm-3.081.981,1.627-.432v-.961a5.2,5.2,0,0,1-2.852-3.32l-.625,2.944a1.517,1.517,0,0,0,1.85,1.769Zm7.829-2.994a5.209,5.209,0,0,1-2,1.606v.956l1.622.432a1.508,1.508,0,0,0,1.856-1.769L36.2,22.566a5.137,5.137,0,0,1-.854,1.718Z" transform="translate(-8.814 -16.562)" fill="#033"/>
        <text id="Created_by_Gendis_Studio" data-name="Created by Gendis Studio" transform="translate(0 32.215)" fill="#033" font-size="1" font-family="SegoeUI-Bold, Segoe UI" font-weight="700"><tspan x="0" y="0">Created by Gendis Studio</tspan></text>
        <text id="from_Noun_Project" data-name="from Noun Project" transform="translate(0 33.841)" fill="#033" font-size="1" font-family="SegoeUI-Bold, Segoe UI" font-weight="700"><tspan x="0" y="0">from Noun Project</tspan></text>
      </g>
    </g>
  </g>
</svg>
