<svg xmlns="http://www.w3.org/2000/svg" xmlns:xlink="http://www.w3.org/1999/xlink" width="34" height="34" viewBox="0 0 34 34">
  <defs>
    <clipPath id="clip-path">
      <rect id="Rectangle_18286" data-name="Rectangle 18286" width="19" height="22" transform="translate(4197 339.587)" fill="#fff" stroke="#707070" stroke-width="1"/>
    </clipPath>
  </defs>
  <g id="Group_6009" data-name="Group 6009" transform="translate(-58 -638)">
    <rect id="Rectangle_18273" data-name="Rectangle 18273" width="34" height="34" rx="5" transform="translate(58 638)" fill="rgba(63,188,161,0.1)"/>
    <g id="Mask_Group_13" data-name="Mask Group 13" transform="translate(-4131 304.413)" clip-path="url(#clip-path)">
      <g id="noun-anxiety-7091496" transform="translate(4193.765 339.69)">
        <path id="Path_56829" data-name="Path 56829" d="M39.214,41.986a.234.234,0,0,0-.345-.317,2.026,2.026,0,0,1-1.412.568.237.237,0,0,0-.238.228.233.233,0,0,0,.228.238h.047a2.467,2.467,0,0,0,1.721-.72Z" transform="translate(-27.957 -32.778)" fill="#033"/>
        <path id="Path_56830" data-name="Path 56830" d="M40.948,47.833a.233.233,0,0,0,.467,0,.915.915,0,0,0-1.829,0,.233.233,0,1,0,.467,0,.448.448,0,0,1,.9,0Z" transform="translate(-29.735 -36.777)" fill="#033"/>
        <path id="Path_56831" data-name="Path 56831" d="M56.291,42.7h.047a.232.232,0,0,0,.228-.238.24.24,0,0,0-.238-.228,2,2,0,0,1-1.412-.568.233.233,0,0,0-.345.314,2.464,2.464,0,0,0,1.721.72Z" transform="translate(-40.947 -32.773)" fill="#033"/>
        <path id="Path_56832" data-name="Path 56832" d="M53.977,46.918a.914.914,0,0,0-.915.915.233.233,0,1,0,.467,0,.448.448,0,0,1,.9,0,.233.233,0,0,0,.467,0A.914.914,0,0,0,53.977,46.918Z" transform="translate(-39.859 -36.777)" fill="#033"/>
        <path id="Path_56833" data-name="Path 56833" d="M47.51,52.816a.231.231,0,0,0,.316-.09.253.253,0,0,1,.42,0,.232.232,0,0,0,.205.12.262.262,0,0,0,.114-.028.233.233,0,0,0,.09-.316.71.71,0,0,0-1.236,0,.231.231,0,0,0,.09.316Z" transform="translate(-35.597 -40.699)" fill="#033"/>
        <path id="Path_56834" data-name="Path 56834" d="M45.685,57.838a1.182,1.182,0,0,0-.731.267,1.038,1.038,0,0,0-.7-.267,1.053,1.053,0,0,0-.922.537.232.232,0,1,0,.406.225.591.591,0,0,1,.516-.3.575.575,0,0,1,.389.148.48.48,0,0,0,.645,0,.6.6,0,0,1,.4-.151.582.582,0,0,1,.51.3.232.232,0,0,0,.205.12.262.262,0,0,0,.114-.028.233.233,0,0,0,.09-.316,1.049,1.049,0,0,0-.918-.537Z" transform="translate(-32.525 -44.978)" fill="#033"/>
        <path id="Path_56835" data-name="Path 56835" d="M39.95,7.252a.23.23,0,0,0,.166.067.245.245,0,0,0,.166-.067l.182-.182.182.182a.23.23,0,0,0,.166.067.245.245,0,0,0,.166-.067.234.234,0,0,0,0-.329L40.8,6.74l.182-.182a.233.233,0,0,0-.33-.329l-.182.182-.182-.182a.233.233,0,0,0-.329.329l.182.182-.182.182a.234.234,0,0,0,0,.329Z" transform="translate(-29.963 -6.161)" fill="#033"/>
        <path id="Path_56836" data-name="Path 56836" d="M16.751,38.479a.23.23,0,0,0,.166.067.245.245,0,0,0,.166-.067l.182-.182.182.182a.23.23,0,0,0,.166.067.245.245,0,0,0,.166-.067.234.234,0,0,0,0-.33l-.182-.182.182-.182a.233.233,0,1,0-.329-.33l-.182.182-.182-.182a.233.233,0,0,0-.329.33l.182.182-.182.182a.234.234,0,0,0,0,.33Z" transform="translate(-12.536 -29.618)" fill="#033"/>
        <path id="Path_56837" data-name="Path 56837" d="M79.635,34.69a.234.234,0,0,0-.329,0l-.182.182-.182-.182a.233.233,0,0,0-.329.33l.182.182-.182.182a.234.234,0,0,0,0,.329.23.23,0,0,0,.166.067.245.245,0,0,0,.166-.067l.182-.182.182.182a.23.23,0,0,0,.166.067.245.245,0,0,0,.166-.067.234.234,0,0,0,0-.329l-.182-.182.182-.182a.234.234,0,0,0,0-.33Z" transform="translate(-59 -27.541)" fill="#033"/>
        <path id="Path_56838" data-name="Path 56838" d="M61.907,10.021a.23.23,0,0,0,.166.067.245.245,0,0,0,.166-.067l.182-.182.182.182a.23.23,0,0,0,.166.067.245.245,0,0,0,.166-.067.234.234,0,0,0,0-.329l-.182-.182.182-.182A.233.233,0,1,0,62.606,9l-.182.182L62.242,9a.233.233,0,1,0-.329.329l.182.182-.182.182a.234.234,0,0,0,0,.329Z" transform="translate(-46.456 -8.241)" fill="#033"/>
        <path id="Path_56839" data-name="Path 56839" d="M29.619,15.571a.7.7,0,0,0,.151-.56c-.207-1.014-2.975-.876-4.645-.7a6.645,6.645,0,0,0-4.448-.2c-3.372-.137-7.009.163-7.123,1.41-.054.563.633,1.1,2.034,1.607-.438.337-.625.656-.563.964.086.409.58.658,1.5.762a5.244,5.244,0,0,0-.028.541v1.081l-.288,4.129c0,.083-.008.163-.008.244a3.3,3.3,0,0,0,.98,2.364,3.554,3.554,0,0,0,2.509,1.042h.635l-.083.695-4.2,1.482A3.251,3.251,0,0,0,13.882,33.5a.234.234,0,0,0,.233.233H31.123a.233.233,0,0,0,.233-.233A3.25,3.25,0,0,0,29.2,30.436L25,28.953l-.083-.695h.638a3.553,3.553,0,0,0,2.509-1.042,3.313,3.313,0,0,0,.983-2.364c0-.081,0-.16-.011-.244L28.746,20.5V19.4a5.022,5.022,0,0,0-.083-.9c1.944-.21,2.963-.648,3.025-1.3.052-.568-.645-1.112-2.068-1.622Zm-.306-.464c0,.028.008.127-.166.306a24.58,24.58,0,0,0-3.03-.715c2.11-.137,3.138.132,3.2.409Zm-1.231,2.975.112.459c-.687.059-1.441.09-2.244.09-1.109,0-2.307-.057-3.522-.171l-.182-.016-.166-.016a28.029,28.029,0,0,1-3.611.456l-1.48.011.075-.462a18.849,18.849,0,0,0,3.351-.207,31.463,31.463,0,0,1-3.107-.586l.2-.431a34.714,34.714,0,0,0,4.552.746c.2-.036.4-.075.607-.12a27.453,27.453,0,0,0,4.6-1.353l.275.392a25.876,25.876,0,0,1-3.86,1.213,31.531,31.531,0,0,0,4.4-.008ZM20.7,29.008l.238-2a4.156,4.156,0,0,0,3.351,0l.236,2a3.567,3.567,0,0,1-3.826,0Zm4.272-2.936a0,0,0,0,0,0,0,3.972,3.972,0,0,1-.586.381l-.171.083a3.76,3.76,0,0,1-3.193,0l-.163-.081a4.044,4.044,0,0,1-.6-.389,4.283,4.283,0,0,1-.56-.518c-.013-.016-.028-.031-.042-.047-.067-.078-.132-.156-.194-.236-.016-.023-.034-.044-.05-.067-.073-.1-.145-.2-.21-.3a5.1,5.1,0,0,1-.757-2.7V20.071h8.333V22.2a5.112,5.112,0,0,1-.754,2.7q-.1.156-.21.3l-.052.067c-.062.083-.127.16-.194.236l-.039.047a4.61,4.61,0,0,1-.56.518ZM18.028,18.9c.143,0,.291-.011.438-.018C18.315,18.894,18.168,18.9,18.028,18.9Zm8.916-3.455c-.062-.057-.129-.106-.194-.158.7.143,1.364.3,1.952.474a7.749,7.749,0,0,1-.992.529,5.724,5.724,0,0,0-.765-.845Zm-12.926.12c.044-.462,1.848-1.055,5.578-1.014a5.839,5.839,0,0,0-2.55,2.54c-.334-.09-.617-.174-.871-.257-1.745-.56-2.174-1.06-2.157-1.27ZM15.484,18c-.023-.114.14-.358.653-.684.213.067.446.135.712.207a5.161,5.161,0,0,0-.254.874c-.827-.093-1.092-.288-1.112-.4Zm13.076.036a5.112,5.112,0,0,0-.588-1.35,6.281,6.281,0,0,0,1.283-.749c1.482.5,1.988.964,1.964,1.21-.02.23-.614.669-2.659.889Z" transform="translate(-10.179 -11.918)" fill="#033"/>
        <text id="Created_by_Vanicon_studio" data-name="Created by Vanicon studio" transform="translate(0 27.46)" font-size="1" font-family="SegoeUI-Bold, Segoe UI" font-weight="700"><tspan x="0" y="0">Created by Vanicon studio</tspan></text>
        <text id="from_Noun_Project" data-name="from Noun Project" transform="translate(0 28.704)" font-size="1" font-family="SegoeUI-Bold, Segoe UI" font-weight="700"><tspan x="0" y="0">from Noun Project</tspan></text>
      </g>
    </g>
  </g>
</svg>
