<svg xmlns="http://www.w3.org/2000/svg" width="34.432" height="38.065" viewBox="0 0 34.432 38.065">
  <g id="Group_5" transform="translate(-349.055 -335.564)">
    <g id="Group_1683" data-name="Group 1683">
      <g id="Group_4_8_" transform="translate(349.069 335.561)">
        <path id="Path_14_8_" d="M1.546,38.068A2.939,2.939,0,0,1,0,35.2C-.01,31.145,0,27.087,0,23.03V2.937A3.056,3.056,0,0,1,1.567,0l18.95,19.026Z"/>
        <path id="Path_15_8_" d="M6.422,1.239,26.732,12.9,22.4,17.226Z"/>
        <path id="Path_16_8_" d="M6.307,36.927,22.371,20.863,26.715,25.2Z"/>
        <path id="Path_17_8_" d="M28.885,14.2c1.542.907,3.041,1.689,4.432,2.631a2.851,2.851,0,0,1-.264,4.68c-1.354.79-2.715,1.57-4.144,2.393L24.342,19.07Z"/>
      </g>
    </g>
  </g>
</svg>
