<svg xmlns="http://www.w3.org/2000/svg" width="955.321" height="655.565" viewBox="0 0 955.321 655.565">
  <g id="Layer_2" data-name="Layer 2" transform="translate(0.001 0.075)">
    <g id="hand">
      <path id="Path_1" data-name="Path 1" d="M612,182.54c-.46-11.54-6.67-17.36-13.3-20.27a53.931,53.931,0,0,0-16.56-2.79H582c2.1-50.2-22.39-109.22-22.39-109.22s-31.33,67-95.86,55.84c0,0,9.69-5.11,11.67-9.49,0,0-10.16,3.79-22.47,7.2-13,3.58-28.38,6.74-36.79,4.56,0,0-.18,1.76-.51,4.81v.35h.67c7.55-.09,20.45,2.57,34.66,4.17,13.36,1.5,14.44,17.59,14.48,21.87v1.05l-2.36,21c-2.36,21-15.29,22.43-15.29,22.43l-38.93-4.38h-.17c-1.31,12.52-2.27,21.94-2.32,22.87A92.44,92.44,0,0,0,409.81,236c.05.17.1.35.16.52,5.43,17,18.11,34.75,47.13,38.5a.4.4,0,0,0,0,.11l-.35,4.67a.608.608,0,0,0,0,.14l-.48,6.39,108.06,22.94,1.11.23c-.13-1.19-.15-2-.15-2,7.68-31.68,13.91-104.88,14.32-109.78v-.26a71.262,71.262,0,0,0,6.92,1.73h0C596.89,200.72,612.7,200.26,612,182.54ZM484.41,206.61c-9,7-22,3-22,3C470.42,195.61,484.41,206.61,484.41,206.61Zm5,46c-11.85,6.91-16.86-14.44-17-15,.17.15.35.28.52.42a32.439,32.439,0,0,1-1.8-3.22,94.842,94.842,0,0,1-7.35-19.55l-1.37-4.66,2.58.08a35.6,35.6,0,0,0,17.71-1.85,3.81,3.81,0,0,1,2.75-.34,3.59,3.59,0,0,1,1.64,2.28,60.679,60.679,0,0,1,3.39,22.59v-.16c3.16,18.61-1.09,19.41-1.09,19.41Zm71-62.69c-9.84,11.61-28.28,7.88-44.43,6.07-21-2.37-22.88-23.86-22.88-23.86l1.9-16.88c.36-3.18.77-6.88,1.25-11.17a23.8,23.8,0,0,1,1.61-6.5c5.72-14,23.19-12,23.19-12l18.22,2c16.85,1.89,25.49,9.18,28,22.52,1.26,6.66,1,14.82-.59,24.55-1.13,6.85-3.32,11.76-6.28,15.27Z" transform="translate(-2.5)" fill="#fff" stroke="#000" stroke-linecap="round" stroke-linejoin="round" stroke-width="5"/>
      <path id="Path_2" data-name="Path 2" d="M566.65,174.68c-1.1,6.82-3.29,11.73-6.25,15.24-9.84,11.61-28.28,7.88-44.43,6.07-21-2.37-22.88-23.86-22.88-23.86l1.9-16.88c.36-3.18.77-6.88,1.25-11.17a23.8,23.8,0,0,1,1.61-6.5c5.72-14,23.19-12,23.19-12l18.22,2c16.85,1.89,25.49,9.18,28,22.52C568.5,156.79,568.2,165,566.65,174.68Z" transform="translate(-2.5)" fill="#fff" stroke="#000" stroke-linecap="round" stroke-linejoin="round" stroke-width="5"/>
      <path id="Path_3" data-name="Path 3" d="M596.76,287.87l1-.32S585.34,291.35,596.76,287.87Z" transform="translate(-2.5)" fill="#f3e1e7" stroke="#000" stroke-miterlimit="10" stroke-width="5"/>
      <path id="Path_4" data-name="Path 4" d="M836,653a269.719,269.719,0,0,0-26.86-48.14c-34.59-49.65-77-77.23-77.39-77.5l-3.22-2.07L708.26,652.66h-52l-435-.07,31-213.2-4.6,2.94c-.55.35-56,35.19-116.38,35.19-45.57,0-82.18-19.45-108.81-57.79-16.23-23.36-21.19-48.93-14.75-76,9.57-40.24,43.38-83.57,100.48-128.79a705.647,705.647,0,0,1,92.06-61.37l47.57,67.73c-17.41,12.35-52.91,37.48-97.81,68.87-20.86,14.59-30,31.85-25.15,47.33,4.45,14.13,20.14,23.25,40,23.25,20,0,42.09-9.08,62.19-25.56,57.84-47.41,141-55.63,165.08-57,5.91-.33,9.34-.35,9.38-.35h2.7l49.32,11.32h32.28l91.13,3h1.77c4.19-.18,8.41-.28,12.54-.28,57.33,0,108.27,17.26,155.75,52.76,40.06,30,78.46,73.9,117.39,134.34a647.29,647.29,0,0,1,36.79,65.42c5.46,11.12,11.34,22,17.57,33.56,12.62,23.39,25.65,47.55,35.54,74.66Z" transform="translate(-2.5)" fill="#fff"/>
      <path id="Path_5" data-name="Path 5" d="M199.54,156.83l44.85,63.86c-18,12.8-52.55,37.21-95.76,67.42-21.82,15.26-31.33,33.54-26.1,50.13,4.78,15.19,21.4,25,42.34,25,20.57,0,43.22-9.28,63.78-26.13,24.26-19.89,55.46-35,92.73-45a363.344,363.344,0,0,1,70.9-11.46c5.83-.33,9.21-.35,9.22-.35h2.44l48.76,11.19.56.13h32.48l91.16,3h1.93c4.16-.18,8.34-.28,12.43-.28,56.77,0,107.22,17.1,154.25,52.26,39.82,29.78,78,73.51,116.79,133.7A649.088,649.088,0,0,1,899,545.44c5.47,11.16,11.37,22.08,17.61,33.65,12.05,22.34,24.49,45.38,34.15,71l-113.07.41a271.863,271.863,0,0,0-26.45-47.06c-34.87-50-76.34-77-78.08-78.18l-6.44-4.14-1.21,7.56L706.13,650.16H656.28l-432.13-.07L254,445.15l1.57-10.79-9.21,5.86c-.54.35-55.38,34.8-115,34.8-44.7,0-80.62-19.09-106.76-56.72-15.81-22.75-20.64-47.65-14.37-74,5.13-21.58,17.71-44.52,37.4-68.18,16.13-19.39,37.06-39.32,62.2-59.23a707.784,707.784,0,0,1,89.75-60.06m1.52-6.54C183.5,159.8-65.38,297.6,20.45,421.16,51.71,466.16,92.7,480,131.32,480,193.22,480,249,444.43,249,444.43L218.37,655.08v.16l.19-.15,437.73.07h54l.08.29,20-126s42,27,76.69,76.83a266.9,266.9,0,0,1,27.26,49.21l123.5-.45c-14.78-42-37.3-76.94-54.41-111.81a647.812,647.812,0,0,0-36.94-65.67c-70.19-109-152.71-188.25-275.24-188.25-4.18,0-8.38.1-12.65.28H577l-91.21-3h-32l-49.31-11.32h-3s-3.45,0-9.51.35c-27.48,1.59-108.77,10.24-166.52,57.58-21.81,17.88-43.26,25-60.61,25-38.73,0-57.05-35.48-13.38-66,46-32.19,82-57.67,98.21-69.16l1.65-1.16-50.29-71.6Z" transform="translate(-2.5)"/>
      <path id="Path_6" data-name="Path 6" d="M310.42,236.21a53.35,53.35,0,0,1-9-.77c-17.44-3-30-10.22-36.31-20.91l-.87-1.46-6.18,1L252,218.4l-47.29-67.33c11.06-6.95,83.66-52.82,106.82-73.49l4.2-3.76c15.84-14.18,23.79-21.29,28.66-21.29a5.86,5.86,0,0,1,2.82.77A3.11,3.11,0,0,1,349,55.46c.48,2.29-1.53,5.62-2.66,7.06L350,65.91a12.11,12.11,0,0,1,8.22-3.6,12.29,12.29,0,0,1,6.13,1.79,2.52,2.52,0,0,1,1.31,1.66c.61,2.34-1.08,6-2.18,7.81l-6.71,11,10.33-7.71a9.17,9.17,0,0,1,5.3-2.16,5.82,5.82,0,0,1,4.47,2.37c6.26,11.7-26.61,45.82-48.87,64.63l-3,2.51,3.53,1.66c.26.12,26,12.33,31.17,24.7s4.89,40.33-9.24,47.38a16.38,16.38,0,0,1-6.92,2.08h0a3.61,3.61,0,0,1-3.27-1.46l-.56-.75-.28-1.06a15.78,15.78,0,0,1,1.06-9.46c.29-.69.58-1.37.88-2.05,3.24-7.54,6.6-15.34,1.54-23.19-3.55-5.47-12.39-11-22.44-11a27.39,27.39,0,0,0-15.2,4.6c-15.45,10.11-13.18,26.32-8.12,34.15,4.47,6.93,11.78,7.73,16.9,7.73a79.567,79.567,0,0,0,11.07-1,22.071,22.071,0,0,1,3.13-.24c2.24,0,5.22.44,6.74,2.54l.59.81.24,1a10.079,10.079,0,0,1-.47,5.64C333.8,231.08,323.8,236.21,310.42,236.21Z" transform="translate(-2.5)" fill="#fff"/>
      <path id="Path_7" data-name="Path 7" d="M344.34,55a3.28,3.28,0,0,1,1.64.48c.27.14.57.35.59.46.2.92-.84,3.31-2.17,5l7.3,6.78a8.79,8.79,0,0,1,11.43-1.47l.12.07c.29.68-.29,3.3-1.91,6L348.19,94.17l20.43-15.28a7,7,0,0,1,3.8-1.66,3.26,3.26,0,0,1,2.34,1.21c.8,1.84,2.09,10.12-20.33,34.47a360.465,360.465,0,0,1-28,26.91l-6,5,7.05,3.31c7,3.28,25.95,13.88,29.93,23.4,2.6,6.22,3.56,16.19,2.38,24.8-.77,5.68-3.15,15.75-10.44,19.38-3.15,1.58-5,1.82-5.8,1.82s-1.14-.27-1.25-.43l-.28-.38-.17-.61a13.3,13.3,0,0,1,.95-7.83l.87-2.05c3.35-7.76,7.14-16.56,1.34-25.54-3.78-5.84-13.07-12.13-24.53-12.13a29.78,29.78,0,0,0-16.57,5c-15.12,9.9-15.85,26.76-8.85,37.6,5.13,8,13.3,8.87,19,8.87a80.062,80.062,0,0,0,11.42-1,20.071,20.071,0,0,1,2.78-.21c1.35,0,3.77.2,4.72,1.5l.31.43.12.5a7.87,7.87,0,0,1-.42,4.24c-1.12,3.34-9.81,8.17-22.6,8.17a50.457,50.457,0,0,1-8.58-.74c-16.69-2.86-28.65-9.68-34.58-19.71l-1.73-2.93-3.36.54-3.92.62-1.16.18-.95.68-3.59,2.55-44.33-63.11c16.32-10.3,82.83-52.63,104.92-72.34l4.21-3.77C331.74,62.8,340.43,55,344.34,55m0-5c-6.28,0-14.29,7.6-34.53,25.69C285.13,97.74,202,149.77,202,149.77l-1,.52,50.29,71.6,7.69-5.46,3.91-.63c6.91,11.69,20.32,19.06,38.05,22.1a55.772,55.772,0,0,0,9.42.81c13.8,0,25.21-5.21,27.34-11.58a12.63,12.63,0,0,0,.53-7,6.19,6.19,0,0,0,5.29,2.48,18.5,18.5,0,0,0,8-2.35c15.59-7.77,16.05-37.17,10.44-50.58s-32.42-26-32.42-26,59.4-50.15,49.46-67.9a8.34,8.34,0,0,0-6.59-3.55,11.45,11.45,0,0,0-6.8,2.66c.22-.36,5.94-9.56,0-13a13.76,13.76,0,0,0-17.28,2.13c.28-.35,7.2-9.14,0-13a8.37,8.37,0,0,0-4-1.06ZM314.09,215c-6.62,0-11.6-1.62-14.8-6.58-4.75-7.36-6.46-21.64,7.39-30.7a24.93,24.93,0,0,1,13.83-4.2c9.12,0,17.15,4.93,20.34,9.85,4.74,7.36.84,14.71-2.63,22.92-1.44,3.43-2.06,7.76-1.16,11.08-1.58-2.18-4.43-3.57-8.77-3.57a24.429,24.429,0,0,0-3.48.26,78.389,78.389,0,0,1-10.72.94Z" transform="translate(-2.5)"/>
      <path id="Path_8" data-name="Path 8" d="M710.27,655.16c-17.28.22-35.35.19-54,0Z" transform="translate(-2.5)" fill="#f3e1e7"/>
      <path id="Path_9" data-name="Path 9" d="M656.27,655.16q14.46.15,28.43.15,13,0,25.57-.15Z" transform="translate(-2.5)"/>
      <path id="Path_11" data-name="Path 11" d="M601.09,315.72c-.81.31-1.59.59-2.33.83l-1,.32c-11.42,3.48-15.37-.2-16.71-3.6-.06-.17-.13-.34-.18-.51a9.8,9.8,0,0,1-.47-3.74c-.76,1.18-1.48,2.23-2.16,3.18-.1.14-.19.27-.3.41-9.54,12.95-11.91,2.47-12.48-2.7a3.414,3.414,0,0,1,0-.44c-.13-1.19-.15-2-.15-2,7.68-31.68,13.91-104.88,14.32-109.78v-.26a71.267,71.267,0,0,0,6.92,1.73h0c24.71,4.82,27.57-10.41,27.57-10.41,3.25-15.9-6-23.17-15.43-26.48a53.93,53.93,0,0,0-16.56-2.79H582c2.1-50.2-22.39-109.22-22.39-109.22s-31.33,67-95.86,55.84c0,0,9.69-5.11,11.67-9.49,0,0-10.16,3.79-22.47,7.2-13,3.58-28.38,6.74-36.79,4.56,0,0-.18,1.76-.51,4.81v.35c-.6,5.86-1.7,16.14-2.91,27.65l-.07.65-.15,1.44c-1.28,12.16-2.68,25.47-3.82,36.41-1.31,12.52-2.27,21.94-2.32,22.87A92.441,92.441,0,0,0,409.81,236c.05.17.1.35.16.52,5.43,17,18.11,34.75,47.13,38.5a.4.4,0,0,0,0,.11l-.35,4.67a.608.608,0,0,0,0,.14l-.48,6.39v.14l-.75,10-.72.1c-3.15.39-15.69,1.4-17.51-6.8,0,0-13.65,13.89-22.68-2.32,0,0-17.12,18.11-21.16-2.16-.4-1.95-.89-5.22-1.42-9.6-5-41-13.76-178.83,26.69-236.8C463.46-25.28,603.12-1.79,631.48,79S623.34,307.32,601.09,315.72Z" transform="translate(-2.5)" fill="#fdcc00" stroke="#000" stroke-miterlimit="10" stroke-width="4"/>
      <path id="Path_12" data-name="Path 12" d="M409.17,104.64s31.83-27.28,49.58,8.14" transform="translate(-2.5)" fill="none" stroke="#000" stroke-linecap="round" stroke-linejoin="round" stroke-width="5"/>
      <path id="Path_13" data-name="Path 13" d="M470.05,174.89a13.09,13.09,0,0,0-8.8,11.32c-1.24,12.1,19.65,2,19.65,2" transform="translate(-2.5)" fill="none" stroke="#000" stroke-linecap="round" stroke-linejoin="round" stroke-width="5"/>
      <path id="Path_14" data-name="Path 14" d="M510.13,175s-6.83,7-6.13,14.68" transform="translate(-2.5)" fill="none" stroke="#000" stroke-linecap="round" stroke-linejoin="round" stroke-width="5"/>
      <path id="Path_15" data-name="Path 15" d="M520.4,179.13s-5.31,7.1-4.27,11.79" transform="translate(-2.5)" fill="none" stroke="#000" stroke-linecap="round" stroke-linejoin="round" stroke-width="5"/>
      <path id="Path_16" data-name="Path 16" d="M531,180.22s-3.8,7.25-2.75,11.94" transform="translate(-2.5)" fill="none" stroke="#000" stroke-linecap="round" stroke-linejoin="round" stroke-width="5"/>
      <path id="Path_17" data-name="Path 17" d="M514.66,56.34s-5.93,13.14-13.95,16.9" transform="translate(-2.5)" fill="none" stroke="#fff" stroke-linecap="round" stroke-linejoin="round" stroke-width="5"/>
      <path id="Path_18" data-name="Path 18" d="M499,45.57s-12.76,20.08-33.65,30.15" transform="translate(-2.5)" fill="none" stroke="#fff" stroke-linecap="round" stroke-linejoin="round" stroke-width="5"/>
      <path id="Path_19" data-name="Path 19" d="M468.11,48.51a75.749,75.749,0,0,1-13.33,10.86" transform="translate(-2.5)" fill="none" stroke="#fff" stroke-linecap="round" stroke-linejoin="round" stroke-width="5"/>
      <path id="Path_20" data-name="Path 20" d="M593.19,95s8.41,22.25,7.32,32.83" transform="translate(-2.5)" fill="none" stroke="#fff" stroke-linecap="round" stroke-linejoin="round" stroke-width="5"/>
      <path id="Path_21" data-name="Path 21" d="M505.9,112s31.82-27.28,49.57,8.14" transform="translate(-2.5)" fill="none" stroke="#000" stroke-linecap="round" stroke-linejoin="round" stroke-width="5"/>
      <path id="Path_22" data-name="Path 22" d="M577.85,197.18s.64.21,1.74.51a65.446,65.446,0,0,0,6.95,1.47" transform="translate(-2.5)" fill="none" stroke="#000" stroke-linecap="round" stroke-linejoin="round" stroke-width="5"/>
      <path id="Path_23" data-name="Path 23" d="M582.13,159.48a38.65,38.65,0,0,1,16.56,2.79" transform="translate(-2.5)" fill="none" stroke="#000" stroke-linecap="round" stroke-linejoin="round" stroke-width="5"/>
      <path id="Path_24" data-name="Path 24" d="M505.07,161.56c3.78-5.39,10.34-8.29,16.86-9.22a25.81,25.81,0,0,1,12.65,1,15.79,15.79,0,0,1,9.18,8.44c.44,1.07.91,2.38,2,2.63a2.85,2.85,0,0,0,2-.48,15.09,15.09,0,0,0,7.32-9.65" transform="translate(-2.5)" fill="none" stroke="#000" stroke-linecap="round" stroke-linejoin="round" stroke-width="5"/>
      <path id="Path_25" data-name="Path 25" d="M540.5,156.34a11.91,11.91,0,0,0,8.12-7.89" transform="translate(-2.5)" fill="none" stroke="#000" stroke-linecap="round" stroke-linejoin="round" stroke-width="5"/>
      <path id="Path_26" data-name="Path 26" d="M534.5,152.85a64,64,0,0,0,5-9.38" transform="translate(-2.5)" fill="none" stroke="#000" stroke-linecap="round" stroke-linejoin="round" stroke-width="5"/>
      <path id="Path_28" data-name="Path 28" d="M343.55,69.69s-26.84,28.52-51.09,51.42" transform="translate(-2.5)" fill="none" stroke="#000" stroke-linecap="round" stroke-linejoin="round" stroke-width="5"/>
      <path id="Path_29" data-name="Path 29" d="M358.25,81.82s-29.88,35.43-46.77,49.26" transform="translate(-2.5)" fill="none" stroke="#000" stroke-linecap="round" stroke-linejoin="round" stroke-width="5"/>
      <path id="Path_37" data-name="Path 37" d="M484.41,206.61c-9,7-22,3-22,3C470.42,195.61,484.41,206.61,484.41,206.61Z" transform="translate(-2.5)" fill="#ca576c" stroke="#ca576c" stroke-linecap="round" stroke-linejoin="round" stroke-width="4"/>
      <path id="Path_38" data-name="Path 38" d="M489.39,252.61c-11.85,6.91-16.86-14.44-17-15,.17.15.35.28.52.42,11.83,9.52,17-3.07,17.55-4.67v-.16C493.64,251.81,489.39,252.61,489.39,252.61Z" transform="translate(-2.5)" fill="#ca576c" stroke="#ca576c" stroke-linecap="round" stroke-linejoin="round" stroke-width="4"/>
      <path id="Path_39" data-name="Path 39" d="M487.62,243c-2.61,2.45-6.95,2.13-9.95.17a16.08,16.08,0,0,1-4.74-5.13,32.445,32.445,0,0,1-1.8-3.22,94.842,94.842,0,0,1-7.35-19.55l-1.37-4.66,2.58.08a35.6,35.6,0,0,0,17.71-1.85,3.81,3.81,0,0,1,2.75-.34,3.59,3.59,0,0,1,1.64,2.28,60.679,60.679,0,0,1,3.39,22.59c0,.67-.07,1.33-.12,2C490.15,238.13,489.63,241.1,487.62,243Z" transform="translate(-2.5)" fill="#fff" stroke="#000" stroke-linecap="round" stroke-linejoin="round" stroke-width="4"/>
      <path id="Path_40" data-name="Path 40" d="M465.75,132.43a42.44,42.44,0,0,1,32.1,5.15" transform="translate(-2.5)" fill="none" stroke="#000" stroke-linecap="round" stroke-linejoin="round" stroke-width="5"/>
      <path id="Path_41" data-name="Path 41" d="M447.74,184.08l-38.93-4.38h-.34c-15.42-1.72-13.69-17.15-13.69-17.15.48-4.2,2-18.22,3.3-29.44s9.21-18.85,16.38-19.47h1.8c7.55-.09,20.45,2.57,34.66,4.17,13.36,1.5,14.44,17.59,14.48,21.87v1.05l-2.36,21C460.67,182.69,447.74,184.08,447.74,184.08Z" transform="translate(-2.5)" fill="#fff" stroke="#000" stroke-linecap="round" stroke-linejoin="round" stroke-width="5"/>
      <path id="Path_42" data-name="Path 42" d="M424,166.19s-5.31,7.09-4.26,11.78" transform="translate(-2.5)" fill="none" stroke="#000" stroke-linecap="round" stroke-linejoin="round" stroke-width="5"/>
      <path id="Path_43" data-name="Path 43" d="M433,167.12s-3.8,7.24-4.26,11.78" transform="translate(-2.5)" fill="none" stroke="#000" stroke-linecap="round" stroke-linejoin="round" stroke-width="5"/>
      <path id="Path_44" data-name="Path 44" d="M441.79,171.07s-3.49,4.22-4,8.76" transform="translate(-2.5)" fill="none" stroke="#000" stroke-linecap="round" stroke-linejoin="round" stroke-width="5"/>
      <path id="Path_45" data-name="Path 45" d="M416.14,127.54a13.49,13.49,0,0,0,7.8,12.8,1.54,1.54,0,0,0,2.05-.54,1.51,1.51,0,0,0-.54-2.05,10.54,10.54,0,0,1-6.31-10.21,1.51,1.51,0,0,0-1.5-1.5A1.53,1.53,0,0,0,416.14,127.54Z" transform="translate(-2.5)"/>
      <path id="Path_46" data-name="Path 46" d="M424.7,124a10.59,10.59,0,0,0,6.54,11.53,1.49,1.49,0,0,0,1.84-1,1.54,1.54,0,0,0-1.05-1.85c-.41-.16.26.13-.14-.06l-.24-.12c-.22-.11-.43-.23-.64-.36l-.56-.38c-.13-.1.14.12-.06-.06l-.31-.27a9.506,9.506,0,0,1-.92-1c-.18-.21,0,.07-.06-.07a1.694,1.694,0,0,0-.19-.28,6.644,6.644,0,0,1-.39-.63c-.11-.2-.22-.4-.32-.6s-.09-.2-.14-.31c.12.26,0,0,0-.08a8.111,8.111,0,0,1-.39-1.36.646.646,0,0,0-.06-.33c-.06-.11,0,.22,0-.07a2.728,2.728,0,0,0-.05-.67,3.658,3.658,0,0,1,0-.74v-.47a1.5,1.5,0,1,0-2.89-.8Z" transform="translate(-2.5)"/>
      <path id="Path_47" data-name="Path 47" d="M434.33,123.2a13.55,13.55,0,0,0,0,6,6,6,0,0,0,3.5,4,1.51,1.51,0,0,0,1.85-1,1.54,1.54,0,0,0-1.05-1.84c.36.15-.1-.07-.16-.11s-.44-.35-.17-.1l-.34-.32c-.05-.06-.34-.46-.13-.15a7.609,7.609,0,0,1-.48-.82c-.07-.16-.06-.15,0,0a.652.652,0,0,0-.08-.22l-.12-.4-.09-.41h0a1.528,1.528,0,0,1,0-.3,8.425,8.425,0,0,1,0-1.23,16.079,16.079,0,0,1,.25-2.19,1.5,1.5,0,1,0-2.89-.8Z" transform="translate(-2.5)"/>
      <path id="Path_48" data-name="Path 48" d="M452,146.81c-.38,7.19-7.5,13.18-14.66,12.44s-13-7.5-13.33-14.69a9.83,9.83,0,0,1,1.75-6.57,10.33,10.33,0,0,1,3.44-2.63S453.1,126.2,452,146.81Z" transform="translate(-2.5)" fill="none" stroke="#000" stroke-linecap="round" stroke-linejoin="round" stroke-width="4"/>
      <path id="Path_49" data-name="Path 49" d="M438.66,153.36s-10.53-10.54,0-12.29,14.43,6.34,10.72,11.08S438.66,153.36,438.66,153.36Z" transform="translate(-2.5)"/>
    </g>
  </g>
</svg>
