<svg xmlns="http://www.w3.org/2000/svg" width="134.462" height="175.83" viewBox="0 0 134.462 175.83">
  <g id="Layer_1" data-name="Layer 1" transform="translate(0.539 0.513)">
    <g id="Group_554" data-name="Group 554">
      <g id="Group_553" data-name="Group 553">
        <g id="Group_552" data-name="Group 552">
          <g id="Group_551" data-name="Group 551">
            <g id="Group_550" data-name="Group 550">
              <g id="Group_549" data-name="Group 549">
                <path id="Path_54674" data-name="Path 54674" d="M237.525,92.789l-.225.1-.126.054q-1.2-.111-2.4-.166-2.237-.1-4.471-.014l-.474.014-.491.021-.379.019-.384.017-1.012.055-.322.024-.325.026c-.216.021-.431.036-.642.05s-.41.038-.6.038c-.256.026-.507.045-.758.071l-.531.052-.275.028-.251.024-.3.033-.2.021-.493.052-.126.014h-.026a.5.5,0,0,1-.1,0,2.149,2.149,0,0,0-.251.024c-.8.1-1.581.2-2.351.306a1.987,1.987,0,0,0-.265.036l-.13.019-.128.017-.3.045q-.711.1-1.382.209l-.528.078c-.711.114-1.393.237-2.055.339l-.493.092h0c-.3.047-.6.1-.889.159l-.3.057-.457.081-1.109.211q-.109.017-.213.043h0l-.2.04-.171.036-.187.036-.273.05h0l-.261.054-.306.066h-.033c-.166.04-.358.071-.524.107h-.028l-.092.021-.149.031-.121.028-.076.014-.256.05c-.922.2-1.675.377-2.223.5l-.315.081-.315.073h-.052l-.057.014h-.059l-.04.014H206a.281.281,0,0,0-.057,0,.168.168,0,0,0-.045,0v.062h0a84.58,84.58,0,0,0-.306,13.834,1.028,1.028,0,0,0,.014.211c0,.13.017.254.026.37v.019a1.273,1.273,0,0,0,.019.268c.019.088,0,.147.017.211s0,.171.014.256a.47.47,0,0,0,0,.145,1.578,1.578,0,0,0,.021.3l-3.514-.178-4.483-.237h0s-2.844-.782-3.46,4.528,6.479,5.033,6.479,5.033l.337,22.886h0v.028c.047.218.1.424.163.635h0l24.836.346h0v-.14a1.3,1.3,0,0,1,.021-.18c.017-.14.026-.237.031-.27a.147.147,0,0,0,0-.021l.178-.036.142-.024.436-8.083c8.294,1.052,10.54-4.789,12.23-12.235C240.606,117.138,237.762,94.668,237.525,92.789ZM218.39,107.68c-2.133-.109-3.791-1.107-3.73-2.23s1.825-1.95,3.95-1.841,3.791,1.114,3.742,2.232-1.834,1.945-3.965,1.834Zm14.9.749c-1.855-.095-3.318-1.083-3.254-2.206s1.618-1.955,3.469-1.86,3.318,1.088,3.254,2.211S235.155,108.533,233.291,108.429Z" transform="translate(-148.807 -71.347)" fill="#fff" stroke="#000" stroke-linecap="round" stroke-linejoin="round" stroke-width="1"/>
                <path id="Path_54712" data-name="Path 54712" d="M84.436,445.26l91.626,4.678-2.448,45.69L82,490.933Z" transform="translate(-63.187 -340.344)" fill="#004f4f" stroke="#707070" stroke-width="1"/>
                <path id="Path_54729" data-name="Path 54729" d="M188.414,678.251H94.947q-.052-3.362-.019-6.248v-.311c0-.3,0-.585.014-.877l5.391-.692,19.261-2.462,23.782-3.045h0l4.569-.581,3.348-.431,10.265-1.312.135-.017L187.322,659s.192,2.327.453,6.635a.293.293,0,0,1,0,.064C187.974,668.86,188.2,673.1,188.414,678.251Z" transform="translate(-73.042 -503.434)" stroke="#707070" stroke-width="1"/>
                <path id="Path_54676" data-name="Path 54676" d="M244.242,23.956c-.012-.081-.017-.126-.017-.126A109.344,109.344,0,0,0,212.8,27.463h0a.392.392,0,0,0-.085.026l-.062.019-.054.012h-.045c-1.052,3.82-.393,13.109-.225,15.235a.406.406,0,0,0,0,.142c.012.194.021.3.021.3l-8.01-.41s-.841-2.552-1.313-17.635,14.218-13.706,20-13.419,17.062-.379,15.983-4.5.564-4.363.564-4.363c4.915-1.73,5.656,3.358,5.761,5.581a3.526,3.526,0,0,1,4.408-3.491c3.718.408,2.268,4.519.979,7.073a3.46,3.46,0,0,1,.377-.37,2.062,2.062,0,0,1,3.318,1.012C255.906,17.828,246.233,22.956,244.242,23.956Z" transform="translate(-155.524 -2.513)" fill="#ca576c" stroke="#000" stroke-linecap="round" stroke-linejoin="round" stroke-width="1"/>
                <path id="Path_54677" data-name="Path 54677" d="M275.5,92.407l-.351.159a52.8,52.8,0,0,0-6.872-.18c-.32,0-.64.019-.969.033-.251.017-.512.026-.763.036l-1.012.055-1.294.1c-.2,0-.4.033-.6.05-.948.088-1.884.19-2.808.289-.168.021-.329.036-.509.057-.8.1-1.583.194-2.351.3-.178.021-.358.05-.521.071-.569.081-1.13.164-1.675.237l-.538.085q-1.064.166-2.057.341l-.491.085c-.408.069-.8.145-1.185.216l-.462.088c-.384.071-.754.14-1.109.211-.147.024-.287.052-.424.083l-.635.123c-.2.04-.377.078-.562.121s-.4.076-.588.118c-.123.031-.237.054-.36.078l-.327.073c-.924.2-1.675.374-2.223.5l-.318.081c-.128.026-.237.054-.32.073l-.2.05h0c.028,0,.054-.021.085-.026h0a109.266,109.266,0,0,1,31.419-3.637Z" transform="translate(-186.783 -70.965)" fill="none" stroke="#000" stroke-linecap="round" stroke-linejoin="round" stroke-width="1"/>
                <path id="Path_54678" data-name="Path 54678" d="M329.318,140.52s6.107,11.919,4.04,14.633c0,0-2.057,2.405-5.4-1.218" transform="translate(-250.863 -107.817)" fill="none" stroke="#000" stroke-linecap="round" stroke-linejoin="round" stroke-width="1"/>
                <path id="Path_54679" data-name="Path 54679" d="M309,221.33s2.844,7.047,7.91,2.287" transform="translate(-236.396 -169.478)" fill="none" stroke="#000" stroke-linecap="round" stroke-linejoin="round" stroke-width="1"/>
                <path id="Path_54680" data-name="Path 54680" d="M354.977,145.917a1.538,1.538,0,0,1-1.7,1.337,1.422,1.422,0,1,1,1.7-1.337Z" transform="translate(-269.308 -110.806)"/>
                <path id="Path_54681" data-name="Path 54681" d="M289.519,143.334a1.737,1.737,0,1,1-1.642-1.571,1.611,1.611,0,0,1,1.642,1.571Z" transform="translate(-218.886 -108.764)"/>
                <path id="Path_54682" data-name="Path 54682" d="M274.57,121.317a73.475,73.475,0,0,1,9.479-2.967" transform="translate(-210.124 -90.901)" fill="none" stroke="#000" stroke-linecap="round" stroke-linejoin="round" stroke-width="1"/>
                <path id="Path_54683" data-name="Path 54683" d="M344.43,117.23a14.729,14.729,0,0,1,7.244,2.566" transform="translate(-263.43 -90.046)" fill="none" stroke="#000" stroke-linecap="round" stroke-linejoin="round" stroke-width="1"/>
                <line id="Line_43" data-name="Line 43" x2="0.187" y2="14.441" transform="translate(69.526 109.267)" fill="none" stroke="#fff" stroke-linecap="round" stroke-linejoin="round" stroke-width="1"/>
                <path id="Path_54686" data-name="Path 54686" d="M324.4,517.11s17.993-12.651,24.076-6.294c0,0,1.294,1.313-1.659,1.336s-6.3-.206-8.974,1.031c0,0,11.891-2.642,12.429,1.092,0,0,1.367,1.623-7.507,1.671a14.757,14.757,0,0,0-3.754.834s12.593-2.476,13.055.948-6.4.777-11.576,2.568c0,0,10.237-1.993,10.789,1.635a1.244,1.244,0,0,1-.711,1.282,8.273,8.273,0,0,1-3,.659c-4.211.294-13.033,5.671-13.033,5.671Z" transform="translate(-248.146 -389.002)" fill="#fff" stroke="#000" stroke-linecap="round" stroke-linejoin="round" stroke-width="1"/>
                <path id="Path_54687" data-name="Path 54687" d="M321.261,365h-.121" transform="translate(-245.659 -279.103)" fill="none" stroke="#000" stroke-linecap="round" stroke-linejoin="round" stroke-width="1"/>
                <path id="Path_54688" data-name="Path 54688" d="M239.926,363.84a2.851,2.851,0,0,1-.256.237" transform="translate(-183.495 -278.218)" fill="none" stroke="#000" stroke-linecap="round" stroke-linejoin="round" stroke-width="1"/>
                <path id="Path_54689" data-name="Path 54689" d="M339.65,483.532a157.385,157.385,0,0,1,18.31,0" transform="translate(-259.783 -369.343)" fill="none" stroke="#fff" stroke-linecap="round" stroke-linejoin="round" stroke-width="1"/>
                <path id="Path_54730" data-name="Path 54730" d="M135.139,642.63v.014l-.021,1.541-.1,7.941-.175,13.635H84.191c-.147-3.149-.251-5.334-.251-5.334l2.607-.915.621-.216h0l4.784-1.659,38.23-13.289,1.033-.36,3.874-1.344Z" transform="translate(-64.667 -490.944)" fill="#004f4f" stroke="#000" stroke-linecap="round" stroke-linejoin="round" stroke-width="1"/>
                <path id="Path_54731" data-name="Path 54731" d="M344.45,664.753H298.68l.185-13.635.111-7.941.019-1.535v-.332s1.77.863,4.555,2.1c3.46,1.536,8.488,3.64,13.628,5.365,1.9.637,3.815,1.225,5.67,1.711.256.069.512.13.768.194l.431.106c.126.036.251.059.377.09l.237.054c.237.062.457.107.687.156h0a60.971,60.971,0,0,0,17.893,1.033l.63-.062.126-.014h0Z" transform="translate(-228.521 -489.936)" fill="#004f4f" stroke="#000" stroke-linecap="round" stroke-linejoin="round" stroke-width="1"/>
                <path id="Path_54692" data-name="Path 54692" d="M135.562,359.462c-6-59.175-51.107-52.45-55.372-51.668l-.142.024-.178.036a.145.145,0,0,1,0,.021c0,.059-.019.237-.059.517v.073c0,.024-.012.107-.019.164-.012.114-.026.237-.043.379s-.033.289-.052.448c-.026.237-.057.488-.09.765a.469.469,0,0,0,0,.062q-.045.4-.107.86v.081c-.18,1.422-.419,3.2-.723,5.23l-.021.142c-.038.273-.081.547-.123.829a1.177,1.177,0,0,1-.024.152c-.043.28-.088.564-.133.851a1.326,1.326,0,0,1-.024.161c-.045.287-.092.578-.14.872l-.028.171c-.052.322-.1.647-.159.974h0a121.8,121.8,0,0,1-2.661,13.126c-.1.4-.209.8-.318,1.2-.095.334-.187.671-.28,1.009-.017.064-.036.128-.054.19-.095.325-.185.649-.28.972a.374.374,0,0,1-.033.111c-.092.325-.187.647-.287.967q-.182.6-.37,1.185c-.109.351-.22.711-.336,1.05q-.092.3-.192.59-.185.566-.377,1.128c-.249.652-.5,1.263-.761,1.846h0c-.047-.064-.559-.744-1.382-1.95h0A122.641,122.641,0,0,1,61.6,325.972q-1.327-2.787-2.512-5.637h0c-.206-.5-.408-1-.607-1.5q-.443-1.123-.86-2.258-.55-1.514-1.052-3.047-.626-1.915-1.161-3.86c-.071-.261-.142-.519-.211-.78s-.14-.519-.206-.78c-.064-.211-.116-.417-.164-.635v-.028h0c-.05-.18-.1-.386-.145-.583,0,0-41.393-2.922-50.374,44.619-5.455,28.64,2.453,48.277,20.192,51.491h0c.2.031.408.071.614.095h0c6.709,1.064,14.773-.18,24.033-4.121h0a104.812,104.812,0,0,0,9.754-4.91,105.15,105.15,0,0,0,9.2-5.908l.019-.014c.175-.126.341-.237.533-.372l.014-.014h0q1.382-.972,2.789-2.026c.514.237,1.043.474,1.569.711h.052c1.244.562,2.552,1.147,3.91,1.735H77c4.31,1.865,9.145,3.791,14.13,5.41h0c1.64.533,3.3,1.028,4.96,1.476a.3.3,0,0,1,.069.019l.768.2c.256.069.512.13.768.194l.431.107.374.09.237.054c.237.059.457.1.687.154h0l.18.04a46.8,46.8,0,0,0,17.711,1.059h0c.206-.036.417-.076.628-.126l.081-.019a.139.139,0,0,0,.045,0h0C129.932,394.467,138.11,384.564,135.562,359.462Zm-63.242-1.2c-3.225-1.706-5.294-2.929-5.294-2.929L54.269,377.578l.372-.917-3.2-1.339h-.026l-2.737-1.152s-.111.071-.318.185h0c-2.808,1.63-22.81,12.592-21.22-6,1.72-19.986,5.126-23.576,5.126-23.576l39.872-.73h0l27.962-.512h0l4.5-.085c.054.111.109.213.156.325h0c7.938,15.96,6.474,22.6.948,24.353h0a12.167,12.167,0,0,1-3.68.5c-6.223,0-14.872-3.27-22.014-6.569h0C77.11,360.725,74.458,359.391,72.321,358.258Z" transform="translate(-2.61 -234.719)" fill="#004f4f" stroke="#000" stroke-linecap="round" stroke-linejoin="round" stroke-width="1"/>
                <path id="Path_54693" data-name="Path 54693" d="M259.8,325.49a120.739,120.739,0,0,1-5.2,21.538l-2.147-.114a122.9,122.9,0,0,1-11.711-21.69,46.889,46.889,0,0,0,9.355-12S254.565,325.372,259.8,325.49Z" transform="translate(-184.319 -239.593)" fill="#fff" stroke="#fff" stroke-linecap="round" stroke-linejoin="round" stroke-width="1"/>
                <path id="Path_54694" data-name="Path 54694" d="M349.43,61.141A9.327,9.327,0,0,0,356.4,56.8" transform="translate(-267.245 -43.936)" fill="none" stroke="#000" stroke-linecap="round" stroke-linejoin="round" stroke-width="1"/>
                <path id="Path_54695" data-name="Path 54695" d="M334.83,58.919s4.827-.382,5.628-3.159" transform="translate(-256.105 -43.142)" fill="none" stroke="#000" stroke-linecap="round" stroke-linejoin="round" stroke-width="1"/>
                <path id="Path_54713" data-name="Path 54713" d="M319.216,667.7a1.9,1.9,0,0,1,1.82,1.969h0a1.924,1.924,0,1,1-3.844-.194h0a1.9,1.9,0,0,1,2.024-1.775Z" transform="translate(-242.645 -510.066)" fill="none" stroke="#fff" stroke-linecap="round" stroke-width="1"/>
                <path id="Path_54714" data-name="Path 54714" d="M318.083,713.989a1.9,1.9,0,0,1,1.822,1.971h0a1.924,1.924,0,0,1-3.844-.194h0A1.91,1.91,0,0,1,318.083,713.989Z" transform="translate(-241.782 -545.39)" fill="none" stroke="#fff" stroke-linecap="round" stroke-width="1"/>
                <path id="Path_54696" data-name="Path 54696" d="M168.633,526.33s-19.941-9.464-24.827-2.187c0,0-1.045,1.514,1.872,1.036s6.178-1.239,9.021-.474c0,0-12.175-.623-12.057,3.147,0,0-1.062,1.829,7.69.4a14.833,14.833,0,0,1,3.844.2s-12.832-.348-12.69,3.109,6.443-.3,11.848.607c0,0-10.427-.258-10.348,3.4a1.247,1.247,0,0,0,.922,1.145,8.277,8.277,0,0,0,3.062.149c4.2-.412,13.829,3.419,13.829,3.419Z" transform="translate(-108.576 -398.435)" fill="#fff" stroke="#000" stroke-linecap="round" stroke-linejoin="round" stroke-width="1"/>
                <path id="Path_54697" data-name="Path 54697" d="M248.319,312.608c-.18,1.645-.749,6.4-1.706,12.142-5.232-.114-9.682-12.273-9.682-12.273a46.93,46.93,0,0,1-9.353,12.007,90.291,90.291,0,0,1-4.1-12.225Z" transform="translate(-171.141 -238.86)" fill="#fff" stroke="#000" stroke-linecap="round" stroke-linejoin="round" stroke-width="1"/>
                <path id="Path_54698" data-name="Path 54698" d="M222.921,310.147h-.159l-.012-.656C222.809,309.711,222.857,309.929,222.921,310.147Z" transform="translate(-170.584 -236.747)" fill="none" stroke="#000" stroke-linecap="round" stroke-linejoin="round" stroke-width="1"/>
                <path id="Path_54701" data-name="Path 54701" d="M328.741,310.89l-.036.678h-.355c.05-.4.069-.614.069-.614A1.456,1.456,0,0,1,328.741,310.89Z" transform="translate(-251.16 -237.815)" fill="none" stroke="#000" stroke-linecap="round" stroke-linejoin="round" stroke-width="1"/>
                <path id="Path_54704" data-name="Path 54704" d="M275.5,92.407l-.351.159a52.8,52.8,0,0,0-6.872-.18c-.32,0-.64.019-.969.033-.251.017-.512.026-.763.036l-1.012.055-1.294.1c-.2,0-.4.033-.6.05-.948.088-1.884.19-2.808.289-.168.021-.329.036-.509.057-.8.1-1.583.194-2.351.3-.178.021-.358.05-.521.071-.569.081-1.13.164-1.675.237l-.538.085q-1.064.166-2.057.341l-.491.085c-.408.069-.8.145-1.185.216l-.462.088c-.384.071-.754.14-1.109.211-.147.024-.287.052-.424.083l-.635.123c-.2.04-.377.078-.562.121s-.4.076-.588.118c-.123.031-.237.054-.36.078l-.327.073c-.924.2-1.675.374-2.223.5l-.318.081c-.128.026-.237.054-.32.073l-.2.05h0c.028,0,.054-.021.085-.026h0a109.266,109.266,0,0,1,31.419-3.637Z" transform="translate(-186.783 -70.965)" fill="none" stroke="#000" stroke-linecap="round" stroke-linejoin="round" stroke-width="1"/>
                <path id="Path_54705" data-name="Path 54705" d="M273.49,179.48s1.557.86,1.517,1.64" transform="translate(-209.3 -137.545)" fill="none" stroke="#000" stroke-linecap="round" stroke-linejoin="round" stroke-width="1"/>
                <path id="Path_54706" data-name="Path 54706" d="M287.12,176.89a2.879,2.879,0,0,1,1.476,2.417" transform="translate(-219.7 -135.569)" fill="none" stroke="#000" stroke-linecap="round" stroke-linejoin="round" stroke-width="1"/>
                <path id="Path_54707" data-name="Path 54707" d="M361.28,177.39a2.879,2.879,0,0,1,1.476,2.417" transform="translate(-276.287 -135.95)" fill="none" stroke="#000" stroke-linecap="round" stroke-linejoin="round" stroke-width="1"/>
                <path id="Path_54708" data-name="Path 54708" d="M374.91,174.79a3.375,3.375,0,0,1,.673,2.37" transform="translate(-286.687 -133.966)" fill="none" stroke="#000" stroke-linecap="round" stroke-linejoin="round" stroke-width="1"/>
                <path id="Path_54709" data-name="Path 54709" d="M300.75,174.29s1.538,1.251,1.476,2.417" transform="translate(-230.101 -133.585)" fill="none" stroke="#000" stroke-linecap="round" stroke-linejoin="round" stroke-width="1"/>
                <path id="Path_54710" data-name="Path 54710" d="M211.79,188.56s3.846.2,4.673,2.746" transform="translate(-162.221 -144.473)" fill="none" stroke="#000" stroke-linecap="round" stroke-linejoin="round" stroke-width="1"/>
              </g>
            </g>
          </g>
        </g>
      </g>
    </g>
  </g>
</svg>
