<svg xmlns="http://www.w3.org/2000/svg" width="149.739" height="185.337" viewBox="0 0 149.739 185.337">
  <g id="Layer_1" data-name="Layer 1" transform="translate(0.502 0.505)">
    <path id="Path_54537" data-name="Path 54537" d="M244.666,77.742l-.064.19a12.182,12.182,0,0,0-.091-2.5c-.013-.086-.023-.178-.038-.269s-.028-.183-.043-.274h0c-.018-.091-.038-.183-.053-.279-.061-.284-.124-.582-.211-.881-.025-.1-.053-.2-.086-.3l-.1-.3c-.02-.071-.048-.14-.074-.211l-.124-.3a7.627,7.627,0,0,0-.322-.716.136.136,0,0,0-.02-.043c-.086-.165-.178-.333-.274-.493-1.488-2.494-4.472-4.515-10.413-3.495l-.038.038h0a.955.955,0,0,1-.1.124c-.048.058-.1.13-.168.208s-.135.163-.221.254h0c-.079.091-.165.193-.267.3s-.216.236-.323.361c-.335.358-.731.762-1.156,1.133-.076.058-.145.124-.216.188-1.044.9-2.24,1.641-3.23,1.478a2.339,2.339,0,0,1-.381-2.24l-.038.036a1.056,1.056,0,0,1-.117.109c-.287.274-.929.863-1.742,1.524l-.226.178c-.241.193-.508.394-.762.582l-.322.231c-.4.279-.823.549-1.237.78-.1.053-.193.107-.289.155a4.527,4.527,0,0,1-.419.2c-.086.043-.168.081-.254.114a2.531,2.531,0,0,1-.254.1,3.6,3.6,0,0,1-1.016.241,1.779,1.779,0,0,1-.963-.14,4.8,4.8,0,0,1-.124-1.956,5.522,5.522,0,0,1,.124-.63,21.45,21.45,0,0,1-3.266,3.022c-.081.058-.157.112-.239.16s-.17.114-.254.168a6.381,6.381,0,0,1-.93.483,2.572,2.572,0,0,1-1.415.254,13.791,13.791,0,0,1,0-4.089q-1.128,1.724-2.143,3.517c-.2.361-.4.721-.587,1.084s-.391.762-.574,1.125c-.028.043-.048.091-.071.135q-.282.571-.546,1.143a52.247,52.247,0,0,0-3.528,10.11c-.1.434-.2.869-.295,1.305s-.188.876-.269,1.316a.026.026,0,0,0,0,.018,4.165,4.165,0,0,0-5.717.762s-2.651,5.079,2.032,7.809,6.857,3.959,7.169,6.694.312,14.613.312,14.613.155.221.477.6l.071.069a14.658,14.658,0,0,0,1.234,1.247l.038.033.023.015a18.7,18.7,0,0,0,2.794,2.07h.015l.033.015a20.637,20.637,0,0,0,3.482,1.7l.028.015c.068.028.14.056.208.076.254.1.508.183.775.269l.081.025c.254.086.526.168.79.239.317.089.635.17.95.254s.673.155,1.016.221c.929.175,1.872.3,2.811.381h.411l2.032.043h.6l.467.013.65-.066c.549-.03,1.064-.086,1.554-.155l.122-.018.076-.015a16.481,16.481,0,0,0,2.263-.488h.015a10.4,10.4,0,0,0,1.762-.688l.066-.028.03-.02A6.783,6.783,0,0,0,236.511,124l.015-.018.015-.025a5.741,5.741,0,0,0,.615-1.661v-.038l.053-.4.058-.4.015-.508v-.158a4.162,4.162,0,0,0-.074-.683v-4.19a6.5,6.5,0,0,1,2.385-5.013,15.65,15.65,0,0,0,5.079-6C245.509,102.109,244.8,81.386,244.666,77.742ZM218.642,92.268a1.742,1.742,0,0,1-.231-.015.3.3,0,0,1-.066,0,.15.15,0,0,1-.053,0h0a.928.928,0,0,1-.168-.03.83.83,0,0,1-.165-.053.229.229,0,0,1-.071-.023.586.586,0,0,1-.1-.038h0a1.048,1.048,0,0,1-.16-.063c-.053-.028-.109-.053-.163-.086h0c-.015,0-.03-.018-.048-.023l-.107-.064h0a1.649,1.649,0,0,1-.15-.1l-.152-.109h0l-.031-.02a2.547,2.547,0,0,1-.254-.206,3.031,3.031,0,0,1-.254-.254l-.13-.13c-.081-.086-.163-.17-.231-.254a1.417,1.417,0,0,1-.107-.124,1.231,1.231,0,0,0-.1-.124h0l-.1-.117h0a1.308,1.308,0,0,0-.091-.109h0a1.188,1.188,0,0,0-.079-.1h0a.392.392,0,0,0-.043-.048c-.013-.023-.028-.038-.038-.056h0a.8.8,0,0,0-.071-.091h0s-.036-.053-.058-.081h0l-.053-.076h0a.583.583,0,0,0-.048-.058h0l-.038-.053v-.013a.232.232,0,0,0-.033-.038h0a.051.051,0,0,0-.02-.025h0V89.67h0c.084-.124.17-.254.254-.371h0a4.28,4.28,0,0,1,.279-.371c.1-.117.193-.254.292-.366l.3-.345c.1-.112.206-.226.322-.333h0a2.1,2.1,0,0,1,.206-.193,2.23,2.23,0,0,1,.175-.173l.081-.076a.938.938,0,0,1,.107-.1,1.291,1.291,0,0,1,.109-.091h0c.112-.1.231-.2.348-.295h0l.038-.028.038-.025a.64.64,0,0,1,.112-.081.025.025,0,0,0,.018,0,.977.977,0,0,1,.107-.076l.119-.076c.058-.036.127-.074.2-.112a2.289,2.289,0,0,1,.226-.107,1.543,1.543,0,0,1,1.559.069h0l.361.211.03.015h0c.061.038.119.081.178.124h0a1.783,1.783,0,0,1,.168.135l.076.071a.436.436,0,0,1,.084.084c.056.056.109.109.158.162h0c.048.053.091.107.135.163h0c.043.058.081.112.119.173h0l.015.02a.694.694,0,0,1,.066.1.029.029,0,0,1,0,.018.063.063,0,0,1,.02.038,3.091,3.091,0,0,1,.206.4.025.025,0,0,1,0,.018c.041.1.079.216.114.325.018.056.033.112.048.168.028.117.053.236.074.361,0,.076.023.15.028.226a.646.646,0,0,1-.048.2,3.784,3.784,0,0,1-.135.4c-.02.056-.041.112-.066.168a2.09,2.09,0,0,1-.107.213.084.084,0,0,1-.033.066c-.058.1-.117.2-.183.295a3.338,3.338,0,0,1-.279.376c-.053.058-.1.119-.155.173a1.137,1.137,0,0,1-.168.165c-.058.056-.117.1-.175.152a.99.99,0,0,1-.19.145,2.248,2.248,0,0,1-.2.135,2.061,2.061,0,0,1-.2.122v-.117a.028.028,0,0,1-.023,0l-.02.015-.028.018-.031.015a.163.163,0,0,0-.038.028l-.028.015-.053.02h0a.932.932,0,0,0-.114.043,2.585,2.585,0,0,1-.7.218c-.081,0-.16.036-.254.041A1.314,1.314,0,0,1,218.642,92.268Zm10.908,7.294a8,8,0,0,0,4.063,0s.622,6.694-1.872,6.694-2.2-6.694-2.2-6.694Zm13.714-11.555h0a3.1,3.1,0,0,1-.254.508,3.94,3.94,0,0,1-.5.665,2.5,2.5,0,0,1-.274.269.252.252,0,0,1-.053.048c-.079.071-.165.135-.254.2a.318.318,0,0,1-.043.03,2.871,2.871,0,0,1-.462.279,3.582,3.582,0,0,1-1.044.361c-.074.015-.15.033-.231.043l-.328.028h0a3.688,3.688,0,0,1-.9-.071,1.389,1.389,0,0,1-.236-.053,4.3,4.3,0,0,1-.462-.155c-.066-.028-.13-.053-.193-.086a3.913,3.913,0,0,1-.475-.254,2.613,2.613,0,0,1-.254-.178,2.69,2.69,0,0,1-.274-.236q-.1-.094-.2-.2a.327.327,0,0,1-.038-.043q-.11-.122-.208-.254c-.071-.091-.135-.188-.2-.284a8,8,0,0,1,2.5-3.159c.018,0,.043-.038.091-.071l.081-.048a2.893,2.893,0,0,1,1.468-.508,1.349,1.349,0,0,1,.762.226h0a.117.117,0,0,1,.018.066,1.208,1.208,0,0,1,.254.117.031.031,0,0,1,.033.018,2.657,2.657,0,0,1,.508.358,2.312,2.312,0,0,1,.338.376l.114.163c.069.112.14.226.2.338l.081.173a2.359,2.359,0,0,1,.15.361.864.864,0,0,1,.043.13,4.231,4.231,0,0,1,.2.853Z" transform="translate(-148.676 -51.071)" fill="#fff" stroke="#000" stroke-linecap="round" stroke-linejoin="round" stroke-width="1"/>
    <path id="Path_54538" data-name="Path 54538" d="M323.046,200.137c-2.491,0-2.182-6.7-2.182-6.7a8.01,8.01,0,0,0,4.063,0S325.539,200.137,323.046,200.137Z" transform="translate(-240.003 -142.205)" fill="#fff" stroke="#000" stroke-linecap="round" stroke-linejoin="round" stroke-width="1"/>
    <path id="Path_54539" data-name="Path 54539" d="M354.76,138.566A3.9,3.9,0,0,1,351.329,141a3.832,3.832,0,0,1-3.428-1.826,8,8,0,0,1,2.5-3.167h0c.127-.091,1.443-1.051,2.405-.4a.384.384,0,0,1,.015.074C354.528,136.27,354.76,138.566,354.76,138.566Z" transform="translate(-260.182 -99.738)" fill="#fff" stroke="#000" stroke-linecap="round" stroke-linejoin="round" stroke-width="1"/>
    <path id="Path_54540" data-name="Path 54540" d="M271.3,143.546a3.957,3.957,0,0,1-1.945,2.616l-.02.013c-.023.015-.066.036-.119.071a1.724,1.724,0,0,1-.206.089,2.714,2.714,0,0,1-1.146.267c-1.869,0-3.428-2.745-3.428-2.745a11.937,11.937,0,0,1,2.494-2.733l.036-.028c.228-.18,1.465-1.1,2.382-.419h0A3.5,3.5,0,0,1,271.3,143.546Z" transform="translate(-197.918 -103.425)" fill="#fff" stroke="#000" stroke-linecap="round" stroke-linejoin="round" stroke-width="1"/>
    <path id="Path_54732" data-name="Path 54732" d="M243.512,665.935H152.9c-.038-2.08-.071-3.246-.076-3.38h0l5.971-.414h0l42.557-2.928,5.587-.381,1.2-.081,17.589-1.209h.117l.668-.048.376-.023.295-.021h.1l.231.03h.061l2.326.285h.043q.587.274,1.181.531c.216.091.424.183.64.269a67.085,67.085,0,0,0,8.1,2.854c1.778.574,3.172.988,3.5,1.09h0l.069.023c.023.655.038,1.326.053,2.014v.226C243.5,665.161,243.507,665.544,243.512,665.935Z" transform="translate(-114.645 -481.603)" fill="none" stroke="#000" stroke-miterlimit="10" stroke-width="1"/>
    <path id="Path_54552" data-name="Path 54552" d="M323.046,200.137c-2.491,0-2.182-6.7-2.182-6.7a8.01,8.01,0,0,0,4.063,0S325.539,200.137,323.046,200.137Z" transform="translate(-240.003 -142.205)" fill="none" stroke="#000" stroke-linecap="round" stroke-linejoin="round" stroke-width="1"/>
    <path id="Path_54553" data-name="Path 54553" d="M354.76,139.012a3.9,3.9,0,0,1-3.431,2.435,3.832,3.832,0,0,1-3.428-1.826,8,8,0,0,1,2.5-3.167h0a2.885,2.885,0,0,1,1.544-.475,2.485,2.485,0,0,1,.874.145C354.528,136.716,354.76,139.012,354.76,139.012Z" transform="translate(-260.182 -100.176)" fill="none" stroke="#000" stroke-linecap="round" stroke-linejoin="round" stroke-width="1"/>
    <path id="Path_54554" data-name="Path 54554" d="M271.3,143.755a3.951,3.951,0,0,1-1.945,2.608l-.02.015-.119.071-.206.086a2.677,2.677,0,0,1-1.146.254c-1.869,0-3.428-2.745-3.428-2.745a11.919,11.919,0,0,1,2.494-2.73l.036-.028a2.773,2.773,0,0,1,1.524-.587,2.244,2.244,0,0,1,.863.165h0A3.5,3.5,0,0,1,271.3,143.755Z" transform="translate(-197.918 -103.624)" fill="none" stroke="#000" stroke-linecap="round" stroke-linejoin="round" stroke-width="1"/>
    <path id="Path_54555" data-name="Path 54555" d="M277.431,147.576h-.018l-.092.056-.157.066a1.735,1.735,0,0,1-1.585-.129,18.8,18.8,0,0,0,0-3.853l.028-.023c.175-.14,1.12-.841,1.824-.32h0A8.317,8.317,0,0,1,277.431,147.576Z" transform="translate(-206.229 -105.458)" stroke="#707070" stroke-width="1"/>
    <path id="Path_54556" data-name="Path 54556" d="M360.889,141.93a1.928,1.928,0,0,1-1.849,0,15.95,15.95,0,0,0,0-3.515h0c.1-.074,1.1-.808,1.844-.31a.361.361,0,0,1,0,.053A6.822,6.822,0,0,1,360.889,141.93Z" transform="translate(-268.493 -101.62)" stroke="#707070" stroke-width="1"/>
    <path id="Path_54557" data-name="Path 54557" d="M263.24,112.927s2.733-3.347,5.465-3.347,3.416,1.524,3.416,1.524" transform="translate(-197.022 -82.387)" fill="none" stroke="#000" stroke-linecap="round" stroke-linejoin="round" stroke-width="1"/>
    <path id="Path_54558" data-name="Path 54558" d="M343,110.916a3.3,3.3,0,0,1,3.428-1.524,5.409,5.409,0,0,1,3.741,2.435" transform="translate(-256.526 -82.204)" fill="none" stroke="#000" stroke-linecap="round" stroke-linejoin="round" stroke-width="1"/>
    <path id="Path_54559" data-name="Path 54559" d="M249.487,17.067a78.078,78.078,0,0,1-2.611,12.094h0l-.066.208s1.143-12.31-11.84-10.07c0,0-3.428,4.472-5.717,4.1a2.331,2.331,0,0,1-.381-2.237s-5.333,5.221-7.634,4.1a4.894,4.894,0,0,1,0-2.6c-.221.254-3.876,4.444-6.1,4.081a13.5,13.5,0,0,1,0-4.1,53.529,53.529,0,0,0-8.02,19.761,4.17,4.17,0,0,0-5.727.762s-.384-32.832,13.358-37.3c0,0,2.679,0,2.679,3.352,0,0,4.571-7.086,9.168-6.71,0,0,2.286.381,1.9,3.357,0,0,5.333-4.846,8.4-2.237,0,0,1.143.744,0,3.352.208-.145,4.637-3.3,7.251-1.115a3.048,3.048,0,0,1,.952,4.206,2.537,2.537,0,0,1-.19.254S250.635,9.232,249.487,17.067Z" transform="translate(-150.884 -2.503)" stroke="#000" stroke-linecap="round" stroke-linejoin="round" stroke-width="1"/>
    <path id="Path_54560" data-name="Path 54560" d="M217.81,80.837a9.327,9.327,0,0,1,1.524-3.357" transform="translate(-163.13 -58.439)" fill="none" stroke="#fff" stroke-linecap="round" stroke-linejoin="round" stroke-width="1"/>
    <path id="Path_54561" data-name="Path 54561" d="M226.84,83.031a10.191,10.191,0,0,1,1.524-2.611" transform="translate(-169.867 -60.632)" fill="none" stroke="#fff" stroke-linecap="round" stroke-linejoin="round" stroke-width="1"/>
    <path id="Path_54562" data-name="Path 54562" d="M275,31.288a6.455,6.455,0,0,1,1.9-3.728" transform="translate(-205.796 -21.196)" fill="none" stroke="#fff" stroke-linecap="round" stroke-linejoin="round" stroke-width="1"/>
    <path id="Path_54563" data-name="Path 54563" d="M287,33.855s.762-2.611,2.286-3.355" transform="translate(-214.748 -23.39)" fill="none" stroke="#fff" stroke-linecap="round" stroke-linejoin="round" stroke-width="1"/>
    <path id="Path_54564" data-name="Path 54564" d="M303.53,36.041a6.681,6.681,0,0,1,1.9-2.611" transform="translate(-227.08 -25.576)" fill="none" stroke="#fff" stroke-linecap="round" stroke-linejoin="round" stroke-width="1"/>
    <path id="Path_54565" data-name="Path 54565" d="M325.21,146.9s3.429,1.524,4.673,0c0,0,1.247-.61-.932-3.652a17.9,17.9,0,0,1-2.494-7.913" transform="translate(-243.254 -99.623)" fill="none" stroke="#000" stroke-linecap="round" stroke-linejoin="round" stroke-width="1"/>
    <path id="Path_54566" data-name="Path 54566" d="M237.2,277.32l-.508.058" transform="translate(-177.215 -203.727)" fill="none" stroke="#000" stroke-miterlimit="10" stroke-width="1"/>
    <path id="Path_54570" data-name="Path 54570" d="M184.39,281.556c1.694-.671,3.3-1.214,4.764-1.661,1.656-.508,3.144-.889,4.409-1.171,1.315-.3,2.4-.493,3.18-.615" transform="translate(-138.197 -204.23)" fill="none" stroke="#000" stroke-miterlimit="10" stroke-width="1"/>
    <path id="Path_54575" data-name="Path 54575" d="M447.426,657.11l-1.76.089H445.6" transform="translate(-333.07 -481.349)" fill="none" stroke="#000" stroke-miterlimit="10" stroke-width="1"/>
    <path id="Path_54576" data-name="Path 54576" d="M351.245,277.64c0,.16,0,.325-.015.508" transform="translate(-262.666 -203.951)" fill="none" stroke="#000" stroke-linecap="round" stroke-linejoin="round" stroke-width="1"/>
    <path id="Path_54577" data-name="Path 54577" d="M380.428,105.933h0c0-.345-.018-.533-.018-.533" transform="translate(-284.435 -79.268)" fill="none" stroke="#000" stroke-linecap="round" stroke-linejoin="round" stroke-width="1"/>
    <path id="Path_54733" data-name="Path 54733" d="M243.076,665.308H152.19v-3.535h.145l.274-.023.323-.02.645-.043.533-.038.955-.064,3.246-.211h.018l42.539-2.794,3.446-.226,2.148-.14,1.2-.081,19.372-1.27h.051l1.488-.1h.015l2.456-.155,8.35,3.654h0l2.215.973a.028.028,0,0,1,.018,0l1.257.549v.129c.048.612.086,1.27.122,2.032a1.52,1.52,0,0,0,.013.241C243.043,664.539,243.06,664.917,243.076,665.308Z" transform="translate(-114.175 -480.976)" stroke="#000" stroke-miterlimit="10" stroke-width="1"/>
    <path id="Path_54734" data-name="Path 54734" d="M176.358,679.289c0-2.032-.023-3.37-.028-3.794v-.145" transform="translate(-132.184 -494.957)" fill="none" stroke="#ffac00" stroke-miterlimit="10" stroke-width="1"/>
    <path id="Path_54735" data-name="Path 54735" d="M199.215,675.35s0,1.445-.025,3.939" transform="translate(-149.239 -494.957)" fill="none" stroke="#ffac00" stroke-miterlimit="10" stroke-width="1"/>
    <path id="Path_54592" data-name="Path 54592" d="M272.329,570.88c-.066.1-.127.2-.19.31A18.349,18.349,0,0,0,269.852,581c.036,9.117-8.043,6.9-8.043,6.9s-4.787-1.382-11.195-7.911c-5.755-5.879-1.613-12.244,4.787-11.406a10.83,10.83,0,0,0,5.94-.693,22.149,22.149,0,0,0,4.528-2.956c.508.541,1.074,1.1,1.671,1.681v.015C268.936,567.97,270.548,569.408,272.329,570.88Z" transform="translate(-185.56 -412.579)" fill="#fdcc00" stroke="#707070" stroke-width="1"/>
    <path id="Path_54593" data-name="Path 54593" d="M335.766,526.57c-.19.175-.371.348-.546.521h.023l-3.078,3.418c-.919,1.016-1.872,2.08-2.73,3.048-1.717,1.9-3.078,3.431-3.078,3.431l-.015-.023a17.489,17.489,0,0,0-1.133,1.59c-1.778-1.473-3.4-2.911-4.787-4.254h0c-.6-.574-1.161-1.145-1.671-1.686.074-.056.14-.114.213-.18a39.493,39.493,0,0,0,4.1-3.987l3.078-3.419a41.549,41.549,0,0,0,2.794-3.429l.274.191,6.641,4.736A.56.56,0,0,0,335.766,526.57Z" transform="translate(-238.435 -380.253)" fill="#ffac00" stroke="#707070" stroke-width="1"/>
    <path id="Path_54594" data-name="Path 54594" d="M361.711,382.353a26.074,26.074,0,0,1-7.494-.549c-.734-.145-1.473-.32-2.235-.508a67.792,67.792,0,0,1-10.8-3.967l-.053-.02c-.449-.2-.909-.422-1.359-.637l-.274-.137-.127-.066c-.02-.015-.051-.02-.074-.036l-.081-.043c-.437-.2-.866-.411-1.3-.63a123.883,123.883,0,0,1-10.92-6.207.874.874,0,0,0-.081-.048,132.922,132.922,0,0,1-13.353-9.651c-1.778-1.473-3.4-2.913-4.787-4.257v-.015c-.6-.571-1.161-1.143-1.674-1.684a16.372,16.372,0,0,1-3.868-5.5h0a2.224,2.224,0,0,1-.081-1.041.705.705,0,0,1,.381-.33,2.032,2.032,0,0,1,1.714.338,11.154,11.154,0,0,1,2.182,1.671c-.368-.4-.747-.853-1.095-1.316h0a5.318,5.318,0,0,1-1.3-2.7.976.976,0,0,1,.29-.721c.571-.556,1.509-.218,2.476.434a12.859,12.859,0,0,1,1.4,1.112c-.221-.254-.445-.536-.645-.808h0a5.514,5.514,0,0,1-1.229-2.819h0a1.662,1.662,0,0,1,.508-1.255s.508-.658,2.776,1.316c.444.381.952.874,1.554,1.488-.31-.381-.627-.782-.917-1.206h0a4.48,4.48,0,0,1-1.1-2.992.052.052,0,0,1,0-.028,1.133,1.133,0,0,1,.482-.7.075.075,0,0,1,.058-.02.51.51,0,0,1,.3,0,31.5,31.5,0,0,1,6.288,4.046l.023.023.274.19c1.938,1.415,4.173,3.068,6.563,4.8,2.047,1.475,4.216,3,6.412,4.465l.046.028.03.02a70.33,70.33,0,0,0,13.643,7.472,19.8,19.8,0,0,0,3.891,1.039h.013a9.225,9.225,0,0,0,2.509.059,5.244,5.244,0,0,0,2.2-.737,4.828,4.828,0,0,0,1.714-1.856,7.975,7.975,0,0,0,.777-2.255v-.094c.043-.236.089-.483.119-.744,0,0,.058-.671.079-1.92v-1.719c-.015-.952-.051-2.1-.124-3.38-.046-.709-.1-1.46-.18-2.263l-.015-.145q-.132-1.524-.353-3.23c-.135-1.062-.3-2.189-.508-3.365l-.023-.145c-.147-.848-.3-1.727-.48-2.623l-.061-.351-.03-.122c-.381-1.907-.851-3.924-1.412-6.027l-.124-.462-.208-.775-.031-.124-.03-.122c-.31-1.3-1.569-6.588-2.116-7.924l-16.1-18.559a112.322,112.322,0,0,1-.221-17.539l-9.783-2.428c13.848,2.687,40.4,10.666,45.429,32.761C376.042,344.908,381.65,380.509,361.711,382.353Z" transform="translate(-226.774 -201.54)" fill="#fff" stroke="#000" stroke-linecap="round" stroke-linejoin="round" stroke-width="1"/>
    <path id="Path_54595" data-name="Path 54595" d="M236.891,347.856v1.717l-.19,2.667v.094l-.777,2.253-1.722,1.846-2.207.737-2.507-.056h-.015l-3.891-1.041-6.646-3.154-7-4.318-.03-.02-.046-.03-6.349-4.528a18.43,18.43,0,0,1,10.788-4.437c9.27-1.143,5.971-8.675,5.971-8.675s-2.019-4.457-9.485-9.811c-6.717-4.825-12.652.023-10.964,6.113a10.084,10.084,0,0,1,.066,5.841,23.2,23.2,0,0,1-3.284,6.047l-.023-.023a31.61,31.61,0,0,0-6.288-4.046l-.208-.129-.1.129a.085.085,0,0,0-.058.023,1.125,1.125,0,0,0-.482.7l-.015.015v.015a4.477,4.477,0,0,0,1.117,2.992h0l-.635-.282c-2.265-1.973-2.776-1.315-2.776-1.315a1.669,1.669,0,0,0-.508,1.257h0a5.517,5.517,0,0,0,1.227,2.816l-.747-.3c-.952-.65-1.9-.991-2.476-.434a.975.975,0,0,0-.29.721,5.316,5.316,0,0,0,1.288,2.69c-.074-.031-.526-.191-1.082-.356a2.032,2.032,0,0,0-1.714-.338c-.274,0-.472.043-.538.18-.165.317-.508.129.236,1.191h0a16.348,16.348,0,0,0,3.868,5.5,22.156,22.156,0,0,1-4.528,2.956,10.829,10.829,0,0,1-5.94.693c-6.4-.846-10.552,5.526-4.787,11.405,6.407,6.529,11.192,7.911,11.192,7.911s8.081,2.217,8.043-6.9a18.349,18.349,0,0,1,2.286-9.806,112,112,0,0,0,13.546,9.348c.03.015.053.038.081.053a125.5,125.5,0,0,0,10.92,6.217c.437.216.866.427,1.305.627l.079.043c.023.015.051.023.074.038l.127.064.274.137-.467.724-.295.02-.381.02c-13.46.762-59.046,3.888-70.967,4.711l-.955.066c-.19,0-.368.02-.533.036l-.642.043-.328.02-.274.023-2.174-52.182c21.5,2.738,10.2-45.658,10.2-45.658l4.767-1.684,4.409-1.171,3.19-.607.079-.015.348-.051.3-.043.19-.028,1,.541.066.071a16.274,16.274,0,0,0,1.234,1.242l.038.038.023.015a18.537,18.537,0,0,0,2.794,2.065l.015.013.031.015a20.927,20.927,0,0,0,3.484,1.7l.043.023.046.013a22.4,22.4,0,0,0,3.756,1.054,26.22,26.22,0,0,0,2.811.381c.932.074,1.9.1,2.936.081h.112l.467.015.65-.066c.546-.035,1.067-.086,1.554-.16l.124-.013.074-.013a16,16,0,0,0,2.265-.493h.015a10.357,10.357,0,0,0,1.76-.686l.066-.028.03-.02a6.785,6.785,0,0,0,2.943-2.677l.015-.013.015-.03a5.717,5.717,0,0,0,.612-1.661v-.036a5.809,5.809,0,0,0,.112-.81c.015-.19.015-.355.015-.508V277l.681.063c.571.066,1.481.168,2.667.34h.058l4.9.831.1.02,9.783,2.428a112.235,112.235,0,0,0,.221,17.523l16.1,18.572c.546,1.333,1.806,6.626,2.116,7.926l.03.122.028.122.208.762.127.462,1.412,6.024.028.122.069.348.48,2.621.023.145.5,3.367.353,3.228.018.145.175,2.263C236.84,345.75,236.878,346.883,236.891,347.856Z" transform="translate(-108.11 -197.773)" fill="#ca576c" stroke="#000" stroke-linecap="round" stroke-linejoin="round" stroke-width="1"/>
    <path id="Path_54596" data-name="Path 54596" d="M441.494,651.693c-.467-.219-.917-.439-1.384-.673.437.208.866.426,1.3.63Z" transform="translate(-328.974 -476.806)" fill="#fff" stroke="#000" stroke-miterlimit="10" stroke-width="1"/>
    <path id="Path_54597" data-name="Path 54597" d="M226.472,657.63,208.1,658.9l-1.2.081-48.136,3.3-5.978.411v-.157l.274-.02.328-.023.643-.043.533-.036.952-.066C167.428,661.518,213.032,658.374,226.472,657.63Z" transform="translate(-114.623 -481.737)" fill="none" stroke="#000" stroke-miterlimit="10" stroke-width="1"/>
    <path id="Path_54598" data-name="Path 54598" d="M300.128,305.829a.413.413,0,0,1-.112,0,28.3,28.3,0,0,1-2.936-.079Z" transform="translate(-222.268 -224.543)" fill="none" stroke="#000" stroke-miterlimit="10" stroke-width="1"/>
    <path id="Path_54599" data-name="Path 54599" d="M350.9,279.66a5.747,5.747,0,0,1-.112.81Z" transform="translate(-262.338 -205.424)" fill="none" stroke="#000" stroke-miterlimit="10" stroke-width="1"/>
    <path id="Path_54600" data-name="Path 54600" d="M409.414,633.46c-.467-.219-.919-.439-1.384-.673a124.509,124.509,0,0,1-10.92-6.207c5.6,3.381,10.61,6,12.231,6.834A.613.613,0,0,1,409.414,633.46Z" transform="translate(-296.894 -458.573)" fill="none" stroke="#000" stroke-miterlimit="10" stroke-width="1"/>
    <path id="Path_54601" data-name="Path 54601" d="M376.5,463.37a18.431,18.431,0,0,0-10.8,4.437l-6.636-4.734-.274-.19a23.162,23.162,0,0,0,3.284-6.047,10.044,10.044,0,0,0-.066-5.841c-1.689-6.1,4.249-10.938,10.964-6.11,7.474,5.356,9.49,9.813,9.49,9.813S385.763,462.24,376.5,463.37Z" transform="translate(-268.306 -323.971)" fill="#fdcc00" stroke="#000" stroke-miterlimit="10" stroke-width="1"/>
    <path id="Path_54602" data-name="Path 54602" d="M508.762,573.32v.071A.232.232,0,0,1,508.762,573.32Z" transform="translate(-380.189 -418.839)" fill="none" stroke="#000" stroke-miterlimit="10" stroke-width="1"/>
    <path id="Path_54603" data-name="Path 54603" d="M509.217,544.293v1.778c0-.952-.051-2.1-.127-3.38Z" transform="translate(-380.436 -397.889)" fill="none" stroke="#000" stroke-miterlimit="10" stroke-width="1"/>
    <path id="Path_54604" data-name="Path 54604" d="M385.453,460.174s-.742-4.335,3.7-2.89" transform="translate(-288.164 -335.167)" fill="none" stroke="#fff" stroke-linecap="round" stroke-linejoin="round" stroke-width="1"/>
    <path id="Path_54736" data-name="Path 54736" d="M495.35,676.006c.023-2.166.038-3.731.048-4.5v-.554" transform="translate(-370.185 -491.674)" fill="none" stroke="#ffac00" stroke-miterlimit="10" stroke-width="1"/>
    <path id="Path_54567" data-name="Path 54567" d="M48.695,291.69h-.015c-12.952,5.079-31.448,17.015-39.166,44.733a197.521,197.521,0,0,0-6.969,56.641H22.062c-.107-20.317,3.07-42.412,16.279-55.572l2.182,52.037h.145V389.5L38.5,337.347C59.846,340.065,48.85,292.322,48.695,291.69Z" transform="translate(-2.502 -208.732)" fill="#fff" stroke="#000" stroke-linejoin="round" stroke-width="1"/>
  </g>
</svg>
