<svg xmlns="http://www.w3.org/2000/svg" width="50.619" height="34.874" viewBox="0 0 50.619 34.874">
  <g id="noun-online-8101901" transform="translate(-24.381 -32.813)">
    <path id="Path_1" data-name="Path 1" d="M74.543,33.27a1.565,1.565,0,0,0-2.211,0l-1.977,1.977A9.365,9.365,0,1,0,72.3,37.719l2.238-2.238A1.562,1.562,0,0,0,74.543,33.27ZM64.063,48.438a6.25,6.25,0,1,1,4.082-10.977l-4.082,4.078L62.825,40.3a1.563,1.563,0,0,0-2.211,2.211l2.344,2.344a1.566,1.566,0,0,0,2.211,0l4.777-4.777a6.187,6.187,0,0,1,.367,2.109,6.258,6.258,0,0,1-6.25,6.25Z" fill="#033"/>
    <path id="Path_2" data-name="Path 2" d="M51.1,45.242a1.562,1.562,0,1,0,1.137-2.91,25.018,25.018,0,0,0-26.773,5.613,1.563,1.563,0,0,0,2.211,2.211A21.89,21.89,0,0,1,51.1,45.242Z" fill="#033" stroke="#033" stroke-width="1"/>
    <path id="Path_3" data-name="Path 3" d="M43.137,48.359A17.14,17.14,0,0,0,30.93,53.418a1.563,1.563,0,0,0,2.211,2.211,14.146,14.146,0,0,1,20,0,1.563,1.563,0,1,0,2.211-2.211,17.185,17.185,0,0,0-12.215-5.059Z" fill="#033" stroke="#033" stroke-width="1"/>
    <path id="Path_4" data-name="Path 4" d="M36.4,58.887A1.563,1.563,0,0,0,38.606,61.1a6.413,6.413,0,0,1,9.063,0,1.563,1.563,0,0,0,2.211-2.211,9.543,9.543,0,0,0-13.484,0Z" fill="#033" stroke="#033" stroke-width="1"/>
    <path id="Path_5" data-name="Path 5" d="M44.695,65.625a1.563,1.563,0,0,1-3.125,0A1.563,1.563,0,0,1,44.695,65.625Z" fill="#033" stroke="#033" stroke-width="1"/>
  </g>
</svg>
