<svg xmlns="http://www.w3.org/2000/svg" width="32" height="32.002" viewBox="0 0 32 32.002">
  <g id="_7._Wallet" data-name="7. Wallet" transform="translate(0 0.002)">
    <path id="Path_11" data-name="Path 11" d="M30,15.18V11a3,3,0,0,0-3-3H25.5L19.8.4A1,1,0,0,0,18.41.19L13.35,3.88A6,6,0,0,0,3,8a3,3,0,0,0-3,3V29a3,3,0,0,0,3,3H27a3,3,0,0,0,3-3V24.82A3,3,0,0,0,32,22V18A3,3,0,0,0,30,15.18ZM18.79,2.39,23,8H11.08ZM9,4a4,4,0,0,1,2.71,1.06L7.67,8H5A4,4,0,0,1,9,4ZM27,30H3a1,1,0,0,1-1-1V11a1,1,0,0,1,1-1H27a1,1,0,0,1,1,1v4H25a5,5,0,0,0,0,10h3v4A1,1,0,0,1,27,30Zm3-8a1,1,0,0,1-1,1H25a3,3,0,0,1,0-6h4a1,1,0,0,1,1,1Z" fill="#bebebe"/>
    <path id="Path_12" data-name="Path 12" d="M25,19h0a1,1,0,1,0,1,1A1,1,0,0,0,25,19Z" fill="#bebebe"/>
    <path id="Path_13" data-name="Path 13" d="M5,12a1,1,0,0,0-1,1v2a1,1,0,0,0,2,0V13A1,1,0,0,0,5,12Z" fill="#bebebe"/>
    <path id="Path_14" data-name="Path 14" d="M5,18a1,1,0,0,0-1,1v2a1,1,0,0,0,2,0V19A1,1,0,0,0,5,18Z" fill="#bebebe"/>
    <path id="Path_15" data-name="Path 15" d="M5,24a1,1,0,0,0-1,1v2a1,1,0,0,0,2,0V25A1,1,0,0,0,5,24Z" fill="#bebebe"/>
  </g>
</svg>
