<svg xmlns="http://www.w3.org/2000/svg" width="92" height="92" viewBox="0 0 92 92">
  <g id="noun-chat-8131038" transform="translate(-4 -4.001)">
    <path id="Path_2" data-name="Path 2" d="M96,54.934a30.508,30.508,0,0,1-8.633,21.305l6.668,17.445a1.7,1.7,0,0,1-2.559,2.008L74.727,84.1a30.659,30.659,0,0,1-30.3-6.844,39.876,39.876,0,0,0,31.6-51.035A30.629,30.629,0,0,1,96,54.934ZM4,37.942A33.918,33.918,0,1,1,27.582,70.27L9.012,83.125A1.887,1.887,0,0,1,6.176,80.9l7.394-19.34A33.842,33.842,0,0,1,4,37.941Zm44.16,0a5.41,5.41,0,1,0,5.41-5.41,5.41,5.41,0,0,0-5.41,5.41Zm-15.629,0a5.41,5.41,0,1,0,5.41-5.41,5.41,5.41,0,0,0-5.41,5.41Zm-15.629,0a5.41,5.41,0,1,0,5.41-5.41,5.41,5.41,0,0,0-5.41,5.41Z" fill="#09877c" fill-rule="evenodd"/>
  </g>
</svg>
