<svg xmlns="http://www.w3.org/2000/svg" width="70.34" height="80" viewBox="0 0 70.34 80">
  <g id="noun-question-5151447" transform="translate(-14.83 -10)">
    <path id="Path_3" data-name="Path 3" d="M46.7,81.87a40.392,40.392,0,0,1-10.06-1.33A27.924,27.924,0,0,0,57.4,90a27.185,27.185,0,0,0,13.48-3.5,4.194,4.194,0,0,1,3.18-.32l9.58,3.02a37.384,37.384,0,0,1-3.66-8.13,4.151,4.151,0,0,1,.52-3.42,27.456,27.456,0,0,0,4.67-15.41,26.51,26.51,0,0,0-.93-6.72A39.987,39.987,0,0,1,46.7,81.87Z" fill="#09877c"/>
    <path id="Path_4" data-name="Path 4" d="M20.7,63.08A40.591,40.591,0,0,1,15.83,73.3l12.19-3.82a4.2,4.2,0,0,1,1.21-.2,4.257,4.257,0,0,1,1.97.52,31.5,31.5,0,0,0,15.49,4.02A31.819,31.819,0,1,0,20.18,59.66,3.917,3.917,0,0,1,20.7,63.08Zm30.1.24-4.02.08H42.76l-.12-8.05,8.17-.08v8.05Zm-4.06-42.9a14.056,14.056,0,0,1,4.02,27.52v5.19H42.71V40.5h4.02a6.02,6.02,0,1,0-6.04-6H32.64A14.124,14.124,0,0,1,46.74,20.42Z" fill="#09877c"/>
  </g>
</svg>
