<svg xmlns="http://www.w3.org/2000/svg" width="61.894" height="41.2" viewBox="0 0 61.894 41.2">
  <g id="noun-answer-4334062" transform="translate(-15.9 -29.4)">
    <path id="Path_1" data-name="Path 1" d="M36.229,29.4A20.314,20.314,0,0,0,15.9,50a21.51,21.51,0,0,0,2.541,10.1,2.08,2.08,0,0,1,.091,1.3l-1.906,6.4a1.379,1.379,0,0,0,1.815,1.8l5.99-2.2a1.579,1.579,0,0,1,1.18.1A19.684,19.684,0,0,0,36.32,70.6a20.6,20.6,0,0,0-.091-41.2Zm9.8,16L35.684,56.6a2.036,2.036,0,0,1-1.361.7,1.379,1.379,0,0,1-1.361-.7L27.88,51.1a1.169,1.169,0,0,1,0-1.5l1.361-1.5a.922.922,0,0,1,1.361,0L34.142,52l8.894-9.7a.922.922,0,0,1,1.361,0l1.361,1.5A1.08,1.08,0,0,1,46.03,45.4Zm11.435-16H52.111C58.1,34.2,62.548,41.7,62.548,50S57.828,66.1,52.111,70.6h5.355a20.6,20.6,0,0,0,0-41.2Z" fill="#09877c"/>
  </g>
</svg>
