<svg xmlns="http://www.w3.org/2000/svg" width="512" height="370.758" viewBox="0 0 512 370.758">
  <g id="payment-credit-card-svgrepo-com" transform="translate(0 -70.621)">
    <path id="Path_16" data-name="Path 16" d="M423.724,370.759H17.655A17.655,17.655,0,0,1,0,353.1V88.276A17.654,17.654,0,0,1,17.655,70.621H423.724a17.654,17.654,0,0,1,17.655,17.655V353.1A17.654,17.654,0,0,1,423.724,370.759Z" fill="#00b5b5"/>
    <g id="Group_9" data-name="Group 9">
      <path id="Path_17" data-name="Path 17" d="M406.069,211.862a123.485,123.485,0,0,0-118.4,158.9H423.724A17.656,17.656,0,0,0,441.379,353.1V217.048A123.473,123.473,0,0,0,406.069,211.862Z" fill="#048d8d"/>
      <path id="Path_18" data-name="Path 18" d="M132.414,203.034H61.793a8.829,8.829,0,0,1-8.828-8.828V141.24a8.829,8.829,0,0,1,8.828-8.828h70.621a8.829,8.829,0,0,1,8.828,8.828v52.966A8.829,8.829,0,0,1,132.414,203.034Z" fill="#048d8d"/>
    </g>
    <g id="Group_10" data-name="Group 10">
      <path id="Path_19" data-name="Path 19" d="M123.586,275.862H52.966a11.034,11.034,0,1,1,0-22.068h70.621a11.034,11.034,0,1,1,0,22.068Z" fill="#fff"/>
      <path id="Path_20" data-name="Path 20" d="M335.448,328.828H52.966a11.034,11.034,0,1,1,0-22.068H335.449a11.034,11.034,0,1,1,0,22.068Z" fill="#fff"/>
      <path id="Path_21" data-name="Path 21" d="M229.517,275.862H158.9a11.034,11.034,0,1,1,0-22.068h70.621a11.034,11.034,0,1,1,0,22.068Z" fill="#fff"/>
    </g>
    <path id="Path_22" data-name="Path 22" d="M114.759,158.9H97.1V132.414H79.448v70.621H97.1V176.552h17.655a8.827,8.827,0,0,0,0-17.655Z" fill="#00b5b5"/>
    <circle id="Ellipse_1" data-name="Ellipse 1" cx="39.724" cy="39.724" r="39.724" transform="translate(256 123.586)" fill="#c75d6f"/>
    <circle id="Ellipse_2" data-name="Ellipse 2" cx="39.724" cy="39.724" r="39.724" transform="translate(308.966 123.586)" fill="#048d8d"/>
    <path id="Path_23" data-name="Path 23" d="M308.966,163.31a39.473,39.473,0,0,0,13.241,29.415,39.293,39.293,0,0,0,0-58.83A39.471,39.471,0,0,0,308.966,163.31Z" fill="#db6d80"/>
    <path id="Path_24" data-name="Path 24" d="M335.448,275.862H264.827a11.034,11.034,0,1,1,0-22.068h70.621a11.034,11.034,0,0,1,0,22.068Z" fill="#fff"/>
    <g id="Group_11" data-name="Group 11">
      <path id="Path_25" data-name="Path 25" d="M297.811,275.862h37.638a11.034,11.034,0,0,0,0-22.068H313.47A123.58,123.58,0,0,0,297.811,275.862Z" fill="#e4eaf8"/>
      <path id="Path_26" data-name="Path 26" d="M282.817,328.828h52.631a11.034,11.034,0,0,0,0-22.068H285.966A123.419,123.419,0,0,0,282.817,328.828Z" fill="#e4eaf8"/>
    </g>
    <circle id="Ellipse_3" data-name="Ellipse 3" cx="105.931" cy="105.931" r="105.931" transform="translate(300.138 229.517)" fill="#033"/>
    <path id="Path_27" data-name="Path 27" d="M459.034,420.193A105.838,105.838,0,0,1,394.86,230.122a105.917,105.917,0,1,0,75.383,189.466A106.687,106.687,0,0,1,459.034,420.193Z" fill="#105a5a"/>
    <path id="Path_28" data-name="Path 28" d="M388.414,390.621a10.99,10.99,0,0,1-7.8-3.233L336.475,343.25a11.034,11.034,0,0,1,15.6-15.6l36.337,36.337,71.647-71.647a11.034,11.034,0,0,1,15.6,15.6l-79.448,79.448A11.006,11.006,0,0,1,388.414,390.621Z" fill="#fff"/>
  </g>
</svg>
