<svg xmlns="http://www.w3.org/2000/svg" width="21.92" height="21.877" viewBox="0 0 21.92 21.877">
  <path id="star-svgrepo-com" d="M9.153,5.408C10.42,3.136,11.053,2,12,2s1.58,1.136,2.847,3.408L15.175,6A3.669,3.669,0,0,0,16,7.178a3.418,3.418,0,0,0,1.329.45l.636.144c2.46.557,3.689.835,3.982,1.776S21.4,11.469,19.72,13.43l-.434.507a3.681,3.681,0,0,0-.822,1.181,3.842,3.842,0,0,0,0,1.46l.066.677c.253,2.616.38,3.924-.386,4.506s-1.918.051-4.221-1.009l-.6-.274A3.412,3.412,0,0,0,12,20.025a3.412,3.412,0,0,0-1.328.452l-.6.274c-2.3,1.06-3.455,1.59-4.221,1.009s-.639-1.89-.386-4.506l.066-.677a3.839,3.839,0,0,0,0-1.46,3.68,3.68,0,0,0-.822-1.181L4.28,13.43C2.6,11.469,1.765,10.489,2.057,9.548S3.58,8.329,6.04,7.772l.636-.144A3.419,3.419,0,0,0,8,7.178,3.669,3.669,0,0,0,8.825,6Z" transform="translate(-1.04 -1)" fill="none" stroke="#bebebe" stroke-width="2"/>
</svg>
