<svg xmlns="http://www.w3.org/2000/svg" xmlns:xlink="http://www.w3.org/1999/xlink" width="280" height="287" viewBox="0 0 280 287">
  <defs>
    <clipPath id="clip-path">
      <rect id="Rectangle_1" data-name="Rectangle 1" width="280" height="287" transform="translate(803 132.958)" fill="#fff" stroke="#707070" stroke-width="1"/>
    </clipPath>
  </defs>
  <g id="Mask_Group_1" data-name="Mask Group 1" transform="translate(-803 -132.958)" clip-path="url(#clip-path)">
    <g id="noun-adolescence-2083183" transform="translate(803 133)">
      <path id="Path_1" data-name="Path 1" d="M350.217,229.794a4.484,4.484,0,1,1-4.484-4.484,4.484,4.484,0,0,1,4.484,4.484" transform="translate(-202.471 -109.859)"/>
      <path id="Path_2" data-name="Path 2" d="M355.264,231.7c-6.882-54.589-69.495-61.65-69.495-61.65-16.77-3.026-23.7-21.319-26.476-33.494A129.444,129.444,0,0,0,284.38,87.237a81.1,81.1,0,0,0,2.824-21.1,67.618,67.618,0,0,0-.651-9.26C295.387,42.848,292.9,27,290.881,19.443a5.291,5.291,0,0,0-5.919-3.339,26.85,26.85,0,0,1-2.78.134c-14.818,0-39.322-9.82-39.322-9.82A73.1,73.1,0,0,0,214.77.007H213.6a58.133,58.133,0,0,0-45.217,22.755c-24.66,8.227-15.693,55.04-13.071,66.113a118.277,118.277,0,0,0,24.436,50.6c-3.207,11.994-10.291,27.777-25.76,30.579,0,0-64.027,6.882-69.5,61.65h0a184.225,184.225,0,0,0-.651,35.87,22.174,22.174,0,0,0,21.612,19.392H334.284a21.948,21.948,0,0,0,21.253-19.348c2.778-24.928-.27-35.914-.27-35.914Zm-93.62-67.368a39.627,39.627,0,0,0,8.967,8.967L251.04,202.064c-1.165,1.5-2.018,1.928-2.242,1.95s-.695-.156-1.457-.875l-8.719-12.576-.38-.47h0a6.144,6.144,0,0,1,0-7.914ZM232.5,175.318l-.516.47a14.719,14.719,0,0,0-3.945,8.049H212.952a15.328,15.328,0,0,0-3.611-7.42L183.516,155.21a73.982,73.982,0,0,0,3.5-8.743,51.572,51.572,0,0,0,32.037,11.59,45.461,45.461,0,0,0,29.39-10.671c1.233-1.009,2.422-2.086,3.587-3.183v0a74.835,74.835,0,0,0,4.932,12.442ZM164.865,71.409c-.807,1.053-1.884,2.444-2.982,4.169-2.6-17.71-2.488-40.353,9.26-44.321a8.969,8.969,0,0,0,4.484-3.431,48.854,48.854,0,0,1,38.29-18.854h.314a64.42,64.42,0,0,1,25.109,5.673h.2c2.668,1.077,26.566,10.469,42.6,10.469h.829c2.444,12.645,1.3,32.037-24.032,42.147a79.879,79.879,0,0,1-25.827,4.484c-14.1,0-25.738-4.282-34.569-12.735a8.97,8.97,0,0,0-15.088,5.381l-.695,5.6-1.277-.9a12.485,12.485,0,0,0-7.376-2.532,11.407,11.407,0,0,0-9.08,4.484Zm.448,20.513a28.6,28.6,0,0,1,6.726-15.267,2.42,2.42,0,0,1,1.972-1.077,3.662,3.662,0,0,1,2.064.785l10.515,7.4h0a3.225,3.225,0,0,0,1.93.831c1.031,0,1.7-.919,1.7-2.6l2.04-16.455c12.576,11.948,27.821,15.176,40.892,15.176A87.4,87.4,0,0,0,262.3,75.6a57.116,57.116,0,0,0,15.939-9.235A71.979,71.979,0,0,1,275.7,84.882c-6.233,23.047-18.271,43.336-33,55.619a36.516,36.516,0,0,1-23.651,8.587,43.183,43.183,0,0,1-32.463-15.4,108.421,108.421,0,0,1-21.274-41.767Zm13.654,71.135,23.9,19.548a6.956,6.956,0,0,1,0,8.475L194.278,204.4v0a3.241,3.241,0,0,1-1.077.809c-.18,0-.941-.448-2-1.906l-20.087-31.588a41.55,41.55,0,0,0,7.846-8.631ZM346.612,266.607l0,0a13.05,13.05,0,0,1-12.33,11.389H224.426V264.543a4.484,4.484,0,0,0-8.967,0v13.451H105.451a13.2,13.2,0,0,1-12.713-11.209,176.349,176.349,0,0,1,.607-33.964v-.246c1.95-19.348,12.554-34.166,31.542-44.053a96.388,96.388,0,0,1,30.041-9.55h.629a34.071,34.071,0,0,0,7.89-2.466l20.177,31.79.134.2v0a11.9,11.9,0,0,0,8.833,5.739h.448A10.7,10.7,0,0,0,201,210.268l8.765-13.451a14.889,14.889,0,0,0,2.242-3.833h3.453a4.484,4.484,0,0,0,8.967,0H229.4a14.173,14.173,0,0,0,2,3.115l8.721,12.4.492.582a11.207,11.207,0,0,0,8.095,3.9h.561a12.4,12.4,0,0,0,8.967-5.537L278.678,177.4a34.416,34.416,0,0,0,5.449,1.5h.56a94.978,94.978,0,0,1,29.524,9.64c18.876,9.954,29.683,24.841,32.126,44.232v.538l.18.629s2.576,10.423.088,32.685Z" transform="translate(-76.686 -0.007)"/>
      <path id="Path_3" data-name="Path 3" d="M350.217,406.984a4.484,4.484,0,1,1-4.484-4.484,4.484,4.484,0,0,1,4.484,4.484" transform="translate(-202.471 -196.253)"/>
      <path id="Path_4" data-name="Path 4" d="M350.217,441.984a4.484,4.484,0,1,1-4.484-4.484,4.484,4.484,0,0,1,4.484,4.484" transform="translate(-202.471 -213.318)"/>
      <path id="Path_5" data-name="Path 5" d="M350.217,476.984a4.484,4.484,0,1,1-4.484-4.484,4.484,4.484,0,0,1,4.484,4.484" transform="translate(-202.471 -230.383)"/>
      <path id="Path_6" data-name="Path 6" d="M486.112,437.5H451.227a4.976,4.976,0,0,0-4.976,4.976v27.4a7.105,7.105,0,0,0,4.776,6.411l15.4,5.471a4.606,4.606,0,0,0,4.484,0l15.357-5.449a7.111,7.111,0,0,0,4.776-6.411V442.476a4.977,4.977,0,0,0-4.932-4.976Zm-3.991,30.781-13.451,4.776-13.451-4.776V446.467h26.9Z" transform="translate(-253.667 -213.318)"/>
      <path id="Path_7" data-name="Path 7" d="M295.641,197.087a4.484,4.484,0,1,0,0-8.967h-8.967a4.484,4.484,0,0,0,0,8.967Z" transform="translate(-173.675 -91.726)"/>
      <path id="Path_8" data-name="Path 8" d="M387.294,197.087h8.967a4.484,4.484,0,0,0,0-8.967h-8.967a4.484,4.484,0,0,0,0,8.967Z" transform="translate(-222.735 -91.726)"/>
      <g id="Group_1" data-name="Group 1" transform="translate(0.344 312.263)">
        <path id="Path_9" data-name="Path 9" d="M8.043-8.364a5.234,5.234,0,0,1-1.217.456,5.574,5.574,0,0,1-1.305.152A4.491,4.491,0,0,1,2.286-8.892a4.086,4.086,0,0,1-1.193-3.1,4.074,4.074,0,0,1,1.193-3.1,4.478,4.478,0,0,1,3.235-1.145,5.574,5.574,0,0,1,1.305.152,5.421,5.421,0,0,1,1.217.456v1.689a4.6,4.6,0,0,0-1.153-.584,3.905,3.905,0,0,0-1.2-.184,2.27,2.27,0,0,0-1.777.721,2.89,2.89,0,0,0-.641,1.994,2.875,2.875,0,0,0,.641,1.986,2.27,2.27,0,0,0,1.777.721,3.846,3.846,0,0,0,1.2-.184,4.474,4.474,0,0,0,1.153-.584Z" transform="translate(-1.094 16.234)"/>
      </g>
      <g id="Group_2" data-name="Group 2" transform="translate(8.956 314.305)">
        <path id="Path_10" data-name="Path 10" d="M6.392-10.433a2.509,2.509,0,0,0-.512-.176,2.078,2.078,0,0,0-.512-.064,1.432,1.432,0,0,0-1.161.488A2.083,2.083,0,0,0,3.8-8.8v2.826H1.844v-6.133H3.8V-11.1a2.453,2.453,0,0,1,.865-.873,2.36,2.36,0,0,1,1.177-.28c.068,0,.14,0,.216.008s.186.016.336.032Z" transform="translate(-1.844 12.25)"/>
      </g>
      <g id="Group_3" data-name="Group 3" transform="translate(14.017 314.305)">
        <path id="Path_11" data-name="Path 11" d="M7.519-9.055v.56H2.939a1.449,1.449,0,0,0,.5,1.033,1.841,1.841,0,0,0,1.193.344A4.574,4.574,0,0,0,5.893-7.3,6.72,6.72,0,0,0,7.23-7.854v1.513a8.852,8.852,0,0,1-1.393.392,7.3,7.3,0,0,1-1.393.136,3.714,3.714,0,0,1-2.586-.841A3.066,3.066,0,0,1,.937-9.031a3.085,3.085,0,0,1,.9-2.354,3.465,3.465,0,0,1,2.5-.865,3.106,3.106,0,0,1,2.306.873,3.128,3.128,0,0,1,.873,2.322ZM5.5-9.7a1.233,1.233,0,0,0-.328-.9,1.11,1.11,0,0,0-.849-.344,1.35,1.35,0,0,0-.929.32,1.48,1.48,0,0,0-.44.921Z" transform="translate(-0.937 12.25)"/>
      </g>
      <g id="Group_4" data-name="Group 4" transform="translate(21.622 314.305)">
        <path id="Path_12" data-name="Path 12" d="M4.148-8.735a1.688,1.688,0,0,0-.929.208.7.7,0,0,0-.3.616.732.732,0,0,0,.248.584,1.041,1.041,0,0,0,.7.208,1.236,1.236,0,0,0,.929-.392,1.406,1.406,0,0,0,.376-1v-.224Zm2.995-.737v3.5H5.165v-.9a2.531,2.531,0,0,1-.889.809,2.574,2.574,0,0,1-1.2.256A2.172,2.172,0,0,1,1.53-6.365,1.9,1.9,0,0,1,.938-7.814a1.775,1.775,0,0,1,.737-1.577,4.245,4.245,0,0,1,2.338-.5H5.165v-.152a.736.736,0,0,0-.368-.681,2.342,2.342,0,0,0-1.145-.216,5.165,5.165,0,0,0-1.169.128,3.736,3.736,0,0,0-1.009.376v-1.5a12.087,12.087,0,0,1,1.265-.232,10.352,10.352,0,0,1,1.273-.08,3.566,3.566,0,0,1,2.394.657,2.7,2.7,0,0,1,.737,2.122Z" transform="translate(-0.938 12.25)"/>
      </g>
      <g id="Group_5" data-name="Group 5" transform="translate(28.848 312.712)">
        <path id="Path_13" data-name="Path 13" d="M3.22-15.359v1.737H5.237v1.4H3.22v2.6a.762.762,0,0,0,.168.576,1.046,1.046,0,0,0,.673.152H5.069v1.4H3.388a2.3,2.3,0,0,1-1.649-.48,2.3,2.3,0,0,1-.48-1.649v-2.6H.281v-1.4h.977v-1.737Z" transform="translate(-0.281 15.359)"/>
      </g>
      <g id="Group_6" data-name="Group 6" transform="translate(34.543 314.305)">
        <path id="Path_14" data-name="Path 14" d="M7.519-9.055v.56H2.939a1.449,1.449,0,0,0,.5,1.033,1.841,1.841,0,0,0,1.193.344A4.574,4.574,0,0,0,5.893-7.3,6.72,6.72,0,0,0,7.23-7.854v1.513a8.852,8.852,0,0,1-1.393.392,7.3,7.3,0,0,1-1.393.136,3.714,3.714,0,0,1-2.586-.841A3.066,3.066,0,0,1,.937-9.031a3.085,3.085,0,0,1,.9-2.354,3.465,3.465,0,0,1,2.5-.865,3.106,3.106,0,0,1,2.306.873,3.128,3.128,0,0,1,.873,2.322ZM5.5-9.7a1.233,1.233,0,0,0-.328-.9,1.11,1.11,0,0,0-.849-.344,1.35,1.35,0,0,0-.929.32,1.48,1.48,0,0,0-.44.921Z" transform="translate(-0.937 12.25)"/>
      </g>
      <g id="Group_7" data-name="Group 7" transform="translate(42.169 312.063)">
        <path id="Path_15" data-name="Path 15" d="M5.588-13.343v-3.283H7.566v8.519H5.588v-.889a2.65,2.65,0,0,1-.889.8,2.48,2.48,0,0,1-1.129.248,2.286,2.286,0,0,1-1.858-.9,3.58,3.58,0,0,1-.729-2.322,3.55,3.55,0,0,1,.729-2.314,2.282,2.282,0,0,1,1.858-.9,2.407,2.407,0,0,1,1.129.256,2.635,2.635,0,0,1,.889.785ZM4.3-9.371a1.112,1.112,0,0,0,.961-.456,2.3,2.3,0,0,0,.328-1.337A2.284,2.284,0,0,0,5.26-12.5a1.112,1.112,0,0,0-.961-.456,1.1,1.1,0,0,0-.953.456,2.269,2.269,0,0,0-.328,1.337,2.286,2.286,0,0,0,.328,1.337A1.1,1.1,0,0,0,4.3-9.371Z" transform="translate(-0.984 16.625)"/>
      </g>
      <g id="Group_8" data-name="Group 8" transform="translate(54.537 312.063)">
        <path id="Path_16" data-name="Path 16" d="M5.1-9.371a1.112,1.112,0,0,0,.961-.456,2.3,2.3,0,0,0,.328-1.337A2.284,2.284,0,0,0,6.063-12.5a1.112,1.112,0,0,0-.961-.456,1.125,1.125,0,0,0-.969.464A2.223,2.223,0,0,0,3.8-11.165a2.254,2.254,0,0,0,.336,1.337,1.129,1.129,0,0,0,.969.456ZM3.8-13.342a2.675,2.675,0,0,1,.9-.785,2.446,2.446,0,0,1,1.137-.256,2.285,2.285,0,0,1,1.858.9,3.561,3.561,0,0,1,.729,2.314,3.591,3.591,0,0,1-.729,2.322,2.289,2.289,0,0,1-1.858.9A2.446,2.446,0,0,1,4.694-8.2a2.727,2.727,0,0,1-.9-.793v.889H1.844v-8.519H3.8Z" transform="translate(-1.844 16.625)"/>
      </g>
      <g id="Group_9" data-name="Group 9" transform="translate(61.751 314.449)">
        <path id="Path_17" data-name="Path 17" d="M.266-11.969H2.227L3.877-7.806l1.4-4.163H7.231L4.653-5.259a3.244,3.244,0,0,1-.9,1.433,2.125,2.125,0,0,1-1.361.408H1.25V-4.7h.616a1.271,1.271,0,0,0,.721-.16,1.014,1.014,0,0,0,.352-.568L3-5.6Z" transform="translate(-0.266 11.969)"/>
      </g>
      <g id="Group_10" data-name="Group 10" transform="translate(73.161 312.407)">
        <path id="Path_18" data-name="Path 18" d="M.656-15.953H2.674l1.409,5.941,1.4-5.941H7.518l1.4,5.941,1.409-5.941h2L10.408-7.778H7.974L6.493-13.991,5.028-7.778H2.594Z" transform="translate(-0.656 15.953)"/>
      </g>
      <g id="Group_11" data-name="Group 11" transform="translate(86.221 312.407)">
        <path id="Path_19" data-name="Path 19" d="M2.016-15.953H7.7v1.593H4.121v1.521H7.484v1.593H4.121v1.874h3.7v1.593h-5.8Z" transform="translate(-2.016 15.953)"/>
      </g>
      <g id="Group_12" data-name="Group 12" transform="translate(93.88 312.407)">
        <path id="Path_20" data-name="Path 20" d="M5.282-12.782A1.157,1.157,0,0,0,6.043-13a.814.814,0,0,0,.256-.649.82.82,0,0,0-.256-.649,1.135,1.135,0,0,0-.761-.224H4.121v1.737Zm.072,3.571a1.474,1.474,0,0,0,.953-.264,1.013,1.013,0,0,0,.32-.817.972.972,0,0,0-.32-.793,1.451,1.451,0,0,0-.953-.264H4.121v2.138ZM7.316-12.15a1.839,1.839,0,0,1,1.049.729,2.183,2.183,0,0,1,.376,1.3,2.048,2.048,0,0,1-.8,1.769,4.178,4.178,0,0,1-2.434.576H2.016v-8.175H5.178a4.476,4.476,0,0,1,2.458.52A1.83,1.83,0,0,1,8.4-13.791a1.822,1.822,0,0,1-.28,1.025,1.637,1.637,0,0,1-.809.616Z" transform="translate(-2.016 15.953)"/>
      </g>
      <g id="Group_13" data-name="Group 13" transform="translate(101.446 312.407)">
        <path id="Path_21" data-name="Path 21" d="M.109-15.953H7.636v1.593H4.93v6.582H2.824V-14.36H.11Z" transform="translate(-0.109 15.953)"/>
      </g>
      <g id="Group_14" data-name="Group 14" transform="translate(110.069 312.407)">
        <path id="Path_22" data-name="Path 22" d="M2.016-15.953H7.7v1.593H4.121v1.521H7.484v1.593H4.121v1.874h3.7v1.593h-5.8Z" transform="translate(-2.016 15.953)"/>
      </g>
      <g id="Group_15" data-name="Group 15" transform="translate(117.253 312.263)">
        <path id="Path_23" data-name="Path 23" d="M8.043-8.364a5.234,5.234,0,0,1-1.217.456,5.574,5.574,0,0,1-1.305.152A4.491,4.491,0,0,1,2.286-8.892a4.086,4.086,0,0,1-1.193-3.1,4.074,4.074,0,0,1,1.193-3.1,4.478,4.478,0,0,1,3.235-1.145,5.574,5.574,0,0,1,1.305.152,5.421,5.421,0,0,1,1.217.456v1.689a4.6,4.6,0,0,0-1.153-.584,3.905,3.905,0,0,0-1.2-.184,2.27,2.27,0,0,0-1.777.721,2.89,2.89,0,0,0-.641,1.994,2.875,2.875,0,0,0,.641,1.986,2.27,2.27,0,0,0,1.777.721,3.846,3.846,0,0,0,1.2-.184,4.474,4.474,0,0,0,1.153-.584Z" transform="translate(-1.094 16.234)"/>
      </g>
      <g id="Group_16" data-name="Group 16" transform="translate(125.952 312.407)">
        <path id="Path_24" data-name="Path 24" d="M2.016-15.953H4.121v3.115H7.228v-3.115H9.334v8.175H7.228v-3.467H4.121v3.467H2.016Z" transform="translate(-2.016 15.953)"/>
      </g>
      <g id="Group_17" data-name="Group 17" transform="translate(134.862 312.263)">
        <path id="Path_25" data-name="Path 25" d="M5.3-14.705a1.755,1.755,0,0,0-1.5.713,3.286,3.286,0,0,0-.528,2A3.289,3.289,0,0,0,3.8-10a1.75,1.75,0,0,0,1.5.713A1.752,1.752,0,0,0,6.795-10a3.288,3.288,0,0,0,.528-1.994,3.286,3.286,0,0,0-.528-2A1.757,1.757,0,0,0,5.3-14.705Zm0-1.529A4.133,4.133,0,0,1,8.38-15.105,4.23,4.23,0,0,1,9.5-11.991,4.217,4.217,0,0,1,8.38-8.884,4.133,4.133,0,0,1,5.3-7.755,4.159,4.159,0,0,1,2.207-8.884a4.229,4.229,0,0,1-1.113-3.107,4.242,4.242,0,0,1,1.113-3.115A4.158,4.158,0,0,1,5.3-16.234Z" transform="translate(-1.094 16.234)"/>
      </g>
      <g id="Group_18" data-name="Group 18" transform="translate(144.862 312.407)">
        <path id="Path_26" data-name="Path 26" d="M2.016-15.953H5.506a3.64,3.64,0,0,1,2.394.7,2.4,2.4,0,0,1,.841,1.97A2.431,2.431,0,0,1,7.9-11.3a3.662,3.662,0,0,1-2.394.689H4.121v2.834H2.016Zm2.106,1.529v2.282H5.282a1.364,1.364,0,0,0,.945-.3,1.069,1.069,0,0,0,.336-.849,1.063,1.063,0,0,0-.336-.841,1.374,1.374,0,0,0-.945-.3Z" transform="translate(-2.016 15.953)"/>
      </g>
      <g id="Group_19" data-name="Group 19" transform="translate(152.847 312.263)">
        <path id="Path_27" data-name="Path 27" d="M7.479-15.826V-14.1a7.388,7.388,0,0,0-1.313-.456,5.329,5.329,0,0,0-1.209-.152,2.324,2.324,0,0,0-1.121.208.691.691,0,0,0-.36.641.607.607,0,0,0,.24.512,2.384,2.384,0,0,0,.889.32l.9.176a3.885,3.885,0,0,1,1.938.833,2.111,2.111,0,0,1,.576,1.585,2.46,2.46,0,0,1-.809,2.018,3.8,3.8,0,0,1-2.442.657A8.285,8.285,0,0,1,3.2-7.908,9.5,9.5,0,0,1,1.634-8.34v-1.777a8.544,8.544,0,0,0,1.513.625,5.125,5.125,0,0,0,1.409.208,2.015,2.015,0,0,0,1.057-.224.743.743,0,0,0,.368-.665.728.728,0,0,0-.248-.584,2.568,2.568,0,0,0-.993-.376l-.817-.184a3.466,3.466,0,0,1-1.793-.833A2.108,2.108,0,0,1,1.562-13.7a2.3,2.3,0,0,1,.785-1.874,3.483,3.483,0,0,1,2.274-.657,9.789,9.789,0,0,1,1.385.1,11.5,11.5,0,0,1,1.473.3Z" transform="translate(-1.562 16.235)"/>
      </g>
      <g id="Group_20" data-name="Group 20" transform="translate(165.053 312.407)">
        <path id="Path_28" data-name="Path 28" d="M2.016-15.953H4.121v6.582h3.7v1.593h-5.8Z" transform="translate(-2.016 15.953)"/>
      </g>
      <g id="Group_21" data-name="Group 21" transform="translate(172.196 312.407)">
        <path id="Path_29" data-name="Path 29" d="M2.016-15.953H4.121v6.582h3.7v1.593h-5.8Z" transform="translate(-2.016 15.953)"/>
      </g>
      <g id="Group_22" data-name="Group 22" transform="translate(179.339 312.407)">
        <path id="Path_30" data-name="Path 30" d="M2.016-15.953H5.506a3.64,3.64,0,0,1,2.394.7,2.4,2.4,0,0,1,.841,1.97A2.431,2.431,0,0,1,7.9-11.3a3.662,3.662,0,0,1-2.394.689H4.121v2.834H2.016Zm2.106,1.529v2.282H5.282a1.364,1.364,0,0,0,.945-.3,1.069,1.069,0,0,0,.336-.849,1.063,1.063,0,0,0-.336-.841,1.374,1.374,0,0,0-.945-.3Z" transform="translate(-2.016 15.953)"/>
      </g>
      <g id="Group_23" data-name="Group 23" transform="translate(0 323.272)">
        <path id="Path_31" data-name="Path 31" d="M5.178-16.625v1.289H4.1a.879.879,0,0,0-.584.152.7.7,0,0,0-.16.52v.424H5.026v1.4H3.352v4.732H1.391v-4.732H.422v-1.4h.969v-.424a1.844,1.844,0,0,1,.56-1.481,2.608,2.608,0,0,1,1.729-.48Z" transform="translate(-0.422 16.625)"/>
      </g>
      <g id="Group_24" data-name="Group 24" transform="translate(5.605 325.514)">
        <path id="Path_32" data-name="Path 32" d="M6.392-10.433a2.509,2.509,0,0,0-.512-.176,2.078,2.078,0,0,0-.512-.064,1.432,1.432,0,0,0-1.161.488A2.083,2.083,0,0,0,3.8-8.8v2.826H1.844v-6.133H3.8V-11.1a2.453,2.453,0,0,1,.865-.873,2.36,2.36,0,0,1,1.177-.28c.068,0,.14,0,.216.008s.186.016.336.032Z" transform="translate(-1.844 12.25)"/>
      </g>
      <g id="Group_25" data-name="Group 25" transform="translate(10.669 325.514)">
        <path id="Path_33" data-name="Path 33" d="M4.316-10.849a1.153,1.153,0,0,0-.993.472,2.232,2.232,0,0,0-.344,1.345,2.263,2.263,0,0,0,.344,1.353,1.157,1.157,0,0,0,.993.464,1.13,1.13,0,0,0,.977-.464,2.277,2.277,0,0,0,.344-1.353,2.246,2.246,0,0,0-.344-1.345A1.127,1.127,0,0,0,4.316-10.849Zm0-1.4a3.41,3.41,0,0,1,2.466.857,3.1,3.1,0,0,1,.9,2.362,3.126,3.126,0,0,1-.9,2.37,3.423,3.423,0,0,1-2.466.849,3.461,3.461,0,0,1-2.482-.849,3.118,3.118,0,0,1-.9-2.37,3.094,3.094,0,0,1,.9-2.362,3.447,3.447,0,0,1,2.482-.857Z" transform="translate(-0.937 12.25)"/>
      </g>
      <g id="Group_26" data-name="Group 26" transform="translate(18.818 325.514)">
        <path id="Path_34" data-name="Path 34" d="M7.505-11.081a2.689,2.689,0,0,1,.881-.873,2.221,2.221,0,0,1,1.129-.3,1.989,1.989,0,0,1,1.609.657,2.842,2.842,0,0,1,.552,1.89v3.731H9.707V-9.168c0-.048.008-.1.008-.144v-.224a1.788,1.788,0,0,0-.192-.945.684.684,0,0,0-.616-.3.976.976,0,0,0-.865.464,2.531,2.531,0,0,0-.312,1.329v3.01H5.76V-9.168a3.092,3.092,0,0,0-.176-1.313.67.67,0,0,0-.625-.3,1,1,0,0,0-.873.464,2.4,2.4,0,0,0-.3,1.321v3.018H1.812v-6.133h1.97v.9a2.58,2.58,0,0,1,.825-.777,2.09,2.09,0,0,1,1.041-.264,2.086,2.086,0,0,1,1.121.3,1.917,1.917,0,0,1,.737.865Z" transform="translate(-1.812 12.25)"/>
      </g>
      <g id="Group_27" data-name="Group 27" transform="translate(33.616 323.921)">
        <path id="Path_35" data-name="Path 35" d="M3.22-15.359v1.737H5.237v1.4H3.22v2.6a.762.762,0,0,0,.168.576,1.046,1.046,0,0,0,.673.152H5.069v1.4H3.388a2.3,2.3,0,0,1-1.649-.48,2.3,2.3,0,0,1-.48-1.649v-2.6H.281v-1.4h.977v-1.737Z" transform="translate(-0.281 15.359)"/>
      </g>
      <g id="Group_28" data-name="Group 28" transform="translate(39.775 323.272)">
        <path id="Path_36" data-name="Path 36" d="M8-11.837v3.731H6.031v-2.842a10.077,10.077,0,0,0-.04-1.1,1.14,1.14,0,0,0-.12-.448.78.78,0,0,0-.312-.3.882.882,0,0,0-.448-.112,1.126,1.126,0,0,0-.961.48A2.137,2.137,0,0,0,3.8-11.124v3.018H1.843v-8.519H3.8v3.283a3.013,3.013,0,0,1,.945-.785,2.362,2.362,0,0,1,1.1-.256,1.978,1.978,0,0,1,1.609.657A2.842,2.842,0,0,1,8-11.837Z" transform="translate(-1.843 16.625)"/>
      </g>
      <g id="Group_29" data-name="Group 29" transform="translate(47.291 325.514)">
        <path id="Path_37" data-name="Path 37" d="M7.519-9.055v.56H2.939a1.449,1.449,0,0,0,.5,1.033,1.841,1.841,0,0,0,1.193.344A4.574,4.574,0,0,0,5.893-7.3,6.72,6.72,0,0,0,7.23-7.854v1.513a8.852,8.852,0,0,1-1.393.392,7.3,7.3,0,0,1-1.393.136,3.714,3.714,0,0,1-2.586-.841A3.066,3.066,0,0,1,.937-9.031a3.085,3.085,0,0,1,.9-2.354,3.465,3.465,0,0,1,2.5-.865,3.106,3.106,0,0,1,2.306.873,3.128,3.128,0,0,1,.873,2.322ZM5.5-9.7a1.233,1.233,0,0,0-.328-.9,1.11,1.11,0,0,0-.849-.344,1.35,1.35,0,0,0-.929.32,1.48,1.48,0,0,0-.44.921Z" transform="translate(-0.937 12.25)"/>
      </g>
      <g id="Group_30" data-name="Group 30" transform="translate(59.347 323.616)">
        <path id="Path_38" data-name="Path 38" d="M2.016-15.953H4.361l2.978,5.6v-5.6H9.334v8.175H6.98l-2.97-5.6v5.6H2.016Z" transform="translate(-2.016 15.953)"/>
      </g>
      <g id="Group_31" data-name="Group 31" transform="translate(68.176 325.514)">
        <path id="Path_39" data-name="Path 39" d="M4.316-10.849a1.153,1.153,0,0,0-.993.472,2.232,2.232,0,0,0-.344,1.345,2.263,2.263,0,0,0,.344,1.353,1.157,1.157,0,0,0,.993.464,1.13,1.13,0,0,0,.977-.464,2.277,2.277,0,0,0,.344-1.353,2.246,2.246,0,0,0-.344-1.345A1.127,1.127,0,0,0,4.316-10.849Zm0-1.4a3.41,3.41,0,0,1,2.466.857,3.1,3.1,0,0,1,.9,2.362,3.126,3.126,0,0,1-.9,2.37,3.423,3.423,0,0,1-2.466.849,3.461,3.461,0,0,1-2.482-.849,3.118,3.118,0,0,1-.9-2.37,3.094,3.094,0,0,1,.9-2.362,3.447,3.447,0,0,1,2.482-.857Z" transform="translate(-0.937 12.25)"/>
      </g>
      <g id="Group_32" data-name="Group 32" transform="translate(76.269 325.658)">
        <path id="Path_40" data-name="Path 40" d="M1.7-8.222v-3.747h1.97v.616c0,.332,0,.749-.008,1.249v1.009A9.525,9.525,0,0,0,3.7-8.029a1.255,1.255,0,0,0,.128.472.82.82,0,0,0,.312.3.944.944,0,0,0,.448.1,1.12,1.12,0,0,0,.961-.472,2.16,2.16,0,0,0,.352-1.313v-3.026H7.868v6.133H5.907v-.889a3.03,3.03,0,0,1-.937.793,2.353,2.353,0,0,1-1.089.256,2.028,2.028,0,0,1-1.625-.649,2.869,2.869,0,0,1-.552-1.9Z" transform="translate(-1.703 11.969)"/>
      </g>
      <g id="Group_33" data-name="Group 33" transform="translate(84.322 325.514)">
        <path id="Path_41" data-name="Path 41" d="M8-9.7v3.731H6.031V-8.831a9.853,9.853,0,0,0-.04-1.089,1.14,1.14,0,0,0-.12-.448.78.78,0,0,0-.312-.3.882.882,0,0,0-.448-.112,1.126,1.126,0,0,0-.961.48A2.137,2.137,0,0,0,3.8-8.991v3.018H1.843v-6.133H3.8v.9a3.013,3.013,0,0,1,.945-.785,2.362,2.362,0,0,1,1.1-.256,1.978,1.978,0,0,1,1.609.657A2.842,2.842,0,0,1,8-9.7Z" transform="translate(-1.843 12.25)"/>
      </g>
      <g id="Group_34" data-name="Group 34" transform="translate(96.292 323.616)">
        <path id="Path_42" data-name="Path 42" d="M2.016-15.953H5.506a3.64,3.64,0,0,1,2.394.7,2.4,2.4,0,0,1,.841,1.97A2.431,2.431,0,0,1,7.9-11.3a3.662,3.662,0,0,1-2.394.689H4.121v2.834H2.016Zm2.106,1.529v2.282H5.282a1.364,1.364,0,0,0,.945-.3,1.069,1.069,0,0,0,.336-.849,1.063,1.063,0,0,0-.336-.841,1.374,1.374,0,0,0-.945-.3Z" transform="translate(-2.016 15.953)"/>
      </g>
      <g id="Group_35" data-name="Group 35" transform="translate(104.42 325.514)">
        <path id="Path_43" data-name="Path 43" d="M6.392-10.433a2.509,2.509,0,0,0-.512-.176,2.078,2.078,0,0,0-.512-.064,1.432,1.432,0,0,0-1.161.488A2.083,2.083,0,0,0,3.8-8.8v2.826H1.844v-6.133H3.8V-11.1a2.453,2.453,0,0,1,.865-.873,2.36,2.36,0,0,1,1.177-.28c.068,0,.14,0,.216.008s.186.016.336.032Z" transform="translate(-1.844 12.25)"/>
      </g>
      <g id="Group_36" data-name="Group 36" transform="translate(109.483 325.514)">
        <path id="Path_44" data-name="Path 44" d="M4.316-10.849a1.153,1.153,0,0,0-.993.472,2.232,2.232,0,0,0-.344,1.345,2.263,2.263,0,0,0,.344,1.353,1.157,1.157,0,0,0,.993.464,1.13,1.13,0,0,0,.977-.464,2.277,2.277,0,0,0,.344-1.353,2.246,2.246,0,0,0-.344-1.345A1.127,1.127,0,0,0,4.316-10.849Zm0-1.4a3.41,3.41,0,0,1,2.466.857,3.1,3.1,0,0,1,.9,2.362,3.126,3.126,0,0,1-.9,2.37,3.423,3.423,0,0,1-2.466.849,3.461,3.461,0,0,1-2.482-.849,3.118,3.118,0,0,1-.9-2.37,3.094,3.094,0,0,1,.9-2.362,3.447,3.447,0,0,1,2.482-.857Z" transform="translate(-0.937 12.25)"/>
      </g>
      <g id="Group_37" data-name="Group 37" transform="translate(116.336 323.272)">
        <path id="Path_45" data-name="Path 45" d="M.594-14.239H2.548v6.021a2.7,2.7,0,0,1-.592,1.882A2.18,2.18,0,0,1,.25-5.688H-.719V-6.969h.336a.956.956,0,0,0,.769-.256,1.652,1.652,0,0,0,.208-.993Zm0-2.386H2.548v1.6H.594Z" transform="translate(0.719 16.625)"/>
      </g>
      <g id="Group_38" data-name="Group 38" transform="translate(121.026 325.514)">
        <path id="Path_46" data-name="Path 46" d="M7.519-9.055v.56H2.939a1.449,1.449,0,0,0,.5,1.033,1.841,1.841,0,0,0,1.193.344A4.574,4.574,0,0,0,5.893-7.3,6.72,6.72,0,0,0,7.23-7.854v1.513a8.852,8.852,0,0,1-1.393.392,7.3,7.3,0,0,1-1.393.136,3.714,3.714,0,0,1-2.586-.841A3.066,3.066,0,0,1,.937-9.031a3.085,3.085,0,0,1,.9-2.354,3.465,3.465,0,0,1,2.5-.865,3.106,3.106,0,0,1,2.306.873,3.128,3.128,0,0,1,.873,2.322ZM5.5-9.7a1.233,1.233,0,0,0-.328-.9,1.11,1.11,0,0,0-.849-.344,1.35,1.35,0,0,0-.929.32,1.48,1.48,0,0,0-.44.921Z" transform="translate(-0.937 12.25)"/>
      </g>
      <g id="Group_39" data-name="Group 39" transform="translate(128.629 325.514)">
        <path id="Path_47" data-name="Path 47" d="M6.35-11.914v1.6a3.22,3.22,0,0,0-.8-.4,2.593,2.593,0,0,0-.833-.136,1.681,1.681,0,0,0-1.281.48,1.864,1.864,0,0,0-.456,1.337,1.861,1.861,0,0,0,.456,1.337,1.681,1.681,0,0,0,1.281.48,2.68,2.68,0,0,0,.865-.136,2.541,2.541,0,0,0,.769-.408v1.6a4.816,4.816,0,0,1-.929.256,5.258,5.258,0,0,1-.953.088,3.72,3.72,0,0,1-2.594-.849,3.049,3.049,0,0,1-.937-2.37,3.026,3.026,0,0,1,.937-2.362,3.7,3.7,0,0,1,2.594-.857,5.122,5.122,0,0,1,.945.088,5.488,5.488,0,0,1,.937.248Z" transform="translate(-0.938 12.25)"/>
      </g>
      <g id="Group_40" data-name="Group 40" transform="translate(134.938 323.921)">
        <path id="Path_48" data-name="Path 48" d="M3.22-15.359v1.737H5.237v1.4H3.22v2.6a.762.762,0,0,0,.168.576,1.046,1.046,0,0,0,.673.152H5.069v1.4H3.388a2.3,2.3,0,0,1-1.649-.48,2.3,2.3,0,0,1-.48-1.649v-2.6H.281v-1.4h.977v-1.737Z" transform="translate(-0.281 15.359)"/>
      </g>
    </g>
  </g>
</svg>
