<svg xmlns="http://www.w3.org/2000/svg" xmlns:xlink="http://www.w3.org/1999/xlink" width="318" height="297" viewBox="0 0 318 297">
  <defs>
    <clipPath id="clip-path">
      <rect id="Rectangle_2" data-name="Rectangle 2" width="318" height="297" transform="translate(1132 406)" fill="#fff" stroke="#707070" stroke-width="1"/>
    </clipPath>
  </defs>
  <g id="Mask_Group_2" data-name="Mask Group 2" transform="translate(-1132 -406)" clip-path="url(#clip-path)">
    <g id="noun-depression-4728806_1_" data-name="noun-depression-4728806 (1)" transform="translate(1132 406)">
      <path id="Path_49" data-name="Path 49" d="M268.9,308.338A74.882,74.882,0,0,0,240.583,325.9a73.444,73.444,0,0,0-21.877,52.375,14.9,14.9,0,0,0,14.945,14.814H353.208a14.935,14.935,0,0,0,14.945-14.814c.411-30.872-20.631-60.132-50.194-69.935,51.168-25.879,33.216-102.245-24.53-102.9-57.758.659-75.68,77.035-24.53,102.9Zm70.317,24.532a63.654,63.654,0,0,1,18.972,45.4,5.024,5.024,0,0,1-4.982,4.938H338.262v-9.876a4.982,4.982,0,0,0-9.963,0v9.876H258.557v-9.876a4.982,4.982,0,0,0-9.963,0v9.876H233.65a4.965,4.965,0,0,1-4.982-4.938c-.378-27.367,18.716-53.171,45.143-61.159,3.641,22.065,35.6,22.049,39.232,0a64.937,64.937,0,0,1,26.171,15.756Zm-55.751-18.794v-.937a53.878,53.878,0,0,0,19.926,0C304.087,326.768,283.961,327.7,283.465,314.077Zm54.8-54.319a44.338,44.338,0,0,1-31.388,42.4c-27.877,9.369-59.067-13.137-58.281-42.4,2.462-58.953,87.208-58.947,89.668,0Z" transform="translate(-135.281 -101.943)"/>
      <path id="Path_50" data-name="Path 50" d="M322.92,350.483a20.18,20.18,0,0,1,23.907,0,5.01,5.01,0,0,0,6.974-.988c5.769-9.517-16.675-13.355-18.93-12.837a30.256,30.256,0,0,0-17.936,5.926C311.749,346.486,317.691,354.339,322.92,350.483Z" transform="translate(-176.724 -159.089)"/>
      <path id="Path_51" data-name="Path 51" d="M487.395,120.2a14.9,14.9,0,0,0-14.945,14.814c.111,6.481,9.85,6.5,9.963,0a4.966,4.966,0,0,1,4.982-4.938c19.7-.509,19.7-29.12,0-29.629h-9.963a4.938,4.938,0,1,0,0,9.876h9.963C493.94,110.443,493.942,120.086,487.395,120.2Z" transform="translate(-244.563 -56.206)"/>
      <path id="Path_52" data-name="Path 52" d="M477.487,179.2c-6.545.123-6.543,9.753,0,9.876C484.03,188.951,484.03,179.324,477.487,179.2Z" transform="translate(-244.619 -90.513)"/>
      <path id="Path_53" data-name="Path 53" d="M387.533,112.334c1.263,31.161,41.54,44.615,61.549,20.557,26.658,32.021,75.2-3.45,52.01-38.2,18.986-25.586-10.027-61.182-39.261-47.97-5.829-32.8-52.964-32.911-58.976-.174-37.308-.075-48.779,49.77-15.323,65.787Zm14.909-55.911c2.564-.154,6.02,1.4,8.273-.741a4.92,4.92,0,0,0,1.692-4.42c1.619-28.152,43.135-24.446,39.5,3.518-.905,4.407,4.83,7.592,8.164,4.561,13.973-12.429,37.391-1.8,37.021,16.834a22.032,22.032,0,0,1-6.054,15.147,4.906,4.906,0,0,0,0,6.741c13.41,13.633,2.853,37.744-16.363,37.369a22.344,22.344,0,0,1-20.745-13.815c-1.439-3.94-7.49-3.984-9.1-.258-11.764,24.146-48.782,14.817-47.285-12.01a4.938,4.938,0,0,0-3.323-4.956c-26.164-9.3-19.6-47.743,8.226-47.968Z" transform="translate(-199.459 -22.055)"/>
      <path id="Path_54" data-name="Path 54" d="M478.771,240.45c-19.706.511-19.7,29.12,0,29.629,19.706-.511,19.7-29.12,0-29.629Zm0,9.876c6.547.117,6.545,9.759,0,9.876C472.224,260.086,472.226,250.441,478.771,250.326Z" transform="translate(-240.921 -117.196)"/>
      <path id="Path_55" data-name="Path 55" d="M454.95,297.945c.125,6.486,9.838,6.486,9.963,0C464.786,291.46,455.075,291.46,454.95,297.945Z" transform="translate(-237.026 -140.124)"/>
      <path id="Path_56" data-name="Path 56" d="M207.395,111.452a14.9,14.9,0,0,0-14.945,14.814c.111,6.481,9.85,6.5,9.963,0a4.966,4.966,0,0,1,4.982-4.938c19.7-.509,19.7-29.12,0-29.629h-9.963c-6.547.11-6.549,9.766,0,9.876h9.963C213.94,101.693,213.942,111.336,207.395,111.452Z" transform="translate(-123.973 -52.394)"/>
      <path id="Path_57" data-name="Path 57" d="M197.487,170.45c-6.545.123-6.543,9.753,0,9.876C204.032,180.2,204.03,170.574,197.487,170.45Z" transform="translate(-124.028 -86.701)"/>
      <path id="Path_58" data-name="Path 58" d="M119.768,145.307a32.351,32.351,0,0,0,25.588-12.42c20.02,24.071,60.3,10.591,61.549-20.555,33.474-16.033,21.97-65.86-15.323-65.787-6.025-32.762-53.16-32.607-58.976.174-29.752-12.8-58.042,21.785-39.259,47.97-15.294,20.489.678,51.108,26.42,50.616Zm14.6-85.963c3.336,3.049,9.06-.17,8.162-4.563-3.645-27.924,37.855-31.7,39.5-3.527a4.938,4.938,0,0,0,1.692,4.429c2.248,2.138,5.709.586,8.273.741,27.794.225,34.417,38.656,8.226,47.968a4.939,4.939,0,0,0-3.322,4.958c1.488,26.809-35.507,36.174-47.287,12.008-1.661-3.851-7.717-3.551-9.1.258-9.287,22.334-43.039,15.775-43.161-8.4A22.032,22.032,0,0,1,103.4,98.064a4.907,4.907,0,0,0,0-6.741C84.627,70.684,112.784,41.6,134.37,59.344Z" transform="translate(-78.686 -22.053)"/>
      <path id="Path_59" data-name="Path 59" d="M198.771,240.45c-19.706.511-19.7,29.12,0,29.629,19.706-.511,19.7-29.12,0-29.629Zm0,19.752c-6.547-.117-6.545-9.762,0-9.876C205.316,250.443,205.316,260.086,198.771,260.2Z" transform="translate(-120.331 -117.196)"/>
      <path id="Path_60" data-name="Path 60" d="M237.413,297.945c-.127-6.486-9.838-6.486-9.963,0C227.575,304.431,237.288,304.431,237.413,297.945Z" transform="translate(-139.047 -140.124)"/>
      <g id="Group_41" data-name="Group 41" transform="translate(0 359.342)">
        <path id="Path_61" data-name="Path 61" d="M17.623-15.133a11.962,11.962,0,0,1-2.7,1,12.132,12.132,0,0,1-2.909.344,10.051,10.051,0,0,1-7.2-2.513,8.954,8.954,0,0,1-2.651-6.825,8.954,8.954,0,0,1,2.651-6.825,10.05,10.05,0,0,1,7.2-2.513,12.475,12.475,0,0,1,2.909.335,11.886,11.886,0,0,1,2.7,1.005v3.721A10.313,10.313,0,0,0,15.052-28.7a8.509,8.509,0,0,0-2.66-.414,5.029,5.029,0,0,0-3.941,1.6,6.3,6.3,0,0,0-1.432,4.383,6.314,6.314,0,0,0,1.432,4.383,5.038,5.038,0,0,0,3.941,1.587,8.635,8.635,0,0,0,2.66-.406,10.436,10.436,0,0,0,2.571-1.3Z" transform="translate(-2.171 32.469)"/>
      </g>
      <g id="Group_42" data-name="Group 42" transform="translate(19.135 363.84)">
        <path id="Path_62" data-name="Path 62" d="M13.795-20.5a5.777,5.777,0,0,0-1.148-.388,4.912,4.912,0,0,0-1.13-.132A3.215,3.215,0,0,0,8.929-19.95a4.622,4.622,0,0,0-.9,3.06v6.217H3.672v-13.5H8.031v2.213a5.5,5.5,0,0,1,1.921-1.931,5.3,5.3,0,0,1,2.615-.608c.142,0,.3.007.471.018s.418.04.738.079Z" transform="translate(-3.672 24.499)"/>
      </g>
      <g id="Group_43" data-name="Group 43" transform="translate(30.395 363.84)">
        <path id="Path_63" data-name="Path 63" d="M16.5-17.463v1.235H6.313a3.2,3.2,0,0,0,1.1,2.275,4.157,4.157,0,0,0,2.66.758,10.573,10.573,0,0,0,2.811-.4,14.523,14.523,0,0,0,2.962-1.226v3.324a18.292,18.292,0,0,1-3.087.873,16.324,16.324,0,0,1-3.087.3A8.263,8.263,0,0,1,3.92-12.181,6.72,6.72,0,0,1,1.874-17.41,6.776,6.776,0,0,1,3.885-22.6a7.776,7.776,0,0,1,5.542-1.9,6.972,6.972,0,0,1,5.142,1.922,6.885,6.885,0,0,1,1.93,5.114Zm-4.475-1.429a2.732,2.732,0,0,0-.729-1.984,2.486,2.486,0,0,0-1.886-.758,2.986,2.986,0,0,0-2.064.705,3.273,3.273,0,0,0-.979,2.037Z" transform="translate(-1.874 24.5)"/>
      </g>
      <g id="Group_44" data-name="Group 44" transform="translate(47.288 363.839)">
        <path id="Path_64" data-name="Path 64" d="M9-16.749a3.715,3.715,0,0,0-2.046.459,1.518,1.518,0,0,0-.685,1.349,1.592,1.592,0,0,0,.552,1.287A2.334,2.334,0,0,0,8.36-13.2a2.745,2.745,0,0,0,2.064-.873,3.019,3.019,0,0,0,.845-2.187v-.494Zm6.654-1.631v7.707H11.27v-2a5.65,5.65,0,0,1-1.975,1.79,5.767,5.767,0,0,1-2.66.564,4.864,4.864,0,0,1-3.443-1.226,4.133,4.133,0,0,1-1.317-3.175A3.89,3.89,0,0,1,3.521-18.2,9.462,9.462,0,0,1,8.7-19.316H11.27v-.344a1.612,1.612,0,0,0-.818-1.5,5.2,5.2,0,0,0-2.544-.476,11.378,11.378,0,0,0-2.6.282,8.987,8.987,0,0,0-2.242.829v-3.289a23.611,23.611,0,0,1,2.811-.511A22.9,22.9,0,0,1,8.7-24.5q3.689,0,5.32,1.446t1.637,4.674Z" transform="translate(-1.876 24.501)"/>
      </g>
      <g id="Group_45" data-name="Group 45" transform="translate(63.357 360.33)">
        <path id="Path_65" data-name="Path 65" d="M7.1-30.719v3.836h4.483V-23.8H7.1v5.723A1.689,1.689,0,0,0,7.472-16.8a2.393,2.393,0,0,0,1.494.326h2.242v3.086H7.472a5.085,5.085,0,0,1-3.656-1.067A4.982,4.982,0,0,1,2.74-18.074V-23.8H.578v-3.086H2.74v-3.836Z" transform="translate(-0.578 30.719)"/>
      </g>
      <g id="Group_46" data-name="Group 46" transform="translate(76.002 363.84)">
        <path id="Path_66" data-name="Path 66" d="M16.5-17.463v1.235H6.313a3.2,3.2,0,0,0,1.1,2.275,4.157,4.157,0,0,0,2.66.758,10.573,10.573,0,0,0,2.811-.4,14.523,14.523,0,0,0,2.962-1.226v3.324a18.292,18.292,0,0,1-3.087.873,16.324,16.324,0,0,1-3.087.3A8.263,8.263,0,0,1,3.92-12.181,6.72,6.72,0,0,1,1.874-17.41,6.776,6.776,0,0,1,3.885-22.6a7.776,7.776,0,0,1,5.542-1.9,6.972,6.972,0,0,1,5.142,1.922,6.885,6.885,0,0,1,1.93,5.114Zm-4.475-1.429a2.732,2.732,0,0,0-.729-1.984,2.486,2.486,0,0,0-1.886-.758,2.986,2.986,0,0,0-2.064.705,3.273,3.273,0,0,0-.979,2.037Z" transform="translate(-1.874 24.5)"/>
      </g>
      <g id="Group_47" data-name="Group 47" transform="translate(92.949 358.91)">
        <path id="Path_67" data-name="Path 67" d="M12.208-26v-7.231h4.377v18.756H12.208v-1.949a5.9,5.9,0,0,1-1.984,1.746,5.44,5.44,0,0,1-2.509.556,5.1,5.1,0,0,1-4.136-1.984,7.84,7.84,0,0,1-1.61-5.106,7.84,7.84,0,0,1,1.61-5.106A5.1,5.1,0,0,1,7.715-28.3a5.363,5.363,0,0,1,2.5.564A5.9,5.9,0,0,1,12.208-26ZM9.334-17.265a2.464,2.464,0,0,0,2.135-1.014,4.943,4.943,0,0,0,.738-2.936,4.969,4.969,0,0,0-.738-2.945,2.469,2.469,0,0,0-2.135-1.014,2.472,2.472,0,0,0-2.126,1.014,5,5,0,0,0-.729,2.945,4.979,4.979,0,0,0,.729,2.936A2.466,2.466,0,0,0,9.334-17.265Z" transform="translate(-1.969 33.234)"/>
      </g>
      <g id="Group_48" data-name="Group 48" transform="translate(120.418 358.911)">
        <path id="Path_68" data-name="Path 68" d="M10.922-17.264a2.48,2.48,0,0,0,2.135-1.014,4.943,4.943,0,0,0,.738-2.936,4.969,4.969,0,0,0-.738-2.945,2.485,2.485,0,0,0-2.135-1.014,2.5,2.5,0,0,0-2.144,1.023,4.9,4.9,0,0,0-.747,2.936,4.921,4.921,0,0,0,.747,2.936,2.5,2.5,0,0,0,2.144,1.014ZM8.031-26a5.881,5.881,0,0,1,1.993-1.737,5.431,5.431,0,0,1,2.517-.564,5.109,5.109,0,0,1,4.136,1.984A7.819,7.819,0,0,1,18.3-21.215a7.819,7.819,0,0,1-1.619,5.106,5.109,5.109,0,0,1-4.136,1.984,5.431,5.431,0,0,1-2.517-.564,5.978,5.978,0,0,1-1.993-1.737v1.949H3.672V-33.234H8.031Z" transform="translate(-3.672 33.234)"/>
      </g>
      <g id="Group_49" data-name="Group 49" transform="translate(136.459 364.166)">
        <path id="Path_69" data-name="Path 69" d="M.531-23.922H4.89L8.546-14.76l3.113-9.162h4.359L10.29-9.143A7.139,7.139,0,0,1,8.271-5.995a4.781,4.781,0,0,1-3.033.9H2.72V-7.926H4.081a2.862,2.862,0,0,0,1.61-.353,2.285,2.285,0,0,0,.792-1.252L6.6-9.9Z" transform="translate(-0.531 23.922)"/>
      </g>
      <g id="Group_50" data-name="Group 50" transform="translate(163.351 359.668)">
        <path id="Path_70" data-name="Path 70" d="M4.016-31.891H8.695V-17.4h8.228v3.51H4.015Z" transform="translate(-4.015 31.891)"/>
      </g>
      <g id="Group_51" data-name="Group 51" transform="translate(179.223 359.668)">
        <path id="Path_71" data-name="Path 71" d="M4.016-31.891H8.695v10.784a5.313,5.313,0,0,0,.738,3.192,2.835,2.835,0,0,0,2.4.961,2.834,2.834,0,0,0,2.411-.961,5.329,5.329,0,0,0,.738-3.192V-31.891h4.688v10.784q0,3.829-1.939,5.7t-5.9,1.869q-3.95,0-5.889-1.869t-1.93-5.7Z" transform="translate(-4.016 31.891)"/>
      </g>
      <g id="Group_52" data-name="Group 52" transform="translate(197.288 359.668)">
        <path id="Path_72" data-name="Path 72" d="M.219-31.891H16.952v3.51H10.929v14.488H6.25V-28.381H.219Z" transform="translate(-0.219 31.891)"/>
      </g>
      <g id="Group_53" data-name="Group 53" transform="translate(216.44 359.668)">
        <path id="Path_73" data-name="Path 73" d="M4.016-31.891H16.656v3.51H8.695v3.351h7.481v3.51H8.695v7.628H4.016Z" transform="translate(-4.016 31.891)"/>
      </g>
      <g id="Group_54" data-name="Group 54" transform="translate(233.453 359.668)">
        <path id="Path_74" data-name="Path 74" d="M4.016-31.891H8.695v18H4.016Z" transform="translate(-4.016 31.891)"/>
      </g>
      <g id="Group_55" data-name="Group 55" transform="translate(250.344 359.342)">
        <path id="Path_75" data-name="Path 75" d="M19.545-15.485a16.835,16.835,0,0,1-3.638,1.27,17.707,17.707,0,0,1-3.887.423,10.051,10.051,0,0,1-7.2-2.513,8.954,8.954,0,0,1-2.651-6.825,8.869,8.869,0,0,1,2.7-6.843,10.5,10.5,0,0,1,7.4-2.5,17.5,17.5,0,0,1,3.469.335,14.7,14.7,0,0,1,3.14,1.005v3.721a13.927,13.927,0,0,0-3.025-1.279,11.089,11.089,0,0,0-3.016-.423,5.737,5.737,0,0,0-4.305,1.552A6.08,6.08,0,0,0,7.02-23.131a6.219,6.219,0,0,0,1.459,4.418,5.4,5.4,0,0,0,4.145,1.552,9.58,9.58,0,0,0,1.352-.088,4.943,4.943,0,0,0,1.13-.282v-3.5H12.242v-3.1h7.3Z" transform="translate(-2.172 32.469)"/>
      </g>
      <g id="Group_56" data-name="Group 56" transform="translate(269.676 359.668)">
        <path id="Path_76" data-name="Path 76" d="M13.4-17.173H6.081l-1.156,3.28H.219l6.725-18h5.578l6.725,18H14.541ZM7.247-20.515h4.973L9.738-27.676Z" transform="translate(-0.219 31.891)"/>
      </g>
      <g id="Group_57" data-name="Group 57" transform="translate(291.114 359.668)">
        <path id="Path_77" data-name="Path 77" d="M4.016-31.891H9.246l6.6,12.345V-31.891h4.439v18H15.055l-6.6-12.345v12.345H4.016Z" transform="translate(-4.016 31.891)"/>
      </g>
      <g id="Group_58" data-name="Group 58" transform="translate(311.959 359.668)">
        <path id="Path_78" data-name="Path 78" d="M4.016-31.891H8.695v18H4.016Z" transform="translate(-4.016 31.891)"/>
      </g>
      <g id="Group_59" data-name="Group 59" transform="translate(327.738 359.668)">
        <path id="Path_79" data-name="Path 79" d="M13.4-17.173H6.081l-1.156,3.28H.219l6.725-18h5.578l6.725,18H14.541ZM7.247-20.515h4.973L9.738-27.676Z" transform="translate(-0.219 31.891)"/>
      </g>
      <g id="Group_60" data-name="Group 60" transform="translate(349.176 359.668)">
        <path id="Path_80" data-name="Path 80" d="M4.016-31.891H8.695V-17.4h8.228v3.51H4.015Z" transform="translate(-4.015 31.891)"/>
      </g>
    </g>
  </g>
</svg>
