<svg xmlns="http://www.w3.org/2000/svg" xmlns:xlink="http://www.w3.org/1999/xlink" width="84" height="85" viewBox="0 0 84 85">
  <defs>
    <clipPath id="clip-path">
      <rect id="Rectangle_43" data-name="Rectangle 43" width="84" height="85" transform="translate(9885.992 6677)" fill="#fff" stroke="#707070" stroke-width="1"/>
    </clipPath>
  </defs>
  <g id="Mask_Group_11" data-name="Mask Group 11" transform="translate(-9885.992 -6677)" clip-path="url(#clip-path)">
    <g id="noun-quality-4553041" transform="translate(9886.125 6677)">
      <path id="Path_1452" data-name="Path 1452" d="M195.577,69.152a11.666,11.666,0,0,0,4.542-9.242,9.018,9.018,0,0,1,2.654-6.417,11.7,11.7,0,0,0,0-16.555,9,9,0,0,1-2.654-6.417,11.725,11.725,0,0,0-11.711-11.711,9.018,9.018,0,0,1-6.417-2.654,11.7,11.7,0,0,0-16.555,0,9,9,0,0,1-6.417,2.654A11.725,11.725,0,0,0,147.31,30.522a9,9,0,0,1-2.654,6.417,11.728,11.728,0,0,0,0,16.568,9,9,0,0,1,2.654,6.417,11.623,11.623,0,0,0,3.182,8l-8.5,18.231a1.334,1.334,0,0,0,.224,1.452,1.309,1.309,0,0,0,1.426.343l11.116-4.04,4.04,11.116a1.33,1.33,0,0,0,1.188.872h.053a1.32,1.32,0,0,0,1.2-.766l8.463-18.14a11.735,11.735,0,0,0,4.013.713,12.27,12.27,0,0,0,2.324-.224l8.225,17.651a1.343,1.343,0,0,0,1.2.766h.053a1.344,1.344,0,0,0,1.188-.872l4.053-11.116,11.116,4.04a1.318,1.318,0,0,0,1.65-1.8Zm-35.4,21.981-3.406-9.36a1.317,1.317,0,0,0-1.69-.792l-9.36,3.406,6.852-14.694a11.675,11.675,0,0,0,6.429,1.941,9,9,0,0,1,6.417,2.654,11.644,11.644,0,0,0,1.9,1.532Zm9.413-17.044h0a9.2,9.2,0,0,1-2.3-1.664,11.591,11.591,0,0,0-8.278-3.433,9.077,9.077,0,0,1-9.07-9.07,11.589,11.589,0,0,0-3.433-8.278,9.084,9.084,0,0,1,0-12.833,11.591,11.591,0,0,0,3.433-8.278,9.077,9.077,0,0,1,9.07-9.07,11.589,11.589,0,0,0,8.278-3.433,9.084,9.084,0,0,1,12.833,0,11.614,11.614,0,0,0,8.278,3.433,9.077,9.077,0,0,1,9.07,9.07,11.589,11.589,0,0,0,3.433,8.278,9.084,9.084,0,0,1,0,12.833,11.614,11.614,0,0,0-3.433,8.278,9.077,9.077,0,0,1-9.07,9.07,11.589,11.589,0,0,0-8.278,3.433,9,9,0,0,1-6.417,2.654,9.2,9.2,0,0,1-4.12-.991Zm20.819,6.892a1.316,1.316,0,0,0-1.69.792l-3.406,9.36-6.747-14.483A11.61,11.61,0,0,0,182,74.274a9,9,0,0,1,6.417-2.654,11.58,11.58,0,0,0,4.911-1.1l6.456,13.85Z" transform="translate(-130.273 -12.725)"/>
      <path id="Path_1453" data-name="Path 1453" d="M246.287,94.508a23.408,23.408,0,1,0-23.4,23.408,23.437,23.437,0,0,0,23.4-23.408Zm-23.394,20.768a20.761,20.761,0,1,1,20.766-20.755A20.787,20.787,0,0,1,222.892,115.276Z" transform="translate(-179.451 -62.017)"/>
      <path id="Path_1454" data-name="Path 1454" d="M278.793,125.438a1.317,1.317,0,0,0-1.069-.9l-9.493-1.386-4.251-8.608a1.373,1.373,0,0,0-2.363,0l-4.251,8.608-9.493,1.386a1.317,1.317,0,0,0-1.069.9,1.334,1.334,0,0,0,.33,1.36l6.879,6.694-1.624,9.453a1.334,1.334,0,0,0,.528,1.294,1.278,1.278,0,0,0,.779.251,1.37,1.37,0,0,0,.607-.145l8.5-4.476,8.489,4.463a1.289,1.289,0,0,0,1.386-.106,1.324,1.324,0,0,0,.528-1.294l-1.624-9.453,6.879-6.694a1.3,1.3,0,0,0,.329-1.346Zm-9.545,6.64a1.333,1.333,0,0,0-.383,1.175l1.281,7.512-6.747-3.538a1.248,1.248,0,0,0-.607-.145,1.371,1.371,0,0,0-.607.145l-6.747,3.538,1.294-7.512a1.31,1.31,0,0,0-.383-1.175l-5.453-5.321,7.539-1.1a1.29,1.29,0,0,0,.99-.726l3.38-6.825,3.367,6.826a1.335,1.335,0,0,0,.99.726l7.539,1.1Z" transform="translate(-219.364 -98.135)"/>
      <g id="Group_359" data-name="Group 359" transform="translate(0.202 100.06)">
        <path id="Path_1455" data-name="Path 1455" d="M6.2-26.851a3.142,3.142,0,0,1-.715.267,3.271,3.271,0,0,1-.771.09,2.645,2.645,0,0,1-1.906-.671,2.4,2.4,0,0,1-.7-1.823,2.4,2.4,0,0,1,.7-1.823,2.641,2.641,0,0,1,1.906-.673,3.271,3.271,0,0,1,.771.09,3.2,3.2,0,0,1,.715.267v1a2.714,2.714,0,0,0-.681-.345,2.26,2.26,0,0,0-.705-.109,1.334,1.334,0,0,0-1.045.425,1.7,1.7,0,0,0-.379,1.172,1.7,1.7,0,0,0,.379,1.172,1.332,1.332,0,0,0,1.045.425,2.261,2.261,0,0,0,.705-.109,2.8,2.8,0,0,0,.681-.345Z" transform="translate(-2.11 31.485)"/>
      </g>
      <g id="Group_360" data-name="Group 360" transform="translate(5.272 101.261)">
        <path id="Path_1456" data-name="Path 1456" d="M6.244-22.693a1.328,1.328,0,0,0-.3-.1,1.381,1.381,0,0,0-.3-.034.848.848,0,0,0-.686.284,1.238,1.238,0,0,0-.238.817v1.663H3.563v-3.61H4.718v.593a1.467,1.467,0,0,1,.508-.518,1.394,1.394,0,0,1,.693-.163c.039,0,.081,0,.126,0s.111.011.2.022Z" transform="translate(-3.563 23.765)"/>
      </g>
      <g id="Group_361" data-name="Group 361" transform="translate(8.258 101.261)">
        <path id="Path_1457" data-name="Path 1457" d="M5.7-21.881v.328h-2.7a.858.858,0,0,0,.292.61,1.1,1.1,0,0,0,.7.2,2.744,2.744,0,0,0,.746-.107,3.937,3.937,0,0,0,.785-.328v.89a4.95,4.95,0,0,1-.819.231,4.244,4.244,0,0,1-.819.08,2.172,2.172,0,0,1-1.522-.5,1.8,1.8,0,0,1-.542-1.4,1.823,1.823,0,0,1,.532-1.388,2.04,2.04,0,0,1,1.468-.508,1.837,1.837,0,0,1,1.361.513A1.859,1.859,0,0,1,5.7-21.881Zm-1.186-.384a.739.739,0,0,0-.192-.53.656.656,0,0,0-.5-.2.779.779,0,0,0-.545.19.863.863,0,0,0-.26.542Z" transform="translate(-1.829 23.765)"/>
      </g>
      <g id="Group_362" data-name="Group 362" transform="translate(12.735 101.261)">
        <path id="Path_1458" data-name="Path 1458" d="M3.717-21.693a.973.973,0,0,0-.545.124.405.405,0,0,0-.182.36.426.426,0,0,0,.146.343.616.616,0,0,0,.408.124.724.724,0,0,0,.547-.233.814.814,0,0,0,.224-.586v-.131Zm1.763-.435v2.059H4.315V-20.6a1.481,1.481,0,0,1-.523.479,1.538,1.538,0,0,1-.705.148,1.283,1.283,0,0,1-.912-.326,1.113,1.113,0,0,1-.348-.848,1.05,1.05,0,0,1,.435-.934,2.49,2.49,0,0,1,1.371-.3h.681v-.09a.429.429,0,0,0-.216-.4A1.362,1.362,0,0,0,3.426-23a3.035,3.035,0,0,0-.69.075,2.307,2.307,0,0,0-.591.221v-.88a6.636,6.636,0,0,1,.744-.136,5.822,5.822,0,0,1,.746-.049,2.093,2.093,0,0,1,1.41.387,1.594,1.594,0,0,1,.435,1.252Z" transform="translate(-1.828 23.766)"/>
      </g>
      <g id="Group_363" data-name="Group 363" transform="translate(16.992 100.325)">
        <path id="Path_1459" data-name="Path 1459" d="M2.288-29.781v1.024H3.48v.827H2.288V-26.4a.453.453,0,0,0,.1.343.643.643,0,0,0,.4.088h.591v.824h-.99a1.34,1.34,0,0,1-.968-.284,1.349,1.349,0,0,1-.284-.97v-1.529H.562v-.827h.574v-1.024Z" transform="translate(-0.562 29.781)"/>
      </g>
      <g id="Group_364" data-name="Group 364" transform="translate(20.345 101.261)">
        <path id="Path_1460" data-name="Path 1460" d="M5.7-21.881v.328h-2.7a.858.858,0,0,0,.292.61,1.1,1.1,0,0,0,.7.2,2.744,2.744,0,0,0,.746-.107,3.937,3.937,0,0,0,.785-.328v.89a4.95,4.95,0,0,1-.819.231,4.244,4.244,0,0,1-.819.08,2.172,2.172,0,0,1-1.522-.5,1.8,1.8,0,0,1-.542-1.4,1.823,1.823,0,0,1,.532-1.388,2.04,2.04,0,0,1,1.468-.508,1.837,1.837,0,0,1,1.361.513A1.859,1.859,0,0,1,5.7-21.881Zm-1.186-.384a.739.739,0,0,0-.192-.53.656.656,0,0,0-.5-.2.779.779,0,0,0-.545.19.863.863,0,0,0-.26.542Z" transform="translate(-1.829 23.765)"/>
      </g>
      <g id="Group_365" data-name="Group 365" transform="translate(24.835 99.943)">
        <path id="Path_1461" data-name="Path 1461" d="M4.62-30.3v-1.935h1.16v5.016H4.62v-.523a1.562,1.562,0,0,1-.525.467,1.432,1.432,0,0,1-.664.148,1.35,1.35,0,0,1-1.1-.53,2.1,2.1,0,0,1-.428-1.364,2.1,2.1,0,0,1,.428-1.364,1.349,1.349,0,0,1,1.1-.532,1.405,1.405,0,0,1,.661.151,1.6,1.6,0,0,1,.528.467Zm-.761,2.336a.655.655,0,0,0,.566-.27,1.345,1.345,0,0,0,.194-.788,1.336,1.336,0,0,0-.194-.785.654.654,0,0,0-.566-.272.648.648,0,0,0-.562.272,1.331,1.331,0,0,0-.194.785,1.341,1.341,0,0,0,.194.788A.649.649,0,0,0,3.859-27.963Z" transform="translate(-1.906 32.235)"/>
      </g>
      <g id="Group_366" data-name="Group 366" transform="translate(32.115 99.943)">
        <path id="Path_1462" data-name="Path 1462" d="M5.483-27.963a.655.655,0,0,0,.566-.27,1.345,1.345,0,0,0,.194-.788,1.336,1.336,0,0,0-.194-.785.654.654,0,0,0-.566-.272.663.663,0,0,0-.569.272,1.329,1.329,0,0,0-.2.785,1.327,1.327,0,0,0,.2.785A.661.661,0,0,0,5.483-27.963ZM4.717-30.3a1.593,1.593,0,0,1,.528-.467,1.422,1.422,0,0,1,.666-.151,1.346,1.346,0,0,1,1.1.532,2.105,2.105,0,0,1,.428,1.364,2.1,2.1,0,0,1-.428,1.364,1.347,1.347,0,0,1-1.1.53,1.443,1.443,0,0,1-.666-.148,1.579,1.579,0,0,1-.528-.467v.523H3.562v-5.016H4.717Z" transform="translate(-3.562 32.234)"/>
      </g>
      <g id="Group_367" data-name="Group 367" transform="translate(36.366 101.348)">
        <path id="Path_1463" data-name="Path 1463" d="M.516-23.2H1.67l.97,2.451L3.465-23.2H4.62L3.1-19.25a1.94,1.94,0,0,1-.532.841,1.26,1.26,0,0,1-.8.241H1.1v-.759h.36a.772.772,0,0,0,.428-.092.607.607,0,0,0,.207-.336l.034-.1Z" transform="translate(-0.516 23.203)"/>
      </g>
      <g id="Group_368" data-name="Group 368" transform="translate(43.493 100.147)">
        <path id="Path_1464" data-name="Path 1464" d="M5.132-29.984v2.934h.445a1.63,1.63,0,0,0,1.16-.377,1.428,1.428,0,0,0,.4-1.1,1.41,1.41,0,0,0-.4-1.087,1.64,1.64,0,0,0-1.162-.374ZM3.89-30.922H5.2a6.351,6.351,0,0,1,1.634.156,2.147,2.147,0,0,1,.919.53,2.051,2.051,0,0,1,.5.751,2.647,2.647,0,0,1,.165.963,2.685,2.685,0,0,1-.165.972,2.035,2.035,0,0,1-.5.754,2.207,2.207,0,0,1-.929.53,6.286,6.286,0,0,1-1.624.156H3.89Z" transform="translate(-3.89 30.922)"/>
      </g>
      <g id="Group_369" data-name="Group 369" transform="translate(48.651 101.261)">
        <path id="Path_1465" data-name="Path 1465" d="M5.7-21.881v.328h-2.7a.858.858,0,0,0,.292.61,1.1,1.1,0,0,0,.7.2,2.744,2.744,0,0,0,.746-.107,3.937,3.937,0,0,0,.785-.328v.89a4.95,4.95,0,0,1-.819.231,4.244,4.244,0,0,1-.819.08,2.172,2.172,0,0,1-1.522-.5,1.8,1.8,0,0,1-.542-1.4,1.823,1.823,0,0,1,.532-1.388,2.04,2.04,0,0,1,1.468-.508,1.837,1.837,0,0,1,1.361.513A1.859,1.859,0,0,1,5.7-21.881Zm-1.186-.384a.739.739,0,0,0-.192-.53.656.656,0,0,0-.5-.2.779.779,0,0,0-.545.19.863.863,0,0,0-.26.542Z" transform="translate(-1.829 23.765)"/>
      </g>
      <g id="Group_370" data-name="Group 370" transform="translate(53.187 101.261)">
        <path id="Path_1466" data-name="Path 1466" d="M5.235-23.564v.875a4.462,4.462,0,0,0-.715-.231A2.983,2.983,0,0,0,3.869-23a1.116,1.116,0,0,0-.489.083.269.269,0,0,0-.16.253.237.237,0,0,0,.122.214,1.151,1.151,0,0,0,.433.107l.2.029a2.452,2.452,0,0,1,1.191.372,1,1,0,0,1,.306.81.978.978,0,0,1-.425.866,2.266,2.266,0,0,1-1.269.289,5.123,5.123,0,0,1-.739-.056,6.338,6.338,0,0,1-.785-.168v-.878a3.36,3.36,0,0,0,.707.253,3.286,3.286,0,0,0,.737.083,1.092,1.092,0,0,0,.508-.092.3.3,0,0,0,.173-.28.253.253,0,0,0-.119-.229,1.276,1.276,0,0,0-.469-.119l-.2-.024a2.123,2.123,0,0,1-1.079-.357.985.985,0,0,1-.309-.8.971.971,0,0,1,.391-.851A2.11,2.11,0,0,1,3.8-23.766a4.9,4.9,0,0,1,.669.049,7.344,7.344,0,0,1,.766.153Z" transform="translate(-2.204 23.766)"/>
      </g>
      <g id="Group_371" data-name="Group 371" transform="translate(57.327 99.943)">
        <path id="Path_1467" data-name="Path 1467" d="M3.562-30.829H4.717v3.61H3.562Zm0-1.405H4.717v.941H3.562Z" transform="translate(-3.562 32.234)"/>
      </g>
      <g id="Group_372" data-name="Group 372" transform="translate(59.332 101.268)">
        <path id="Path_1468" data-name="Path 1468" d="M4.62-20.641a1.573,1.573,0,0,1-.525.464,1.424,1.424,0,0,1-.664.148,1.361,1.361,0,0,1-1.094-.52,2.012,2.012,0,0,1-.43-1.327,2,2,0,0,1,.43-1.325,1.364,1.364,0,0,1,1.094-.518,1.432,1.432,0,0,1,.664.148,1.575,1.575,0,0,1,.525.467v-.535H5.78v3.246a1.637,1.637,0,0,1-.549,1.33,2.423,2.423,0,0,1-1.592.459,4.09,4.09,0,0,1-.654-.051,4,4,0,0,1-.635-.158v-.9a2.7,2.7,0,0,0,.591.26,2.082,2.082,0,0,0,.583.085,1.18,1.18,0,0,0,.831-.248,1.021,1.021,0,0,0,.265-.778Zm-.761-2.247a.657.657,0,0,0-.557.265,1.219,1.219,0,0,0-.2.746,1.241,1.241,0,0,0,.192.754.665.665,0,0,0,.564.255.665.665,0,0,0,.562-.263,1.222,1.222,0,0,0,.2-.746,1.224,1.224,0,0,0-.2-.746.663.663,0,0,0-.562-.265Z" transform="translate(-1.907 23.719)"/>
      </g>
      <g id="Group_373" data-name="Group 373" transform="translate(64.315 101.261)">
        <path id="Path_1469" data-name="Path 1469" d="M7.193-22.265v2.2H6.031V-21.75a6.236,6.236,0,0,0-.022-.644.682.682,0,0,0-.071-.263.487.487,0,0,0-.185-.175.538.538,0,0,0-.263-.063.669.669,0,0,0-.569.28,1.289,1.289,0,0,0-.2.773v1.775H3.563v-3.61H4.718v.53a1.8,1.8,0,0,1,.552-.467,1.4,1.4,0,0,1,.649-.151,1.171,1.171,0,0,1,.948.384,1.685,1.685,0,0,1,.326,1.116Z" transform="translate(-3.563 23.765)"/>
      </g>
      <g id="Group_374" data-name="Group 374" transform="translate(71.087 100.06)">
        <path id="Path_1470" data-name="Path 1470" d="M6.2-26.851a3.142,3.142,0,0,1-.715.267,3.271,3.271,0,0,1-.771.09,2.645,2.645,0,0,1-1.906-.671,2.4,2.4,0,0,1-.7-1.823,2.4,2.4,0,0,1,.7-1.823,2.641,2.641,0,0,1,1.906-.673,3.271,3.271,0,0,1,.771.09,3.2,3.2,0,0,1,.715.267v1a2.714,2.714,0,0,0-.681-.345,2.26,2.26,0,0,0-.705-.109,1.334,1.334,0,0,0-1.045.425,1.7,1.7,0,0,0-.379,1.172,1.7,1.7,0,0,0,.379,1.172,1.332,1.332,0,0,0,1.045.425,2.261,2.261,0,0,0,.705-.109,2.8,2.8,0,0,0,.681-.345Z" transform="translate(-2.11 31.485)"/>
      </g>
      <g id="Group_375" data-name="Group 375" transform="translate(76.158 99.943)">
        <path id="Path_1471" data-name="Path 1471" d="M3.562-30.829H4.717v3.61H3.562Zm0-1.405H4.717v.941H3.562Z" transform="translate(-3.562 32.234)"/>
      </g>
      <g id="Group_376" data-name="Group 376" transform="translate(78.42 101.261)">
        <path id="Path_1472" data-name="Path 1472" d="M6.244-22.693a1.328,1.328,0,0,0-.3-.1,1.381,1.381,0,0,0-.3-.034.848.848,0,0,0-.686.284,1.238,1.238,0,0,0-.238.817v1.663H3.563v-3.61H4.718v.593a1.467,1.467,0,0,1,.508-.518,1.394,1.394,0,0,1,.693-.163c.039,0,.081,0,.126,0s.111.011.2.022Z" transform="translate(-3.563 23.765)"/>
      </g>
      <g id="Group_377" data-name="Group 377" transform="translate(81.405 101.261)">
        <path id="Path_1473" data-name="Path 1473" d="M5.015-23.564v.941a1.807,1.807,0,0,0-.474-.238,1.564,1.564,0,0,0-.491-.078.991.991,0,0,0-.751.282,1.094,1.094,0,0,0-.27.788,1.092,1.092,0,0,0,.27.788.989.989,0,0,0,.751.282,1.637,1.637,0,0,0,.515-.08,1.518,1.518,0,0,0,.45-.238v.943a3.211,3.211,0,0,1-.552.148,3.071,3.071,0,0,1-.557.051,2.19,2.19,0,0,1-1.529-.5,1.789,1.789,0,0,1-.549-1.393,1.79,1.79,0,0,1,.549-1.393,2.185,2.185,0,0,1,1.529-.5,3.046,3.046,0,0,1,.557.051,3.481,3.481,0,0,1,.552.151Z" transform="translate(-1.828 23.766)"/>
      </g>
      <g id="Group_378" data-name="Group 378" transform="translate(85.589 99.943)">
        <path id="Path_1474" data-name="Path 1474" d="M3.562-32.234H4.717v5.016H3.562Z" transform="translate(-3.562 32.234)"/>
      </g>
      <g id="Group_379" data-name="Group 379" transform="translate(87.582 101.261)">
        <path id="Path_1475" data-name="Path 1475" d="M5.7-21.881v.328h-2.7a.858.858,0,0,0,.292.61,1.1,1.1,0,0,0,.7.2,2.744,2.744,0,0,0,.746-.107,3.937,3.937,0,0,0,.785-.328v.89a4.95,4.95,0,0,1-.819.231,4.244,4.244,0,0,1-.819.08,2.172,2.172,0,0,1-1.522-.5,1.8,1.8,0,0,1-.542-1.4,1.823,1.823,0,0,1,.532-1.388,2.04,2.04,0,0,1,1.468-.508,1.837,1.837,0,0,1,1.361.513A1.859,1.859,0,0,1,5.7-21.881Zm-1.186-.384a.739.739,0,0,0-.192-.53.656.656,0,0,0-.5-.2.779.779,0,0,0-.545.19.863.863,0,0,0-.26.542Z" transform="translate(-1.829 23.765)"/>
      </g>
      <g id="Group_380" data-name="Group 380" transform="translate(0 106.544)">
        <path id="Path_1476" data-name="Path 1476" d="M3.616-32.234v.759H2.979a.506.506,0,0,0-.343.09.4.4,0,0,0-.1.306v.25h.987V-30H2.539v2.784H1.386V-30H.812v-.827h.574v-.25a1.09,1.09,0,0,1,.328-.873,1.539,1.539,0,0,1,1.019-.282Z" transform="translate(-0.812 32.234)"/>
      </g>
      <g id="Group_381" data-name="Group 381" transform="translate(19.8 106.926)">
        <path id="Path_1477" data-name="Path 1477" d="M2.288-29.781v1.024H3.48v.827H2.288V-26.4a.453.453,0,0,0,.1.343.643.643,0,0,0,.4.088h.591v.824h-.99a1.34,1.34,0,0,1-.968-.284,1.349,1.349,0,0,1-.284-.97v-1.529H.562v-.827h.574v-1.024Z" transform="translate(-0.562 29.781)"/>
      </g>
      <g id="Group_382" data-name="Group 382" transform="translate(23.423 106.544)">
        <path id="Path_1478" data-name="Path 1478" d="M7.193-29.417v2.2H6.031v-1.675a6.342,6.342,0,0,0-.022-.652.682.682,0,0,0-.071-.263.487.487,0,0,0-.185-.175.538.538,0,0,0-.263-.063.669.669,0,0,0-.569.28,1.289,1.289,0,0,0-.2.773v1.775H3.563v-5.016H4.718V-30.3a1.8,1.8,0,0,1,.552-.467,1.4,1.4,0,0,1,.649-.151,1.171,1.171,0,0,1,.948.384,1.685,1.685,0,0,1,.326,1.116Z" transform="translate(-3.563 32.235)"/>
      </g>
      <g id="Group_383" data-name="Group 383" transform="translate(34.948 106.748)">
        <path id="Path_1479" data-name="Path 1479" d="M3.891-30.922H5.276l1.75,3.3v-3.3H8.2v4.811H6.818l-1.75-3.3v3.3H3.891Z" transform="translate(-3.891 30.922)"/>
      </g>
      <g id="Group_384" data-name="Group 384" transform="translate(56.705 106.748)">
        <path id="Path_1480" data-name="Path 1480" d="M3.89-30.922H5.949a2.151,2.151,0,0,1,1.41.408,1.422,1.422,0,0,1,.491,1.16,1.434,1.434,0,0,1-.491,1.167,2.158,2.158,0,0,1-1.41.406H5.133v1.67H3.89Zm1.242.9v1.342h.686a.811.811,0,0,0,.557-.175.632.632,0,0,0,.2-.5.622.622,0,0,0-.2-.494.811.811,0,0,0-.557-.175Z" transform="translate(-3.89 30.922)"/>
      </g>
      <g id="Group_385" data-name="Group 385" transform="translate(68.509 106.544)">
        <path id="Path_1481" data-name="Path 1481" d="M-.633-30.829H.522v3.545a1.586,1.586,0,0,1-.35,1.109,1.3,1.3,0,0,1-1.009.382h-.569v-.759h.2a.561.561,0,0,0,.45-.148.964.964,0,0,0,.124-.583Zm0-1.405H.522v.941H-.633Z" transform="translate(1.406 32.234)"/>
      </g>
      <g id="Group_386" data-name="Group 386" transform="translate(79.468 106.926)">
        <path id="Path_1482" data-name="Path 1482" d="M2.288-29.781v1.024H3.48v.827H2.288V-26.4a.453.453,0,0,0,.1.343.643.643,0,0,0,.4.088h.591v.824h-.99a1.34,1.34,0,0,1-.968-.284,1.349,1.349,0,0,1-.284-.97v-1.529H.562v-.827h.574v-1.024Z" transform="translate(-0.562 29.781)"/>
      </g>
    </g>
  </g>
</svg>
