<svg xmlns="http://www.w3.org/2000/svg" xmlns:xlink="http://www.w3.org/1999/xlink" width="83" height="83" viewBox="0 0 83 83">
  <defs>
    <clipPath id="clip-path">
      <rect id="Rectangle_1" data-name="Rectangle 1" width="83" height="83" transform="translate(682 113.111)" fill="#fff" stroke="#707070" stroke-width="1"/>
    </clipPath>
  </defs>
  <g id="Mask_Group_1" data-name="Mask Group 1" transform="translate(-682 -113.111)" clip-path="url(#clip-path)">
    <g id="noun-depression-4728806" transform="translate(682 115.768)">
      <path id="Path_1" data-name="Path 1" d="M231.823,232.566A19.492,19.492,0,0,0,218.706,251a3.909,3.909,0,0,0,3.906,3.905h31.244A3.92,3.92,0,0,0,257.762,251a19.573,19.573,0,0,0-13.117-18.437c13.372-6.822,8.681-26.955-6.41-27.128-15.094.174-19.778,20.309-6.41,27.128Zm18.376,6.467A16.855,16.855,0,0,1,255.158,251a1.275,1.275,0,0,1-.4.928,1.253,1.253,0,0,1-.9.374H249.95v-2.6a1.3,1.3,0,1,0-2.6,0v2.6H229.121v-2.6a1.3,1.3,0,1,0-2.6,0v2.6h-3.906a1.3,1.3,0,0,1-1.3-1.3,16.972,16.972,0,0,1,11.8-16.124,5.193,5.193,0,0,0,10.253,0,16.942,16.942,0,0,1,6.839,4.154Zm-14.57-4.955v-.247a13.959,13.959,0,0,0,5.207,0A2.608,2.608,0,1,1,235.63,234.079Zm14.32-14.32a11.677,11.677,0,0,1-8.2,11.177c-7.285,2.47-15.436-3.463-15.231-11.178.643-15.542,22.791-15.54,23.433,0Z" transform="translate(-196.904 -178.153)"/>
      <path id="Path_2" data-name="Path 2" d="M317.021,340.269a5.237,5.237,0,0,1,6.248,0,1.3,1.3,0,0,0,1.823-.26c1.508-2.509-4.358-3.521-4.947-3.384a7.863,7.863,0,0,0-4.687,1.562A1.3,1.3,0,0,0,317.021,340.269Z" transform="translate(-278.815 -289.811)"/>
      <path id="Path_3" data-name="Path 3" d="M476.356,105.657a3.91,3.91,0,0,0-3.906,3.906,1.3,1.3,0,0,0,2.6,0,1.3,1.3,0,0,1,1.3-1.3c5.149-.134,5.149-7.677,0-7.811h-2.6a1.3,1.3,0,1,0,0,2.6h2.6A1.3,1.3,0,0,1,476.356,105.657Z" transform="translate(-412.895 -88.786)"/>
      <path id="Path_4" data-name="Path 4" d="M473.862,179.2a1.3,1.3,0,0,0,0,2.6A1.3,1.3,0,0,0,473.862,179.2Z" transform="translate(-413.005 -155.819)"/>
      <path id="Path_5" data-name="Path 5" d="M372.9,45.858c.33,8.215,10.856,11.762,16.085,5.42,6.967,8.442,19.653-.91,13.592-10.07,4.962-6.745-2.62-16.13-10.26-12.647-1.523-8.648-13.841-8.676-15.412-.046-9.75-.02-12.748,13.121-4,17.344Zm3.9-14.74c.67-.041,1.573.368,2.162-.2a1.3,1.3,0,0,0,.442-1.165c.423-7.422,11.273-6.445,10.323.928a1.31,1.31,0,0,0,2.133,1.2,5.852,5.852,0,0,1,8.093,8.431,1.3,1.3,0,0,0,0,1.777,5.854,5.854,0,1,1-9.7,6.209,1.313,1.313,0,0,0-2.379-.068c-3.074,6.366-12.748,3.906-12.357-3.166a1.3,1.3,0,0,0-.868-1.307c-6.837-2.452-5.121-12.587,2.15-12.646Z" transform="translate(-323.749 -22.057)"/>
      <path id="Path_6" data-name="Path 6" d="M467.855,240.45c-5.15.135-5.149,7.677,0,7.811C473.005,248.126,473,240.584,467.855,240.45Zm0,2.6a1.3,1.3,0,0,1,0,2.6A1.3,1.3,0,0,1,467.855,243.054Z" transform="translate(-405.697 -207.956)"/>
      <path id="Path_7" data-name="Path 7" d="M454.95,294.363a1.3,1.3,0,0,0,2.6,0A1.3,1.3,0,0,0,454.95,294.363Z" transform="translate(-397.999 -252.757)"/>
      <path id="Path_8" data-name="Path 8" d="M196.356,96.907a3.909,3.909,0,0,0-3.906,3.906,1.3,1.3,0,0,0,2.6,0,1.3,1.3,0,0,1,1.3-1.3c5.149-.134,5.149-7.677,0-7.811h-2.6a1.3,1.3,0,0,0,0,2.6h2.6A1.3,1.3,0,0,1,196.356,96.907Z" transform="translate(-174.555 -81.338)"/>
      <path id="Path_9" data-name="Path 9" d="M193.862,170.45a1.3,1.3,0,0,0,0,2.6A1.3,1.3,0,0,0,193.862,170.45Z" transform="translate(-174.665 -148.371)"/>
      <path id="Path_10" data-name="Path 10" d="M95.784,54.547a8.428,8.428,0,0,0,6.687-3.274c5.232,6.346,15.758,2.792,16.085-5.419,8.748-4.227,5.742-17.363-4-17.344-1.574-8.637-13.893-8.6-15.412.046C91.364,25.18,83.971,34.3,88.88,41.2c-4,5.4.177,13.474,6.9,13.344ZM99.6,31.884a1.31,1.31,0,0,0,2.133-1.2c-.953-7.362,9.893-8.357,10.322-.93a1.308,1.308,0,0,0,.442,1.168c.588.564,1.492.155,2.162.2,7.264.059,8.994,10.191,2.15,12.646a1.3,1.3,0,0,0-.868,1.307c.389,7.068-9.279,9.537-12.358,3.166a1.313,1.313,0,0,0-2.379.068c-2.427,5.888-11.248,4.159-11.28-2.216a5.836,5.836,0,0,1,1.582-3.993,1.3,1.3,0,0,0,0-1.777C86.6,34.874,93.959,27.205,99.6,31.884Z" transform="translate(-85.048 -22.053)"/>
      <path id="Path_11" data-name="Path 11" d="M187.855,240.45c-5.15.135-5.149,7.677,0,7.811C193.005,248.126,193,240.584,187.855,240.45Zm0,5.208a1.3,1.3,0,0,1,0-2.6A1.3,1.3,0,0,1,187.855,245.657Z" transform="translate(-167.356 -207.956)"/>
      <path id="Path_12" data-name="Path 12" d="M230.054,294.363a1.3,1.3,0,0,0-2.6,0A1.3,1.3,0,0,0,230.054,294.363Z" transform="translate(-204.347 -252.757)"/>
      <g id="Group_1" data-name="Group 1" transform="translate(0 94.734)">
        <path id="Path_13" data-name="Path 13" d="M6.209-27.9a3.108,3.108,0,0,1-.7.263,3.145,3.145,0,0,1-.76.091,2.613,2.613,0,0,1-1.881-.663,2.372,2.372,0,0,1-.693-1.8,2.372,2.372,0,0,1,.693-1.8,2.613,2.613,0,0,1,1.881-.663,3.234,3.234,0,0,1,.76.088,3.09,3.09,0,0,1,.7.265v.981a2.685,2.685,0,0,0-.672-.339,2.206,2.206,0,0,0-.7-.109,1.309,1.309,0,0,0-1.03.421,1.67,1.67,0,0,0-.374,1.155,1.674,1.674,0,0,0,.374,1.155,1.311,1.311,0,0,0,1.03.418,2.239,2.239,0,0,0,.7-.107,2.718,2.718,0,0,0,.672-.342Z" transform="translate(-2.171 32.469)"/>
      </g>
      <g id="Group_2" data-name="Group 2" transform="translate(5.001 95.92)">
        <path id="Path_14" data-name="Path 14" d="M6.317-23.444a1.5,1.5,0,0,0-.3-.1,1.273,1.273,0,0,0-.3-.035.837.837,0,0,0-.677.281,1.226,1.226,0,0,0-.235.807v1.639H3.672v-3.559H4.811v.584a1.443,1.443,0,0,1,.5-.509A1.376,1.376,0,0,1,6-24.5c.037,0,.078,0,.123,0s.109.01.193.021Z" transform="translate(-3.672 24.499)"/>
      </g>
      <g id="Group_3" data-name="Group 3" transform="translate(7.943 95.92)">
        <path id="Path_15" data-name="Path 15" d="M5.7-22.645v.325H3.034a.846.846,0,0,0,.288.6,1.08,1.08,0,0,0,.7.2,2.741,2.741,0,0,0,.735-.1,3.777,3.777,0,0,0,.774-.323v.876a4.748,4.748,0,0,1-.807.23,4.23,4.23,0,0,1-.807.079,2.147,2.147,0,0,1-1.5-.491,1.78,1.78,0,0,1-.535-1.379A1.8,1.8,0,0,1,2.4-24a2.021,2.021,0,0,1,1.448-.5,1.813,1.813,0,0,1,1.344.507,1.824,1.824,0,0,1,.5,1.348Zm-1.169-.377a.724.724,0,0,0-.191-.523.647.647,0,0,0-.493-.2.776.776,0,0,0-.539.186.866.866,0,0,0-.256.537Z" transform="translate(-1.874 24.5)"/>
      </g>
      <g id="Group_4" data-name="Group 4" transform="translate(12.358 95.92)">
        <path id="Path_16" data-name="Path 16" d="M3.738-22.457a.964.964,0,0,0-.535.121.4.4,0,0,0-.179.356.421.421,0,0,0,.144.339.606.606,0,0,0,.4.121.714.714,0,0,0,.539-.23.8.8,0,0,0,.221-.577v-.13Zm1.739-.43v2.032H4.331v-.528a1.481,1.481,0,0,1-.516.472,1.5,1.5,0,0,1-.7.149,1.265,1.265,0,0,1-.9-.323,1.094,1.094,0,0,1-.344-.837,1.029,1.029,0,0,1,.43-.918,2.455,2.455,0,0,1,1.353-.293h.672v-.091a.426.426,0,0,0-.214-.4,1.349,1.349,0,0,0-.665-.126,2.949,2.949,0,0,0-.679.074,2.336,2.336,0,0,0-.586.219v-.867a6.123,6.123,0,0,1,.735-.135,5.932,5.932,0,0,1,.737-.046,2.061,2.061,0,0,1,1.39.381,1.573,1.573,0,0,1,.428,1.232Z" transform="translate(-1.876 24.501)"/>
      </g>
      <g id="Group_5" data-name="Group 5" transform="translate(16.557 94.995)">
        <path id="Path_17" data-name="Path 17" d="M2.282-30.719v1.011H3.454v.814H2.282v1.509a.448.448,0,0,0,.1.337.621.621,0,0,0,.391.086h.586v.814H2.38a1.321,1.321,0,0,1-.955-.281,1.321,1.321,0,0,1-.281-.955v-1.509H.578v-.814h.565v-1.011Z" transform="translate(-0.578 30.719)"/>
      </g>
      <g id="Group_6" data-name="Group 6" transform="translate(19.862 95.92)">
        <path id="Path_18" data-name="Path 18" d="M5.7-22.645v.325H3.034a.846.846,0,0,0,.288.6,1.08,1.08,0,0,0,.7.2,2.741,2.741,0,0,0,.735-.1,3.777,3.777,0,0,0,.774-.323v.876a4.748,4.748,0,0,1-.807.23,4.23,4.23,0,0,1-.807.079,2.147,2.147,0,0,1-1.5-.491,1.78,1.78,0,0,1-.535-1.379A1.8,1.8,0,0,1,2.4-24a2.021,2.021,0,0,1,1.448-.5,1.813,1.813,0,0,1,1.344.507,1.824,1.824,0,0,1,.5,1.348Zm-1.169-.377a.724.724,0,0,0-.191-.523.647.647,0,0,0-.493-.2.776.776,0,0,0-.539.186.866.866,0,0,0-.256.537Z" transform="translate(-1.874 24.5)"/>
      </g>
      <g id="Group_7" data-name="Group 7" transform="translate(24.291 94.621)">
        <path id="Path_19" data-name="Path 19" d="M4.644-31.328v-1.906H5.788v4.945H4.644V-28.8a1.546,1.546,0,0,1-.518.46,1.411,1.411,0,0,1-.656.146,1.329,1.329,0,0,1-1.081-.523,2.079,2.079,0,0,1-.421-1.346,2.079,2.079,0,0,1,.421-1.346,1.329,1.329,0,0,1,1.081-.523,1.391,1.391,0,0,1,.653.149,1.546,1.546,0,0,1,.521.458Zm-.751,2.3a.642.642,0,0,0,.558-.267,1.312,1.312,0,0,0,.193-.774,1.319,1.319,0,0,0-.193-.776.643.643,0,0,0-.558-.267.644.644,0,0,0-.556.267,1.328,1.328,0,0,0-.191.776,1.321,1.321,0,0,0,.191.774A.643.643,0,0,0,3.894-29.024Z" transform="translate(-1.969 33.234)"/>
      </g>
      <g id="Group_8" data-name="Group 8" transform="translate(31.47 94.621)">
        <path id="Path_20" data-name="Path 20" d="M5.566-29.024a.646.646,0,0,0,.558-.267,1.312,1.312,0,0,0,.193-.774,1.319,1.319,0,0,0-.193-.776.648.648,0,0,0-.558-.267.65.65,0,0,0-.56.27,1.3,1.3,0,0,0-.2.774,1.306,1.306,0,0,0,.2.774.651.651,0,0,0,.56.267Zm-.756-2.3a1.541,1.541,0,0,1,.521-.458,1.409,1.409,0,0,1,.658-.149,1.331,1.331,0,0,1,1.081.523,2.074,2.074,0,0,1,.423,1.346,2.074,2.074,0,0,1-.423,1.346,1.331,1.331,0,0,1-1.081.523,1.409,1.409,0,0,1-.658-.149,1.566,1.566,0,0,1-.521-.458v.514H3.672v-4.945H4.811Z" transform="translate(-3.672 33.234)"/>
      </g>
      <g id="Group_9" data-name="Group 9" transform="translate(35.662 96.006)">
        <path id="Path_21" data-name="Path 21" d="M.531-23.922H1.67l.955,2.415.814-2.415H4.579l-1.5,3.9a1.884,1.884,0,0,1-.528.83,1.242,1.242,0,0,1-.793.237H1.1V-19.7h.356A.743.743,0,0,0,1.88-19.8a.6.6,0,0,0,.207-.33l.03-.1Z" transform="translate(-0.531 23.922)"/>
      </g>
      <g id="Group_10" data-name="Group 10" transform="translate(42.689 94.82)">
        <path id="Path_22" data-name="Path 22" d="M4.015-31.891H5.238v3.82h2.15v.925H4.015Z" transform="translate(-4.015 31.891)"/>
      </g>
      <g id="Group_11" data-name="Group 11" transform="translate(46.837 94.82)">
        <path id="Path_23" data-name="Path 23" d="M4.016-31.891H5.238v2.843a1.41,1.41,0,0,0,.193.842.738.738,0,0,0,.628.253.738.738,0,0,0,.63-.253,1.415,1.415,0,0,0,.193-.842v-2.843H8.107v2.843a2.008,2.008,0,0,1-.507,1.5,2.128,2.128,0,0,1-1.541.493,2.128,2.128,0,0,1-1.539-.493,2.012,2.012,0,0,1-.5-1.5Z" transform="translate(-4.016 31.891)"/>
      </g>
      <g id="Group_12" data-name="Group 12" transform="translate(51.558 94.82)">
        <path id="Path_24" data-name="Path 24" d="M.219-31.891H4.592v.925H3.018v3.82H1.795v-3.82H.219Z" transform="translate(-0.219 31.891)"/>
      </g>
      <g id="Group_13" data-name="Group 13" transform="translate(56.563 94.82)">
        <path id="Path_25" data-name="Path 25" d="M4.016-31.891h3.3v.925H5.238v.883H7.194v.925H5.238v2.011H4.016Z" transform="translate(-4.016 31.891)"/>
      </g>
      <g id="Group_14" data-name="Group 14" transform="translate(61.009 94.82)">
        <path id="Path_26" data-name="Path 26" d="M4.016-31.891H5.238v4.745H4.016Z" transform="translate(-4.016 31.891)"/>
      </g>
      <g id="Group_15" data-name="Group 15" transform="translate(65.424 94.734)">
        <path id="Path_27" data-name="Path 27" d="M6.712-27.992a4.373,4.373,0,0,1-.951.335,4.588,4.588,0,0,1-1.016.112,2.613,2.613,0,0,1-1.881-.663,2.372,2.372,0,0,1-.693-1.8,2.349,2.349,0,0,1,.7-1.8,2.728,2.728,0,0,1,1.934-.658,4.534,4.534,0,0,1,.907.088,3.818,3.818,0,0,1,.821.265v.981a3.622,3.622,0,0,0-.79-.337,2.874,2.874,0,0,0-.788-.112,1.492,1.492,0,0,0-1.125.409,1.612,1.612,0,0,0-.4,1.167,1.649,1.649,0,0,0,.381,1.165,1.406,1.406,0,0,0,1.083.409,2.482,2.482,0,0,0,.353-.023,1.283,1.283,0,0,0,.3-.074v-.923H4.8v-.818H6.712Z" transform="translate(-2.172 32.469)"/>
      </g>
      <g id="Group_16" data-name="Group 16" transform="translate(70.476 94.82)">
        <path id="Path_28" data-name="Path 28" d="M3.664-28.011H1.751l-.3.865H.219l1.757-4.745H3.434l1.757,4.745H3.962Zm-1.609-.881h1.3L2.707-30.78Z" transform="translate(-0.219 31.891)"/>
      </g>
      <g id="Group_17" data-name="Group 17" transform="translate(76.078 94.82)">
        <path id="Path_29" data-name="Path 29" d="M4.016-31.891H5.383l1.725,3.255v-3.255h1.16v4.745H6.9L5.176-30.4v3.255H4.016Z" transform="translate(-4.016 31.891)"/>
      </g>
      <g id="Group_18" data-name="Group 18" transform="translate(81.526 94.82)">
        <path id="Path_30" data-name="Path 30" d="M4.016-31.891H5.238v4.745H4.016Z" transform="translate(-4.016 31.891)"/>
      </g>
      <g id="Group_19" data-name="Group 19" transform="translate(85.649 94.82)">
        <path id="Path_31" data-name="Path 31" d="M3.664-28.011H1.751l-.3.865H.219l1.757-4.745H3.434l1.757,4.745H3.962Zm-1.609-.881h1.3L2.707-30.78Z" transform="translate(-0.219 31.891)"/>
      </g>
      <g id="Group_20" data-name="Group 20" transform="translate(91.252 94.82)">
        <path id="Path_32" data-name="Path 32" d="M4.015-31.891H5.238v3.82h2.15v.925H4.015Z" transform="translate(-4.015 31.891)"/>
      </g>
    </g>
  </g>
</svg>
