<svg xmlns="http://www.w3.org/2000/svg" width="79.7" height="85.8" viewBox="0 0 79.7 85.8">
  <g id="calendar-ramadan-date-svgrepo-com" transform="translate(-20.2 -17.1)">
    <path id="Path_57102" data-name="Path 57102" d="M29.6,102.9H90.5a9.389,9.389,0,0,0,9.4-9.4V29.9A12.761,12.761,0,0,0,87.1,17.1H33A12.761,12.761,0,0,0,20.2,29.9V93.4A9.411,9.411,0,0,0,29.6,102.9Z" fill="#f9f9f9"/>
    <path id="Path_57103" data-name="Path 57103" d="M20.2,28.9V42.4H99.9V28.9c0-6.5-4.9-11.7-10.9-11.7H31.1C25.1,17.1,20.2,22.4,20.2,28.9Z" fill="#efefef"/>
    <g id="Group_6300" data-name="Group 6300">
      <path id="Path_57104" data-name="Path 57104" d="M71.8,86.8h-1A20.84,20.84,0,0,1,54.6,52.9a.854.854,0,0,0-1-1.3A20.867,20.867,0,1,0,72.4,88.4.9.9,0,0,0,71.8,86.8Z" fill="#ffca29"/>
      <path id="Path_57105" data-name="Path 57105" d="M80.3,66a.786.786,0,0,0-.4-1.3l-7.2-1.1a.822.822,0,0,1-.6-.4l-3.2-6.5a.694.694,0,0,0-1.3,0l-3.2,6.5a.675.675,0,0,1-.6.4l-7.2,1.1a.746.746,0,0,0-.4,1.3l5.2,5.1a.618.618,0,0,1,.2.7L60.4,79a.755.755,0,0,0,1.1.8L68,76.4a.854.854,0,0,1,.7,0l6.5,3.4a.755.755,0,0,0,1.1-.8l-1.2-7.2a.952.952,0,0,1,.2-.7Z" fill="#ffca29"/>
    </g>
  </g>
</svg>
