<svg xmlns="http://www.w3.org/2000/svg" width="823" height="691" viewBox="0 0 823 691">
  <g id="noun-ramadan-1777269" transform="translate(-12 -78)">
    <g id="Group_391" data-name="Group 391">
      <path id="Path_1492" data-name="Path 1492" d="M423,78c228,0,412,184,412,411A410.6,410.6,0,0,1,725,769V676h7c3,0,3-11,0-11h-7V603h7c2,0,2-11,0-11h-7V569c15-7,24-18,24-31,0-28-33-23-49-60-17,37-50,32-50,60,0,13,10,24,24,31v23h-6c-3,0-3,11,0,11h6v62h-7c-3,0-3,11,0,11h7v66H616c11-7,17-17,17-28,0-30-35-25-53-64-18,39-54,34-54,64,0,11,7,21,18,28H479V680c14-9,23-22,23-36,0-40-50-34-77-83a29.523,29.523,0,0,0,24-8c-5,2-11,2-17,0-15-5-24-21-19-36,2-7,7-13,12-17-12,1-22,10-26,22a30.821,30.821,0,0,0,23,39c-27,49-77,43-77,83,0,14,8,27,23,36v62H303c11-7,17-17,17-28,0-30-35-25-53-64-18,39-54,34-54,64,0,11,7,21,18,28H172V676h8c3,0,3-11,0-11h-8V603h7c3,0,3-11,0-11h-7V569c15-7,25-18,25-31,0-28-33-23-50-60-17,37-50,32-50,60,0,13,10,24,25,31v23h-7c-2,0-2,11,0,11h7v62h-8c-2,0-2,11,0,11h8v93A410.6,410.6,0,0,1,12,489C12,262,196,78,423,78ZM540,528l2,7h8l-6,4,2,7-6-4-6,4,2-7-6-4h8ZM167,316l2,5h5l-4,4,2,5-5-3-5,3,2-5-5-4h6Zm463-26,2,6h5l-4,3,1,5-4-3-5,3,2-5-5-3h6ZM342,269l2,5h6l-5,4,2,5-5-3-4,3,2-5-5-4h6Zm112,58,2,5h6l-5,3,2,6-5-4-4,4,1-6-4-3h6ZM291,552l2,5h5l-4,4,2,5-5-3-5,3,2-5-5-4h6ZM603,154l4,12h13l-11,7,4,12-10-7-10,7,4-12-10-7h12ZM778,452l2,5h5l-4,4,2,5-5-3-5,3,2-5-4-4h5ZM494,177l1,5h6l-5,4,2,5-4-3-5,3,2-5-5-4h6ZM104,344l3,7h7l-6,4,2,7-6-4-6,4,3-7-6-4h7Zm619,38,4,12h12l-10,8,4,11-10-7-10,7,4-11-11-8h13ZM294,184l2,6h5l-4,3,2,6-5-4-5,4,2-6-5-3h6ZM260,421l2,7h8l-6,4,2,7-6-4-6,4,3-7-6-4h7ZM246,210l5,14h15l-12,9,4,14-12-9-12,9,5-14-12-9h15ZM575,467l2,6h6l-5,3,2,5-5-3-4,3,1-5-4-3h6Zm-2-167,2,7h8l-6,4,2,7-6-4-6,4,3-7-6-4h7ZM411,354l6,16h17l-14,10,5,17-14-10-14,10,6-17-14-10h17Z" fill="#033" fill-rule="evenodd"/>
    </g>
  </g>
</svg>
