<svg xmlns="http://www.w3.org/2000/svg" width="91.664" height="91.664" viewBox="0 0 91.664 91.664">
  <g id="noun-ramadan-6725571" transform="translate(-4.168 -4.168)">
    <g id="Group_6301" data-name="Group 6301">
      <path id="Path_57106" data-name="Path 57106" d="M47.785,4.223a45.776,45.776,0,1,0,46.637,34.46.533.533,0,0,0-1.047.18c.043.5.078,1,.105,1.5a33.736,33.736,0,0,1-11.906,27.41V66.394a.228.228,0,0,0-.227-.23H80.121a2.562,2.562,0,0,0-.613-1.309,6.664,6.664,0,0,0-1.4-1.223A15.475,15.475,0,0,0,75.633,62.3l-.387-2.5a1.851,1.851,0,0,0-.133-3.535,1.816,1.816,0,0,0-.707-.047.207.207,0,0,0-.18.176.2.2,0,0,0,.125.215,1.042,1.042,0,0,1-.68,1.965,1.073,1.073,0,0,1-.492-.3.2.2,0,0,0-.246-.043.207.207,0,0,0-.105.227,1.857,1.857,0,0,0,1.328,1.383,1.75,1.75,0,0,0,.566.059l-.367,2.4a15.5,15.5,0,0,0-2.48,1.336,6.76,6.76,0,0,0-1.4,1.223,2.562,2.562,0,0,0-.613,1.309H68.64a.228.228,0,0,0-.227.23v8.25q-1.008.27-2.031.473V62.875h.34a1.7,1.7,0,0,0,0-3.4H65.59l-.551-18.723c.191-.117.4-.25.605-.4a5.25,5.25,0,0,0,1.059-.984,1.961,1.961,0,0,0,0-2.668,5.229,5.229,0,0,0-1.059-.98c-.184-.133-.363-.25-.531-.355l-.8-3.437a1.638,1.638,0,0,0,.492-.062,1.736,1.736,0,0,0,1.246-1.3.339.339,0,0,0-.578-.309.735.735,0,0,1-.344.207A.724.724,0,0,1,64.66,29.1a.339.339,0,0,0,.207-.359.344.344,0,0,0-.3-.289,1.675,1.675,0,0,0-.664.047,1.741,1.741,0,0,0-.2,3.3l-.824,3.563c-.168.105-.348.223-.531.355a5.23,5.23,0,0,0-1.059.98,1.961,1.961,0,0,0,0,2.668,5.25,5.25,0,0,0,1.059.984c.207.148.414.281.6.4L62.41,59.472H61.6a4.244,4.244,0,0,0-1.016-2.164,10.986,10.986,0,0,0-2.312-2.023,25.66,25.66,0,0,0-4.1-2.211l-.715-4.652a3.076,3.076,0,0,0,3.238-2.383.338.338,0,0,0-.578-.3,1.723,1.723,0,1,1-1.941-2.758.331.331,0,0,0,.2-.359.336.336,0,0,0-.293-.289,3.062,3.062,0,0,0-1.293,5.961l-.738,4.785a25.646,25.646,0,0,0-4.1,2.211,10.891,10.891,0,0,0-2.312,2.023,4.212,4.212,0,0,0-1.016,2.164h-.812l-.551-18.723c.191-.117.4-.25.6-.4a5.27,5.27,0,0,0,1.063-.984,1.961,1.961,0,0,0,0-2.668,5.249,5.249,0,0,0-1.062-.98c-.18-.133-.359-.25-.531-.355l-.793-3.437a1.613,1.613,0,0,0,.488-.062,1.735,1.735,0,0,0,1.25-1.3.341.341,0,0,0-.172-.379.345.345,0,0,0-.41.07.7.7,0,0,1-.34.207.724.724,0,0,1-.473-1.363.331.331,0,0,0,.2-.359.336.336,0,0,0-.293-.289,1.694,1.694,0,0,0-.668.047,1.742,1.742,0,0,0-.191,3.3l-.824,3.563c-.168.105-.352.223-.531.355a5.23,5.23,0,0,0-1.059.98,1.951,1.951,0,0,0,0,2.668,5.25,5.25,0,0,0,1.059.984c.207.148.414.281.6.4l-.551,18.723H39.5a1.7,1.7,0,1,0,0,3.4h.34v6.41A33.789,33.789,0,0,1,69.273,9.578a.533.533,0,0,0,.379-.992A45.614,45.614,0,0,0,47.785,4.223ZM46.519,73.082a33.247,33.247,0,0,1-3.957-2V68.32a2.2,2.2,0,0,1,.57-1.379,5.289,5.289,0,0,1,1.012-.906,1.379,1.379,0,0,1,1.6,0,5.288,5.288,0,0,1,1.012.906,2.2,2.2,0,0,1,.57,1.379v4.422a.34.34,0,0,1-.34.34ZM77.05,71.007a33.858,33.858,0,0,1-4.113,2.09V69.371c0-1.031,1.07-1.922,1.664-2.34a.682.682,0,0,1,.781,0c.6.418,1.668,1.309,1.668,2.34ZM80.3,68.8c-.781.6-1.594,1.168-2.43,1.7V69.043c0-.508.508-.957.871-1.211a.622.622,0,0,1,.727,0,2.1,2.1,0,0,1,.832.965ZM52.312,66.035a1.379,1.379,0,0,1,1.6,0,5.288,5.288,0,0,1,1.012.906,2.2,2.2,0,0,1,.57,1.379v4.422a.34.34,0,0,1-.34.34H51.07a.34.34,0,0,1-.34-.34V68.32a2.2,2.2,0,0,1,.57-1.379,5.289,5.289,0,0,1,1.012-.906Zm8.168,0a1.373,1.373,0,0,1,1.594,0,5.065,5.065,0,0,1,1.012.906,2.2,2.2,0,0,1,.574,1.379v4.422a.34.34,0,0,1-.34.34H59.234a.34.34,0,0,1-.34-.34V68.32a2.2,2.2,0,0,1,.574-1.379,5.066,5.066,0,0,1,1.012-.906Zm10.762,1.8c.367.254.871.7.871,1.211v2.672H69.645V69.043c0-.508.508-.957.871-1.211a.622.622,0,0,1,.727,0Z" fill="#ffca29" fill-rule="evenodd"/>
      <path id="Path_57107" data-name="Path 57107" d="M83.082,39.715a.543.543,0,0,0-.441-.234.531.531,0,0,0-.437.234l-.648.938-1.1.328a.536.536,0,0,0-.355.348.548.548,0,0,0,.086.488l.691.906-.027,1.145a.534.534,0,0,0,.711.516L82.641,44l1.078.379a.532.532,0,0,0,.711-.516L84.4,42.723l.7-.906a.536.536,0,0,0-.273-.836l-1.094-.328Z" fill="#ffca29"/>
      <path id="Path_57108" data-name="Path 57108" d="M84.148,49.324a.531.531,0,0,0-.437-.234.543.543,0,0,0-.441.234l-.27.391-.457.137a.536.536,0,0,0-.273.836l.289.379-.012.477a.529.529,0,0,0,.223.445.521.521,0,0,0,.488.07l.453-.156.449.156a.53.53,0,0,0,.492-.07.536.536,0,0,0,.219-.445l-.012-.477.289-.379a.548.548,0,0,0,.086-.488.536.536,0,0,0-.355-.348l-.461-.137Z" fill="#ffca29"/>
      <path id="Path_57109" data-name="Path 57109" d="M77.742,46.121a.531.531,0,0,0-.437-.234.543.543,0,0,0-.441.234l-.27.391-.457.137a.536.536,0,0,0-.273.836l.289.379-.012.477a.529.529,0,0,0,.223.445.521.521,0,0,0,.488.07L77.3,48.7l.449.156a.53.53,0,0,0,.492-.07.536.536,0,0,0,.219-.445l-.012-.477.289-.379A.548.548,0,0,0,78.828,47a.536.536,0,0,0-.355-.348l-.461-.137Z" fill="#ffca29"/>
      <path id="Path_57110" data-name="Path 57110" d="M89.488,43.984a.539.539,0,0,0-.441-.23.527.527,0,0,0-.437.23l-.273.391-.457.137a.536.536,0,0,0-.355.348.522.522,0,0,0,.086.488l.289.379-.012.48a.532.532,0,0,0,.711.516l.449-.16.453.16a.532.532,0,0,0,.488-.07.539.539,0,0,0,.223-.445l-.012-.48.289-.379a.536.536,0,0,0-.273-.836l-.457-.137Z" fill="#ffca29"/>
    </g>
  </g>
</svg>
