<svg xmlns="http://www.w3.org/2000/svg" width="20" height="20" viewBox="0 0 20 20">
  <g id="star-fall-2-svgrepo-com" transform="translate(-2 -2)">
    <path id="Path_57111" data-name="Path 57111" d="M11.58,4.776c.695-1.771,1.042-2.656,1.769-2.765s1.351.63,2.6,2.109l.323.383a2.749,2.749,0,0,0,.774.75,2.823,2.823,0,0,0,1.075.169l.506.03c1.955.114,2.933.172,3.272.811S21.713,7.7,20.666,9.294l-.271.413a2.6,2.6,0,0,0-.487.939,2.606,2.606,0,0,0,.179,1.044l.133.477c.514,1.842.77,2.762.253,3.266s-1.465.258-3.361-.235l-.49-.128a2.826,2.826,0,0,0-1.074-.17,2.733,2.733,0,0,0-.964.476l-.424.265c-1.638,1.024-2.456,1.536-3.115,1.208s-.721-1.278-.845-3.178l-.032-.492a2.61,2.61,0,0,0-.177-1.044,2.744,2.744,0,0,0-.775-.749l-.395-.313C7.294,9.865,6.531,9.261,6.641,8.554S7.661,7.507,9.48,6.825l.471-.176a2.726,2.726,0,0,0,.965-.475,2.6,2.6,0,0,0,.485-.94Z" fill="#ffca29"/>
    <g id="Group_6302" data-name="Group 6302" opacity="0.5">
      <path id="Path_57112" data-name="Path 57112" d="M5.31,9.593C2.873,11.921,1.275,15.806,2.331,22c.943-2.6,3.526-4.76,6.581-6.047a19.856,19.856,0,0,1-.2-2.08l-.039-.6c-.009-.139-.016-.243-.023-.334,0-.037-.006-.069-.009-.1l-.086-.072c-.072-.059-.157-.127-.268-.215l-.475-.377a17.672,17.672,0,0,1-1.783-1.532A3.515,3.515,0,0,1,5.31,9.593Z" fill="#ffca29"/>
      <path id="Path_57113" data-name="Path 57113" d="M10.347,15.423q-.008-.056-.015-.115l.056.1Z" fill="#ffca29"/>
    </g>
  </g>
</svg>
